<svg width="931" height="638" viewBox="0 0 931 638" fill="none" xmlns="http://www.w3.org/2000/svg">
<path d="M579.795 627.646H348.66L356.495 543.312H571.96L579.795 627.646Z" fill="#E6E6E6"/>
<path d="M595.465 617.915H336.908V637.377H595.465V617.915Z" fill="#E6E6E6"/>
<path d="M906.908 0H23.5052C17.2712 0 11.2926 2.05045 6.88451 5.70026C2.47644 9.35008 0 14.3003 0 19.4619V465.464H930.414V19.4619C930.414 14.3003 927.937 9.35008 923.529 5.70026C919.121 2.05045 913.142 0 906.908 0V0Z" fill="#3F3D56"/>
<path d="M0 465.464V538.446C0 541.002 0.607972 543.533 1.78922 545.894C2.97047 548.255 4.70186 550.4 6.88451 552.208C9.06717 554.015 11.6584 555.448 14.5102 556.426C17.3619 557.405 20.4184 557.908 23.5052 557.908H906.908C909.995 557.908 913.052 557.405 915.903 556.426C918.755 555.448 921.346 554.015 923.529 552.208C925.712 550.4 927.443 548.255 928.624 545.894C929.806 543.533 930.414 541.002 930.414 538.446V465.464H0Z" fill="#E6E6E6"/>
<path d="M885.362 40.5457H47.0103V429.784H885.362V40.5457Z" fill="#E6E6E6"/>
<path d="M466.186 530.337C479.168 530.337 489.692 521.624 489.692 510.875C489.692 500.126 479.168 491.413 466.186 491.413C453.205 491.413 442.681 500.126 442.681 510.875C442.681 521.624 453.205 530.337 466.186 530.337Z" fill="#3F3D56"/>
<path d="M73.1506 56.9861C75.6142 56.9861 77.6113 55.3325 77.6113 53.2927C77.6113 51.2529 75.6142 49.5994 73.1506 49.5994C70.6871 49.5994 68.6899 51.2529 68.6899 53.2927C68.6899 55.3325 70.6871 56.9861 73.1506 56.9861Z" fill="white"/>
<path d="M90.0823 56.9861C92.5458 56.9861 94.5429 55.3325 94.5429 53.2927C94.5429 51.2529 92.5458 49.5994 90.0823 49.5994C87.6187 49.5994 85.6216 51.2529 85.6216 53.2927C85.6216 55.3325 87.6187 56.9861 90.0823 56.9861Z" fill="white"/>
<path d="M107.014 56.9861C109.477 56.9861 111.475 55.3325 111.475 53.2927C111.475 51.2529 109.477 49.5994 107.014 49.5994C104.55 49.5994 102.553 51.2529 102.553 53.2927C102.553 55.3325 104.55 56.9861 107.014 56.9861Z" fill="white"/>
<path d="M861.2 65.8428H68.6899V392.739H861.2V65.8428Z" fill="white"/>
<path d="M289.75 113.883H116.536V239.144H289.75V113.883Z" fill="#E6E6E6"/>
<path d="M551.82 114.26H379.127V239.144H551.82V114.26Z" fill="#E6E6E6"/>
<path d="M813.354 113.034H638.967V239.144H813.354V113.034Z" fill="#E6E6E6"/>
<path d="M285.95 293.82H116.536V306.778H285.95V293.82Z" fill="#E6E6E6"/>
<path d="M201.417 316.633H116.536V329.591H201.417V316.633Z" fill="#F7F7FF"/>
<path d="M551.364 293.82H381.951V306.778H551.364V293.82Z" fill="#E6E6E6"/>
<path d="M466.832 316.633H381.951V329.591H466.832V316.633Z" fill="#F7F7FF"/>
<path d="M810.143 293.82H640.729V306.778H810.143V293.82Z" fill="#E6E6E6"/>
<path d="M725.61 316.633H640.729V329.591H725.61V316.633Z" fill="#F7F7FF"/>
<path d="M434.588 273.061C439.005 273.061 442.585 270.096 442.585 266.439C442.585 262.782 439.005 259.817 434.588 259.817C430.171 259.817 426.59 262.782 426.59 266.439C426.59 270.096 430.171 273.061 434.588 273.061Z" fill="#F7F7FF"/>
<path d="M464.945 273.061C469.362 273.061 472.943 270.096 472.943 266.439C472.943 262.782 469.362 259.817 464.945 259.817C460.528 259.817 456.947 262.782 456.947 266.439C456.947 270.096 460.528 273.061 464.945 273.061Z" fill="#E6E6E6"/>
<path d="M495.302 273.061C499.719 273.061 503.3 270.096 503.3 266.439C503.3 262.782 499.719 259.817 495.302 259.817C490.885 259.817 487.304 262.782 487.304 266.439C487.304 270.096 490.885 273.061 495.302 273.061Z" fill="#E6E6E6"/>
<path d="M172.785 273.061C177.202 273.061 180.783 270.096 180.783 266.439C180.783 262.782 177.202 259.817 172.785 259.817C168.368 259.817 164.788 262.782 164.788 266.439C164.788 270.096 168.368 273.061 172.785 273.061Z" fill="#F7F7FF"/>
<path d="M203.143 273.061C207.56 273.061 211.14 270.096 211.14 266.439C211.14 262.782 207.56 259.817 203.143 259.817C198.726 259.817 195.145 262.782 195.145 266.439C195.145 270.096 198.726 273.061 203.143 273.061Z" fill="#F7F7FF"/>
<path d="M233.5 273.061C237.917 273.061 241.498 270.096 241.498 266.439C241.498 262.782 237.917 259.817 233.5 259.817C229.083 259.817 225.502 262.782 225.502 266.439C225.502 270.096 229.083 273.061 233.5 273.061Z" fill="#E6E6E6"/>
<path d="M702.846 273.061C707.263 273.061 710.844 270.096 710.844 266.439C710.844 262.782 707.263 259.817 702.846 259.817C698.429 259.817 694.848 262.782 694.848 266.439C694.848 270.096 698.429 273.061 702.846 273.061Z" fill="#F7F7FF"/>
<path d="M733.203 273.061C737.62 273.061 741.201 270.096 741.201 266.439C741.201 262.782 737.62 259.817 733.203 259.817C728.786 259.817 725.206 262.782 725.206 266.439C725.206 270.096 728.786 273.061 733.203 273.061Z" fill="#F7F7FF"/>
<path d="M763.56 273.061C767.977 273.061 771.558 270.096 771.558 266.439C771.558 262.782 767.977 259.817 763.56 259.817C759.143 259.817 755.562 262.782 755.562 266.439C755.562 270.096 759.143 273.061 763.56 273.061Z" fill="#F7F7FF"/>
<path d="M726.16 139.378C717.391 139.378 708.819 141.531 701.527 145.565C694.236 149.599 688.553 155.333 685.197 162.041C681.841 168.749 680.963 176.13 682.674 183.251C684.385 190.373 688.608 196.914 694.809 202.048C701.009 207.182 708.91 210.679 717.51 212.095C726.111 213.512 735.026 212.785 743.128 210.006C751.229 207.227 758.154 202.522 763.026 196.485C767.898 190.448 770.498 183.35 770.498 176.089C770.464 166.362 765.781 157.041 757.474 150.162C749.166 143.284 737.909 139.407 726.16 139.378V139.378ZM726.16 150.392C728.791 150.392 731.363 151.038 733.55 152.248C735.737 153.458 737.442 155.178 738.449 157.19C739.456 159.203 739.719 161.417 739.206 163.554C738.693 165.69 737.426 167.652 735.566 169.193C733.705 170.733 731.335 171.782 728.755 172.207C726.175 172.632 723.5 172.414 721.07 171.58C718.639 170.746 716.562 169.335 715.101 167.524C713.639 165.713 712.859 163.583 712.859 161.405C712.871 158.487 714.276 155.692 716.768 153.628C719.26 151.565 722.636 150.401 726.16 150.392ZM726.16 203.411C720.906 203.391 715.736 202.31 711.101 200.262C706.465 198.213 702.502 195.26 699.557 191.656C699.771 184.314 717.293 180.272 726.16 180.272C735.028 180.272 752.55 184.314 752.763 191.656C749.815 195.257 745.852 198.209 741.217 200.257C736.582 202.305 731.414 203.387 726.16 203.411V203.411Z" fill="#F7F7FF"/>
<path d="M465.474 139.991C456.705 139.991 448.133 142.144 440.841 146.178C433.55 150.212 427.867 155.945 424.511 162.653C421.155 169.361 420.277 176.743 421.988 183.864C423.699 190.985 427.922 197.526 434.123 202.661C440.323 207.795 448.224 211.291 456.824 212.708C465.425 214.124 474.34 213.397 482.442 210.619C490.543 207.84 497.468 203.135 502.34 197.098C507.212 191.06 509.812 183.963 509.812 176.702C509.778 166.974 505.095 157.653 496.788 150.775C488.48 143.896 477.223 140.019 465.474 139.991V139.991ZM465.474 151.004C468.105 151.004 470.677 151.65 472.864 152.86C475.052 154.071 476.756 155.791 477.763 157.803C478.77 159.815 479.033 162.03 478.52 164.166C478.007 166.303 476.74 168.265 474.88 169.805C473.02 171.345 470.649 172.394 468.069 172.819C465.489 173.244 462.815 173.026 460.384 172.193C457.954 171.359 455.876 169.947 454.415 168.136C452.953 166.325 452.173 164.196 452.173 162.018C452.185 159.1 453.59 156.304 456.082 154.241C458.574 152.177 461.95 151.014 465.474 151.004V151.004ZM465.474 204.023C460.22 204.004 455.05 202.923 450.415 200.874C445.779 198.826 441.816 195.872 438.871 192.269C439.085 184.927 456.607 180.885 465.474 180.885C474.342 180.885 491.864 184.927 492.077 192.269C489.129 195.869 485.166 198.821 480.531 200.869C475.896 202.917 470.728 204 465.474 204.023V204.023Z" fill="#F7F7FF"/>
<path d="M203.143 139.802C194.373 139.802 185.801 141.956 178.51 145.989C171.218 150.023 165.536 155.757 162.18 162.465C158.824 169.173 157.946 176.554 159.657 183.675C161.367 190.797 165.59 197.338 171.791 202.472C177.992 207.606 185.892 211.103 194.493 212.519C203.093 213.936 212.008 213.209 220.11 210.43C228.212 207.652 235.136 202.946 240.008 196.909C244.88 190.872 247.481 183.774 247.481 176.514C247.446 166.786 242.764 157.465 234.456 150.586C226.149 143.708 214.891 139.831 203.143 139.802ZM203.143 150.816C205.773 150.816 208.345 151.462 210.532 152.672C212.72 153.882 214.425 155.602 215.432 157.615C216.438 159.627 216.702 161.841 216.188 163.978C215.675 166.114 214.408 168.076 212.548 169.617C210.688 171.157 208.318 172.206 205.738 172.631C203.157 173.056 200.483 172.838 198.052 172.004C195.622 171.171 193.545 169.759 192.083 167.948C190.621 166.137 189.841 164.007 189.841 161.829C189.853 158.911 191.258 156.116 193.75 154.052C196.242 151.989 199.619 150.826 203.143 150.816V150.816ZM203.143 203.835C197.888 203.815 192.719 202.734 188.083 200.686C183.447 198.637 179.485 195.684 176.54 192.08C176.753 184.738 194.275 180.696 203.143 180.696C212.01 180.696 229.532 184.738 229.745 192.08C226.797 195.681 222.834 198.633 218.199 200.681C213.564 202.729 208.396 203.811 203.143 203.835V203.835Z" fill="#F7F7FF"/>
</svg>
