<svg width="97" height="12" viewBox="0 0 97 12" fill="none" xmlns="http://www.w3.org/2000/svg">
<g filter="url(#filter0_d)">
<path d="M9.74 6.77C9.82667 6.77 9.89333 6.81 9.94 6.89C9.99333 6.97 10.02 7.08 10.02 7.22C10.02 7.48 9.95667 7.68667 9.83 7.84C9.45667 8.28667 9.09333 8.6 8.74 8.78C8.39333 8.96 7.97333 9.05 7.48 9.05C7.13333 9.05 6.81333 9.00667 6.52 8.92C6.22667 8.83333 5.87 8.70333 5.45 8.53C5.07 8.36333 4.70333 8.22667 4.35 8.12C4.01 8.74 3.5 9.05 2.82 9.05C2.44667 9.05 2.15 8.96667 1.93 8.8C1.70333 8.62667 1.59 8.40667 1.59 8.14C1.59 7.81333 1.74667 7.54333 2.06 7.33C2.37333 7.11 2.79 7 3.31 7H3.44L3.62 4.09C3.66 3.42333 3.78 2.87333 3.98 2.44C4.18 2.00667 4.45667 1.63667 4.81 1.33C5.11667 1.06333 5.46667 0.863333 5.86 0.73C6.25333 0.59 6.67 0.52 7.11 0.52C7.83 0.52 8.38333 0.706666 8.77 1.08C9.15667 1.45333 9.35 1.94 9.35 2.54C9.35 2.94667 9.27667 3.27667 9.13 3.53C8.98333 3.77667 8.78 3.9 8.52 3.9C8.33333 3.9 8.18667 3.85667 8.08 3.77C7.97333 3.67667 7.92 3.54667 7.92 3.38C7.92 3.32 7.93333 3.21 7.96 3.05C8 2.86333 8.02 2.69667 8.02 2.55C8.02 2.27 7.93667 2.05 7.77 1.89C7.61 1.72333 7.36333 1.64 7.03 1.64C6.44333 1.64 5.99 1.83333 5.67 2.22C5.35 2.6 5.14667 3.2 5.06 4.02L4.83 6.29C4.79667 6.61 4.75333 6.88667 4.7 7.12C5.12667 7.19333 5.66 7.31 6.3 7.47C6.67333 7.56333 6.96 7.63 7.16 7.67C7.36 7.71 7.53667 7.73 7.69 7.73C8.07667 7.73 8.40667 7.66667 8.68 7.54C8.96 7.40667 9.22333 7.19667 9.47 6.91C9.55 6.81667 9.64 6.77 9.74 6.77ZM17.0523 8.844C16.8363 8.9 16.5483 8.96 16.1883 9.024C15.8363 9.088 15.4203 9.12 14.9403 9.12C14.5163 9.12 14.1643 9.06 13.8843 8.94C13.6043 8.812 13.3763 8.636 13.2003 8.412C13.0243 8.18 12.9003 7.908 12.8283 7.596C12.7563 7.284 12.7203 6.94 12.7203 6.564V3.432H13.7043V6.348C13.7043 7.036 13.8043 7.524 14.0043 7.812C14.2123 8.1 14.5563 8.244 15.0363 8.244C15.1403 8.244 15.2443 8.24 15.3483 8.232C15.4603 8.224 15.5643 8.216 15.6603 8.208C15.7563 8.192 15.8403 8.18 15.9123 8.172C15.9843 8.156 16.0323 8.144 16.0563 8.136V3.432H17.0523V8.844ZM18.4923 6.228C18.4923 5.724 18.5723 5.288 18.7323 4.92C18.8923 4.552 19.1123 4.248 19.3923 4.008C19.6723 3.768 19.9963 3.592 20.3643 3.48C20.7403 3.36 21.1403 3.3 21.5643 3.3C21.8363 3.3 22.1043 3.32 22.3683 3.36C22.6403 3.392 22.9283 3.456 23.2323 3.552L23.0043 4.404C22.7403 4.308 22.4963 4.248 22.2723 4.224C22.0563 4.192 21.8363 4.176 21.6123 4.176C21.3243 4.176 21.0523 4.216 20.7963 4.296C20.5403 4.368 20.3163 4.488 20.1243 4.656C19.9403 4.816 19.7923 5.028 19.6803 5.292C19.5683 5.548 19.5123 5.86 19.5123 6.228C19.5123 6.58 19.5643 6.884 19.6683 7.14C19.7723 7.388 19.9163 7.596 20.1003 7.764C20.2923 7.924 20.5203 8.044 20.7843 8.124C21.0483 8.204 21.3403 8.244 21.6603 8.244C21.9163 8.244 22.1603 8.232 22.3923 8.208C22.6323 8.176 22.8923 8.112 23.1723 8.016L23.3163 8.844C23.0363 8.948 22.7523 9.02 22.4643 9.06C22.1763 9.108 21.8643 9.132 21.5283 9.132C21.0803 9.132 20.6683 9.072 20.2923 8.952C19.9243 8.824 19.6043 8.64 19.3323 8.4C19.0683 8.16 18.8603 7.86 18.7083 7.5C18.5643 7.132 18.4923 6.708 18.4923 6.228ZM26.4123 2.568C26.2043 2.568 26.0243 2.496 25.8723 2.352C25.7203 2.208 25.6443 2.012 25.6443 1.764C25.6443 1.516 25.7203 1.32 25.8723 1.176C26.0243 1.032 26.2043 0.96 26.4123 0.96C26.6283 0.96 26.8083 1.032 26.9523 1.176C27.1043 1.32 27.1803 1.516 27.1803 1.764C27.1803 2.012 27.1043 2.208 26.9523 2.352C26.8083 2.496 26.6283 2.568 26.4123 2.568ZM26.1603 4.26H24.5523V3.432H27.1443V6.852C27.1443 7.404 27.2203 7.776 27.3723 7.968C27.5243 8.152 27.7523 8.244 28.0563 8.244C28.2883 8.244 28.5003 8.216 28.6923 8.16C28.8923 8.104 29.0483 8.044 29.1603 7.98L29.3043 8.82C29.2563 8.844 29.1883 8.876 29.1003 8.916C29.0123 8.948 28.9083 8.98 28.7883 9.012C28.6763 9.044 28.5483 9.072 28.4043 9.096C28.2683 9.12 28.1243 9.132 27.9723 9.132C27.6203 9.132 27.3283 9.084 27.0963 8.988C26.8643 8.892 26.6763 8.748 26.5323 8.556C26.3963 8.364 26.3003 8.128 26.2443 7.848C26.1883 7.56 26.1603 7.228 26.1603 6.852V4.26ZM32.9643 8.292C33.2123 8.292 33.4323 8.284 33.6243 8.268C33.8243 8.252 33.9883 8.232 34.1163 8.208V6.552C33.9883 6.512 33.8323 6.48 33.6483 6.456C33.4723 6.432 33.2843 6.42 33.0843 6.42C32.9003 6.42 32.7203 6.436 32.5443 6.468C32.3683 6.492 32.2123 6.54 32.0763 6.612C31.9403 6.684 31.8283 6.78 31.7403 6.9C31.6523 7.012 31.6083 7.156 31.6083 7.332C31.6083 7.692 31.7283 7.944 31.9683 8.088C32.2163 8.224 32.5483 8.292 32.9643 8.292ZM32.8683 3.3C33.2843 3.3 33.6323 3.352 33.9123 3.456C34.2003 3.56 34.4323 3.704 34.6083 3.888C34.7843 4.072 34.9083 4.296 34.9803 4.56C35.0523 4.824 35.0883 5.112 35.0883 5.424V8.904C34.8563 8.944 34.5483 8.992 34.1643 9.048C33.7883 9.104 33.4003 9.132 33.0003 9.132C32.6963 9.132 32.4003 9.104 32.1123 9.048C31.8243 9 31.5683 8.912 31.3443 8.784C31.1203 8.648 30.9403 8.464 30.8043 8.232C30.6683 8 30.6003 7.704 30.6003 7.344C30.6003 7.024 30.6683 6.756 30.8043 6.54C30.9483 6.316 31.1283 6.136 31.3443 6C31.5683 5.864 31.8203 5.768 32.1003 5.712C32.3883 5.648 32.6763 5.616 32.9643 5.616C33.3563 5.616 33.7403 5.66 34.1163 5.748V5.472C34.1163 5.304 34.0963 5.144 34.0563 4.992C34.0243 4.832 33.9563 4.688 33.8523 4.56C33.7563 4.432 33.6203 4.332 33.4443 4.26C33.2763 4.18 33.0563 4.14 32.7843 4.14C32.4403 4.14 32.1403 4.164 31.8843 4.212C31.6283 4.26 31.4323 4.308 31.2963 4.356L31.1763 3.54C31.3123 3.476 31.5363 3.42 31.8483 3.372C32.1683 3.324 32.5083 3.3 32.8683 3.3ZM36.7563 3.588C37.1163 3.5 37.4723 3.432 37.8243 3.384C38.1843 3.336 38.5203 3.312 38.8323 3.312C39.5763 3.312 40.1363 3.504 40.5123 3.888C40.8963 4.272 41.0883 4.888 41.0883 5.736V9H40.1043V5.916C40.1043 5.556 40.0723 5.264 40.0083 5.04C39.9443 4.816 39.8523 4.644 39.7323 4.524C39.6203 4.396 39.4803 4.308 39.3123 4.26C39.1523 4.212 38.9763 4.188 38.7843 4.188C38.6243 4.188 38.4523 4.2 38.2683 4.224C38.0923 4.24 37.9203 4.264 37.7523 4.296V9H36.7563V3.588ZM44.8203 3.432H47.1723V4.26H44.8203V6.852C44.8203 7.132 44.8403 7.36 44.8803 7.536C44.9203 7.712 44.9843 7.856 45.0723 7.968C45.1683 8.072 45.2883 8.144 45.4323 8.184C45.5763 8.224 45.7523 8.244 45.9603 8.244C46.2483 8.244 46.4803 8.22 46.6563 8.172C46.8323 8.124 47.0003 8.06 47.1603 7.98L47.3043 8.82C47.1923 8.868 47.0123 8.932 46.7643 9.012C46.5243 9.092 46.2243 9.132 45.8643 9.132C45.4483 9.132 45.1083 9.084 44.8443 8.988C44.5803 8.892 44.3723 8.748 44.2203 8.556C44.0763 8.364 43.9763 8.128 43.9203 7.848C43.8643 7.56 43.8363 7.228 43.8363 6.852V4.26H42.6603V3.432H43.8363V1.872L44.8203 1.704V3.432ZM53.0523 8.844C52.8363 8.9 52.5483 8.96 52.1883 9.024C51.8363 9.088 51.4203 9.12 50.9403 9.12C50.5163 9.12 50.1643 9.06 49.8843 8.94C49.6043 8.812 49.3763 8.636 49.2003 8.412C49.0243 8.18 48.9003 7.908 48.8283 7.596C48.7563 7.284 48.7203 6.94 48.7203 6.564V3.432H49.7043V6.348C49.7043 7.036 49.8043 7.524 50.0043 7.812C50.2123 8.1 50.5563 8.244 51.0363 8.244C51.1403 8.244 51.2443 8.24 51.3483 8.232C51.4603 8.224 51.5643 8.216 51.6603 8.208C51.7563 8.192 51.8403 8.18 51.9123 8.172C51.9843 8.156 52.0323 8.144 52.0563 8.136V3.432H53.0523V8.844ZM55.1883 9V3.732C56.0043 3.452 56.8283 3.312 57.6603 3.312C57.9163 3.312 58.1603 3.324 58.3923 3.348C58.6243 3.364 58.8803 3.404 59.1603 3.468L58.9803 4.344C58.7243 4.272 58.4963 4.228 58.2963 4.212C58.1043 4.188 57.8923 4.176 57.6603 4.176C57.1723 4.176 56.6763 4.244 56.1723 4.38V9H55.1883ZM63.9603 9.132C63.6083 9.132 63.3163 9.084 63.0843 8.988C62.8523 8.892 62.6683 8.748 62.5323 8.556C62.3963 8.364 62.3003 8.128 62.2443 7.848C62.1883 7.56 62.1603 7.228 62.1603 6.852V1.584H60.5523V0.744H63.1443V6.852C63.1443 7.132 63.1603 7.36 63.1923 7.536C63.2323 7.712 63.2883 7.856 63.3603 7.968C63.4403 8.072 63.5363 8.144 63.6483 8.184C63.7603 8.224 63.8923 8.244 64.0443 8.244C64.2763 8.244 64.4923 8.216 64.6923 8.16C64.8923 8.104 65.0483 8.044 65.1603 7.98L65.3043 8.82C65.2563 8.844 65.1883 8.876 65.1003 8.916C65.0123 8.948 64.9083 8.98 64.7883 9.012C64.6683 9.044 64.5363 9.072 64.3923 9.096C64.2563 9.12 64.1123 9.132 63.9603 9.132ZM69.0123 3.3C69.7643 3.3 70.3443 3.536 70.7523 4.008C71.1603 4.472 71.3643 5.18 71.3643 6.132V6.48H67.3803C67.4203 7.056 67.6083 7.496 67.9443 7.8C68.2883 8.096 68.7683 8.244 69.3843 8.244C69.7363 8.244 70.0363 8.216 70.2843 8.16C70.5323 8.104 70.7203 8.044 70.8483 7.98L70.9803 8.82C70.8603 8.884 70.6443 8.952 70.3323 9.024C70.0203 9.096 69.6683 9.132 69.2763 9.132C68.7963 9.132 68.3723 9.06 68.0043 8.916C67.6443 8.764 67.3443 8.56 67.1043 8.304C66.8643 8.048 66.6843 7.744 66.5643 7.392C66.4443 7.032 66.3843 6.644 66.3843 6.228C66.3843 5.732 66.4603 5.3 66.6123 4.932C66.7643 4.564 66.9643 4.26 67.2123 4.02C67.4603 3.78 67.7403 3.6 68.0523 3.48C68.3643 3.36 68.6843 3.3 69.0123 3.3ZM70.3563 5.676C70.3563 5.204 70.2323 4.832 69.9843 4.56C69.7363 4.28 69.4083 4.14 69.0003 4.14C68.7683 4.14 68.5563 4.184 68.3643 4.272C68.1803 4.36 68.0203 4.476 67.8843 4.62C67.7483 4.764 67.6403 4.928 67.5603 5.112C67.4803 5.296 67.4283 5.484 67.4043 5.676H70.3563ZM74.9643 8.292C75.2123 8.292 75.4323 8.284 75.6243 8.268C75.8243 8.252 75.9883 8.232 76.1163 8.208V6.552C75.9883 6.512 75.8323 6.48 75.6483 6.456C75.4723 6.432 75.2843 6.42 75.0843 6.42C74.9003 6.42 74.7203 6.436 74.5443 6.468C74.3683 6.492 74.2123 6.54 74.0763 6.612C73.9403 6.684 73.8283 6.78 73.7403 6.9C73.6523 7.012 73.6083 7.156 73.6083 7.332C73.6083 7.692 73.7283 7.944 73.9683 8.088C74.2163 8.224 74.5483 8.292 74.9643 8.292ZM74.8683 3.3C75.2843 3.3 75.6323 3.352 75.9123 3.456C76.2003 3.56 76.4323 3.704 76.6083 3.888C76.7843 4.072 76.9083 4.296 76.9803 4.56C77.0523 4.824 77.0883 5.112 77.0883 5.424V8.904C76.8563 8.944 76.5483 8.992 76.1643 9.048C75.7883 9.104 75.4003 9.132 75.0003 9.132C74.6963 9.132 74.4003 9.104 74.1123 9.048C73.8243 9 73.5683 8.912 73.3443 8.784C73.1203 8.648 72.9403 8.464 72.8043 8.232C72.6683 8 72.6003 7.704 72.6003 7.344C72.6003 7.024 72.6683 6.756 72.8043 6.54C72.9483 6.316 73.1283 6.136 73.3443 6C73.5683 5.864 73.8203 5.768 74.1003 5.712C74.3883 5.648 74.6763 5.616 74.9643 5.616C75.3563 5.616 75.7403 5.66 76.1163 5.748V5.472C76.1163 5.304 76.0963 5.144 76.0563 4.992C76.0243 4.832 75.9563 4.688 75.8523 4.56C75.7563 4.432 75.6203 4.332 75.4443 4.26C75.2763 4.18 75.0563 4.14 74.7843 4.14C74.4403 4.14 74.1403 4.164 73.8843 4.212C73.6283 4.26 73.4323 4.308 73.2963 4.356L73.1763 3.54C73.3123 3.476 73.5363 3.42 73.8483 3.372C74.1683 3.324 74.5083 3.3 74.8683 3.3ZM81.7923 8.232C81.7923 8.472 81.7123 8.684 81.5523 8.868C81.3923 9.052 81.1803 9.144 80.9163 9.144C80.6443 9.144 80.4283 9.052 80.2683 8.868C80.1083 8.684 80.0283 8.472 80.0283 8.232C80.0283 7.984 80.1083 7.768 80.2683 7.584C80.4283 7.4 80.6443 7.308 80.9163 7.308C81.1803 7.308 81.3923 7.4 81.5523 7.584C81.7123 7.768 81.7923 7.984 81.7923 8.232ZM85.1883 9V3.732C86.0043 3.452 86.8283 3.312 87.6603 3.312C87.9163 3.312 88.1603 3.324 88.3923 3.348C88.6243 3.364 88.8803 3.404 89.1603 3.468L88.9803 4.344C88.7243 4.272 88.4963 4.228 88.2963 4.212C88.1043 4.188 87.8923 4.176 87.6603 4.176C87.1723 4.176 86.6763 4.244 86.1723 4.38V9H85.1883ZM95.4243 6.216C95.4243 6.656 95.3603 7.056 95.2323 7.416C95.1123 7.768 94.9403 8.072 94.7163 8.328C94.4923 8.584 94.2243 8.784 93.9123 8.928C93.6003 9.064 93.2603 9.132 92.8923 9.132C92.5323 9.132 92.1963 9.064 91.8843 8.928C91.5803 8.784 91.3163 8.584 91.0923 8.328C90.8683 8.072 90.6923 7.768 90.5643 7.416C90.4443 7.056 90.3843 6.656 90.3843 6.216C90.3843 5.776 90.4443 5.376 90.5643 5.016C90.6923 4.656 90.8683 4.352 91.0923 4.104C91.3163 3.848 91.5803 3.652 91.8843 3.516C92.1963 3.372 92.5323 3.3 92.8923 3.3C93.2603 3.3 93.6003 3.372 93.9123 3.516C94.2243 3.652 94.4923 3.848 94.7163 4.104C94.9403 4.352 95.1123 4.656 95.2323 5.016C95.3603 5.376 95.4243 5.776 95.4243 6.216ZM94.4043 6.216C94.4043 5.584 94.2683 5.088 93.9963 4.728C93.7243 4.36 93.3563 4.176 92.8923 4.176C92.4363 4.176 92.0723 4.36 91.8003 4.728C91.5363 5.088 91.4043 5.584 91.4043 6.216C91.4043 6.84 91.5363 7.336 91.8003 7.704C92.0723 8.064 92.4363 8.244 92.8923 8.244C93.3563 8.244 93.7243 8.064 93.9963 7.704C94.2683 7.336 94.4043 6.84 94.4043 6.216Z" fill="white"/>
</g>
<defs>
<filter id="filter0_d" x="0.59" y="0.52002" width="95.8343" height="10.624" filterUnits="userSpaceOnUse" color-interpolation-filters="sRGB">
<feFlood flood-opacity="0" result="BackgroundImageFix"/>
<feColorMatrix in="SourceAlpha" type="matrix" values="0 0 0 0 0 0 0 0 0 0 0 0 0 0 0 0 0 0 127 0" result="hardAlpha"/>
<feOffset dy="1"/>
<feGaussianBlur stdDeviation="0.5"/>
<feComposite in2="hardAlpha" operator="out"/>
<feColorMatrix type="matrix" values="0 0 0 0 0.616667 0 0 0 0 0.616667 0 0 0 0 0.616667 0 0 0 0.1 0"/>
<feBlend mode="normal" in2="BackgroundImageFix" result="effect1_dropShadow"/>
<feBlend mode="normal" in="SourceGraphic" in2="effect1_dropShadow" result="shape"/>
</filter>
</defs>
</svg>
