<svg width="276" height="64" viewBox="0 0 276 64" fill="none" xmlns="http://www.w3.org/2000/svg">
<path d="M146 7C146 4.23858 148.239 2 151 2H265C271.075 2 276 6.92487 276 13V53C276 59.0751 271.075 64 265 64H151C148.239 64 146 61.7614 146 59V7Z" fill="#89D42F"/>
<path d="M173.71 19.6049V22.1949H167.06V43.9999H163.875V22.1949H157.19V19.6049H173.71ZM194.641 24.8199V43.9999H191.456V41.1649C190.849 42.1449 189.997 42.9149 188.901 43.4749C187.827 44.0115 186.637 44.2799 185.331 44.2799C183.837 44.2799 182.496 43.9765 181.306 43.3699C180.116 42.7399 179.171 41.8065 178.471 40.5699C177.794 39.3332 177.456 37.8282 177.456 36.0549V24.8199H180.606V35.6349C180.606 37.5249 181.084 38.9832 182.041 40.0099C182.997 41.0132 184.304 41.5149 185.961 41.5149C187.664 41.5149 189.006 40.9899 189.986 39.9399C190.966 38.8899 191.456 37.3615 191.456 35.3549V24.8199H194.641ZM203.203 27.9349C203.763 26.8382 204.557 25.9865 205.583 25.3799C206.633 24.7732 207.905 24.4699 209.398 24.4699V27.7599H208.558C204.988 27.7599 203.203 29.6965 203.203 33.5699V43.9999H200.018V24.8199H203.203V27.9349ZM216.26 18.0999V43.9999H213.075V18.0999H216.26ZM239.188 33.6749C239.188 34.2815 239.153 34.9232 239.083 35.5999H223.753C223.87 37.4899 224.511 38.9715 225.678 40.0449C226.868 41.0949 228.303 41.6199 229.983 41.6199C231.36 41.6199 232.503 41.3049 233.413 40.6749C234.346 40.0215 235 39.1582 235.373 38.0849H238.803C238.29 39.9282 237.263 41.4332 235.723 42.5999C234.183 43.7432 232.27 44.3149 229.983 44.3149C228.163 44.3149 226.53 43.9065 225.083 43.0899C223.66 42.2732 222.54 41.1182 221.723 39.6249C220.906 38.1082 220.498 36.3582 220.498 34.3749C220.498 32.3915 220.895 30.6532 221.688 29.1599C222.481 27.6665 223.59 26.5232 225.013 25.7299C226.46 24.9132 228.116 24.5049 229.983 24.5049C231.803 24.5049 233.413 24.9015 234.813 25.6949C236.213 26.4882 237.286 27.5849 238.033 28.9849C238.803 30.3615 239.188 31.9249 239.188 33.6749ZM235.898 33.0099C235.898 31.7965 235.63 30.7582 235.093 29.8949C234.556 29.0082 233.821 28.3432 232.888 27.8999C231.978 27.4332 230.963 27.1999 229.843 27.1999C228.233 27.1999 226.856 27.7132 225.713 28.7399C224.593 29.7665 223.951 31.1899 223.788 33.0099H235.898ZM242.202 34.3399C242.202 32.3799 242.599 30.6649 243.392 29.1949C244.186 27.7015 245.271 26.5465 246.647 25.7299C248.047 24.9132 249.599 24.5049 251.302 24.5049C252.982 24.5049 254.441 24.8665 255.677 25.5899C256.914 26.3132 257.836 27.2232 258.442 28.3199V24.8199H261.662V43.9999H258.442V40.4299C257.812 41.5499 256.867 42.4832 255.607 43.2299C254.371 43.9532 252.924 44.3149 251.267 44.3149C249.564 44.3149 248.024 43.8949 246.647 43.0549C245.271 42.2149 244.186 41.0365 243.392 39.5199C242.599 38.0032 242.202 36.2765 242.202 34.3399ZM258.442 34.3749C258.442 32.9282 258.151 31.6682 257.567 30.5949C256.984 29.5215 256.191 28.7049 255.187 28.1449C254.207 27.5615 253.122 27.2699 251.932 27.2699C250.742 27.2699 249.657 27.5499 248.677 28.1099C247.697 28.6699 246.916 29.4865 246.332 30.5599C245.749 31.6332 245.457 32.8932 245.457 34.3399C245.457 35.8099 245.749 37.0932 246.332 38.1899C246.916 39.2632 247.697 40.0915 248.677 40.6749C249.657 41.2349 250.742 41.5149 251.932 41.5149C253.122 41.5149 254.207 41.2349 255.187 40.6749C256.191 40.0915 256.984 39.2632 257.567 38.1899C258.151 37.0932 258.442 35.8215 258.442 34.3749Z" fill="#202020"/>
<path d="M59.3691 24.82V44H56.1841V41.165C55.5774 42.145 54.7257 42.915 53.6291 43.475C52.5557 44.0117 51.3657 44.28 50.0591 44.28C48.5657 44.28 47.2241 43.9767 46.0341 43.37C44.8441 42.74 43.8991 41.8067 43.1991 40.57C42.5224 39.3333 42.1841 37.8283 42.1841 36.055V24.82H45.3341V35.635C45.3341 37.525 45.8124 38.9833 46.7691 40.01C47.7257 41.0133 49.0324 41.515 50.6891 41.515C52.3924 41.515 53.7341 40.99 54.7141 39.94C55.6941 38.89 56.1841 37.3617 56.1841 35.355V24.82H59.3691ZM63.5568 34.375C63.5568 32.3917 63.9534 30.665 64.7468 29.195C65.5401 27.7017 66.6368 26.5467 68.0368 25.73C69.4601 24.9133 71.0818 24.505 72.9018 24.505C75.2584 24.505 77.1951 25.0767 78.7118 26.22C80.2518 27.3633 81.2668 28.95 81.7568 30.98H78.3268C78.0001 29.8133 77.3584 28.8917 76.4018 28.215C75.4684 27.5383 74.3018 27.2 72.9018 27.2C71.0818 27.2 69.6118 27.83 68.4918 29.09C67.3718 30.3267 66.8118 32.0883 66.8118 34.375C66.8118 36.685 67.3718 38.47 68.4918 39.73C69.6118 40.99 71.0818 41.62 72.9018 41.62C74.3018 41.62 75.4684 41.2933 76.4018 40.64C77.3351 39.9867 77.9768 39.0533 78.3268 37.84H81.7568C81.2434 39.8 80.2168 41.375 78.6768 42.565C77.1368 43.7317 75.2118 44.315 72.9018 44.315C71.0818 44.315 69.4601 43.9067 68.0368 43.09C66.6368 42.2733 65.5401 41.1183 64.7468 39.625C63.9534 38.1317 63.5568 36.3817 63.5568 34.375ZM87.6515 21.705C87.0449 21.705 86.5315 21.495 86.1115 21.075C85.6915 20.655 85.4815 20.1417 85.4815 19.535C85.4815 18.9283 85.6915 18.415 86.1115 17.995C86.5315 17.575 87.0449 17.365 87.6515 17.365C88.2349 17.365 88.7249 17.575 89.1215 17.995C89.5415 18.415 89.7515 18.9283 89.7515 19.535C89.7515 20.1417 89.5415 20.655 89.1215 21.075C88.7249 21.495 88.2349 21.705 87.6515 21.705ZM89.1915 24.82V44H86.0065V24.82H89.1915ZM93.4298 34.34C93.4298 32.38 93.8265 30.665 94.6198 29.195C95.4131 27.7017 96.4981 26.5467 97.8748 25.73C99.2748 24.9133 100.826 24.505 102.53 24.505C104.21 24.505 105.668 24.8667 106.905 25.59C108.141 26.3133 109.063 27.2233 109.67 28.32V24.82H112.89V44H109.67V40.43C109.04 41.55 108.095 42.4833 106.835 43.23C105.598 43.9533 104.151 44.315 102.495 44.315C100.791 44.315 99.2515 43.895 97.8748 43.055C96.4981 42.215 95.4131 41.0367 94.6198 39.52C93.8265 38.0033 93.4298 36.2767 93.4298 34.34ZM109.67 34.375C109.67 32.9283 109.378 31.6683 108.795 30.595C108.211 29.5217 107.418 28.705 106.415 28.145C105.435 27.5617 104.35 27.27 103.16 27.27C101.97 27.27 100.885 27.55 99.9048 28.11C98.9248 28.67 98.1431 29.4867 97.5598 30.56C96.9765 31.6333 96.6848 32.8933 96.6848 34.34C96.6848 35.81 96.9765 37.0933 97.5598 38.19C98.1431 39.2633 98.9248 40.0917 99.9048 40.675C100.885 41.235 101.97 41.515 103.16 41.515C104.35 41.515 105.435 41.235 106.415 40.675C107.418 40.0917 108.211 39.2633 108.795 38.19C109.378 37.0933 109.67 35.8217 109.67 34.375ZM127.617 24.47C129.95 24.47 131.84 25.1817 133.287 26.605C134.734 28.005 135.457 30.035 135.457 32.695V44H132.307V33.15C132.307 31.2367 131.829 29.7783 130.872 28.775C129.915 27.7483 128.609 27.235 126.952 27.235C125.272 27.235 123.93 27.76 122.927 28.81C121.947 29.86 121.457 31.3883 121.457 33.395V44H118.272V24.82H121.457V27.55C122.087 26.57 122.939 25.8117 124.012 25.275C125.109 24.7383 126.31 24.47 127.617 24.47Z" fill="white"/>
<path d="M30.5124 15.4021C28.7838 12.1068 25.9081 9.14305 21.9562 7.58751C18.0044 6.03197 14.4786 6.32055 13.6402 8.41592C13.2586 9.32723 13.2835 11.4001 15.6953 12.3558C17.488 13.0667 19.0406 12.6955 19.5707 11.4444C19.7399 10.9809 19.7341 10.5285 19.4998 9.89882C25.3306 12.1967 26.8882 17.6998 26.3251 23.1227L25.8376 27.3349L25.1416 33.122C24.7877 37.5707 24.2622 43.6265 27.8555 50.3794C30.918 56.2443 35.3326 58.6067 37.4055 59.4199C41.2927 60.9518 44.4599 60.3072 45.3259 58.2031C46.1616 56.1818 44.1858 54.1658 42.6458 53.566C40.5729 52.7528 38.7269 53.3921 38.1727 54.7094C37.7125 55.8359 38.34 56.4591 38.7788 56.8632C37.137 56.2074 36.2803 55.4884 35.6553 54.7912C32.7498 50.9723 31.9604 47.3004 32.8647 38.8689L33.1382 36.8486C33.4042 34.1128 33.6928 31.0474 33.6149 27.8483C33.3716 24.2322 32.4426 19.015 30.5124 15.4021Z" fill="white"/>
</svg>
