<svg width="472" height="259" viewBox="0 0 472 259" fill="none" xmlns="http://www.w3.org/2000/svg">
<g opacity="0.1">
<path fill-rule="evenodd" clip-rule="evenodd" d="M54.9033 215.245C173.482 212.317 221.668 157.489 319.506 163.642C338.052 164.809 402.418 195.372 399.655 181.209C373.236 45.7676 308.164 43.2329 270.097 38.4795C206.051 98.4999 78.3274 7.00563 54.9033 215.249V215.245Z" fill="#323232"/>
<path fill-rule="evenodd" clip-rule="evenodd" d="M0.00672347 63.2032L273.39 112.097L471.015 45.3158L232.761 0L0 63.2039L0.00672347 63.2032Z" fill="#2E2E2E"/>
<path fill-rule="evenodd" clip-rule="evenodd" d="M232.728 51.3832C271.286 64.9696 335.991 78.2206 342.97 85.1544C352.429 94.5549 352.933 138.464 346.852 202.382L329.725 248.113C345.867 265.033 369.97 260.544 379.799 246.173L364.707 202.77C371.824 163.952 370.405 89.6033 362.766 79.3301C350.358 62.6462 284.615 52.4167 245.539 38.96C239.457 40.7714 238.81 49.57 232.729 51.382L232.728 51.3832Z" fill="#4B4B4B"/>
<path fill-rule="evenodd" clip-rule="evenodd" d="M216.847 37.9904C226.883 20.5071 252.911 26.6636 257.969 33.9431C264.829 43.8163 245.21 34.7523 233.786 50.2868C225.974 60.909 210.852 48.432 216.847 37.9905V37.9904Z" fill="#4B4B4B"/>
<path fill-rule="evenodd" clip-rule="evenodd" d="M344.758 179.564C335.609 184.687 335.242 196.124 340.915 203.169L370.834 205.64C379.16 200.882 378.977 186.792 372.755 182.308L344.758 179.563L344.758 179.564Z" fill="#4B4B4B"/>
</g>
</svg>
