<svg width="77" height="77" viewBox="0 0 77 77" fill="none" xmlns="http://www.w3.org/2000/svg">
<path fill-rule="evenodd" clip-rule="evenodd" d="M38.5 77C59.763 77 77 59.763 77 38.5C77 17.237 59.763 0 38.5 0C17.237 0 0 17.237 0 38.5C0 59.763 17.237 77 38.5 77ZM32.4689 19.941C35.4331 21.1077 37.5901 23.3308 38.8867 25.8025C40.3345 28.5125 41.0314 32.4259 41.2138 35.1382C41.2722 37.5378 41.0558 39.8371 40.8562 41.8892L40.6511 43.4046C39.9728 49.7289 40.5649 52.4832 42.7443 55.3477C43.2131 55.8706 43.8557 56.41 45.0872 56.9018C44.7581 56.5987 44.2873 56.1313 44.6325 55.2863C45.0483 54.2982 46.4329 53.8187 47.9878 54.4287C49.1429 54.8786 50.6249 56.3908 49.998 57.9069C49.3485 59.4851 46.9728 59.9687 44.0571 58.8196C42.5022 58.2096 39.1909 56.4376 36.8938 52.0384C34.2263 47.0254 34.5849 42.5245 34.8499 39.1976L34.8581 39.094L35.3802 34.7532L35.7459 31.5936C36.1682 27.526 34.9999 23.3982 30.6263 21.6746C30.8021 22.1469 30.8064 22.4863 30.6795 22.8339C30.2819 23.7724 29.1173 24.0508 27.7726 23.5176C25.9636 22.8007 25.9449 21.2459 26.2311 20.5623C26.86 18.9906 29.5046 18.7742 32.4689 19.941Z" fill="white"/>
</svg>
