<svg width="77" height="77" viewBox="0 0 77 77" fill="none" xmlns="http://www.w3.org/2000/svg">
<circle cx="38.5" cy="38.5" r="38.5" fill="#2695AD"/>
<path d="M38.8867 25.8025C37.5901 23.3308 35.4331 21.1077 32.4689 19.941C29.5046 18.7742 26.86 18.9906 26.2311 20.5623C25.9449 21.2459 25.9636 22.8007 27.7726 23.5176C29.1173 24.0508 30.2819 23.7724 30.6795 22.8339C30.8064 22.4863 30.8021 22.1469 30.6263 21.6746C34.9999 23.3982 36.1682 27.526 35.7459 31.5936L35.3802 34.7532L34.8581 39.094C34.5927 42.4308 34.1986 46.9732 36.8938 52.0384C39.1909 56.4376 42.5022 58.2096 44.0571 58.8196C46.9728 59.9687 49.3485 59.4851 49.998 57.9069C50.6249 56.3908 49.1429 54.8786 47.9878 54.4287C46.4329 53.8187 45.0483 54.2982 44.6325 55.2863C44.2873 56.1313 44.7581 56.5987 45.0872 56.9018C43.8557 56.41 43.2131 55.8706 42.7443 55.3477C40.5649 52.4832 39.9728 49.7289 40.6511 43.4046L40.8562 41.8892C41.0558 39.8371 41.2722 37.5378 41.2138 35.1382C41.0314 32.4259 40.3345 28.5125 38.8867 25.8025Z" fill="white"/>
</svg>
