<svg width="103" height="7" viewBox="0 0 103 7" fill="none" xmlns="http://www.w3.org/2000/svg">
<path d="M0 3.5L5 6.38675V0.613249L0 3.5ZM102.887 3.5L100 0.613249L97.1132 3.5L100 6.38675L102.887 3.5ZM1.44231 4C1.71845 4 1.94231 3.77614 1.94231 3.5C1.94231 3.22386 1.71845 3 1.44231 3V4ZM6.25 3C5.97386 3 5.75 3.22386 5.75 3.5C5.75 3.77614 5.97386 4 6.25 4V3ZM9.13462 4C9.41076 4 9.63462 3.77614 9.63462 3.5C9.63462 3.22386 9.41076 3 9.13462 3V4ZM13.9423 3C13.6662 3 13.4423 3.22386 13.4423 3.5C13.4423 3.77614 13.6662 4 13.9423 4V3ZM16.8269 4C17.1031 4 17.3269 3.77614 17.3269 3.5C17.3269 3.22386 17.1031 3 16.8269 3V4ZM21.6346 3C21.3585 3 21.1346 3.22386 21.1346 3.5C21.1346 3.77614 21.3585 4 21.6346 4V3ZM24.5192 4C24.7954 4 25.0192 3.77614 25.0192 3.5C25.0192 3.22386 24.7954 3 24.5192 3V4ZM29.3269 3C29.0508 3 28.8269 3.22386 28.8269 3.5C28.8269 3.77614 29.0508 4 29.3269 4V3ZM32.2115 4C32.4877 4 32.7115 3.77614 32.7115 3.5C32.7115 3.22386 32.4877 3 32.2115 3V4ZM37.0192 3C36.7431 3 36.5192 3.22386 36.5192 3.5C36.5192 3.77614 36.7431 4 37.0192 4V3ZM39.9038 4C40.18 4 40.4038 3.77614 40.4038 3.5C40.4038 3.22386 40.18 3 39.9038 3V4ZM44.7115 3C44.4354 3 44.2115 3.22386 44.2115 3.5C44.2115 3.77614 44.4354 4 44.7115 4V3ZM47.5962 4C47.8723 4 48.0962 3.77614 48.0962 3.5C48.0962 3.22386 47.8723 3 47.5962 3V4ZM52.4039 3C52.1277 3 51.9039 3.22386 51.9039 3.5C51.9039 3.77614 52.1277 4 52.4039 4V3ZM55.2885 4C55.5646 4 55.7885 3.77614 55.7885 3.5C55.7885 3.22386 55.5646 3 55.2885 3V4ZM60.0962 3C59.82 3 59.5962 3.22386 59.5962 3.5C59.5962 3.77614 59.82 4 60.0962 4V3ZM62.9808 4C63.2569 4 63.4808 3.77614 63.4808 3.5C63.4808 3.22386 63.2569 3 62.9808 3V4ZM67.7885 3C67.5123 3 67.2885 3.22386 67.2885 3.5C67.2885 3.77614 67.5123 4 67.7885 4V3ZM70.6731 4C70.9492 4 71.1731 3.77614 71.1731 3.5C71.1731 3.22386 70.9492 3 70.6731 3V4ZM75.4808 3C75.2046 3 74.9808 3.22386 74.9808 3.5C74.9808 3.77614 75.2046 4 75.4808 4V3ZM78.3654 4C78.6415 4 78.8654 3.77614 78.8654 3.5C78.8654 3.22386 78.6415 3 78.3654 3V4ZM83.1731 3C82.8969 3 82.6731 3.22386 82.6731 3.5C82.6731 3.77614 82.8969 4 83.1731 4V3ZM86.0577 4C86.3338 4 86.5577 3.77614 86.5577 3.5C86.5577 3.22386 86.3338 3 86.0577 3V4ZM90.8654 3C90.5893 3 90.3654 3.22386 90.3654 3.5C90.3654 3.77614 90.5893 4 90.8654 4V3ZM93.75 4C94.0261 4 94.25 3.77614 94.25 3.5C94.25 3.22386 94.0261 3 93.75 3V4ZM98.5577 3C98.2816 3 98.0577 3.22386 98.0577 3.5C98.0577 3.77614 98.2816 4 98.5577 4V3ZM6.25 4H9.13462V3H6.25V4ZM13.9423 4H16.8269V3H13.9423V4ZM21.6346 4H24.5192V3H21.6346V4ZM29.3269 4H32.2115V3H29.3269V4ZM37.0192 4H39.9038V3H37.0192V4ZM44.7115 4H47.5962V3H44.7115V4ZM52.4039 4H55.2885V3H52.4039V4ZM60.0962 4H62.9808V3H60.0962V4ZM67.7885 4H70.6731V3H67.7885V4ZM75.4808 4H78.3654V3H75.4808V4ZM83.1731 4H86.0577V3H83.1731V4ZM90.8654 4H93.75V3H90.8654V4ZM98.5577 4H100V3H98.5577V4Z" fill="white" fill-opacity="0.64"/>
</svg>
