<svg width="103" height="6" viewBox="0 0 103 6" fill="none" xmlns="http://www.w3.org/2000/svg">
<path d="M0 3L5 5.88675V0.113249L0 3ZM102.887 3L100 0.113249L97.1132 3L100 5.88675L102.887 3ZM1.44231 3.5C1.71845 3.5 1.94231 3.27614 1.94231 3C1.94231 2.72386 1.71845 2.5 1.44231 2.5V3.5ZM6.25 2.5C5.97386 2.5 5.75 2.72386 5.75 3C5.75 3.27614 5.97386 3.5 6.25 3.5V2.5ZM9.13462 3.5C9.41076 3.5 9.63462 3.27614 9.63462 3C9.63462 2.72386 9.41076 2.5 9.13462 2.5V3.5ZM13.9423 2.5C13.6662 2.5 13.4423 2.72386 13.4423 3C13.4423 3.27614 13.6662 3.5 13.9423 3.5V2.5ZM16.8269 3.5C17.1031 3.5 17.3269 3.27614 17.3269 3C17.3269 2.72386 17.1031 2.5 16.8269 2.5V3.5ZM21.6346 2.5C21.3585 2.5 21.1346 2.72386 21.1346 3C21.1346 3.27614 21.3585 3.5 21.6346 3.5V2.5ZM24.5192 3.5C24.7954 3.5 25.0192 3.27614 25.0192 3C25.0192 2.72386 24.7954 2.5 24.5192 2.5V3.5ZM29.3269 2.5C29.0508 2.5 28.8269 2.72386 28.8269 3C28.8269 3.27614 29.0508 3.5 29.3269 3.5V2.5ZM32.2115 3.5C32.4877 3.5 32.7115 3.27614 32.7115 3C32.7115 2.72386 32.4877 2.5 32.2115 2.5V3.5ZM37.0192 2.5C36.7431 2.5 36.5192 2.72386 36.5192 3C36.5192 3.27614 36.7431 3.5 37.0192 3.5V2.5ZM39.9038 3.5C40.18 3.5 40.4038 3.27614 40.4038 3C40.4038 2.72386 40.18 2.5 39.9038 2.5V3.5ZM44.7115 2.5C44.4354 2.5 44.2115 2.72386 44.2115 3C44.2115 3.27614 44.4354 3.5 44.7115 3.5V2.5ZM47.5962 3.5C47.8723 3.5 48.0962 3.27614 48.0962 3C48.0962 2.72386 47.8723 2.5 47.5962 2.5V3.5ZM52.4039 2.5C52.1277 2.5 51.9039 2.72386 51.9039 3C51.9039 3.27614 52.1277 3.5 52.4039 3.5V2.5ZM55.2885 3.5C55.5646 3.5 55.7885 3.27614 55.7885 3C55.7885 2.72386 55.5646 2.5 55.2885 2.5V3.5ZM60.0962 2.5C59.82 2.5 59.5962 2.72386 59.5962 3C59.5962 3.27614 59.82 3.5 60.0962 3.5V2.5ZM62.9808 3.5C63.2569 3.5 63.4808 3.27614 63.4808 3C63.4808 2.72386 63.2569 2.5 62.9808 2.5V3.5ZM67.7885 2.5C67.5123 2.5 67.2885 2.72386 67.2885 3C67.2885 3.27614 67.5123 3.5 67.7885 3.5V2.5ZM70.6731 3.5C70.9492 3.5 71.1731 3.27614 71.1731 3C71.1731 2.72386 70.9492 2.5 70.6731 2.5V3.5ZM75.4808 2.5C75.2046 2.5 74.9808 2.72386 74.9808 3C74.9808 3.27614 75.2046 3.5 75.4808 3.5V2.5ZM78.3654 3.5C78.6415 3.5 78.8654 3.27614 78.8654 3C78.8654 2.72386 78.6415 2.5 78.3654 2.5V3.5ZM83.1731 2.5C82.8969 2.5 82.6731 2.72386 82.6731 3C82.6731 3.27614 82.8969 3.5 83.1731 3.5V2.5ZM86.0577 3.5C86.3338 3.5 86.5577 3.27614 86.5577 3C86.5577 2.72386 86.3338 2.5 86.0577 2.5V3.5ZM90.8654 2.5C90.5893 2.5 90.3654 2.72386 90.3654 3C90.3654 3.27614 90.5893 3.5 90.8654 3.5V2.5ZM93.75 3.5C94.0261 3.5 94.25 3.27614 94.25 3C94.25 2.72386 94.0261 2.5 93.75 2.5V3.5ZM98.5577 2.5C98.2816 2.5 98.0577 2.72386 98.0577 3C98.0577 3.27614 98.2816 3.5 98.5577 3.5V2.5ZM6.25 3.5H9.13462V2.5H6.25V3.5ZM13.9423 3.5H16.8269V2.5H13.9423V3.5ZM21.6346 3.5H24.5192V2.5H21.6346V3.5ZM29.3269 3.5H32.2115V2.5H29.3269V3.5ZM37.0192 3.5H39.9038V2.5H37.0192V3.5ZM44.7115 3.5H47.5962V2.5H44.7115V3.5ZM52.4039 3.5H55.2885V2.5H52.4039V3.5ZM60.0962 3.5H62.9808V2.5H60.0962V3.5ZM67.7885 3.5H70.6731V2.5H67.7885V3.5ZM75.4808 3.5H78.3654V2.5H75.4808V3.5ZM83.1731 3.5H86.0577V2.5H83.1731V3.5ZM90.8654 3.5H93.75V2.5H90.8654V3.5ZM98.5577 3.5H100V2.5H98.5577V3.5Z" fill="white"/>
</svg>
