<svg width="83" height="83" viewBox="0 0 83 83" fill="none" xmlns="http://www.w3.org/2000/svg">
<circle cx="41.5" cy="41.5" r="40" fill="#3A2859" stroke="white" stroke-width="3"/>
<path d="M41.4996 49.1621C45.7314 49.1621 49.1619 45.7316 49.1619 41.4999C49.1619 37.2681 45.7314 33.8376 41.4996 33.8376C37.2679 33.8376 33.8374 37.2681 33.8374 41.4999C33.8374 45.7316 37.2679 49.1621 41.4996 49.1621Z" fill="white"/>
<path d="M22.7275 34.7317L17.7471 39.7121C16.751 40.7082 16.751 42.3173 17.7471 43.3134L22.7275 48.2938C23.979 49.5453 25.9967 49.5453 27.2482 48.2938C28.4742 47.0424 28.4742 45.0502 27.2482 43.7987L25.0007 41.5L27.2482 39.2269C28.4742 37.9754 28.4742 35.9832 27.2482 34.7317C26.0223 33.4802 23.979 33.4802 22.7275 34.7317ZM55.7518 34.7317C54.5258 35.9832 54.5258 37.9754 55.7518 39.2269L57.9993 41.5L55.7518 43.7731C54.5258 45.0246 54.5258 47.0168 55.7518 48.2683C57.0033 49.5198 59.021 49.5198 60.2725 48.2683L65.2529 43.2879C66.249 42.2918 66.249 40.6827 65.2529 39.6866L60.2725 34.7062C59.021 33.4802 56.9777 33.4802 55.7518 34.7317V34.7317ZM41.5 57.9993L39.2269 55.7518C37.9754 54.5258 35.9832 54.5258 34.7317 55.7518C33.4802 57.0033 33.4802 59.021 34.7317 60.2725L39.7121 65.2529C40.7082 66.249 42.3173 66.249 43.3134 65.2529L48.2938 60.2725C49.5453 59.021 49.5453 57.0033 48.2938 55.7518C47.0424 54.5258 45.0502 54.5258 43.7987 55.7518L41.5 57.9993V57.9993ZM34.7317 27.2482C35.9832 28.4742 37.9754 28.4742 39.2269 27.2482L41.5 25.0007L43.7731 27.2482C45.0246 28.4742 47.0168 28.4742 48.2683 27.2482C49.5198 25.9967 49.5198 23.979 48.2683 22.7275L43.2879 17.7471C42.2918 16.751 40.6827 16.751 39.6866 17.7471L34.7317 22.7275C33.4802 23.979 33.4802 26.0223 34.7317 27.2482Z" fill="white"/>
</svg>
