<svg width="77" height="77" viewBox="0 0 77 77" fill="none" xmlns="http://www.w3.org/2000/svg">
<circle cx="38.5" cy="38.5" r="38.5" fill="#2695AD"/>
<path d="M38.4996 43.6602C41.3496 43.6602 43.6599 41.3498 43.6599 38.4999C43.6599 35.6499 41.3496 33.3396 38.4996 33.3396C35.6497 33.3396 33.3394 35.6499 33.3394 38.4999C33.3394 41.3498 35.6497 43.6602 38.4996 43.6602Z" fill="white"/>
<path d="M25.8573 33.9418L22.5031 37.2959C21.8323 37.9668 21.8323 39.0504 22.5031 39.7213L25.8573 43.0754C26.7002 43.9183 28.059 43.9183 28.9019 43.0754C29.7275 42.2326 29.7275 40.8909 28.9019 40.0481L27.3882 38.5L28.9019 36.9691C29.7275 36.1263 29.7275 34.7846 28.9019 33.9418C28.0762 33.0989 26.7002 33.0989 25.8573 33.9418ZM48.0981 33.9418C47.2725 34.7846 47.2725 36.1263 48.0981 36.9691L49.6118 38.5L48.0981 40.0309C47.2725 40.8737 47.2725 42.2154 48.0981 43.0582C48.941 43.9011 50.2998 43.9011 51.1427 43.0582L54.4969 39.7041C55.1677 39.0332 55.1677 37.9496 54.4969 37.2787L51.1427 33.9246C50.2998 33.0989 48.9238 33.0989 48.0981 33.9418V33.9418ZM38.5 49.6118L36.9691 48.0981C36.1263 47.2725 34.7846 47.2725 33.9418 48.0981C33.0989 48.941 33.0989 50.2998 33.9418 51.1427L37.2959 54.4969C37.9668 55.1677 39.0504 55.1677 39.7213 54.4969L43.0754 51.1427C43.9183 50.2998 43.9183 48.941 43.0754 48.0981C42.2326 47.2725 40.8909 47.2725 40.0481 48.0981L38.5 49.6118V49.6118ZM33.9418 28.9019C34.7846 29.7275 36.1263 29.7275 36.9691 28.9019L38.5 27.3882L40.0309 28.9019C40.8737 29.7275 42.2154 29.7275 43.0582 28.9019C43.9011 28.059 43.9011 26.7002 43.0582 25.8573L39.7041 22.5031C39.0332 21.8323 37.9496 21.8323 37.2787 22.5031L33.9418 25.8573C33.0989 26.7002 33.0989 28.0762 33.9418 28.9019Z" fill="white"/>
</svg>
