<svg width="77" height="77" viewBox="0 0 77 77" fill="none" xmlns="http://www.w3.org/2000/svg">
<path fill-rule="evenodd" clip-rule="evenodd" d="M77 38.5C77 59.7629 59.7632 77 38.5 77C17.2368 77 0 59.7629 0 38.5C0 17.2371 17.2368 0 38.5 0C59.7632 0 77 17.2371 77 38.5ZM38.5 46.1621C42.7314 46.1621 46.1621 42.7317 46.1621 38.4998C46.1621 34.2681 42.7314 30.8376 38.5 30.8376C34.2681 30.8376 30.8374 34.2681 30.8374 38.4998C30.8374 42.7317 34.2681 46.1621 38.5 46.1621ZM14.7471 36.7122L19.7275 31.7317C20.979 30.4802 23.0225 30.4802 24.248 31.7317C25.4741 32.9832 25.4741 34.9753 24.248 36.2268L22.0005 38.5L24.248 40.7986C25.4741 42.05 25.4741 44.0422 24.248 45.2939C22.9966 46.5454 20.979 46.5454 19.7275 45.2939L14.7471 40.3135C13.751 39.3174 13.751 37.7083 14.7471 36.7122ZM52.752 36.2268C51.5259 34.9753 51.5259 32.9832 52.752 31.7317C53.9775 30.4802 56.021 30.4802 57.2725 31.7061L62.2529 36.6865C63.249 37.6826 63.249 39.2917 62.2529 40.2878L57.2725 45.2683C56.021 46.5198 54.0034 46.5198 52.752 45.2683C51.5259 44.0168 51.5259 42.0247 52.752 40.7732L54.9995 38.5L52.752 36.2268ZM36.2271 52.7517L38.5 54.9993L40.7988 52.7517C42.0503 51.5259 44.0425 51.5259 45.2939 52.7517C46.5454 54.0032 46.5454 56.021 45.2939 57.2725L40.3135 62.2529C39.3174 63.249 37.708 63.249 36.7119 62.2529L31.7319 57.2725C30.48 56.021 30.48 54.0032 31.7319 52.7517C32.9834 51.5259 34.9756 51.5259 36.2271 52.7517ZM36.2271 24.2483C34.9756 25.4741 32.9834 25.4741 31.7319 24.2483C30.48 23.0222 30.48 20.979 31.7319 19.7275L36.6865 14.7471C37.6826 13.751 39.292 13.751 40.2881 14.7471L45.2681 19.7275C46.52 20.979 46.52 22.9968 45.2681 24.2483C44.0166 25.4741 42.0244 25.4741 40.7729 24.2483L38.5 22.0007L36.2271 24.2483Z" fill="white"/>
</svg>
