<svg width="102" height="100" viewBox="0 0 102 100" fill="none" xmlns="http://www.w3.org/2000/svg">
<path d="M51 100L53.8868 95L48.1132 95L51 100ZM51.5 98.4375C51.5 98.1614 51.2761 97.9375 51 97.9375C50.7239 97.9375 50.5 98.1614 50.5 98.4375L51.5 98.4375ZM50.5 93.2292C50.5 93.5053 50.7239 93.7292 51 93.7292C51.2761 93.7292 51.5 93.5053 51.5 93.2292L50.5 93.2292ZM51.5 90.1042C51.5 89.828 51.2761 89.6042 51 89.6042C50.7239 89.6042 50.5 89.828 50.5 90.1042L51.5 90.1042ZM50.5 84.8958C50.5 85.172 50.7239 85.3958 51 85.3958C51.2761 85.3958 51.5 85.172 51.5 84.8958L50.5 84.8958ZM51.5 81.7708C51.5 81.4947 51.2761 81.2708 51 81.2708C50.7239 81.2708 50.5 81.4947 50.5 81.7708L51.5 81.7708ZM50.5 76.5625C50.5 76.8386 50.7239 77.0625 51 77.0625C51.2761 77.0625 51.5 76.8386 51.5 76.5625L50.5 76.5625ZM51.5 73.4375C51.5 73.1614 51.2761 72.9375 51 72.9375C50.7239 72.9375 50.5 73.1614 50.5 73.4375L51.5 73.4375ZM50.5 68.2292C50.5 68.5053 50.7239 68.7292 51 68.7292C51.2761 68.7292 51.5 68.5053 51.5 68.2292L50.5 68.2292ZM51.5 65.1042C51.5 64.828 51.2761 64.6042 51 64.6042C50.7239 64.6042 50.5 64.828 50.5 65.1042L51.5 65.1042ZM50.5 59.8958C50.5 60.172 50.7239 60.3958 51 60.3958C51.2761 60.3958 51.5 60.172 51.5 59.8958L50.5 59.8958ZM51.5 56.7708C51.5 56.4947 51.2761 56.2708 51 56.2708C50.7239 56.2708 50.5 56.4947 50.5 56.7708L51.5 56.7708ZM50.5 51.5625C50.5 51.8386 50.7239 52.0625 51 52.0625C51.2761 52.0625 51.5 51.8386 51.5 51.5625L50.5 51.5625ZM51.5 93.2292L51.5 90.1042L50.5 90.1042L50.5 93.2292L51.5 93.2292ZM51.5 84.8958L51.5 81.7708L50.5 81.7708L50.5 84.8958L51.5 84.8958ZM51.5 76.5625L51.5 73.4375L50.5 73.4375L50.5 76.5625L51.5 76.5625ZM51.5 68.2292L51.5 65.1042L50.5 65.1042L50.5 68.2292L51.5 68.2292ZM51.5 59.8958L51.5 56.7708L50.5 56.7708L50.5 59.8958L51.5 59.8958ZM51.5 51.5625L51.5 50L50.5 50L50.5 51.5625L51.5 51.5625Z" fill="#868181"/>
<path d="M100.5 1.5625C100.5 1.83864 100.724 2.0625 101 2.0625C101.276 2.0625 101.5 1.83864 101.5 1.5625L100.5 1.5625ZM101.5 6.77083C101.5 6.49469 101.276 6.27083 101 6.27083C100.724 6.27083 100.5 6.49469 100.5 6.77083L101.5 6.77083ZM100.5 9.89583C100.5 10.172 100.724 10.3958 101 10.3958C101.276 10.3958 101.5 10.172 101.5 9.89583L100.5 9.89583ZM101.5 15.1042C101.5 14.828 101.276 14.6042 101 14.6042C100.724 14.6042 100.5 14.828 100.5 15.1042L101.5 15.1042ZM100.5 18.2292C100.5 18.5053 100.724 18.7292 101 18.7292C101.276 18.7292 101.5 18.5053 101.5 18.2292L100.5 18.2292ZM101.5 23.4375C101.5 23.1614 101.276 22.9375 101 22.9375C100.724 22.9375 100.5 23.1614 100.5 23.4375L101.5 23.4375ZM100.5 26.5625C100.5 26.8386 100.724 27.0625 101 27.0625C101.276 27.0625 101.5 26.8386 101.5 26.5625L100.5 26.5625ZM101.5 31.7708C101.5 31.4947 101.276 31.2708 101 31.2708C100.724 31.2708 100.5 31.4947 100.5 31.7708L101.5 31.7708ZM100.5 34.8958C100.5 35.172 100.724 35.3958 101 35.3958C101.276 35.3958 101.5 35.172 101.5 34.8958L100.5 34.8958ZM101.5 40.1042C101.5 39.828 101.276 39.6042 101 39.6042C100.724 39.6042 100.5 39.828 100.5 40.1042L101.5 40.1042ZM100.5 43.2292C100.5 43.5053 100.724 43.7292 101 43.7292C101.276 43.7292 101.5 43.5053 101.5 43.2292L100.5 43.2292ZM101.5 48.4375C101.5 48.1614 101.276 47.9375 101 47.9375C100.724 47.9375 100.5 48.1614 100.5 48.4375L101.5 48.4375ZM100.5 6.55671e-08L100.5 1.5625L101.5 1.5625L101.5 -6.55671e-08L100.5 6.55671e-08ZM100.5 6.77083L100.5 9.89583L101.5 9.89583L101.5 6.77083L100.5 6.77083ZM100.5 15.1042L100.5 18.2292L101.5 18.2292L101.5 15.1042L100.5 15.1042ZM100.5 23.4375L100.5 26.5625L101.5 26.5625L101.5 23.4375L100.5 23.4375ZM100.5 31.7708L100.5 34.8958L101.5 34.8958L101.5 31.7708L100.5 31.7708ZM100.5 40.1042L100.5 43.2292L101.5 43.2292L101.5 40.1042L100.5 40.1042ZM100.5 48.4375L100.5 50L101.5 50L101.5 48.4375L100.5 48.4375Z" fill="#868181"/>
<path d="M0.5 1.5625C0.5 1.83864 0.723858 2.0625 1 2.0625C1.27614 2.0625 1.5 1.83864 1.5 1.5625L0.5 1.5625ZM1.5 6.77083C1.5 6.49469 1.27614 6.27083 1 6.27083C0.723858 6.27083 0.500001 6.49469 0.500001 6.77083L1.5 6.77083ZM0.500001 9.89583C0.500001 10.172 0.723859 10.3958 1 10.3958C1.27614 10.3958 1.5 10.172 1.5 9.89583L0.500001 9.89583ZM1.5 15.1042C1.5 14.828 1.27614 14.6042 1 14.6042C0.72386 14.6042 0.500002 14.828 0.500002 15.1042L1.5 15.1042ZM0.500002 18.2292C0.500002 18.5053 0.72386 18.7292 1 18.7292C1.27614 18.7292 1.5 18.5053 1.5 18.2292L0.500002 18.2292ZM1.5 23.4375C1.5 23.1614 1.27615 22.9375 1 22.9375C0.723861 22.9375 0.500003 23.1614 0.500003 23.4375L1.5 23.4375ZM0.500003 26.5625C0.500004 26.8386 0.723861 27.0625 1 27.0625C1.27615 27.0625 1.5 26.8386 1.5 26.5625L0.500003 26.5625ZM1.5 31.7708C1.5 31.4947 1.27615 31.2708 1 31.2708C0.723862 31.2708 0.500004 31.4947 0.500004 31.7708L1.5 31.7708ZM0.500005 34.8958C0.500005 35.172 0.723862 35.3958 1 35.3958C1.27615 35.3958 1.5 35.172 1.5 34.8958L0.500005 34.8958ZM1.50001 40.1042C1.50001 39.828 1.27615 39.6042 1.00001 39.6042C0.723863 39.6042 0.500005 39.828 0.500005 40.1042L1.50001 40.1042ZM0.500006 43.2292C0.500006 43.5053 0.723863 43.7292 1.00001 43.7292C1.27615 43.7292 1.50001 43.5053 1.50001 43.2292L0.500006 43.2292ZM1.50001 48.4375C1.50001 48.1614 1.27615 47.9375 1.00001 47.9375C0.723864 47.9375 0.500006 48.1614 0.500006 48.4375L1.50001 48.4375ZM0.5 6.55671e-08L0.5 1.5625L1.5 1.5625L1.5 -6.55671e-08L0.5 6.55671e-08ZM0.500001 6.77083L0.500001 9.89583L1.5 9.89583L1.5 6.77083L0.500001 6.77083ZM0.500002 15.1042L0.500002 18.2292L1.5 18.2292L1.5 15.1042L0.500002 15.1042ZM0.500003 23.4375L0.500003 26.5625L1.5 26.5625L1.5 23.4375L0.500003 23.4375ZM0.500004 31.7708L0.500005 34.8958L1.5 34.8958L1.5 31.7708L0.500004 31.7708ZM0.500005 40.1042L0.500006 43.2292L1.50001 43.2292L1.50001 40.1042L0.500005 40.1042ZM0.500006 48.4375L0.500007 50L1.50001 50L1.50001 48.4375L0.500006 48.4375Z" fill="#868181"/>
<path d="M101 50L1 50" stroke="#868181" stroke-linecap="round" stroke-dasharray="3 5"/>
</svg>
