<svg width="106" height="54" viewBox="0 0 106 54" fill="none" xmlns="http://www.w3.org/2000/svg">
<g filter="url(#filter0_d_1568_661)">
<path d="M53 1L50.1132 6L55.8868 6L53 1ZM52.5 2.5625C52.5 2.83864 52.7239 3.0625 53 3.0625C53.2761 3.0625 53.5 2.83864 53.5 2.5625L52.5 2.5625ZM53.5 7.77083C53.5 7.49469 53.2761 7.27083 53 7.27083C52.7239 7.27083 52.5 7.49469 52.5 7.77083L53.5 7.77083ZM52.5 10.8958C52.5 11.172 52.7239 11.3958 53 11.3958C53.2761 11.3958 53.5 11.172 53.5 10.8958L52.5 10.8958ZM53.5 16.1042C53.5 15.828 53.2761 15.6042 53 15.6042C52.7239 15.6042 52.5 15.828 52.5 16.1042L53.5 16.1042ZM52.5 19.2292C52.5 19.5053 52.7239 19.7292 53 19.7292C53.2761 19.7292 53.5 19.5053 53.5 19.2292L52.5 19.2292ZM53.5 24.4375C53.5 24.1614 53.2761 23.9375 53 23.9375C52.7239 23.9375 52.5 24.1614 52.5 24.4375L53.5 24.4375ZM52.5 7.77083L52.5 10.8958L53.5 10.8958L53.5 7.77083L52.5 7.77083ZM52.5 16.1042L52.5 19.2292L53.5 19.2292L53.5 16.1042L52.5 16.1042ZM52.5 24.4375L52.5 26L53.5 26L53.5 24.4375L52.5 24.4375Z" fill="#D5A4A4"/>
</g>
<g filter="url(#filter1_d_1568_661)">
<path d="M3.5 49.4375C3.5 49.1614 3.27614 48.9375 3 48.9375C2.72386 48.9375 2.5 49.1614 2.5 49.4375L3.5 49.4375ZM2.5 44.2292C2.5 44.5053 2.72386 44.7292 3 44.7292C3.27614 44.7292 3.5 44.5053 3.5 44.2292L2.5 44.2292ZM3.5 41.1042C3.5 40.828 3.27614 40.6042 3 40.6042C2.72386 40.6042 2.5 40.828 2.5 41.1042L3.5 41.1042ZM2.5 35.8958C2.5 36.172 2.72386 36.3958 3 36.3958C3.27614 36.3958 3.5 36.172 3.5 35.8958L2.5 35.8958ZM3.5 32.7708C3.5 32.4947 3.27614 32.2708 3 32.2708C2.72386 32.2708 2.5 32.4947 2.5 32.7708L3.5 32.7708ZM2.5 27.5625C2.5 27.8386 2.72386 28.0625 3 28.0625C3.27614 28.0625 3.5 27.8386 3.5 27.5625L2.5 27.5625ZM3.5 51L3.5 49.4375L2.5 49.4375L2.5 51L3.5 51ZM3.5 44.2292L3.5 41.1042L2.5 41.1042L2.5 44.2292L3.5 44.2292ZM3.5 35.8958L3.5 32.7708L2.5 32.7708L2.5 35.8958L3.5 35.8958ZM3.5 27.5625L3.5 26L2.5 26L2.5 27.5625L3.5 27.5625Z" fill="#D5A4A4"/>
</g>
<g filter="url(#filter2_d_1568_661)">
<path d="M103.5 49.4375C103.5 49.1614 103.276 48.9375 103 48.9375C102.724 48.9375 102.5 49.1614 102.5 49.4375L103.5 49.4375ZM102.5 44.2292C102.5 44.5053 102.724 44.7292 103 44.7292C103.276 44.7292 103.5 44.5053 103.5 44.2292L102.5 44.2292ZM103.5 41.1042C103.5 40.828 103.276 40.6042 103 40.6042C102.724 40.6042 102.5 40.828 102.5 41.1042L103.5 41.1042ZM102.5 35.8958C102.5 36.172 102.724 36.3958 103 36.3958C103.276 36.3958 103.5 36.172 103.5 35.8958L102.5 35.8958ZM103.5 32.7708C103.5 32.4947 103.276 32.2708 103 32.2708C102.724 32.2708 102.5 32.4947 102.5 32.7708L103.5 32.7708ZM102.5 27.5625C102.5 27.8386 102.724 28.0625 103 28.0625C103.276 28.0625 103.5 27.8386 103.5 27.5625L102.5 27.5625ZM103.5 51L103.5 49.4375L102.5 49.4375L102.5 51L103.5 51ZM103.5 44.2292L103.5 41.1042L102.5 41.1042L102.5 44.2292L103.5 44.2292ZM103.5 35.8958L103.5 32.7708L102.5 32.7708L102.5 35.8958L103.5 35.8958ZM103.5 27.5625L103.5 26L102.5 26L102.5 27.5625L103.5 27.5625Z" fill="#D5A4A4"/>
</g>
<path d="M3 26H103" stroke="#D5A4A4" stroke-linecap="round" stroke-dasharray="3 5"/>
<defs>
<filter id="filter0_d_1568_661" x="48.1133" y="0" width="9.77344" height="29" filterUnits="userSpaceOnUse" color-interpolation-filters="sRGB">
<feFlood flood-opacity="0" result="BackgroundImageFix"/>
<feColorMatrix in="SourceAlpha" type="matrix" values="0 0 0 0 0 0 0 0 0 0 0 0 0 0 0 0 0 0 127 0" result="hardAlpha"/>
<feOffset dy="1"/>
<feGaussianBlur stdDeviation="1"/>
<feComposite in2="hardAlpha" operator="out"/>
<feColorMatrix type="matrix" values="0 0 0 0 0 0 0 0 0 0 0 0 0 0 0 0 0 0 0.25 0"/>
<feBlend mode="normal" in2="BackgroundImageFix" result="effect1_dropShadow_1568_661"/>
<feBlend mode="normal" in="SourceGraphic" in2="effect1_dropShadow_1568_661" result="shape"/>
</filter>
<filter id="filter1_d_1568_661" x="0.5" y="25" width="5" height="29" filterUnits="userSpaceOnUse" color-interpolation-filters="sRGB">
<feFlood flood-opacity="0" result="BackgroundImageFix"/>
<feColorMatrix in="SourceAlpha" type="matrix" values="0 0 0 0 0 0 0 0 0 0 0 0 0 0 0 0 0 0 127 0" result="hardAlpha"/>
<feOffset dy="1"/>
<feGaussianBlur stdDeviation="1"/>
<feComposite in2="hardAlpha" operator="out"/>
<feColorMatrix type="matrix" values="0 0 0 0 0 0 0 0 0 0 0 0 0 0 0 0 0 0 0.25 0"/>
<feBlend mode="normal" in2="BackgroundImageFix" result="effect1_dropShadow_1568_661"/>
<feBlend mode="normal" in="SourceGraphic" in2="effect1_dropShadow_1568_661" result="shape"/>
</filter>
<filter id="filter2_d_1568_661" x="100.5" y="25" width="5" height="29" filterUnits="userSpaceOnUse" color-interpolation-filters="sRGB">
<feFlood flood-opacity="0" result="BackgroundImageFix"/>
<feColorMatrix in="SourceAlpha" type="matrix" values="0 0 0 0 0 0 0 0 0 0 0 0 0 0 0 0 0 0 127 0" result="hardAlpha"/>
<feOffset dy="1"/>
<feGaussianBlur stdDeviation="1"/>
<feComposite in2="hardAlpha" operator="out"/>
<feColorMatrix type="matrix" values="0 0 0 0 0 0 0 0 0 0 0 0 0 0 0 0 0 0 0.25 0"/>
<feBlend mode="normal" in2="BackgroundImageFix" result="effect1_dropShadow_1568_661"/>
<feBlend mode="normal" in="SourceGraphic" in2="effect1_dropShadow_1568_661" result="shape"/>
</filter>
</defs>
</svg>
