<svg width="258" height="164" viewBox="0 0 258 164" fill="none" xmlns="http://www.w3.org/2000/svg">
<path fill-rule="evenodd" clip-rule="evenodd" d="M45.2667 117.533C66.401 117.533 83.5333 100.401 83.5333 79.2667C83.5333 58.1326 66.401 41 45.2667 41C24.1323 41 7 58.1326 7 79.2667C7 100.401 24.1323 117.533 45.2667 117.533ZM37.7685 54.5053C41.6966 56.0513 44.5547 58.9972 46.2727 62.2724C48.1912 65.8633 49.1148 71.049 49.3564 74.6433C49.4342 77.8229 49.1473 80.8697 48.8828 83.5889L48.611 85.597C47.7122 93.9775 48.497 97.6271 51.3847 101.423C52.0059 102.116 52.8576 102.83 54.4892 103.482C54.0529 103.081 53.4293 102.461 53.887 101.342C54.4378 100.032 56.2724 99.3968 58.333 100.205C59.8637 100.801 61.8273 102.805 60.9965 104.814C60.136 106.905 56.9877 107.546 53.1241 106.023C51.0638 105.215 46.6761 102.867 43.6321 97.0377C40.0975 90.3946 40.5726 84.4305 40.924 80.0219L40.9347 79.885L41.6263 74.133L42.1111 69.9463C42.6707 64.5564 41.1225 59.0865 35.3273 56.8025C35.5598 57.4284 35.5655 57.8781 35.3976 58.3389C34.8706 59.5823 33.3273 59.9511 31.5456 59.2448C29.1486 58.2946 29.1239 56.2345 29.5029 55.3286C30.3362 53.2459 33.8407 52.9591 37.7685 54.5053Z" fill="black"/>
<path d="M91.96 51.4H101.228C103.375 51.4 105.279 51.8013 106.94 52.604C108.601 53.4067 109.889 54.5453 110.804 56.02C111.719 57.4947 112.176 59.2213 112.176 61.2C112.176 63.1787 111.719 64.9053 110.804 66.38C109.889 67.8547 108.601 68.9933 106.94 69.796C105.279 70.5987 103.375 71 101.228 71H91.96V51.4ZM101.004 66.576C102.684 66.576 104.028 66.1 105.036 65.148C106.063 64.196 106.576 62.88 106.576 61.2C106.576 59.52 106.063 58.204 105.036 57.252C104.028 56.3 102.684 55.824 101.004 55.824H97.504V66.576H101.004ZM130.829 66.716V71H115.093V51.4H130.465V55.684H120.581V58.988H129.289V63.132H120.581V66.716H130.829ZM140.793 71.392C139.207 71.392 137.667 71.196 136.173 70.804C134.68 70.412 133.467 69.8893 132.533 69.236L134.353 65.148C135.231 65.7267 136.248 66.1933 137.405 66.548C138.563 66.9027 139.701 67.08 140.821 67.08C142.949 67.08 144.013 66.548 144.013 65.484C144.013 64.924 143.705 64.5133 143.089 64.252C142.492 63.972 141.521 63.6827 140.177 63.384C138.703 63.0667 137.471 62.7307 136.481 62.376C135.492 62.0027 134.643 61.4147 133.933 60.612C133.224 59.8093 132.869 58.7267 132.869 57.364C132.869 56.1693 133.196 55.096 133.849 54.144C134.503 53.1733 135.473 52.408 136.761 51.848C138.068 51.288 139.664 51.008 141.549 51.008C142.837 51.008 144.107 51.1573 145.357 51.456C146.608 51.736 147.709 52.156 148.661 52.716L146.953 56.832C145.087 55.824 143.276 55.32 141.521 55.32C140.42 55.32 139.617 55.488 139.113 55.824C138.609 56.1413 138.357 56.5613 138.357 57.084C138.357 57.6067 138.656 57.9987 139.253 58.26C139.851 58.5213 140.812 58.792 142.137 59.072C143.631 59.3893 144.863 59.7347 145.833 60.108C146.823 60.4627 147.672 61.0413 148.381 61.844C149.109 62.628 149.473 63.7013 149.473 65.064C149.473 66.24 149.147 67.304 148.493 68.256C147.84 69.208 146.86 69.9733 145.553 70.552C144.247 71.112 142.66 71.392 140.793 71.392ZM152.034 51.4H157.578V71H152.034V51.4ZM174.655 60.78H179.555V68.9C178.435 69.7027 177.147 70.3187 175.691 70.748C174.235 71.1773 172.779 71.392 171.323 71.392C169.269 71.392 167.421 70.9627 165.779 70.104C164.136 69.2267 162.848 68.0133 161.915 66.464C160.981 64.9147 160.515 63.16 160.515 61.2C160.515 59.24 160.981 57.4853 161.915 55.936C162.848 54.3867 164.145 53.1827 165.807 52.324C167.468 51.4467 169.344 51.008 171.435 51.008C173.264 51.008 174.907 51.316 176.363 51.932C177.819 52.548 179.032 53.4347 180.003 54.592L176.475 57.784C175.149 56.328 173.563 55.6 171.715 55.6C170.035 55.6 168.681 56.1133 167.655 57.14C166.628 58.148 166.115 59.5013 166.115 61.2C166.115 62.2827 166.348 63.2533 166.815 64.112C167.281 64.952 167.935 65.6147 168.775 66.1C169.615 66.5667 170.576 66.8 171.659 66.8C172.723 66.8 173.721 66.5853 174.655 66.156V60.78ZM201.717 51.4V71H197.153L188.501 60.556V71H183.069V51.4H187.633L196.285 61.844V51.4H201.717ZM100.92 85.4C102.693 85.4 104.233 85.6987 105.54 86.296C106.847 86.8747 107.855 87.7147 108.564 88.816C109.273 89.8987 109.628 91.1773 109.628 92.652C109.628 94.1267 109.273 95.4053 108.564 96.488C107.855 97.5707 106.847 98.4107 105.54 99.008C104.233 99.5867 102.693 99.876 100.92 99.876H97.504V105H91.96V85.4H100.92ZM100.584 95.508C101.723 95.508 102.581 95.2653 103.16 94.78C103.739 94.276 104.028 93.5667 104.028 92.652C104.028 91.7373 103.739 91.028 103.16 90.524C102.581 90.02 101.723 89.768 100.584 89.768H97.504V95.508H100.584ZM124.479 101.192H116.191L114.651 105H108.995L117.647 85.4H123.107L131.787 105H126.019L124.479 101.192ZM122.855 97.104L120.335 90.832L117.815 97.104H122.855ZM136.546 89.796H130.526V85.4H148.082V89.796H142.09V105H136.546V89.796ZM154.593 89.796H148.573V85.4H166.129V89.796H160.137V105H154.593V89.796ZM183.93 100.716V105H168.194V85.4H183.566V89.684H173.682V92.988H182.39V97.132H173.682V100.716H183.93ZM195.575 99.792H192.551V105H187.007V85.4H195.967C197.74 85.4 199.28 85.6987 200.587 86.296C201.894 86.8747 202.902 87.7147 203.611 88.816C204.32 89.8987 204.675 91.1773 204.675 92.652C204.675 94.0707 204.339 95.312 203.667 96.376C203.014 97.4213 202.071 98.2427 200.839 98.84L205.067 105H199.131L195.575 99.792ZM199.075 92.652C199.075 91.7373 198.786 91.028 198.207 90.524C197.628 90.02 196.77 89.768 195.631 89.768H192.551V95.508H195.631C196.77 95.508 197.628 95.2653 198.207 94.78C198.786 94.276 199.075 93.5667 199.075 92.652ZM226.381 85.4V105H221.817L213.165 94.556V105H207.733V85.4H212.297L220.949 95.844V85.4H226.381ZM237.18 105.392C235.593 105.392 234.053 105.196 232.56 104.804C231.067 104.412 229.853 103.889 228.92 103.236L230.74 99.148C231.617 99.7267 232.635 100.193 233.792 100.548C234.949 100.903 236.088 101.08 237.208 101.08C239.336 101.08 240.4 100.548 240.4 99.484C240.4 98.924 240.092 98.5133 239.476 98.252C238.879 97.972 237.908 97.6827 236.564 97.384C235.089 97.0667 233.857 96.7307 232.868 96.376C231.879 96.0027 231.029 95.4147 230.32 94.612C229.611 93.8093 229.256 92.7267 229.256 91.364C229.256 90.1693 229.583 89.096 230.236 88.144C230.889 87.1733 231.86 86.408 233.148 85.848C234.455 85.288 236.051 85.008 237.936 85.008C239.224 85.008 240.493 85.1573 241.744 85.456C242.995 85.736 244.096 86.156 245.048 86.716L243.34 90.832C241.473 89.824 239.663 89.32 237.908 89.32C236.807 89.32 236.004 89.488 235.5 89.824C234.996 90.1413 234.744 90.5613 234.744 91.084C234.744 91.6067 235.043 91.9987 235.64 92.26C236.237 92.5213 237.199 92.792 238.524 93.072C240.017 93.3893 241.249 93.7347 242.22 94.108C243.209 94.4627 244.059 95.0413 244.768 95.844C245.496 96.628 245.86 97.7013 245.86 99.064C245.86 100.24 245.533 101.304 244.88 102.256C244.227 103.208 243.247 103.973 241.94 104.552C240.633 105.112 239.047 105.392 237.18 105.392Z" fill="black"/>
</svg>
