<svg width="77" height="77" viewBox="0 0 77 77" fill="none" xmlns="http://www.w3.org/2000/svg">
<circle cx="38.5" cy="38.5" r="38.5" fill="#2695AD"/>
<path d="M34.4153 32.08L39.3113 25.68H43.1513L35.5673 34.8L40.3353 46H32.4313L29.7113 39.632L24.7833 46H20.9432L28.4953 36.752L23.7913 25.68H31.6953L34.4153 32.08ZM46.3373 51.376H39.8092L43.8413 32.24H49.0573L49.6333 34.288H49.8253C50.5933 33.4773 51.4466 32.9013 52.3853 32.56C53.3453 32.1973 54.2839 32.016 55.2013 32.016C55.9479 32.016 56.5666 32.1333 57.0573 32.368C57.5693 32.5813 57.9746 32.88 58.2733 33.264C58.5719 33.648 58.7853 34.1067 58.9132 34.64C59.0413 35.1733 59.1053 35.7387 59.1053 36.336C59.1053 36.6347 59.0839 37.0827 59.0413 37.68C58.9986 38.2773 58.9026 38.9493 58.7533 39.696C58.6039 40.4213 58.3906 41.1787 58.1133 41.968C57.8359 42.736 57.4626 43.44 56.9933 44.08C56.5453 44.72 55.9693 45.2427 55.2653 45.648C54.5826 46.0533 53.7613 46.256 52.8013 46.256C52.2679 46.256 51.7453 46.192 51.2333 46.064C50.7426 45.936 50.2946 45.7653 49.8893 45.552C49.4839 45.3387 49.1213 45.0933 48.8013 44.816C48.5026 44.5173 48.2786 44.2187 48.1293 43.92H47.9373L46.3373 51.376ZM49.7292 43.152C50.2413 43.152 50.6679 42.8853 51.0093 42.352C51.3506 41.7973 51.6279 41.1573 51.8413 40.432C52.0546 39.6853 52.2039 38.9493 52.2893 38.224C52.3959 37.4773 52.4493 36.9227 52.4493 36.56C52.4493 36.1333 52.3746 35.7813 52.2253 35.504C52.0973 35.2267 51.8519 35.088 51.4893 35.088C51.0839 35.088 50.6999 35.2373 50.3373 35.536C49.9746 35.8133 49.7079 36.0587 49.5373 36.272L48.2893 42.128C48.4599 42.3627 48.6626 42.5973 48.8973 42.832C49.1319 43.0453 49.4093 43.152 49.7292 43.152Z" fill="white"/>
</svg>
