<svg width="77" height="77" viewBox="0 0 77 77" fill="none" xmlns="http://www.w3.org/2000/svg">
<path fill-rule="evenodd" clip-rule="evenodd" d="M38.5 77C59.763 77 77 59.763 77 38.5C77 17.237 59.763 0 38.5 0C17.237 0 0 17.237 0 38.5C0 59.763 17.237 77 38.5 77ZM36.3112 26.68L31.4153 33.08L28.6953 26.68H20.7913L25.4953 37.752L17.9433 47H21.7833L26.7113 40.632L29.4313 47H37.3353L32.5672 35.8L40.1513 26.68H36.3112ZM36.8092 52.376H43.3372L44.9372 44.92H45.1292C45.2786 45.2187 45.5026 45.5173 45.8013 45.816C46.1213 46.0933 46.4839 46.3387 46.8893 46.552C47.2946 46.7653 47.7426 46.936 48.2332 47.064C48.7453 47.192 49.2679 47.256 49.8013 47.256C50.7612 47.256 51.5826 47.0533 52.2653 46.648C52.9692 46.2427 53.5452 45.72 53.9933 45.08C54.4626 44.44 54.8359 43.736 55.1133 42.968C55.3906 42.1787 55.6039 41.4213 55.7533 40.696C55.9026 39.9493 55.9986 39.2773 56.0413 38.68C56.0839 38.0827 56.1053 37.6347 56.1053 37.336C56.1053 36.7387 56.0413 36.1733 55.9132 35.64C55.7853 35.1067 55.5719 34.648 55.2733 34.264C54.9746 33.88 54.5693 33.5813 54.0573 33.368C53.5666 33.1333 52.9479 33.016 52.2013 33.016C51.2839 33.016 50.3452 33.1973 49.3853 33.56C48.4466 33.9013 47.5933 34.4773 46.8252 35.288H46.6333L46.0573 33.24H40.8413L36.8092 52.376ZM48.0093 43.352C47.6679 43.8853 47.2412 44.152 46.7292 44.152C46.4092 44.152 46.1319 44.0453 45.8973 43.832C45.6626 43.5973 45.4599 43.3627 45.2892 43.128L46.5373 37.272C46.7079 37.0587 46.9746 36.8133 47.3372 36.536C47.6999 36.2373 48.0839 36.088 48.4893 36.088C48.8519 36.088 49.0973 36.2267 49.2253 36.504C49.3746 36.7813 49.4492 37.1333 49.4492 37.56C49.4492 37.9227 49.3959 38.4773 49.2892 39.224C49.2039 39.9493 49.0546 40.6853 48.8413 41.432C48.6279 42.1573 48.3506 42.7973 48.0093 43.352Z" fill="white"/>
</svg>
