<svg width="83" height="83" viewBox="0 0 83 83" fill="none" xmlns="http://www.w3.org/2000/svg">
<circle cx="41.5" cy="41.5" r="40" fill="#3A2859" stroke="white" stroke-width="3"/>
<path d="M35.7691 33.6L41.8891 25.6H46.6891L37.2091 37L43.1691 51H33.2891L29.8891 43.04L23.7291 51H18.9291L28.3691 39.44L22.4891 25.6H32.3691L35.7691 33.6ZM50.6716 57.72H42.5116L47.5516 33.8H54.0716L54.7916 36.36H55.0316C55.9916 35.3467 57.0582 34.6267 58.2316 34.2C59.4316 33.7467 60.6049 33.52 61.7516 33.52C62.6849 33.52 63.4582 33.6667 64.0716 33.96C64.7116 34.2267 65.2182 34.6 65.5916 35.08C65.9649 35.56 66.2316 36.1333 66.3916 36.8C66.5516 37.4667 66.6316 38.1733 66.6316 38.92C66.6316 39.2933 66.6049 39.8533 66.5516 40.6C66.4982 41.3467 66.3782 42.1867 66.1916 43.12C66.0049 44.0267 65.7382 44.9733 65.3916 45.96C65.0449 46.92 64.5782 47.8 63.9916 48.6C63.4316 49.4 62.7116 50.0533 61.8316 50.56C60.9782 51.0667 59.9516 51.32 58.7516 51.32C58.0849 51.32 57.4316 51.24 56.7916 51.08C56.1782 50.92 55.6182 50.7067 55.1116 50.44C54.6049 50.1733 54.1516 49.8667 53.7516 49.52C53.3782 49.1467 53.0982 48.7733 52.9116 48.4H52.6716L50.6716 57.72ZM54.9116 47.44C55.5516 47.44 56.0849 47.1067 56.5116 46.44C56.9382 45.7467 57.2849 44.9467 57.5516 44.04C57.8182 43.1067 58.0049 42.1867 58.1116 41.28C58.2449 40.3467 58.3116 39.6533 58.3116 39.2C58.3116 38.6667 58.2182 38.2267 58.0316 37.88C57.8716 37.5333 57.5649 37.36 57.1116 37.36C56.6049 37.36 56.1249 37.5467 55.6716 37.92C55.2182 38.2667 54.8849 38.5733 54.6716 38.84L53.1116 46.16C53.3249 46.4533 53.5782 46.7467 53.8716 47.04C54.1649 47.3067 54.5116 47.44 54.9116 47.44Z" fill="white"/>
</svg>
