<svg width="77" height="77" viewBox="0 0 77 77" fill="none" xmlns="http://www.w3.org/2000/svg">
<path fill-rule="evenodd" clip-rule="evenodd" d="M38.5 77C59.7632 77 77 59.7629 77 38.5C77 17.2371 59.7632 0 38.5 0C17.2368 0 0 17.2371 0 38.5C0 59.7629 17.2368 77 38.5 77ZM38.8892 22.6001L32.769 30.6001L29.3691 22.6001H19.4893L25.3691 36.4399L15.9292 48H20.729L26.8892 40.04L30.2891 48H40.1689L34.209 34L43.689 22.6001H38.8892ZM39.5117 54.72H47.6714L49.6714 45.3999H49.9116C50.0278 45.6323 50.1802 45.8645 50.3687 46.0967C50.4829 46.2378 50.6104 46.3789 50.7515 46.52C51.1514 46.8667 51.605 47.1733 52.1113 47.4399C52.6182 47.7068 53.1782 47.9199 53.7915 48.0801C54.4316 48.24 55.085 48.3201 55.7515 48.3201C56.9517 48.3201 57.978 48.0667 58.8315 47.5601C59.7114 47.0532 60.4316 46.3999 60.9917 45.6001C61.5781 44.8 62.0449 43.9199 62.3916 42.96C62.7383 41.9734 63.0049 41.0266 63.1914 40.1201C63.2915 39.6206 63.3721 39.1479 63.4341 38.7019C63.4878 38.3145 63.5269 37.9473 63.5518 37.6001C63.5859 37.1201 63.6094 36.7173 63.6211 36.3916C63.6279 36.2104 63.6313 36.0532 63.6313 35.9199C63.6313 35.1733 63.5518 34.4666 63.3916 33.8C63.2314 33.1333 62.9648 32.5601 62.5918 32.0801C62.2183 31.6001 61.7114 31.2266 61.0718 30.96C60.458 30.6667 59.6851 30.52 58.7515 30.52C57.605 30.52 56.4316 30.7466 55.2314 31.2C54.0581 31.6267 52.9917 32.3467 52.0317 33.3601H51.7915L51.0718 30.8H44.5518L39.5117 54.72ZM52.5337 44.322C52.3389 44.4006 52.1313 44.4399 51.9116 44.4399C51.5117 44.4399 51.165 44.3066 50.8716 44.04C50.5781 43.7466 50.3247 43.4534 50.1113 43.1599L51.6714 35.8401C51.8848 35.5732 52.2183 35.2666 52.6714 34.9199C53.125 34.5466 53.605 34.3601 54.1113 34.3601C54.5649 34.3601 54.8716 34.5334 55.0317 34.8799C55.2183 35.2266 55.3115 35.6667 55.3115 36.2C55.3115 36.4385 55.293 36.7434 55.2563 37.1147C55.2231 37.4492 55.1748 37.8376 55.1113 38.28C55.0049 39.1868 54.8184 40.1067 54.5518 41.04C54.2847 41.9468 53.938 42.7466 53.5117 43.4399C53.2314 43.8777 52.9053 44.1716 52.5337 44.322Z" fill="white"/>
</svg>
