<svg width="71" height="121" viewBox="0 0 71 121" fill="none" xmlns="http://www.w3.org/2000/svg">
<path d="M16.102 108.137L16.0614 97.5625L22.6014 97.5374L22.6053 98.5724L17.2954 98.5928L17.3096 102.283L22.3195 102.264L22.3235 103.299L17.3135 103.318L17.332 108.133L16.102 108.137ZM23.9698 99.0022L23.9645 97.6372L25.4645 97.6314L25.4698 98.9964L23.9698 99.0022ZM24.1547 108.107L24.1267 100.817L25.3417 100.812L25.3697 108.102L24.1547 108.107ZM30.8769 110.916C30.2469 110.918 29.6516 110.835 29.0909 110.668C28.5403 110.51 28.0494 110.267 27.6181 109.938L28.0197 109.052C28.4709 109.37 28.9168 109.598 29.3574 109.737C29.8079 109.875 30.2932 109.943 30.8132 109.941C32.2531 109.935 32.9703 109.193 32.9646 107.713L32.9597 106.423C32.7514 106.883 32.4228 107.25 31.9739 107.521C31.5349 107.783 31.0304 107.915 30.4604 107.917C29.7904 107.92 29.2098 107.767 28.7186 107.459C28.2274 107.151 27.8458 106.727 27.5737 106.188C27.3116 105.639 27.1792 105.005 27.1764 104.285C27.1737 103.565 27.3012 102.934 27.5592 102.393C27.827 101.842 28.2054 101.416 28.6943 101.114C29.1831 100.812 29.7625 100.66 30.4325 100.657C31.0025 100.655 31.508 100.783 31.949 101.042C32.4 101.3 32.7314 101.654 32.9431 102.103L32.938 100.783L34.123 100.778L34.149 107.543C34.1533 108.663 33.8765 109.504 33.3187 110.066C32.7708 110.628 31.9569 110.912 30.8769 110.916ZM30.6816 106.926C31.3816 106.924 31.9357 106.682 32.3438 106.2C32.752 105.718 32.9545 105.073 32.9514 104.263C32.9483 103.453 32.7408 102.814 32.329 102.345C31.9172 101.867 31.3612 101.629 30.6613 101.631C29.9713 101.634 29.4222 101.876 29.014 102.358C28.6058 102.829 28.4033 103.47 28.4064 104.28C28.4095 105.09 28.617 105.734 29.0288 106.213C29.4407 106.691 29.9916 106.929 30.6816 106.926ZM36.46 108.059L36.432 100.769L37.617 100.765L37.6218 101.995C37.8401 101.554 38.1438 101.218 38.5329 100.986C38.922 100.745 39.3765 100.623 39.8965 100.621C41.0365 100.617 41.7684 101.109 42.0922 102.098C42.3104 101.637 42.634 101.276 43.063 101.014C43.492 100.742 43.9865 100.605 44.5465 100.603C46.1665 100.597 46.9801 101.554 46.9875 103.474L47.005 108.019L45.79 108.023L45.7727 103.538C45.7702 102.868 45.6483 102.379 45.4071 102.07C45.1759 101.751 44.7903 101.592 44.2503 101.594C43.6603 101.597 43.1911 101.808 42.8427 102.23C42.4943 102.651 42.3215 103.212 42.3242 103.912L42.34 108.037L41.125 108.041L41.1078 103.556C41.1052 102.886 40.9833 102.397 40.7421 102.088C40.5109 101.769 40.1253 101.61 39.5853 101.612C38.9853 101.615 38.5111 101.826 38.1627 102.248C37.8244 102.669 37.6565 103.23 37.6592 103.93L37.675 108.055L36.46 108.059ZM51.5721 108.136C51.0721 108.138 50.6218 108.045 50.221 107.856C49.8303 107.658 49.5192 107.389 49.2879 107.05C49.0566 106.711 48.9402 106.331 48.9386 105.911C48.9365 105.381 49.0699 104.961 49.3387 104.65C49.6175 104.339 50.0717 104.117 50.7012 103.985C51.3406 103.842 52.2104 103.769 53.3104 103.765L53.7903 103.763L53.7886 103.298C53.7862 102.678 53.6545 102.233 53.3934 101.964C53.1424 101.685 52.7368 101.547 52.1768 101.549C51.7368 101.551 51.3121 101.617 50.9026 101.749C50.4931 101.87 50.0738 102.072 49.6449 102.354L49.2215 101.47C49.6005 101.199 50.0596 100.982 50.599 100.82C51.1484 100.658 51.6731 100.576 52.1731 100.574C53.1131 100.57 53.809 100.798 54.2607 101.256C54.7225 101.714 54.9552 102.428 54.959 103.398L54.9766 107.988L53.8366 107.993L53.8318 106.733C53.6434 107.163 53.3497 107.504 52.9507 107.756C52.5616 108.007 52.1021 108.134 51.5721 108.136ZM51.7636 107.22C52.3636 107.218 52.8528 107.011 53.2312 106.6C53.6096 106.178 53.7976 105.648 53.7951 105.008L53.7934 104.558L53.3284 104.559C52.5184 104.563 51.8786 104.605 51.4089 104.687C50.9492 104.759 50.6247 104.89 50.4354 105.081C50.2561 105.261 50.167 105.512 50.1683 105.832C50.1698 106.242 50.3111 106.576 50.5921 106.835C50.8831 107.094 51.2736 107.222 51.7636 107.22Z" fill="url(#paint0_linear_1618_734)"/>
<path d="M26.0454 73.9923C31.4599 73.9715 35.8385 69.5592 35.8177 64.1447L35.78 54.3348L25.9701 54.3725C20.5556 54.3933 16.177 58.8056 16.1978 64.2201C16.2186 69.6346 20.6309 74.0131 26.0454 73.9923Z" fill="url(#paint1_linear_1618_734)"/>
<path d="M16.1138 44.5902C16.093 39.1757 20.4716 34.7634 25.8861 34.7426L35.696 34.7049L35.7714 54.3351L25.9615 54.3727C20.547 54.3935 16.1347 50.015 16.1139 44.6005L16.1138 44.5902Z" fill="url(#paint2_linear_1618_734)"/>
<path d="M16.0377 24.9603C16.0169 19.5458 20.3954 15.1335 25.8099 15.1127L35.6198 15.0751L35.6952 34.7052L25.8853 34.7429C20.4708 34.7637 16.0585 30.3851 16.0377 24.9706L16.0377 24.9603Z" fill="url(#paint3_linear_1618_734)"/>
<path d="M35.5371 15.0752L45.347 15.0375C50.7615 15.0167 55.1738 19.3953 55.1946 24.8098C55.2154 30.2243 50.8369 34.6366 45.4224 34.6574L35.6124 34.695L35.5371 15.0752Z" fill="url(#paint4_linear_1618_734)"/>
<path d="M55.3737 44.4393C55.3945 49.8538 51.016 54.2661 45.6015 54.2869C40.187 54.3077 35.6717 49.9295 35.6509 44.515C35.6302 39.1005 40.0087 34.6882 45.4232 34.6674C50.8377 34.6466 55.25 39.0252 55.2708 44.4397L55.3737 44.4393Z" fill="url(#paint5_linear_1618_734)"/>
<defs>
<linearGradient id="paint0_linear_1618_734" x1="35.3863" y1="93.0633" x2="35.4707" y2="115.063" gradientUnits="userSpaceOnUse">
<stop stop-color="#ACADAD"/>
<stop offset="1" stop-color="#7A7D7E"/>
</linearGradient>
<linearGradient id="paint1_linear_1618_734" x1="25.9701" y1="54.3725" x2="26.0454" y2="73.9923" gradientUnits="userSpaceOnUse">
<stop stop-color="#20644A"/>
<stop offset="1" stop-color="#14563D"/>
</linearGradient>
<linearGradient id="paint2_linear_1618_734" x1="25.8861" y1="34.7426" x2="25.9615" y2="54.3727" gradientUnits="userSpaceOnUse">
<stop stop-color="#7145A9"/>
<stop offset="1" stop-color="#562A8D"/>
</linearGradient>
<linearGradient id="paint3_linear_1618_734" x1="25.8099" y1="15.1127" x2="25.8853" y2="34.7429" gradientUnits="userSpaceOnUse">
<stop stop-color="#B35439"/>
<stop offset="1" stop-color="#A44428"/>
</linearGradient>
<linearGradient id="paint4_linear_1618_734" x1="45.347" y1="15.0375" x2="45.4224" y2="34.6574" gradientUnits="userSpaceOnUse">
<stop stop-color="#9C463D"/>
<stop offset="1" stop-color="#71261D"/>
</linearGradient>
<linearGradient id="paint5_linear_1618_734" x1="45.4747" y1="34.6672" x2="45.55" y2="54.2871" gradientUnits="userSpaceOnUse">
<stop stop-color="#3986A6"/>
<stop offset="1" stop-color="#2B718D"/>
</linearGradient>
</defs>
</svg>
