<svg width="71" height="121" viewBox="0 0 71 121" fill="none" xmlns="http://www.w3.org/2000/svg">
<path d="M31.7723 108.212C30.0723 108.219 28.7755 107.744 27.8818 106.787C26.9881 105.831 26.538 104.507 26.5315 102.817C26.5272 101.697 26.7235 100.732 27.1204 99.9201C27.5173 99.1085 28.0899 98.4813 28.8382 98.0385C29.5865 97.5956 30.4906 97.3721 31.5506 97.368C32.3006 97.3652 32.9911 97.4775 33.6219 97.7051C34.2528 97.9227 34.789 98.2456 35.2307 98.6739L34.7545 99.6658C34.2729 99.2476 33.7767 98.9445 33.266 98.7565C32.7552 98.5684 32.1799 98.4756 31.5399 98.4781C30.3399 98.4827 29.4214 98.8662 28.7843 99.6287C28.1472 100.381 27.8312 101.442 27.8365 102.812C27.8419 104.212 28.176 105.281 28.8388 106.019C29.5017 106.756 30.4881 107.122 31.7981 107.117C32.6481 107.114 33.4625 106.966 34.2414 106.673L34.2293 103.538L31.5444 103.548L31.5406 102.573L35.2906 102.559L35.3094 107.449C35.0299 107.6 34.6904 107.731 34.2909 107.843C33.9013 107.954 33.4866 108.041 33.0469 108.102C32.6071 108.174 32.1823 108.211 31.7723 108.212ZM37.4755 98.9503L37.4703 97.5853L38.9703 97.5795L38.9755 98.9445L37.4755 98.9503ZM37.6605 108.055L37.6325 100.765L38.8475 100.76L38.8755 108.05L37.6605 108.055ZM44.0723 108.165C43.2123 108.168 42.5664 107.946 42.1347 107.497C41.703 107.039 41.4854 106.38 41.4821 105.52L41.4674 101.695L40.0424 101.7L40.0388 100.755L41.4638 100.75L41.4552 98.515L42.6702 98.5103L42.6788 100.745L44.9888 100.736L44.9924 101.681L42.6824 101.69L42.6967 105.395C42.6988 105.965 42.8205 106.4 43.0617 106.699C43.3028 106.988 43.6933 107.131 44.2333 107.129C44.3933 107.129 44.5532 107.108 44.7131 107.068C44.8729 107.027 45.0178 106.986 45.1476 106.946L45.3612 107.875C45.2315 107.946 45.0417 108.011 44.7919 108.072C44.5422 108.133 44.3023 108.164 44.0723 108.165Z" fill="url(#paint0_linear_1618_712)"/>
<g filter="url(#filter0_d_1618_712)">
<path d="M63.7576 41.7581L38.0047 16.2022C36.5331 14.7418 34.1413 14.751 32.6424 16.2228L27.339 21.567L34.1161 28.2922C35.6958 27.7461 37.4717 28.0865 38.7496 29.3546C40.0276 30.6228 40.3818 32.4347 39.8478 34.0184L46.3925 40.5131C47.9721 39.9669 49.7866 40.3072 51.0646 41.5754C52.846 43.3431 52.8568 46.1593 51.089 47.9408C49.3212 49.7222 46.505 49.733 44.7236 47.9652C43.4069 46.6586 43.0522 44.6924 43.7404 43.0695L37.6604 37.036L37.7217 53.0073C38.1469 53.2371 38.5723 53.5056 38.9209 53.8514C40.7023 55.6192 40.7131 58.4354 38.9453 60.2168C37.1775 61.9982 34.3227 62.0092 32.5799 60.2412C30.7985 58.4735 30.7876 55.6187 32.5555 53.8759C32.9782 53.4499 33.4784 53.1007 34.0177 52.9058L33.9558 36.7802C33.4148 36.5508 32.9121 36.2441 32.4862 35.8213C31.1307 34.4763 30.8147 32.5486 31.5027 30.887L24.7258 24.2004L7.20176 41.8595C5.74142 43.3311 5.75061 45.723 7.22235 47.2219L32.9753 72.7778C34.4469 74.2381 36.8387 74.2289 38.3376 72.7572L63.7782 47.1205C65.2384 45.6103 65.2292 43.2184 63.7576 41.7581Z" fill="url(#paint1_linear_1618_712)"/>
</g>
<defs>
<filter id="filter0_d_1618_712" x="2.11328" y="13.1133" width="66.7539" height="66.7539" filterUnits="userSpaceOnUse" color-interpolation-filters="sRGB">
<feFlood flood-opacity="0" result="BackgroundImageFix"/>
<feColorMatrix in="SourceAlpha" type="matrix" values="0 0 0 0 0 0 0 0 0 0 0 0 0 0 0 0 0 0 127 0" result="hardAlpha"/>
<feOffset dy="2"/>
<feGaussianBlur stdDeviation="2"/>
<feComposite in2="hardAlpha" operator="out"/>
<feColorMatrix type="matrix" values="0 0 0 0 0 0 0 0 0 0 0 0 0 0 0 0 0 0 0.25 0"/>
<feBlend mode="normal" in2="BackgroundImageFix" result="effect1_dropShadow_1618_712"/>
<feBlend mode="normal" in="SourceGraphic" in2="effect1_dropShadow_1618_712" result="shape"/>
</filter>
<linearGradient id="paint0_linear_1618_712" x1="35.3863" y1="93.0633" x2="35.4707" y2="115.063" gradientUnits="userSpaceOnUse">
<stop stop-color="#ACADAD"/>
<stop offset="1" stop-color="#7A7D7E"/>
</linearGradient>
<linearGradient id="paint1_linear_1618_712" x1="35.3772" y1="15.1128" x2="35.6028" y2="73.8672" gradientUnits="userSpaceOnUse">
<stop stop-color="#BD523D"/>
<stop offset="1" stop-color="#8E2F1D"/>
</linearGradient>
</defs>
</svg>
