<svg width="20" height="23" viewBox="0 0 20 23" fill="none" xmlns="http://www.w3.org/2000/svg">
<path fill-rule="evenodd" clip-rule="evenodd" d="M8.13281 10.3809V10.8447V12.1631C8.14909 12.7327 8.1735 13.3594 8.20605 14.043C8.25488 14.7266 8.33626 15.4264 8.4502 16.1426C8.56413 16.8424 8.71061 17.4854 8.88965 18.0713C9.08496 18.641 9.33724 19.113 9.64648 19.4873C9.95573 19.8617 10.3382 20.0488 10.7939 20.0488C11.5426 20.0488 11.917 19.6826 11.917 18.9502C11.917 18.1038 11.8112 17.1924 11.5996 16.2158C11.4043 15.2393 11.1764 14.2546 10.916 13.2617C10.6556 12.2526 10.4115 11.2516 10.1836 10.2588C9.95573 9.26595 9.81738 8.33008 9.76855 7.45117C9.47559 7.54883 9.18262 7.67904 8.88965 7.8418C8.61296 8.00456 8.38509 8.21615 8.20605 8.47656C8.20605 8.57422 8.19792 8.73698 8.18164 8.96484C8.18164 9.19271 8.1735 9.42871 8.15723 9.67285C8.15723 9.91699 8.14909 10.153 8.13281 10.3809ZM9.25586 2.32422C9.04427 2.03125 8.78385 1.81966 8.47461 1.68945C8.01888 1.68945 7.7015 1.85221 7.52246 2.17773C7.3597 2.50326 7.27832 2.88574 7.27832 3.3252C8.07585 3.60189 8.64551 3.69954 8.9873 3.61816C9.3291 3.52051 9.50814 3.35775 9.52441 3.12988C9.55697 2.88574 9.46745 2.61719 9.25586 2.32422Z" fill="#FAFAFA"/>
</svg>
