<svg width="71" height="121" viewBox="0 0 71 121" fill="none" xmlns="http://www.w3.org/2000/svg">
<path d="M12.0884 108.153L12.0478 97.5779L13.2778 97.5732L13.3142 107.068L18.6992 107.047L18.7033 108.127L12.0884 108.153ZM22.3634 108.248C21.8634 108.25 21.413 108.157 21.0123 107.969C20.6215 107.77 20.3105 107.501 20.0792 107.162C19.8479 106.823 19.7314 106.443 19.7298 106.023C19.7278 105.493 19.8611 105.073 20.13 104.762C20.4088 104.451 20.8629 104.229 21.4924 104.097C22.1319 103.954 23.0016 103.881 24.1016 103.877L24.5816 103.875L24.5798 103.41C24.5774 102.79 24.4457 102.345 24.1847 102.076C23.9336 101.797 23.5281 101.659 22.9681 101.661C22.5281 101.663 22.1033 101.729 21.6938 101.861C21.2843 101.982 20.8651 102.184 20.4361 102.466L20.0127 101.582C20.3917 101.311 20.8509 101.094 21.3903 100.932C21.9396 100.77 22.4643 100.688 22.9643 100.686C23.9043 100.682 24.6002 100.91 25.052 101.368C25.5137 101.826 25.7465 102.54 25.7502 103.51L25.7678 108.1L24.6278 108.105L24.623 106.845C24.4346 107.275 24.1409 107.617 23.7419 107.868C23.3529 108.12 22.8934 108.246 22.3634 108.248ZM22.5548 107.333C23.1548 107.33 23.644 107.123 24.0225 106.712C24.4009 106.291 24.5888 105.76 24.5864 105.12L24.5846 104.67L24.1196 104.672C23.3096 104.675 22.6698 104.717 22.2001 104.799C21.7404 104.871 21.4159 105.002 21.2266 105.193C21.0473 105.373 20.9583 105.624 20.9595 105.944C20.9611 106.354 21.1024 106.688 21.3834 106.947C21.6743 107.206 22.0648 107.335 22.5548 107.333ZM28.0219 108.092L27.9939 100.802L29.1789 100.797L29.1839 102.102C29.5705 101.221 30.3687 100.733 31.5783 100.638L32.0131 100.591L32.1072 101.641L31.3425 101.734C30.6527 101.797 30.1286 102.019 29.7701 102.4C29.4115 102.771 29.2334 103.282 29.2359 103.932L29.2519 108.087L28.0219 108.092ZM35.6201 108.197C35.1201 108.199 34.6697 108.106 34.269 107.918C33.8782 107.719 33.5672 107.45 33.3359 107.111C33.1046 106.772 32.9881 106.393 32.9865 105.973C32.9845 105.443 33.1179 105.022 33.3867 104.711C33.6655 104.4 34.1197 104.178 34.7491 104.046C35.3886 103.903 36.2583 103.83 37.3583 103.826L37.8383 103.824L37.8365 103.359C37.8342 102.739 37.7024 102.294 37.4414 102.025C37.1903 101.746 36.7848 101.608 36.2248 101.61C35.7848 101.612 35.3601 101.678 34.9506 101.81C34.541 101.932 34.1218 102.133 33.6929 102.415L33.2695 101.531C33.6484 101.26 34.1076 101.043 34.647 100.881C35.1964 100.719 35.7211 100.637 36.2211 100.635C37.1611 100.632 37.8569 100.859 38.3087 101.317C38.7705 101.775 39.0032 102.489 39.0069 103.459L39.0246 108.049L37.8846 108.054L37.8797 106.794C37.6914 107.225 37.3977 107.566 36.9986 107.817C36.6096 108.069 36.1501 108.195 35.6201 108.197ZM35.8116 107.282C36.4116 107.279 36.9008 107.073 37.2792 106.661C37.6576 106.24 37.8456 105.709 37.8431 105.069L37.8414 104.619L37.3764 104.621C36.5664 104.624 35.9265 104.666 35.4568 104.748C34.9971 104.82 34.6726 104.951 34.4834 105.142C34.304 105.323 34.215 105.573 34.2162 105.893C34.2178 106.303 34.3591 106.637 34.6401 106.896C34.9311 107.155 35.3216 107.284 35.8116 107.282ZM43.3504 108.033L40.1874 100.755L41.5074 100.75L43.9451 106.651L46.3674 100.731L47.6124 100.726L44.4904 108.028L43.3504 108.033ZM52.108 108.134C50.958 108.139 50.0467 107.807 49.3742 107.14C48.7016 106.462 48.363 105.544 48.3586 104.384C48.3557 103.634 48.5032 102.973 48.801 102.402C49.0988 101.821 49.507 101.374 50.0258 101.062C50.5546 100.74 51.164 100.578 51.854 100.575C52.844 100.571 53.6202 100.888 54.1827 101.526C54.7451 102.154 55.0284 103.023 55.0327 104.133L55.0345 104.598L49.5445 104.619C49.5877 105.449 49.8301 106.083 50.2718 106.521C50.7135 106.95 51.3243 107.162 52.1043 107.159C52.5443 107.157 52.964 107.091 53.3635 106.959C53.763 106.818 54.1421 106.591 54.5009 106.28L54.9242 107.133C54.5954 107.445 54.1763 107.691 53.667 107.873C53.1577 108.045 52.638 108.132 52.108 108.134ZM51.8874 101.475C51.1975 101.478 50.6533 101.695 50.2549 102.126C49.8566 102.558 49.6238 103.124 49.5565 103.824L53.9814 103.807C53.9486 103.067 53.7514 102.493 53.3898 102.084C53.0382 101.676 52.5374 101.472 51.8874 101.475ZM59.0414 108.108C58.3014 108.11 57.7406 107.898 57.3589 107.469C56.9872 107.03 56.7998 106.396 56.7966 105.566L56.7653 97.4062L57.9803 97.4016L58.0112 105.471C58.0153 106.541 58.4424 107.075 59.2924 107.072C59.5424 107.071 59.7673 107.04 59.967 106.979L59.941 107.999C59.6312 108.07 59.3314 108.106 59.0414 108.108Z" fill="url(#paint0_linear_1618_681)"/>
<path fill-rule="evenodd" clip-rule="evenodd" d="M64.9976 28.3421C65.0198 28.4206 65.0312 28.5016 65.0317 28.583L65.0803 41.2427C65.0807 41.4056 65.037 41.5656 64.9537 41.7065C64.8704 41.8475 64.7505 41.9644 64.6061 42.0454L53.6917 48.2051L53.7383 60.3306C53.7384 60.4932 53.6946 60.653 53.6113 60.7937C53.528 60.9345 53.4082 61.0512 53.264 61.1321L30.4826 73.9895C30.4306 74.0198 30.3726 74.0374 30.317 74.0574C30.2945 74.0644 30.2744 74.0772 30.2531 74.0831C30.0933 74.1248 29.9252 74.1254 29.7651 74.085C29.739 74.0781 29.7153 74.0643 29.6904 74.0551C29.637 74.038 29.5836 74.0208 29.5338 73.9931L6.65315 61.3133C6.50816 61.2333 6.38744 61.117 6.30326 60.9765C6.21908 60.836 6.17444 60.6761 6.17389 60.5132L6.02806 22.5341C6.02793 22.4527 6.03877 22.3716 6.0603 22.2929C6.0673 22.2651 6.08379 22.2407 6.09317 22.2152C6.11193 22.1664 6.12833 22.1165 6.15421 22.0712C6.17186 22.041 6.19783 22.0166 6.21786 21.9899C6.24615 21.9527 6.26969 21.9132 6.30273 21.8806C6.32987 21.8538 6.36533 21.834 6.39604 21.8107C6.43029 21.7851 6.46098 21.7548 6.49998 21.7327L6.50116 21.7315L17.893 15.3033C18.0372 15.2225 18.2003 15.1797 18.3664 15.1791C18.5325 15.1784 18.6959 15.22 18.8407 15.2997L30.2816 21.6402L30.2839 21.6402C30.3219 21.6632 30.3528 21.6932 30.3885 21.7186C30.4194 21.7416 30.4538 21.7612 30.4811 21.7878C30.5144 21.8201 30.5383 21.8594 30.5668 21.8952C30.5883 21.9229 30.6144 21.9472 30.6323 21.9772C30.6585 22.0223 30.6753 22.0721 30.6944 22.1207C30.704 22.1462 30.7195 22.1704 30.7279 22.1982C30.7496 22.2768 30.7607 22.3578 30.7608 22.4391L30.8519 46.1604L40.3455 40.8035L40.299 28.678C40.2985 28.5966 40.3089 28.5155 40.33 28.4368C40.3382 28.409 40.3535 28.3857 40.3641 28.3591C40.3817 28.3103 40.3981 28.2604 40.4239 28.2151C40.4416 28.1849 40.4676 28.1605 40.4888 28.1337C40.5171 28.0966 40.5406 28.0571 40.5737 28.0256C40.6008 27.9989 40.6351 27.979 40.6658 27.9558C40.7012 27.929 40.7319 27.8976 40.7709 27.8765L40.7709 27.8754L52.1628 21.4472C52.307 21.366 52.4703 21.3229 52.6367 21.3223C52.8031 21.3216 52.9668 21.3635 53.1116 21.4436L64.5513 27.7841C64.5917 27.8071 64.6238 27.8371 64.6594 27.8625C64.6891 27.8855 64.7247 27.9063 64.7521 27.9316C64.7853 27.964 64.8092 28.0033 64.8366 28.0391C64.858 28.0668 64.8841 28.0911 64.902 28.1211C64.9294 28.1662 64.945 28.216 64.9642 28.2646C64.9749 28.2912 64.9904 28.3143 64.9976 28.3421ZM63.176 40.7158L63.1355 30.1884L59.1487 32.4381L53.6431 35.5454L53.6835 46.0728L63.176 40.7158ZM51.8339 59.8036L51.7934 49.2693L46.3751 52.301L30.9087 60.9537L30.9495 71.5865L51.8339 59.8013L51.8339 59.8036ZM7.93653 24.1249L8.07418 59.9717L29.0472 71.5961L29.0064 60.9644L18.0502 54.9964L18.0478 54.993L18.0431 54.9918C18.0051 54.9711 17.9754 54.9411 17.9409 54.9157C17.91 54.8927 17.8768 54.8742 17.8494 54.8489L17.8471 54.8454C17.8161 54.8165 17.7947 54.7807 17.7685 54.7483C17.7447 54.7183 17.7162 54.6918 17.6971 54.6594L17.6959 54.6559C17.6744 54.6212 17.6612 54.5796 17.6457 54.5402C17.6302 54.5067 17.6099 54.4743 17.6003 54.4372C17.5871 54.3933 17.5857 54.3457 17.5796 54.3006C17.5759 54.2658 17.5652 54.2322 17.565 54.1963L17.4698 29.4077L11.9417 26.3439L7.93653 24.1249ZM18.374 17.1685L8.88631 22.5243L18.4149 27.8048L27.9038 22.4501L18.374 17.1685ZM23.448 50.3378L28.9537 47.2316L28.8646 24.0446L24.879 26.2942L19.3722 29.4015L19.4612 52.5874L23.448 50.3378ZM52.6449 23.3135L43.156 28.667L52.6858 33.9487L62.1735 28.594L52.6449 23.3135ZM51.7408 35.5527L46.2102 32.4878L42.2074 30.2688L42.2479 40.7961L47.7772 43.8611L51.7812 46.0801L51.7408 35.5527ZM29.9502 59.3592L43.8682 51.5712L50.8255 47.6784L41.3028 42.4002L30.3849 48.5612L20.4351 54.176L29.9502 59.3592Z" fill="url(#paint1_linear_1618_681)"/>
<defs>
<linearGradient id="paint0_linear_1618_681" x1="35.3863" y1="93.0633" x2="35.4707" y2="115.063" gradientUnits="userSpaceOnUse">
<stop stop-color="#ACADAD"/>
<stop offset="1" stop-color="#7A7D7E"/>
</linearGradient>
<linearGradient id="paint1_linear_1618_681" x1="35.4898" y1="15.1133" x2="35.7163" y2="74.0929" gradientUnits="userSpaceOnUse">
<stop stop-color="#A71911"/>
<stop offset="1" stop-color="#960B02"/>
</linearGradient>
</defs>
</svg>
