<svg width="72" height="72" viewBox="0 0 72 72" fill="none" xmlns="http://www.w3.org/2000/svg">
<path fill-rule="evenodd" clip-rule="evenodd" d="M71.0341 16.9696C71.0596 17.0629 71.0725 17.1592 71.0724 17.2558L71.0147 32.2809C71.0136 32.4741 70.9603 32.6636 70.8602 32.8302C70.76 32.9967 70.6166 33.1344 70.4445 33.2291L57.4351 40.4401L57.3798 54.8311C57.3785 55.0241 57.3251 55.2133 57.225 55.3796C57.1248 55.5459 56.9815 55.6833 56.8096 55.778L29.6553 70.8297C29.5933 70.8652 29.5243 70.8856 29.4582 70.9087C29.4314 70.9168 29.4075 70.9319 29.3821 70.9386C29.1921 70.9866 28.9926 70.9859 28.8029 70.9364C28.772 70.9281 28.744 70.9114 28.7145 70.9003C28.6513 70.8794 28.5881 70.8586 28.5292 70.8253L1.48988 55.5683C1.31854 55.4719 1.17632 55.3329 1.0777 55.1654C0.979074 54.9978 0.927557 54.8077 0.928387 54.6143L1.10146 9.53913C1.10206 9.44249 1.11566 9.34635 1.14193 9.25319C1.15049 9.22021 1.17028 9.19141 1.18164 9.16119C1.20436 9.10351 1.22427 9.04444 1.2554 8.99092C1.27663 8.95524 1.30767 8.92647 1.33169 8.89493C1.3656 8.85105 1.39389 8.80439 1.4334 8.76603C1.46586 8.73452 1.50812 8.7113 1.54478 8.68393C1.58567 8.65383 1.62236 8.61821 1.66885 8.59225L1.67026 8.59088L15.2488 1.06573C15.4206 0.97114 15.6146 0.92181 15.8117 0.922567C16.0089 0.923324 16.2024 0.974142 16.3735 1.07005L29.8939 8.69925L29.8967 8.69926C29.9416 8.72695 29.978 8.76285 30.02 8.79327C30.0565 8.82092 30.0972 8.84446 30.1294 8.87621C30.1686 8.91488 30.1965 8.96175 30.2301 9.00452C30.2553 9.03762 30.2861 9.06663 30.307 9.10247C30.3378 9.15623 30.3572 9.21545 30.3795 9.2733C30.3906 9.3036 30.4088 9.33256 30.4185 9.36561C30.4436 9.45902 30.456 9.55526 30.4554 9.65184L30.3473 37.8053L41.6632 31.5341L41.7185 17.1431C41.7186 17.0465 41.7317 16.9504 41.7575 16.8571C41.7675 16.8242 41.7859 16.7967 41.7986 16.7652C41.8199 16.7075 41.8399 16.6484 41.871 16.5949C41.8922 16.5592 41.9232 16.5304 41.9487 16.4989C41.9826 16.455 42.0109 16.4084 42.0504 16.3714C42.0828 16.3399 42.1237 16.3166 42.1604 16.2893C42.2027 16.2578 42.2394 16.2208 42.2858 16.1962L42.2858 16.1948L55.8644 8.66968C56.0363 8.57458 56.2305 8.52496 56.428 8.52572C56.6255 8.52648 56.8193 8.57759 56.9905 8.67401L70.5094 16.3032C70.5571 16.3309 70.595 16.3668 70.637 16.3972C70.6721 16.4249 70.7141 16.4498 70.7464 16.4802C70.7856 16.5188 70.8135 16.5657 70.8457 16.6085C70.8709 16.6416 70.9017 16.6706 70.9226 16.7064C70.9548 16.7602 70.9728 16.8194 70.9951 16.8773C71.0076 16.9089 71.0258 16.9365 71.0341 16.9696ZM68.7593 31.6381L68.8073 19.1438L64.0552 21.7774L57.4928 25.415L57.4448 37.9093L68.7593 31.6381ZM55.1245 54.1884L55.1725 41.6858L48.7144 45.2344L30.2798 55.3625L30.2314 67.982L55.1245 54.1856L55.1245 54.1884ZM3.35196 11.4445L3.1886 53.9889L27.9736 67.976L28.0221 55.358L15.0736 48.1752L15.0708 48.1711L15.0651 48.1697C15.0203 48.1447 14.9852 48.1088 14.9446 48.0784C14.9081 48.0508 14.8689 48.0286 14.8366 47.9982L14.8338 47.9941C14.7974 47.9596 14.7723 47.9168 14.7415 47.8782C14.7135 47.8423 14.6799 47.8106 14.6576 47.772L14.6562 47.7679C14.631 47.7265 14.6158 47.6769 14.5977 47.6301C14.5795 47.5901 14.5558 47.5515 14.5447 47.5075C14.5294 47.4551 14.5283 47.3987 14.5214 47.3451C14.5174 47.3038 14.5049 47.2639 14.505 47.2212L14.618 17.801L8.08507 14.1145L3.35196 11.4445ZM15.8026 3.28369L4.49375 9.55353L15.7542 15.9073L27.0645 9.63882L15.8026 3.28369ZM21.5222 42.6955L28.0846 39.0592L28.1903 11.5399L23.4396 14.1735L16.8758 17.8111L16.7701 45.3291L21.5222 42.6955ZM56.4196 10.889L45.1093 17.1561L56.3712 23.5112L67.6801 17.2428L56.4196 10.889ZM55.235 25.4064L48.6992 21.7185L43.9689 19.0485L43.921 31.5428L50.4553 35.2306L55.187 37.9007L55.235 25.4064ZM29.1568 53.4615L45.7458 44.3455L54.0382 39.7889L42.7848 33.4379L29.7712 40.6502L17.9114 47.2233L29.1568 53.4615Z" fill="url(#paint0_linear_1602_671)"/>
<defs>
<linearGradient id="paint0_linear_1602_671" x1="36.1345" y1="1.0006" x2="35.8657" y2="71.0001" gradientUnits="userSpaceOnUse">
<stop stop-color="#A71911"/>
<stop offset="1" stop-color="#960B02"/>
</linearGradient>
</defs>
</svg>
