<svg width="70" height="70" viewBox="0 0 70 70" fill="none" xmlns="http://www.w3.org/2000/svg">
<g clip-path="url(#clip0_1601_1167)">
<path d="M26.6911 19.7921L26.8654 24.2362L23.7534 30.0075L18.9047 39.4362L17.9036 47.3348L21.3333 58.5316L29.2186 62.9916L41.1677 63.0375L52.3838 54.6039L57.4524 41.3206L45.9401 27.1942L42.6893 19.2793L26.6911 19.7921Z" fill="url(#paint0_linear_1601_1167)"/>
<path d="M54.0194 30.8893C50.9466 26.4478 48.4551 23.7312 47.123 18.1342C45.791 12.5372 47.5214 14.0888 46.3915 9.25828C45.8269 6.75414 44.8628 5.0141 43.911 3.65692C42.7541 2.29895 41.4172 1.52818 40.6387 1.33379C38.9061 0.356425 34.8651 -1.19035 29.8372 1.48372C24.6179 4.15706 25.1836 9.94248 26.0954 21.7175C26.0925 22.4832 25.8974 23.4531 25.5116 24.2173C24.7393 25.9507 23.3799 27.4904 22.2127 28.8257C20.8517 30.7483 19.5045 32.6708 18.5257 34.7862C16.1981 39.207 14.0575 44.7906 14.6236 46.912C15.5951 46.7243 27.6645 65.2825 27.663 65.6653C28.4294 65.4768 31.7106 65.4894 34.609 65.5006C38.6566 65.3247 40.9679 65.1422 44.2462 65.9204C44.2484 65.3462 44.0592 64.7575 44.0614 64.1833C44.0659 63.0212 44.261 62.0649 44.4576 60.7122C44.6527 59.7422 44.8478 58.7859 45.0437 57.6246C43.1093 59.3535 39.6292 61.2679 36.3458 61.8295C33.4452 62.3926 28.6364 61.4171 26.337 58.5098C26.5284 58.5105 26.9112 58.512 27.1033 58.3213C27.6783 58.1321 28.2669 57.943 28.4598 57.5609C29.0377 56.5924 28.6586 55.6339 28.278 55.0582C27.8974 54.4825 25.0071 52.3523 23.6717 51.185C22.3227 50.0177 21.5593 49.4406 20.7829 48.672C20.7829 48.672 19.6253 47.5054 19.2439 47.1211C18.8626 46.7368 18.6727 46.3533 18.4821 46.1475C18.103 45.1753 17.916 44.0262 18.1133 42.482C18.3129 40.3636 19.0988 38.6303 20.0632 36.7062C20.449 35.9421 21.4256 34.4009 21.4256 34.4009C21.4256 34.4009 18.1133 42.482 19.84 45.0042C19.84 45.0042 20.041 42.503 20.8299 39.9904C21.4108 38.2563 22.3911 35.7581 23.5447 34.409C24.712 33.06 27.616 28.0672 27.8193 24.9781C27.8245 23.6246 28.021 22.2855 28.0247 21.3148C27.2621 20.5462 40.7635 18.6703 41.521 20.7924C41.7094 21.5587 44.3898 28.5144 45.907 32.1843C46.6659 33.9236 47.6307 35.4722 48.1975 37.4021C48.7636 39.5235 49.1489 42.4234 49.1378 45.3082C49.1356 45.8824 49.1319 46.8531 48.9368 47.8093C49.3196 47.8108 56.8702 39.746 48.0232 32.9581C48.0232 32.9581 53.4139 35.4807 53.586 40.499C53.7619 44.5466 52.013 47.8212 51.628 48.3939C51.8194 48.3946 55.6681 50.1458 55.8596 50.1465C56.6252 50.1494 58.1723 49.5812 58.1723 49.5812C58.3659 49.0077 58.946 47.465 58.9482 46.8908C60.3324 42.48 57.0922 35.3308 54.0194 30.8893Z" fill="#263238"/>
<path d="M29.5837 18.0662C30.9654 18.0715 32.0922 16.3497 32.1004 14.2204C32.1086 12.0911 30.995 10.3606 29.6133 10.3553C28.2315 10.35 27.1047 12.0718 27.0965 14.2011C27.0883 16.3304 28.2019 18.0609 29.5837 18.0662Z" fill="url(#paint1_linear_1601_1167)"/>
<path d="M38.2628 18.4823C40.075 18.4892 41.5517 16.5116 41.5611 14.0652C41.5705 11.6188 40.109 9.62991 38.2969 9.62295C36.4847 9.61599 35.008 11.5936 34.9986 14.04C34.9892 16.4864 36.4507 18.4753 38.2628 18.4823Z" fill="url(#paint2_linear_1601_1167)"/>
<path d="M29.9435 16.942C30.6854 16.8513 31.1614 15.7509 31.0065 14.4843C30.8516 13.2177 30.1245 12.2645 29.3825 12.3552C28.6405 12.446 28.1646 13.5463 28.3195 14.8129C28.4744 16.0795 29.2015 17.0327 29.9435 16.942Z" fill="#212121"/>
<path d="M38.0765 17.3335C39.1411 17.3376 40.0085 16.2208 40.0138 14.839C40.0191 13.4572 39.1603 12.3338 38.0957 12.3297C37.031 12.3256 36.1637 13.4424 36.1584 14.8242C36.1531 16.206 37.0118 17.3294 38.0765 17.3335Z" fill="#212121"/>
<path d="M63.5576 57.3399C62.7934 56.9541 61.4422 56.361 60.2867 54.6339C59.7162 53.661 59.918 50.9684 58.9517 49.8026C58.3805 49.0348 57.5997 49.4146 57.4083 49.4139C55.6705 49.79 51.6133 52.4815 48.9318 49.3813C48.5504 48.997 47.9648 48.4069 47.0078 48.4032C46.0371 48.3995 45.6528 48.7808 45.267 49.5587C44.8813 50.3228 44.879 50.9107 44.8716 52.8384C44.8657 54.3833 44.859 56.1196 44.6625 57.4587C44.267 60.7385 43.6718 62.664 43.6644 64.5917C43.6562 66.7108 44.2252 68.0665 45.0023 68.6437C45.5743 69.2201 46.5435 69.6203 48.6626 69.6285C50.7818 69.6366 52.1382 68.8762 53.4969 67.5279C54.4713 66.5609 55.2384 66.1811 57.9392 64.2637C60.0635 62.9183 63.3514 61.1946 63.9278 60.6226C64.3121 60.2412 64.9007 60.0521 64.9052 58.89C64.9089 57.9193 64.1311 57.5335 63.5576 57.3399Z" fill="url(#paint3_linear_1601_1167)"/>
<path d="M24.8088 57.7648C22.8929 54.6676 22.7037 54.0927 21.3576 52.1597C20.2029 50.2276 17.7151 46.5539 16.1702 46.548C15.0081 46.5435 14.4316 47.1155 13.663 47.8919C12.8945 48.6546 12.1085 50.3879 10.7513 51.3534C9.58544 52.3196 6.31868 52.102 5.53492 53.2611C4.76484 54.4203 6.28941 56.1625 6.27834 59.0472C6.27387 60.2093 5.30024 60.9712 5.10589 61.7361C4.91076 62.706 4.71715 63.2795 5.09702 64.0466C5.85818 65.2117 6.82741 65.5982 13.371 66.9768C16.8407 67.7558 20.1145 69.6961 22.2328 69.9093C24.3512 70.1089 28.016 69.9315 28.036 64.7226C28.2666 61.6336 26.5332 60.8613 24.8088 57.7648Z" fill="url(#paint4_linear_1601_1167)"/>
<path d="M28.6067 22.8889C27.4475 22.1189 26.4935 21.3359 26.4979 20.1875C26.5023 19.039 27.2694 18.6455 28.4352 17.6929C28.6273 17.5023 30.7539 15.5827 32.873 15.5908C34.9921 15.599 37.4889 16.9621 38.4581 17.3486C40.1929 17.7381 41.9278 18.1276 41.7312 19.4803C41.5324 21.4073 41.3395 21.7894 39.408 22.7527C38.0531 23.1303 35.543 25.2398 33.8067 25.2331C33.0411 25.2302 31.879 25.2257 31.1141 25.0314C30.527 24.8241 29.56 23.8496 28.6067 22.8889Z" fill="url(#paint5_linear_1601_1167)"/>
<path d="M28.2175 21.3422C28.5988 21.7265 29.1852 22.1115 29.7587 22.3188C30.1407 22.5117 30.7279 22.7054 30.7279 22.7054C31.4935 22.7083 32.0814 22.7105 32.4642 22.712C33.4349 22.7157 34.7762 22.3381 36.1327 21.564C37.4884 20.995 37.6813 20.5992 38.6398 20.2201C39.6127 19.6496 40.572 19.0654 40.1899 18.8725C39.8079 18.6796 39.4243 18.8696 38.0679 19.63C36.9028 20.3912 35.9443 20.784 34.78 21.3537C34.205 21.5429 33.4243 21.9227 32.8501 21.9205C32.2758 21.9183 31.688 21.9161 31.1137 21.9139C30.5395 21.9117 30.1438 21.7187 29.5703 21.5251C29.1882 21.3322 28.9976 21.1401 28.8062 21.1394C28.4241 20.9465 27.6478 20.1642 27.2657 19.9713C27.2657 19.9713 26.8829 19.9699 27.0736 20.162C27.6455 20.7658 27.8361 20.9579 28.2175 21.3422Z" fill="url(#paint6_linear_1601_1167)"/>
<path d="M34.0308 17.1267C34.2207 17.5102 34.6035 17.5117 34.7942 17.7039C34.9849 17.896 35.1763 17.8967 35.1763 17.8967C35.3684 17.7061 35.1785 17.3225 34.9871 17.3218C34.9885 16.939 34.0315 16.9353 34.0308 17.1267Z" fill="url(#paint7_linear_1601_1167)"/>
<path d="M30.9392 17.4971C30.9385 17.6885 31.3205 17.8813 31.3213 17.6899C31.5134 17.4993 31.7056 17.3086 31.897 17.3093C32.2805 17.1194 32.0898 16.9273 31.5156 16.9251C31.1321 17.115 31.1313 17.3064 30.9392 17.4971Z" fill="url(#paint8_linear_1601_1167)"/>
<path d="M49.51 51.6938C49.5092 51.8852 49.5085 52.0766 49.5077 52.268C49.8876 53.0351 50.8575 53.2439 51.6231 53.2469C52.7852 53.2513 53.9366 52.4901 54.5275 51.7131C54.5282 51.5217 54.7204 51.331 54.9125 51.1403C55.2975 50.5676 55.4904 50.1718 55.6826 49.9812C55.6826 49.9812 55.4919 49.789 55.4926 49.5976C55.3027 49.2141 54.73 48.8291 53.9515 48.621C53.378 48.4274 52.408 48.2322 52.0252 48.2308C50.2896 48.0327 49.3304 48.6032 48.7403 49.1889C48.7403 49.1889 48.9317 49.1896 48.9309 49.381C49.3123 49.7653 49.5022 50.1488 49.5 50.7367C49.7036 51.1203 49.5114 51.311 49.51 51.6938Z" fill="#455A64"/>
</g>
<defs>
<linearGradient id="paint0_linear_1601_1167" x1="37.7743" y1="19.2605" x2="37.6062" y2="63.0238" gradientUnits="userSpaceOnUse">
<stop stop-color="#ACADAD"/>
<stop offset="1" stop-color="#7A7D7E"/>
</linearGradient>
<linearGradient id="paint1_linear_1601_1167" x1="29.6133" y1="10.3553" x2="29.5837" y2="18.0662" gradientUnits="userSpaceOnUse">
<stop stop-color="#ACADAD"/>
<stop offset="1" stop-color="#7A7D7E"/>
</linearGradient>
<linearGradient id="paint2_linear_1601_1167" x1="38.2969" y1="9.62295" x2="38.2628" y2="18.4823" gradientUnits="userSpaceOnUse">
<stop stop-color="#ACADAD"/>
<stop offset="1" stop-color="#7A7D7E"/>
</linearGradient>
<linearGradient id="paint3_linear_1601_1167" x1="54.3359" y1="48.4314" x2="54.2544" y2="69.65" gradientUnits="userSpaceOnUse">
<stop stop-color="#735809"/>
<stop offset="1" stop-color="#654C00"/>
</linearGradient>
<linearGradient id="paint4_linear_1601_1167" x1="16.5338" y1="46.5494" x2="16.4441" y2="69.9323" gradientUnits="userSpaceOnUse">
<stop stop-color="#735809"/>
<stop offset="1" stop-color="#654C00"/>
</linearGradient>
<linearGradient id="paint5_linear_1601_1167" x1="34.1381" y1="15.5957" x2="34.101" y2="25.2343" gradientUnits="userSpaceOnUse">
<stop stop-color="#735809"/>
<stop offset="1" stop-color="#654C00"/>
</linearGradient>
<linearGradient id="paint6_linear_1601_1167" x1="33.651" y1="18.7784" x2="33.6359" y2="22.7165" gradientUnits="userSpaceOnUse">
<stop stop-color="#584006"/>
<stop offset="1" stop-color="#432F00"/>
</linearGradient>
<linearGradient id="paint7_linear_1601_1167" x1="34.6451" y1="17.0033" x2="34.6417" y2="17.8947" gradientUnits="userSpaceOnUse">
<stop stop-color="#584006"/>
<stop offset="1" stop-color="#432F00"/>
</linearGradient>
<linearGradient id="paint8_linear_1601_1167" x1="31.5195" y1="16.9251" x2="31.5163" y2="17.77" gradientUnits="userSpaceOnUse">
<stop stop-color="#584006"/>
<stop offset="1" stop-color="#432F00"/>
</linearGradient>
<clipPath id="clip0_1601_1167">
<rect width="70" height="70" fill="white"/>
</clipPath>
</defs>
</svg>
