<svg width="71" height="121" viewBox="0 0 71 121" fill="none" xmlns="http://www.w3.org/2000/svg">
<path d="M28.2335 31.7074L28.3947 35.4505L25.7918 40.3224L21.7377 48.2809L20.9199 54.938L23.8453 64.3592L30.5024 68.0908H40.5686L49.9898 60.95L54.2167 49.7436L44.473 37.8807L41.7088 31.2236L28.2335 31.7074Z" fill="url(#paint0_linear_1618_678)"/>
<path d="M51.2918 40.9675C48.6889 37.2358 46.5812 34.9554 45.441 30.2448C44.3008 25.5342 45.7635 26.8356 44.796 22.77C44.3123 20.6623 43.4946 19.1996 42.6883 18.0594C41.7094 16.9192 40.5807 16.2742 39.9242 16.1129C38.4615 15.2952 35.0523 14.0053 30.8254 16.2742C26.4373 18.5431 26.9325 23.415 27.7388 33.3314C27.7388 33.9764 27.5775 34.7942 27.255 35.4391C26.6101 36.9018 25.4698 38.2033 24.4909 39.332C23.3506 40.956 22.2219 42.5799 21.4042 44.3651C19.4577 48.0968 17.6726 52.8074 18.1563 54.5926C18.974 54.4313 29.2015 70.0259 29.2015 70.3484C29.8464 70.1871 32.6106 70.1871 35.0523 70.1871C38.4615 70.0259 40.4079 69.8646 43.1721 70.5096C43.1721 70.0259 43.0108 69.5306 43.0108 69.0469C43.0108 68.0679 43.1721 67.2617 43.3333 66.1215C43.4946 65.3037 43.6558 64.4975 43.817 63.5185C42.1931 64.9813 39.2677 66.6052 36.5035 67.0889C34.0618 67.5727 30.0077 66.7665 28.0612 64.3248C28.2225 64.3248 28.545 64.3248 28.7062 64.1635C29.1899 64.0023 29.6852 63.841 29.8464 63.5185C30.3302 62.7008 30.0077 61.8946 29.6852 61.4109C29.3627 60.9271 26.921 59.1419 25.7923 58.163C24.6521 57.184 24.0071 56.7002 23.3506 56.0553C23.3506 56.0553 22.3717 55.0763 22.0492 54.7538C21.7267 54.4313 21.5654 54.1088 21.4042 53.9361C21.0817 53.1183 20.9205 52.1509 21.0817 50.8494C21.2429 49.0642 21.8994 47.6015 22.7057 45.9775C23.0281 45.3326 23.8459 44.0311 23.8459 44.0311C23.8459 44.0311 21.0817 50.8494 22.5444 52.9686C22.5444 52.9686 22.7057 50.8609 23.3621 48.7417C23.8459 47.279 24.6636 45.1713 25.6311 44.0311C26.6101 42.8909 29.0402 38.6755 29.2015 36.0726C29.2015 34.9324 29.3627 33.8037 29.3627 32.9859C28.7177 32.341 40.0854 30.717 40.7304 32.5022C40.8916 33.1472 43.1721 38.998 44.462 42.0847C45.107 43.5474 45.9247 44.8488 46.4085 46.4728C46.8922 48.258 47.2262 50.6997 47.2262 53.1299C47.2262 53.6136 47.2262 54.4313 47.065 55.2375C47.3874 55.2375 53.722 48.4192 46.2472 42.7296C46.2472 42.7296 50.7966 44.8373 50.9578 49.0642C51.1191 52.4734 49.6564 55.2375 49.3339 55.7213C49.4951 55.7213 52.743 57.184 52.9043 57.184C53.5492 57.184 54.8507 56.7002 54.8507 56.7002C55.012 56.2165 55.4957 54.915 55.4957 54.4313C56.6474 50.7112 53.8948 44.6991 51.2918 40.9675Z" fill="#263238"/>
<path d="M30.6643 30.2448C31.8284 30.2448 32.772 28.7907 32.772 26.9969C32.772 25.2032 31.8284 23.749 30.6643 23.749C29.5003 23.749 28.5566 25.2032 28.5566 26.9969C28.5566 28.7907 29.5003 30.2448 30.6643 30.2448Z" fill="url(#paint1_linear_1618_678)"/>
<path d="M37.9771 30.5668C39.5037 30.5668 40.7412 28.8961 40.7412 26.8352C40.7412 24.7742 39.5037 23.1035 37.9771 23.1035C36.4505 23.1035 35.2129 24.7742 35.2129 26.8352C35.2129 28.8961 36.4505 30.5668 37.9771 30.5668Z" fill="url(#paint2_linear_1618_678)"/>
<path d="M30.9663 29.2965C31.591 29.2177 31.9884 28.2892 31.8538 27.2227C31.7192 26.1562 31.1036 25.3556 30.4789 25.4344C29.8541 25.5132 29.4568 26.4417 29.5914 27.5082C29.7259 28.5747 30.3415 29.3754 30.9663 29.2965Z" fill="#212121"/>
<path d="M37.8154 29.6001C38.7122 29.6001 39.4393 28.6565 39.4393 27.4924C39.4393 26.3284 38.7122 25.3848 37.8154 25.3848C36.9185 25.3848 36.1914 26.3284 36.1914 27.4924C36.1914 28.6565 36.9185 29.6001 37.8154 29.6001Z" fill="#212121"/>
<path d="M59.4125 63.2189C58.7675 62.8964 57.6273 62.4012 56.6483 60.95C56.1646 60.1323 56.3259 57.8633 55.5081 56.8844C55.0244 56.2394 54.3679 56.5619 54.2067 56.5619C52.7439 56.8844 49.3348 59.1648 47.0659 56.5619C46.7434 56.2394 46.2481 55.7441 45.4419 55.7441C44.6242 55.7441 44.3017 56.0666 43.9792 56.7231C43.6567 57.3681 43.6567 57.8633 43.6567 59.4873C43.6567 60.7888 43.6567 62.2515 43.4955 63.3802C43.173 66.1444 42.6777 67.7683 42.6777 69.3923C42.6777 71.1775 43.1615 72.3177 43.818 72.8014C44.3017 73.2851 45.1194 73.6191 46.9046 73.6191C48.6898 73.6191 49.83 72.9742 50.9703 71.8339C51.788 71.0162 52.433 70.6937 54.7019 69.0698C56.4871 67.9295 59.2513 66.4668 59.735 65.9831C60.0575 65.6606 60.5527 65.4994 60.5527 64.5204C60.5527 63.7027 59.8962 63.3802 59.4125 63.2189Z" fill="url(#paint3_linear_1618_678)"/>
<path d="M26.7712 63.7035C25.1473 61.1005 24.986 60.6168 23.8458 58.9928C22.8668 57.3689 20.7592 54.2822 19.4577 54.2822C18.4787 54.2822 17.995 54.766 17.35 55.4224C16.705 56.0674 16.0485 57.5301 14.9083 58.3479C13.9293 59.1656 11.1767 58.9928 10.5202 59.9718C9.87522 60.9508 11.1652 62.4135 11.1652 64.8437C11.1652 65.8227 10.3474 66.4676 10.1862 67.1126C10.0249 67.9303 9.8637 68.4141 10.1862 69.059C10.8312 70.038 11.6489 70.3605 17.1657 71.5007C20.0912 72.1457 22.8553 73.7697 24.6405 73.9424C26.4257 74.1037 29.5124 73.9424 29.5124 69.5543C29.6967 66.9514 28.234 66.3064 26.7712 63.7035Z" fill="url(#paint4_linear_1618_678)"/>
<path d="M29.8575 34.3102C28.8785 33.6653 28.0723 33.0088 28.0723 32.0413C28.0723 31.0739 28.7172 30.7399 29.6962 29.9336C29.8575 29.7724 31.6427 28.1484 33.4279 28.1484C35.2131 28.1484 37.3207 29.2887 38.1385 29.6111C39.6012 29.9336 41.0639 30.2561 40.9026 31.3963C40.7414 33.0203 40.5802 33.3428 38.9562 34.1605C37.816 34.483 35.7083 36.2682 34.2456 36.2682C33.6006 36.2682 32.6216 36.2682 31.9767 36.107C31.4814 35.9342 30.6637 35.1165 29.8575 34.3102Z" fill="url(#paint5_linear_1618_678)"/>
<path d="M29.5243 33.0084C29.8468 33.3309 30.3421 33.6534 30.8258 33.8261C31.1483 33.9874 31.6435 34.1486 31.6435 34.1486C32.2885 34.1486 32.7838 34.1486 33.1062 34.1486C33.924 34.1486 35.0527 33.8261 36.1929 33.1697C37.3331 32.6859 37.4944 32.3519 38.3006 32.0294C39.1183 31.5457 39.9245 31.0505 39.602 30.8892C39.2796 30.728 38.9571 30.8892 37.8168 31.5342C36.8379 32.1792 36.0317 32.5132 35.0527 32.9969C34.5689 33.1581 33.9125 33.4806 33.4287 33.4806C32.945 33.4806 32.4497 33.4806 31.966 33.4806C31.4823 33.4806 31.1483 33.3194 30.6645 33.1581C30.3421 32.9969 30.1808 32.8357 30.0196 32.8357C29.6971 32.6744 29.0406 32.0179 28.7181 31.8567C28.7181 31.8567 28.3956 31.8567 28.5569 32.0179C29.0406 32.5247 29.2018 32.6859 29.5243 33.0084Z" fill="url(#paint6_linear_1618_678)"/>
<path d="M34.4082 29.4389C34.5694 29.7614 34.8919 29.7614 35.0532 29.9227C35.2144 30.0839 35.3757 30.0839 35.3757 30.0839C35.5369 29.9227 35.3757 29.6002 35.2144 29.6002C35.2144 29.2777 34.4082 29.2777 34.4082 29.4389Z" fill="url(#paint7_linear_1618_678)"/>
<path d="M31.8047 29.7611C31.8047 29.9223 32.1272 30.0836 32.1272 29.9223C32.2884 29.7611 32.4497 29.5998 32.6109 29.5998C32.9334 29.4386 32.7721 29.2773 32.2884 29.2773C31.9659 29.4386 31.9659 29.5998 31.8047 29.7611Z" fill="url(#paint8_linear_1618_678)"/>
<path d="M47.5608 58.5078C47.5608 58.669 47.5608 58.8303 47.5608 58.9915C47.8833 59.6365 48.701 59.8093 49.346 59.8093C50.325 59.8093 51.2924 59.1643 51.7877 58.5078C51.7877 58.3466 51.9489 58.1853 52.1102 58.0241C52.4326 57.5403 52.5939 57.2063 52.7551 57.0451C52.7551 57.0451 52.5939 56.8839 52.5939 56.7226C52.4326 56.4001 51.9489 56.0776 51.2924 55.9049C50.8087 55.7436 49.991 55.5824 49.6685 55.5824C48.2058 55.4211 47.3995 55.9049 46.9043 56.4001C46.9043 56.4001 47.0655 56.4001 47.0655 56.5614C47.388 56.8838 47.5493 57.2063 47.5493 57.7016C47.722 58.0241 47.5608 58.1853 47.5608 58.5078Z" fill="#455A64"/>
<path d="M18.5931 108.283L18.5524 97.708L19.7824 97.7033L19.8189 107.198L25.2039 107.178L25.208 108.258L18.5931 108.283ZM26.3876 99.148L26.3823 97.783L27.8823 97.7772L27.8876 99.1422L26.3876 99.148ZM26.5725 108.252L26.5445 100.962L27.7595 100.958L27.7875 108.248L26.5725 108.252ZM30.0588 108.239L30.0308 100.949L31.2158 100.944L31.2206 102.189C31.4588 101.729 31.7975 101.382 32.2366 101.151C32.6757 100.919 33.1703 100.802 33.7203 100.8C35.4503 100.793 36.319 101.75 36.3263 103.67L36.3438 108.215L35.1288 108.219L35.1116 103.75C35.109 103.07 34.9721 102.575 34.7009 102.266C34.4397 101.947 34.0191 101.789 33.4391 101.791C32.7691 101.793 32.2349 102.006 31.8365 102.427C31.4481 102.839 31.2552 103.389 31.2579 104.079L31.2738 108.234L30.0588 108.239ZM41.1647 108.331C39.4147 108.338 38.536 107.376 38.5286 105.446L38.5112 100.916L39.7262 100.912L39.7435 105.427C39.746 106.077 39.8778 106.556 40.139 106.865C40.4102 107.174 40.8308 107.328 41.4008 107.325C42.0208 107.323 42.525 107.116 42.9134 106.705C43.3018 106.283 43.4947 105.727 43.492 105.037L43.4761 100.897L44.6911 100.893L44.7191 108.183L43.5341 108.187L43.5294 106.957C43.3011 107.398 42.9774 107.739 42.5583 107.981C42.1492 108.213 41.6847 108.329 41.1647 108.331ZM46.0623 108.177L49.0778 104.401L46.2143 100.887L47.6543 100.881L49.7796 103.558L51.8993 100.865L53.3243 100.86L50.4878 104.395L53.5323 108.149L52.0923 108.154L49.7712 105.268L47.5023 108.172L46.0623 108.177Z" fill="url(#paint9_linear_1618_678)"/>
<defs>
<linearGradient id="paint0_linear_1618_678" x1="37.5683" y1="31.2236" x2="37.5683" y2="68.0908" gradientUnits="userSpaceOnUse">
<stop stop-color="#ACADAD"/>
<stop offset="1" stop-color="#7A7D7E"/>
</linearGradient>
<linearGradient id="paint1_linear_1618_678" x1="30.6643" y1="23.749" x2="30.6643" y2="30.2448" gradientUnits="userSpaceOnUse">
<stop stop-color="#ACADAD"/>
<stop offset="1" stop-color="#7A7D7E"/>
</linearGradient>
<linearGradient id="paint2_linear_1618_678" x1="37.9771" y1="23.1035" x2="37.9771" y2="30.5668" gradientUnits="userSpaceOnUse">
<stop stop-color="#ACADAD"/>
<stop offset="1" stop-color="#7A7D7E"/>
</linearGradient>
<linearGradient id="paint3_linear_1618_678" x1="51.6152" y1="55.7441" x2="51.6152" y2="73.6191" gradientUnits="userSpaceOnUse">
<stop stop-color="#735809"/>
<stop offset="1" stop-color="#654C00"/>
</linearGradient>
<linearGradient id="paint4_linear_1618_678" x1="19.7641" y1="54.2822" x2="19.7641" y2="73.9805" gradientUnits="userSpaceOnUse">
<stop stop-color="#735809"/>
<stop offset="1" stop-color="#654C00"/>
</linearGradient>
<linearGradient id="paint5_linear_1618_678" x1="34.4936" y1="28.1484" x2="34.4936" y2="36.2682" gradientUnits="userSpaceOnUse">
<stop stop-color="#735809"/>
<stop offset="1" stop-color="#654C00"/>
</linearGradient>
<linearGradient id="paint6_linear_1618_678" x1="34.0933" y1="30.8311" x2="34.0933" y2="34.1486" gradientUnits="userSpaceOnUse">
<stop stop-color="#584006"/>
<stop offset="1" stop-color="#432F00"/>
</linearGradient>
<linearGradient id="paint7_linear_1618_678" x1="34.9253" y1="29.333" x2="34.9253" y2="30.0839" gradientUnits="userSpaceOnUse">
<stop stop-color="#584006"/>
<stop offset="1" stop-color="#432F00"/>
</linearGradient>
<linearGradient id="paint8_linear_1618_678" x1="32.2917" y1="29.2773" x2="32.2917" y2="29.9891" gradientUnits="userSpaceOnUse">
<stop stop-color="#584006"/>
<stop offset="1" stop-color="#432F00"/>
</linearGradient>
<linearGradient id="paint9_linear_1618_678" x1="37.306" y1="93.211" x2="37.3905" y2="115.211" gradientUnits="userSpaceOnUse">
<stop stop-color="#ACADAD"/>
<stop offset="1" stop-color="#7A7D7E"/>
</linearGradient>
</defs>
</svg>
