<svg width="20" height="18" viewBox="0 0 20 18" fill="none" xmlns="http://www.w3.org/2000/svg">
<path d="M5.58681 2.07448C5.18403 1.84914 4.67708 1.99538 4.45486 2.40423C4.08333 3.07956 3.88889 3.84594 3.88889 4.61934C3.88889 5.28834 4.02885 5.93554 4.30486 6.5395C4.44538 6.84806 4.74688 7.02921 5.06181 7.02921C5.17899 7.02921 5.29781 7.00395 5.41076 6.9512C5.82986 6.75676 6.01042 6.22592 5.81597 5.83219C5.64236 5.45252 5.55556 5.04472 5.55556 4.61934C5.55556 4.12964 5.67872 3.64591 5.91146 3.21983C6.13542 2.81379 5.98958 2.29982 5.58681 2.07448ZM2.17396 0.0830622C1.60313 -0.151878 0.957639 0.129221 0.727431 0.703792C0.244688 1.91101 0 3.18819 0 4.46818C0 5.8111 0.244688 7.09073 0.727431 8.29655C0.902083 8.73598 1.3184 8.99964 1.75799 8.99964C1.89618 8.99964 2.03785 8.97504 2.17396 8.91879C2.74306 8.68325 3.01771 8.02937 2.78715 7.45283C2.41215 6.51419 2.22222 5.52283 2.22222 4.49982C2.22222 3.47822 2.41212 2.48544 2.78715 1.54716C3.01771 0.971672 2.74306 0.315963 2.17396 0.0830622ZM19.2708 0.703792C19.0414 0.1269 18.3948 -0.150823 17.8243 0.0829567C17.2552 0.315858 16.9806 0.971672 17.2111 1.54716C17.5868 2.48544 17.7778 3.47857 17.7778 4.49982C17.7778 5.52142 17.5879 6.51455 17.2128 7.42119C16.9826 8.02937 17.2569 8.68325 17.8264 8.91879C17.9618 8.97504 18.1042 8.99964 18.2431 8.99964C18.6826 8.99964 19.0986 8.7338 19.2733 8.29655C19.7257 7.09073 20 5.8111 20 4.46818C20 3.18819 19.7257 1.91101 19.2708 0.703792ZM14.5903 2.04706C14.1726 2.24259 13.9903 2.74348 14.1833 3.16639C14.3576 3.54712 14.4444 3.95492 14.4444 4.38029C14.4444 4.87035 14.3213 5.35373 14.0885 5.77981C13.8656 6.18725 14.0115 6.70157 14.4141 6.92656C14.5421 6.99796 14.6805 7.03202 14.8172 7.03202C15.1102 7.03202 15.395 6.87488 15.547 6.59716C15.9167 5.92008 16.1111 5.1537 16.1111 4.38029C16.1111 3.71129 15.9711 3.06444 15.6951 2.46013C15.5035 2.03511 15.0035 1.85265 14.5903 2.04706ZM10.4792 2.30088C9.04514 1.99609 7.77778 3.09819 7.77778 4.49982C7.77778 5.33053 8.22743 6.04804 8.88889 6.43756V16.875C8.88889 17.4962 9.38646 18 10 18C10.6135 18 11.1111 17.4962 11.1111 16.875V6.43685C11.9184 5.96086 12.4104 4.99691 12.1538 3.93453C11.9583 3.12561 11.2847 2.47173 10.4792 2.30088Z" fill="#FAFAFA"/>
</svg>
