<svg width="288" height="67" viewBox="0 0 288 67" fill="none" xmlns="http://www.w3.org/2000/svg">
<g filter="url(#filter0_d_1579_676)">
<path d="M146 2H265C271.075 2 276 6.92487 276 13V53C276 59.0751 271.075 64 265 64H146V2Z" fill="#3A2859"/>
<path d="M146.5 2.5H265C270.799 2.5 275.5 7.20101 275.5 13V53C275.5 58.799 270.799 63.5 265 63.5H146.5V2.5Z" stroke="#2E1C4B"/>
</g>
<path d="M173.34 19.675V22.93H166.865V44H162.875V22.93H156.365V19.675H173.34ZM194.846 24.715V44H190.856V41.725C190.226 42.5183 189.398 43.1483 188.371 43.615C187.368 44.0583 186.294 44.28 185.151 44.28C183.634 44.28 182.269 43.965 181.056 43.335C179.866 42.705 178.921 41.7717 178.221 40.535C177.544 39.2983 177.206 37.805 177.206 36.055V24.715H181.161V35.46C181.161 37.1867 181.593 38.5167 182.456 39.45C183.319 40.36 184.498 40.815 185.991 40.815C187.484 40.815 188.663 40.36 189.526 39.45C190.413 38.5167 190.856 37.1867 190.856 35.46V24.715H194.846ZM204.1 27.515C204.684 26.535 205.454 25.7767 206.41 25.24C207.39 24.68 208.545 24.4 209.875 24.4V28.53H208.86C207.297 28.53 206.107 28.9267 205.29 29.72C204.497 30.5133 204.1 31.89 204.1 33.85V44H200.11V24.715H204.1V27.515ZM217.533 18.1V44H213.543V18.1H217.533ZM240.446 33.885C240.446 34.6083 240.4 35.2617 240.306 35.845H225.571C225.688 37.385 226.26 38.6217 227.286 39.555C228.313 40.4883 229.573 40.955 231.066 40.955C233.213 40.955 234.73 40.0567 235.616 38.26H239.921C239.338 40.0333 238.276 41.4917 236.736 42.635C235.22 43.755 233.33 44.315 231.066 44.315C229.223 44.315 227.566 43.9067 226.096 43.09C224.65 42.25 223.506 41.0833 222.666 39.59C221.85 38.0733 221.441 36.3233 221.441 34.34C221.441 32.3567 221.838 30.6183 222.631 29.125C223.448 27.6083 224.58 26.4417 226.026 25.625C227.496 24.8083 229.176 24.4 231.066 24.4C232.886 24.4 234.508 24.7967 235.931 25.59C237.355 26.3833 238.463 27.5033 239.256 28.95C240.05 30.3733 240.446 32.0183 240.446 33.885ZM236.281 32.625C236.258 31.155 235.733 29.9767 234.706 29.09C233.68 28.2033 232.408 27.76 230.891 27.76C229.515 27.76 228.336 28.2033 227.356 29.09C226.376 29.9533 225.793 31.1317 225.606 32.625H236.281ZM243.043 34.27C243.043 32.3333 243.44 30.6183 244.233 29.125C245.05 27.6317 246.146 26.4767 247.523 25.66C248.923 24.82 250.463 24.4 252.143 24.4C253.66 24.4 254.978 24.7033 256.098 25.31C257.241 25.8933 258.151 26.6283 258.828 27.515V24.715H262.853V44H258.828V41.13C258.151 42.04 257.23 42.7983 256.063 43.405C254.896 44.0117 253.566 44.315 252.073 44.315C250.416 44.315 248.9 43.895 247.523 43.055C246.146 42.1917 245.05 41.0017 244.233 39.485C243.44 37.945 243.043 36.2067 243.043 34.27ZM258.828 34.34C258.828 33.01 258.548 31.855 257.988 30.875C257.451 29.895 256.74 29.1483 255.853 28.635C254.966 28.1217 254.01 27.865 252.983 27.865C251.956 27.865 251 28.1217 250.113 28.635C249.226 29.125 248.503 29.86 247.943 30.84C247.406 31.7967 247.138 32.94 247.138 34.27C247.138 35.6 247.406 36.7667 247.943 37.77C248.503 38.7733 249.226 39.5433 250.113 40.08C251.023 40.5933 251.98 40.85 252.983 40.85C254.01 40.85 254.966 40.5933 255.853 40.08C256.74 39.5667 257.451 38.82 257.988 37.84C258.548 36.8367 258.828 35.67 258.828 34.34Z" fill="white"/>
<path d="M59.4806 24.715V44H55.4906V41.725C54.8606 42.5183 54.0323 43.1483 53.0056 43.615C52.0023 44.0583 50.929 44.28 49.7856 44.28C48.269 44.28 46.904 43.965 45.6906 43.335C44.5006 42.705 43.5556 41.7717 42.8556 40.535C42.179 39.2983 41.8406 37.805 41.8406 36.055V24.715H45.7956V35.46C45.7956 37.1867 46.2273 38.5167 47.0906 39.45C47.954 40.36 49.1323 40.815 50.6256 40.815C52.119 40.815 53.2973 40.36 54.1606 39.45C55.0473 38.5167 55.4906 37.1867 55.4906 35.46V24.715H59.4806ZM63.4151 34.34C63.4151 32.3567 63.8118 30.6183 64.6051 29.125C65.4218 27.6083 66.5418 26.4417 67.9651 25.625C69.3885 24.8083 71.0218 24.4 72.8651 24.4C75.1985 24.4 77.1235 24.96 78.6401 26.08C80.1801 27.1767 81.2185 28.7517 81.7551 30.805H77.4501C77.1001 29.8483 76.5401 29.1017 75.7701 28.565C75.0001 28.0283 74.0318 27.76 72.8651 27.76C71.2318 27.76 69.9251 28.3433 68.9451 29.51C67.9885 30.6533 67.5101 32.2633 67.5101 34.34C67.5101 36.4167 67.9885 38.0383 68.9451 39.205C69.9251 40.3717 71.2318 40.955 72.8651 40.955C75.1751 40.955 76.7035 39.94 77.4501 37.91H81.7551C81.1951 39.87 80.1451 41.4333 78.6051 42.6C77.0651 43.7433 75.1518 44.315 72.8651 44.315C71.0218 44.315 69.3885 43.9067 67.9651 43.09C66.5418 42.25 65.4218 41.0833 64.6051 39.59C63.8118 38.0733 63.4151 36.3233 63.4151 34.34ZM87.7614 22.16C87.0381 22.16 86.4314 21.915 85.9414 21.425C85.4514 20.935 85.2064 20.3283 85.2064 19.605C85.2064 18.8817 85.4514 18.275 85.9414 17.785C86.4314 17.295 87.0381 17.05 87.7614 17.05C88.4614 17.05 89.0564 17.295 89.5464 17.785C90.0364 18.275 90.2814 18.8817 90.2814 19.605C90.2814 20.3283 90.0364 20.935 89.5464 21.425C89.0564 21.915 88.4614 22.16 87.7614 22.16ZM89.7214 24.715V44H85.7314V24.715H89.7214ZM93.63 34.27C93.63 32.3333 94.0266 30.6183 94.82 29.125C95.6366 27.6317 96.7333 26.4767 98.11 25.66C99.51 24.82 101.05 24.4 102.73 24.4C104.247 24.4 105.565 24.7033 106.685 25.31C107.828 25.8933 108.738 26.6283 109.415 27.515V24.715H113.44V44H109.415V41.13C108.738 42.04 107.817 42.7983 106.65 43.405C105.483 44.0117 104.153 44.315 102.66 44.315C101.003 44.315 99.4866 43.895 98.11 43.055C96.7333 42.1917 95.6366 41.0017 94.82 39.485C94.0266 37.945 93.63 36.2067 93.63 34.27ZM109.415 34.34C109.415 33.01 109.135 31.855 108.575 30.875C108.038 29.895 107.327 29.1483 106.44 28.635C105.553 28.1217 104.597 27.865 103.57 27.865C102.543 27.865 101.587 28.1217 100.7 28.635C99.8133 29.125 99.09 29.86 98.53 30.84C97.9933 31.7967 97.725 32.94 97.725 34.27C97.725 35.6 97.9933 36.7667 98.53 37.77C99.09 38.7733 99.8133 39.5433 100.7 40.08C101.61 40.5933 102.567 40.85 103.57 40.85C104.597 40.85 105.553 40.5933 106.44 40.08C107.327 39.5667 108.038 38.82 108.575 37.84C109.135 36.8367 109.415 35.67 109.415 34.34ZM128.411 24.4C129.927 24.4 131.281 24.715 132.471 25.345C133.684 25.975 134.629 26.9083 135.306 28.145C135.982 29.3817 136.321 30.875 136.321 32.625V44H132.366V33.22C132.366 31.4933 131.934 30.175 131.071 29.265C130.207 28.3317 129.029 27.865 127.536 27.865C126.042 27.865 124.852 28.3317 123.966 29.265C123.102 30.175 122.671 31.4933 122.671 33.22V44H118.681V24.715H122.671V26.92C123.324 26.1267 124.152 25.5083 125.156 25.065C126.182 24.6217 127.267 24.4 128.411 24.4Z" fill="white"/>
<path d="M30.5124 15.4022C28.7838 12.1068 25.9081 9.14311 21.9562 7.58757C18.0044 6.03203 14.4786 6.32061 13.6402 8.41598C13.2586 9.32729 13.2835 11.4002 15.6953 12.3559C17.488 13.0667 19.0406 12.6955 19.5707 11.4445C19.7399 10.9809 19.7341 10.5285 19.4998 9.89888C25.3306 12.1968 26.8882 17.6999 26.3251 23.1228L25.8376 27.335L25.1416 33.1221C24.7877 37.5707 24.2622 43.6265 27.8555 50.3795C30.918 56.2444 35.3326 58.6068 37.4055 59.42C41.2927 60.9519 44.4599 60.3072 45.3259 58.2032C46.1616 56.1819 44.1858 54.1659 42.6458 53.5661C40.5729 52.7529 38.7269 53.3922 38.1727 54.7095C37.7125 55.836 38.34 56.4591 38.7788 56.8633C37.137 56.2075 36.2803 55.4885 35.6553 54.7912C32.7498 50.9724 31.9604 47.3005 32.8647 38.8689L33.1382 36.8487C33.4042 34.1128 33.6928 31.0475 33.6149 27.8483C33.3716 24.2323 32.4426 19.015 30.5124 15.4022Z" fill="white"/>
<defs>
<filter id="filter0_d_1579_676" x="144" y="1" width="134" height="66" filterUnits="userSpaceOnUse" color-interpolation-filters="sRGB">
<feFlood flood-opacity="0" result="BackgroundImageFix"/>
<feColorMatrix in="SourceAlpha" type="matrix" values="0 0 0 0 0 0 0 0 0 0 0 0 0 0 0 0 0 0 127 0" result="hardAlpha"/>
<feOffset dy="1"/>
<feGaussianBlur stdDeviation="1"/>
<feComposite in2="hardAlpha" operator="out"/>
<feColorMatrix type="matrix" values="0 0 0 0 0 0 0 0 0 0 0 0 0 0 0 0 0 0 0.25 0"/>
<feBlend mode="normal" in2="BackgroundImageFix" result="effect1_dropShadow_1579_676"/>
<feBlend mode="normal" in="SourceGraphic" in2="effect1_dropShadow_1579_676" result="shape"/>
</filter>
</defs>
</svg>
