<svg width="282" height="63" viewBox="0 0 282 63" fill="none" xmlns="http://www.w3.org/2000/svg">
<path d="M134.997 9C134.997 6.23857 137.235 4 139.997 4H252.997C259.072 4 263.997 8.92487 263.997 15V48C263.997 54.0751 259.072 59 252.997 59H139.997C137.235 59 134.997 56.7614 134.997 54V9Z" fill="#89D42F"/>
<path d="M163.79 17.745V22.4H156.475V42H151.015V22.4H143.7V17.745H163.79ZM181.987 41.37C181.101 41.6267 179.957 41.86 178.557 42.07C177.157 42.3033 175.687 42.42 174.147 42.42C172.584 42.42 171.277 42.21 170.227 41.79C169.201 41.37 168.384 40.7867 167.777 40.04C167.171 39.27 166.739 38.36 166.482 37.31C166.226 36.26 166.097 35.105 166.097 33.845V23.59H171.312V33.215C171.312 34.895 171.534 36.1083 171.977 36.855C172.421 37.6017 173.249 37.975 174.462 37.975C174.836 37.975 175.232 37.9633 175.652 37.94C176.072 37.8933 176.446 37.8467 176.772 37.8V23.59H181.987V41.37ZM199.728 28.21C199.261 28.0933 198.713 27.9767 198.083 27.86C197.453 27.72 196.776 27.65 196.053 27.65C195.726 27.65 195.329 27.685 194.863 27.755C194.419 27.8017 194.081 27.86 193.848 27.93V42H188.633V24.57C189.566 24.2433 190.663 23.94 191.923 23.66C193.206 23.3567 194.629 23.205 196.193 23.205C196.473 23.205 196.811 23.2283 197.208 23.275C197.604 23.2983 198.001 23.345 198.398 23.415C198.794 23.4617 199.191 23.5317 199.588 23.625C199.984 23.695 200.323 23.7883 200.603 23.905L199.728 28.21ZM212.498 42.35C210.982 42.3267 209.745 42.1633 208.788 41.86C207.855 41.5567 207.108 41.1367 206.548 40.6C206.012 40.04 205.638 39.375 205.428 38.605C205.242 37.8117 205.148 36.925 205.148 35.945V15.68L210.363 14.84V34.895C210.363 35.3617 210.398 35.7817 210.468 36.155C210.538 36.5283 210.667 36.8433 210.853 37.1C211.063 37.3567 211.355 37.5667 211.728 37.73C212.102 37.8933 212.603 37.9983 213.233 38.045L212.498 42.35ZM217.097 32.935C217.097 31.3017 217.342 29.8783 217.832 28.665C218.346 27.4283 219.011 26.4017 219.827 25.585C220.644 24.7683 221.577 24.15 222.627 23.73C223.701 23.31 224.797 23.1 225.917 23.1C228.531 23.1 230.596 23.905 232.112 25.515C233.629 27.1017 234.387 29.4467 234.387 32.55C234.387 32.8533 234.376 33.1917 234.352 33.565C234.329 33.915 234.306 34.23 234.282 34.51H222.452C222.569 35.5833 223.071 36.435 223.957 37.065C224.844 37.695 226.034 38.01 227.527 38.01C228.484 38.01 229.417 37.9283 230.327 37.765C231.261 37.5783 232.019 37.3567 232.602 37.1L233.302 41.335C233.022 41.475 232.649 41.615 232.182 41.755C231.716 41.895 231.191 42.0117 230.607 42.105C230.047 42.2217 229.441 42.315 228.787 42.385C228.134 42.455 227.481 42.49 226.827 42.49C225.171 42.49 223.724 42.245 222.487 41.755C221.274 41.265 220.259 40.6 219.442 39.76C218.649 38.8967 218.054 37.8817 217.657 36.715C217.284 35.5483 217.097 34.2883 217.097 32.935ZM229.347 30.94C229.324 30.4967 229.242 30.065 229.102 29.645C228.986 29.225 228.787 28.8517 228.507 28.525C228.251 28.1983 227.912 27.93 227.492 27.72C227.096 27.51 226.594 27.405 225.987 27.405C225.404 27.405 224.902 27.51 224.482 27.72C224.062 27.9067 223.712 28.1633 223.432 28.49C223.152 28.8167 222.931 29.2017 222.767 29.645C222.627 30.065 222.522 30.4967 222.452 30.94H229.347ZM247.197 38.36C247.71 38.36 248.2 38.3483 248.667 38.325C249.134 38.3017 249.507 38.2667 249.787 38.22V34.265C249.577 34.2183 249.262 34.1717 248.842 34.125C248.422 34.0783 248.037 34.055 247.687 34.055C247.197 34.055 246.73 34.09 246.287 34.16C245.867 34.2067 245.494 34.3117 245.167 34.475C244.84 34.6383 244.584 34.86 244.397 35.14C244.21 35.42 244.117 35.77 244.117 36.19C244.117 37.0067 244.385 37.5783 244.922 37.905C245.482 38.2083 246.24 38.36 247.197 38.36ZM246.777 23.1C248.317 23.1 249.6 23.275 250.627 23.625C251.654 23.975 252.47 24.4767 253.077 25.13C253.707 25.7833 254.15 26.5767 254.407 27.51C254.664 28.4433 254.792 29.4817 254.792 30.625V41.475C254.045 41.6383 253.007 41.825 251.677 42.035C250.347 42.2683 248.737 42.385 246.847 42.385C245.657 42.385 244.572 42.28 243.592 42.07C242.635 41.86 241.807 41.5217 241.107 41.055C240.407 40.565 239.87 39.935 239.497 39.165C239.124 38.395 238.937 37.45 238.937 36.33C238.937 35.2567 239.147 34.3467 239.567 33.6C240.01 32.8533 240.594 32.2583 241.317 31.815C242.04 31.3717 242.869 31.0567 243.802 30.87C244.735 30.66 245.704 30.555 246.707 30.555C247.384 30.555 247.979 30.59 248.492 30.66C249.029 30.7067 249.46 30.7767 249.787 30.87V30.38C249.787 29.4933 249.519 28.7817 248.982 28.245C248.445 27.7083 247.512 27.44 246.182 27.44C245.295 27.44 244.42 27.51 243.557 27.65C242.694 27.7667 241.947 27.9417 241.317 28.175L240.652 23.975C240.955 23.8817 241.329 23.7883 241.772 23.695C242.239 23.5783 242.74 23.485 243.277 23.415C243.814 23.3217 244.374 23.2517 244.957 23.205C245.564 23.135 246.17 23.1 246.777 23.1Z" fill="#202020"/>
<path d="M59.5444 41.475C58.7977 41.6617 57.8061 41.86 56.5694 42.07C55.3561 42.28 53.9444 42.385 52.3344 42.385C50.9344 42.385 49.7561 42.1867 48.7994 41.79C47.8427 41.37 47.0727 40.7867 46.4894 40.04C45.9061 39.2933 45.4861 38.4183 45.2294 37.415C44.9727 36.3883 44.8444 35.2567 44.8444 34.02V23.8H48.0994V33.32C48.0994 35.5367 48.4494 37.1233 49.1494 38.08C49.8494 39.0367 51.0277 39.515 52.6844 39.515C53.0344 39.515 53.3961 39.5033 53.7694 39.48C54.1427 39.4567 54.4927 39.4333 54.8194 39.41C55.1461 39.3633 55.4377 39.3283 55.6944 39.305C55.9744 39.2583 56.1727 39.2117 56.2894 39.165V23.8H59.5444V41.475ZM73.0621 42.42C71.5921 42.42 70.2971 42.1867 69.1771 41.72C68.0804 41.2533 67.1471 40.6 66.3771 39.76C65.6304 38.92 65.0704 37.9283 64.6971 36.785C64.3237 35.6183 64.1371 34.335 64.1371 32.935C64.1371 31.535 64.3354 30.2517 64.7321 29.085C65.1521 27.9183 65.7354 26.915 66.4821 26.075C67.2287 25.2117 68.1387 24.5467 69.2121 24.08C70.3087 23.59 71.5221 23.345 72.8521 23.345C73.6687 23.345 74.4854 23.415 75.3021 23.555C76.1187 23.695 76.9004 23.9167 77.6471 24.22L76.9121 26.985C76.4221 26.7517 75.8504 26.565 75.1971 26.425C74.5671 26.285 73.8904 26.215 73.1671 26.215C71.3471 26.215 69.9471 26.7867 68.9671 27.93C68.0104 29.0733 67.5321 30.7417 67.5321 32.935C67.5321 33.915 67.6371 34.8133 67.8471 35.63C68.0804 36.4467 68.4304 37.1467 68.8971 37.73C69.3871 38.3133 70.0054 38.7683 70.7521 39.095C71.4987 39.3983 72.4087 39.55 73.4821 39.55C74.3454 39.55 75.1271 39.4683 75.8271 39.305C76.5271 39.1417 77.0754 38.9667 77.4721 38.78L77.9271 41.51C77.7404 41.6267 77.4721 41.7433 77.1221 41.86C76.7721 41.9533 76.3754 42.035 75.9321 42.105C75.4887 42.1983 75.0104 42.2683 74.4971 42.315C74.0071 42.385 73.5287 42.42 73.0621 42.42ZM84.6766 42H81.4216V23.8H84.6766V42ZM83.0316 20.51C82.4482 20.51 81.9466 20.3233 81.5266 19.95C81.1299 19.5533 80.9316 19.0283 80.9316 18.375C80.9316 17.7217 81.1299 17.2083 81.5266 16.835C81.9466 16.4383 82.4482 16.24 83.0316 16.24C83.6149 16.24 84.1049 16.4383 84.5016 16.835C84.9216 17.2083 85.1316 17.7217 85.1316 18.375C85.1316 19.0283 84.9216 19.5533 84.5016 19.95C84.1049 20.3233 83.6149 20.51 83.0316 20.51ZM96.4341 39.655C97.2041 39.655 97.8808 39.6433 98.4641 39.62C99.0708 39.5733 99.5725 39.5033 99.9691 39.41V33.985C99.7358 33.8683 99.3508 33.775 98.8141 33.705C98.3008 33.6117 97.6708 33.565 96.9241 33.565C96.4341 33.565 95.9091 33.6 95.3491 33.67C94.8125 33.74 94.3108 33.8917 93.8441 34.125C93.4008 34.335 93.0275 34.6383 92.7241 35.035C92.4208 35.4083 92.2691 35.91 92.2691 36.54C92.2691 37.7067 92.6425 38.5233 93.3891 38.99C94.1358 39.4333 95.1508 39.655 96.4341 39.655ZM96.1541 23.345C97.4608 23.345 98.5575 23.52 99.4441 23.87C100.354 24.1967 101.077 24.675 101.614 25.305C102.174 25.9117 102.571 26.6467 102.804 27.51C103.037 28.35 103.154 29.2833 103.154 30.31V41.685C102.874 41.7317 102.477 41.8017 101.964 41.895C101.474 41.965 100.914 42.035 100.284 42.105C99.6541 42.175 98.9658 42.2333 98.2191 42.28C97.4958 42.35 96.7725 42.385 96.0491 42.385C95.0225 42.385 94.0775 42.28 93.2141 42.07C92.3508 41.86 91.6041 41.5333 90.9741 41.09C90.3441 40.6233 89.8541 40.0167 89.5041 39.27C89.1541 38.5233 88.9791 37.625 88.9791 36.575C88.9791 35.5717 89.1775 34.7083 89.5741 33.985C89.9941 33.2617 90.5541 32.6783 91.2541 32.235C91.9541 31.7917 92.7708 31.465 93.7041 31.255C94.6375 31.045 95.6175 30.94 96.6441 30.94C96.9708 30.94 97.3091 30.9633 97.6591 31.01C98.0091 31.0333 98.3358 31.08 98.6391 31.15C98.9658 31.1967 99.2458 31.2433 99.4791 31.29C99.7125 31.3367 99.8758 31.3717 99.9691 31.395V30.485C99.9691 29.9483 99.9108 29.4233 99.7941 28.91C99.6775 28.3733 99.4675 27.9067 99.1641 27.51C98.8608 27.09 98.4408 26.7633 97.9041 26.53C97.3908 26.2733 96.7141 26.145 95.8741 26.145C94.8008 26.145 93.8558 26.2267 93.0391 26.39C92.2458 26.53 91.6508 26.6817 91.2541 26.845L90.8691 24.15C91.2891 23.9633 91.9891 23.7883 92.9691 23.625C93.9491 23.4383 95.0108 23.345 96.1541 23.345ZM108.56 24.325C109.307 24.1383 110.299 23.94 111.535 23.73C112.772 23.52 114.195 23.415 115.805 23.415C117.252 23.415 118.454 23.625 119.41 24.045C120.367 24.4417 121.125 25.0133 121.685 25.76C122.269 26.4833 122.677 27.3583 122.91 28.385C123.144 29.4117 123.26 30.5433 123.26 31.78V42H120.005V32.48C120.005 31.36 119.924 30.4033 119.76 29.61C119.62 28.8167 119.375 28.175 119.025 27.685C118.675 27.195 118.209 26.845 117.625 26.635C117.042 26.4017 116.319 26.285 115.455 26.285C115.105 26.285 114.744 26.2967 114.37 26.32C113.997 26.3433 113.635 26.3783 113.285 26.425C112.959 26.4483 112.655 26.4833 112.375 26.53C112.119 26.5767 111.932 26.6117 111.815 26.635V42H108.56V24.325Z" fill="white"/>
<path d="M34.2536 12.0691C32.3638 8.46625 29.2197 5.22596 24.899 3.52526C20.5784 1.82456 16.7236 2.14007 15.807 4.43097C15.3897 5.42733 15.417 7.69365 18.0539 8.73852C20.0138 9.51572 21.7113 9.1099 22.2909 7.74206C22.4759 7.23528 22.4695 6.74065 22.2134 6.05226C28.5883 8.56458 30.2912 14.5812 29.6756 20.5101L29.1426 25.1154L28.3816 31.4426L28.3696 31.5936C27.9833 36.4429 27.4607 43.0033 31.3488 50.3103C34.697 56.7225 39.5236 59.3054 41.79 60.1945C46.0399 61.8694 49.5026 61.1645 50.4494 58.8641C51.3632 56.6542 49.203 54.4501 47.5193 53.7943C45.2529 52.9052 43.2347 53.6042 42.6287 55.0444C42.1256 56.2761 42.8117 56.9574 43.2915 57.3992C41.4965 56.6822 40.5597 55.8961 39.8765 55.1338C36.6998 50.9586 35.8368 46.944 36.8254 37.7257L37.1244 35.5169C37.4153 32.5258 37.7308 29.1744 37.6457 25.6767C37.3797 21.7232 36.3639 16.0191 34.2536 12.0691Z" fill="white"/>
</svg>
