<svg width="307" height="74" viewBox="0 0 307 74" fill="none" xmlns="http://www.w3.org/2000/svg">
<g clip-path="url(#clip0_1594_723)">
<g filter="url(#filter0_i_1594_723)">
<path d="M154.992 3.45996L281.306 2.33934C287.754 2.28214 293.029 7.46429 293.086 13.914L293.462 56.3803C293.52 62.83 288.338 68.1049 281.89 68.1622L155.576 69.2828L154.992 3.45996Z" fill="#031F4A"/>
<path d="M155.528 3.98633L281.311 2.87042C287.466 2.81581 292.501 7.76241 292.555 13.919L292.932 56.3853C292.987 62.5418 288.041 67.577 281.886 67.6316L156.102 68.7475L155.528 3.98633Z" stroke="#BBBBBB" stroke-opacity="0.11"/>
</g>
<path d="M184.179 21.9673L184.21 25.423L177.337 25.484L177.535 47.8531L173.3 47.8907L173.102 25.5216L166.191 25.5829L166.161 22.1272L184.179 21.9673ZM207.054 27.1156L207.236 47.5897L203.001 47.6272L202.979 45.212C202.318 46.0601 201.445 46.7367 200.359 47.2419C199.299 47.722 198.161 47.9674 196.948 47.9782C195.338 47.9925 193.886 47.6709 192.592 47.0135C191.323 46.3559 190.311 45.3739 189.557 44.0676C188.826 42.761 188.453 41.1788 188.437 39.3209L188.33 27.2817L192.528 27.2444L192.629 38.652C192.646 40.4851 193.117 41.8931 194.042 42.8758C194.966 43.8338 196.222 44.3057 197.807 44.2917C199.392 44.2776 200.639 43.7834 201.546 42.8092C202.479 41.81 202.937 40.3938 202.92 38.5607L202.819 27.1531L207.054 27.1156ZM216.904 30.0011C217.514 28.9551 218.324 28.1428 219.334 27.564C220.369 26.9603 221.592 26.6521 223.004 26.6396L223.043 31.0243L221.966 31.0338C220.307 31.0485 219.047 31.4809 218.187 32.3308C217.353 33.1805 216.945 34.6458 216.963 36.7267L217.059 47.5025L212.824 47.5401L212.642 27.066L216.877 27.0284L216.904 30.0011ZM231.073 19.8791L231.317 47.376L227.082 47.4136L226.838 19.9166L231.073 19.8791ZM255.543 36.4216C255.55 37.1895 255.508 37.8836 255.413 38.5037L239.773 38.6425C239.911 40.2763 240.53 41.5839 241.628 42.5651C242.727 43.5463 244.069 44.0299 245.653 44.0158C247.932 43.9956 249.534 43.0276 250.458 41.1118L255.027 41.0713C254.425 42.9594 253.312 44.5177 251.688 45.746C250.089 46.9493 248.088 47.5617 245.685 47.583C243.729 47.6003 241.966 47.1825 240.398 46.3293C238.855 45.4511 237.63 44.2232 236.724 42.6458C235.844 41.0432 235.393 39.1892 235.375 37.0836C235.356 34.978 235.761 33.1287 236.589 31.5358C237.442 29.9179 238.632 28.6687 240.159 27.7881C241.712 26.9072 243.491 26.4579 245.498 26.4401C247.429 26.4229 249.155 26.8288 250.673 27.6576C252.192 28.4864 253.378 29.6651 254.234 31.1935C255.09 32.6971 255.526 34.4398 255.543 36.4216ZM251.111 35.1231C251.072 33.5627 250.504 32.3167 249.405 31.385C248.308 30.4533 246.954 29.9946 245.343 30.0089C243.883 30.0218 242.636 30.5036 241.604 31.4542C240.572 32.3799 239.964 33.6365 239.779 35.2236L251.111 35.1231ZM258.304 36.8058C258.285 34.7497 258.691 32.9253 259.518 31.3324C260.371 29.7393 261.524 28.5028 262.978 27.6228C264.456 26.7178 266.087 26.2574 267.87 26.2416C269.48 26.2273 270.882 26.5369 272.077 27.1705C273.295 27.779 274.268 28.5507 274.995 29.4857L274.969 26.5131L279.241 26.4752L279.423 46.9492L275.15 46.9871L275.123 43.9402C274.413 44.9127 273.443 45.7264 272.21 46.3815C270.977 47.0366 269.568 47.3711 267.983 47.3852C266.224 47.4008 264.611 46.9692 263.142 46.0903C261.672 45.1868 260.497 43.9337 259.616 42.3312C258.76 40.7037 258.322 38.862 258.304 36.8058ZM275.059 36.7315C275.047 35.3195 274.739 34.0959 274.135 33.0608C273.556 32.0254 272.794 31.2394 271.848 30.7028C270.902 30.1662 269.884 29.9027 268.794 29.9123C267.704 29.922 266.692 30.2035 265.755 30.7568C264.818 31.2854 264.058 32.0725 263.473 33.1182C262.912 34.139 262.638 35.3553 262.65 36.7673C262.663 38.1793 262.958 39.4154 263.538 40.4755C264.142 41.5354 264.916 42.3461 265.863 42.9075C266.834 43.4439 267.852 43.7074 268.917 43.698C270.007 43.6883 271.019 43.4068 271.956 42.8535C272.892 42.3002 273.64 41.5007 274.201 40.4552C274.786 39.3848 275.072 38.1435 275.059 36.7315Z" fill="white"/>
<path d="M63.3691 28.3904L63.5508 48.8645L59.3155 48.9021L59.2941 46.4868C58.6329 47.335 57.7596 48.0116 56.6742 48.5168C55.6134 48.9968 54.4762 49.2423 53.2625 49.2531C51.6527 49.2674 50.2009 48.9458 48.907 48.2884C47.6379 47.6307 46.626 46.6488 45.8713 45.3424C45.1415 44.0359 44.7682 42.4537 44.7518 40.5958L44.6449 28.5566L48.843 28.5193L48.9442 39.9268C48.9605 41.76 49.4313 43.1679 50.3564 44.1507C51.2814 45.1086 52.5364 45.5806 54.1215 45.5665C55.7067 45.5525 56.9531 45.0583 57.8609 44.0841C58.7933 43.0849 59.2514 41.6687 59.2351 39.8355L59.1339 28.428L63.3691 28.3904ZM67.6361 38.5719C67.6174 36.4663 68.0221 34.6169 68.8501 33.0241C69.7027 31.4062 70.8806 30.1571 72.3837 29.2767C73.8869 28.3962 75.6167 27.9473 77.5733 27.93C80.0501 27.908 82.0987 28.4844 83.7191 29.6592C85.364 30.809 86.4811 32.4713 87.07 34.6462L82.5004 34.6867C82.1199 33.6743 81.5184 32.887 80.6961 32.3244C79.8737 31.7619 78.8433 31.4862 77.6049 31.4972C75.8712 31.5125 74.4897 32.1441 73.4605 33.392C72.4559 34.6148 71.9632 36.3285 71.9828 38.5333C72.0023 40.738 72.5254 42.4551 73.5518 43.6847C74.603 44.9142 75.9955 45.5211 77.7292 45.5057C80.1812 45.484 81.794 44.392 82.5673 42.2298L87.1369 42.1893C86.561 44.2754 85.4612 45.945 83.8375 47.1981C82.2136 48.4264 80.1881 49.0514 77.7609 49.0729C75.8043 49.0903 74.0667 48.6722 72.5482 47.8185C71.0295 46.9401 69.8297 45.712 68.9487 44.1344C68.0923 42.5316 67.6548 40.6774 67.6361 38.5719ZM93.364 25.4116C92.5963 25.4184 91.95 25.164 91.4253 24.6484C90.9005 24.1328 90.6347 23.491 90.6279 22.7231C90.6211 21.9552 90.8755 21.3088 91.391 20.784C91.9065 20.2591 92.5482 19.9933 93.3159 19.9865C94.0589 19.9799 94.6928 20.2344 95.2175 20.75C95.7423 21.2656 96.008 21.9074 96.0149 22.6753C96.0217 23.4432 95.7673 24.0896 95.2518 24.6145C94.7363 25.1393 94.1071 25.405 93.364 25.4116ZM95.4686 28.1057L95.6502 48.5797L91.415 48.6173L91.2333 28.1432L95.4686 28.1057ZM99.7074 38.213C99.6891 36.1569 100.094 34.3324 100.922 32.7396C101.775 31.1465 102.928 29.91 104.382 29.0299C105.86 28.125 107.49 27.6646 109.274 27.6487C110.884 27.6345 112.286 27.944 113.48 28.5776C114.699 29.1861 115.672 29.9579 116.399 30.8929L116.373 27.9202L120.645 27.8823L120.827 48.3564L116.554 48.3943L116.527 45.3473C115.817 46.3198 114.847 47.1335 113.614 47.7886C112.381 48.4437 110.972 48.7783 109.387 48.7923C107.628 48.8079 106.015 48.3763 104.545 47.4975C103.076 46.5939 101.901 45.3409 101.02 43.7383C100.163 42.1109 99.7256 40.2691 99.7074 38.213ZM116.463 38.1387C116.451 36.7267 116.143 35.5031 115.539 34.4679C114.96 33.4326 114.198 32.6465 113.252 32.1099C112.305 31.5733 111.288 31.3098 110.198 31.3195C109.108 31.3291 108.096 31.6107 107.159 32.164C106.222 32.6925 105.461 33.4797 104.876 34.5254C104.316 35.5461 104.042 36.7624 104.054 38.1744C104.067 39.5864 104.362 40.8226 104.942 41.8827C105.545 42.9426 106.32 43.7532 107.267 44.3147C108.237 44.851 109.256 45.1146 110.32 45.1051C111.41 45.0954 112.423 44.8139 113.359 44.2606C114.296 43.7073 115.044 42.9079 115.605 41.8624C116.19 40.792 116.476 39.5507 116.463 38.1387ZM136.533 27.4069C138.142 27.3926 139.582 27.7143 140.852 28.3719C142.145 29.0294 143.157 30.0113 143.887 31.3179C144.616 32.6245 144.99 34.2067 145.007 36.0646L145.114 48.1409L140.916 48.1782L140.814 36.7335C140.798 34.9003 140.327 33.5048 139.402 32.5468C138.477 31.5641 137.222 31.0797 135.637 31.0938C134.051 31.1079 132.792 31.6145 131.861 32.6137C130.952 33.588 130.507 34.9916 130.523 36.8248L130.625 48.2695L126.39 48.307L126.208 27.833L130.443 27.7954L130.464 30.1363C131.15 29.288 132.023 28.6236 133.084 28.1436C134.169 27.6633 135.319 27.4177 136.533 27.4069Z" fill="white"/>
<path d="M32.0585 25.7683C30.9238 23.6507 29.0506 21.7537 26.4907 20.7721C23.9309 19.7904 21.6567 19.9969 21.1275 21.3545C20.8864 21.9451 20.9144 23.2832 22.4767 23.8864C23.6379 24.3351 24.638 24.0865 24.973 23.2758C25.0795 22.9756 25.0732 22.6835 24.9184 22.2784C28.6953 23.7286 29.7322 27.2725 29.3998 30.7768L29.1092 33.4991L28.6931 37.2393C28.4902 40.1134 28.1856 44.0261 30.5438 48.3654C32.5542 52.1343 35.4173 53.6342 36.76 54.1474C39.278 55.1141 41.3187 54.6798 41.8656 53.3164C42.3935 52.0067 41.1066 50.7164 40.1091 50.338C38.7664 49.8248 37.5785 50.2482 37.2283 51.1018C36.9377 51.8317 37.3463 52.2304 37.6318 52.4889C36.5683 52.0749 36.0112 51.6156 35.6038 51.169C33.7064 48.7201 33.1758 46.354 33.7113 40.9053L33.8762 39.5995C34.0323 37.8316 34.201 35.8509 34.1324 33.7859C33.9546 31.4528 33.3251 28.0897 32.0585 25.7683Z" fill="white"/>
</g>
<defs>
<filter id="filter0_i_1594_723" x="154.992" y="2.33887" width="138.471" height="67.9443" filterUnits="userSpaceOnUse" color-interpolation-filters="sRGB">
<feFlood flood-opacity="0" result="BackgroundImageFix"/>
<feBlend mode="normal" in="SourceGraphic" in2="BackgroundImageFix" result="shape"/>
<feColorMatrix in="SourceAlpha" type="matrix" values="0 0 0 0 0 0 0 0 0 0 0 0 0 0 0 0 0 0 127 0" result="hardAlpha"/>
<feOffset dy="1"/>
<feGaussianBlur stdDeviation="1"/>
<feComposite in2="hardAlpha" operator="arithmetic" k2="-1" k3="1"/>
<feColorMatrix type="matrix" values="0 0 0 0 0 0 0 0 0 0 0 0 0 0 0 0 0 0 0.25 0"/>
<feBlend mode="normal" in2="shape" result="effect1_innerShadow_1594_723"/>
</filter>
<clipPath id="clip0_1594_723">
<rect width="305.713" height="71.1339" fill="white" transform="translate(0 2.71191) rotate(-0.508297)"/>
</clipPath>
</defs>
</svg>
