<svg width="261" height="169" viewBox="0 0 261 169" fill="none" xmlns="http://www.w3.org/2000/svg">
<g filter="url(#filter0_i_1756_154)">
<path d="M126.676 51.6494L236.063 50.679C241.647 50.6294 246.214 55.1171 246.264 60.7025L246.59 97.4779C246.64 103.063 242.153 107.631 236.568 107.681L127.182 108.651L126.676 51.6494Z" fill="#0D0C0C"/>
<path d="M127.14 52.1055L236.067 51.1391C241.397 51.0918 245.757 55.3755 245.804 60.707L246.13 97.4824C246.178 102.814 241.895 107.174 236.564 107.222L127.637 108.188L127.14 52.1055Z" stroke="#0D0C0C"/>
</g>
<path d="M151.952 67.6758L151.978 70.6684L146.026 70.7212L146.198 90.0926L142.531 90.1252L142.359 70.7537L136.375 70.8068L136.348 67.8142L151.952 67.6758ZM171.761 72.1341L171.919 89.8645L168.251 89.897L168.233 87.8054C167.66 88.5399 166.904 89.1258 165.964 89.5633C165.045 89.979 164.06 90.1916 163.009 90.2009C161.615 90.2133 160.357 89.9348 159.237 89.3655C158.138 88.796 157.262 87.9457 156.609 86.8144C155.976 85.6829 155.653 84.3127 155.639 82.7038L155.546 72.278L159.182 72.2457L159.27 82.1245C159.284 83.712 159.692 84.9313 160.493 85.7823C161.293 86.6119 162.381 87.0206 163.753 87.0084C165.125 86.9963 166.206 86.5683 166.991 85.7246C167.799 84.8593 168.195 83.633 168.181 82.0454L168.094 72.1667L171.761 72.1341ZM180.291 74.6329C180.819 73.7272 181.521 73.0237 182.395 72.5225C183.292 71.9997 184.351 71.7328 185.574 71.722L185.607 75.519L184.674 75.5273C183.238 75.54 182.147 75.9145 181.403 76.6505C180.68 77.3863 180.326 78.6552 180.342 80.4572L180.425 89.789L176.757 89.8215L176.6 72.0912L180.268 72.0587L180.291 74.6329ZM192.562 65.8674L192.773 89.6794L189.105 89.712L188.894 65.8999L192.562 65.8674ZM213.752 80.193C213.758 80.858 213.721 81.4591 213.64 81.9962L200.095 82.1163C200.215 83.5312 200.751 84.6635 201.702 85.5132C202.653 86.3629 203.815 86.7817 205.188 86.7696C207.161 86.752 208.548 85.9138 209.348 84.2547L213.305 84.2196C212.784 85.8547 211.82 87.2042 210.413 88.2679C209.029 89.31 207.296 89.8402 205.215 89.8587C203.521 89.8737 201.995 89.5118 200.637 88.773C199.301 88.0125 198.24 86.9492 197.455 85.5831C196.693 84.1953 196.303 82.5897 196.286 80.7663C196.27 78.9429 196.621 77.3414 197.338 75.962C198.076 74.5609 199.107 73.4791 200.43 72.7165C201.775 71.9536 203.315 71.5646 205.053 71.5491C206.726 71.5343 208.22 71.8858 209.534 72.6035C210.85 73.3213 211.878 74.342 212.618 75.6656C213.36 76.9676 213.737 78.4768 213.752 80.193ZM209.914 79.0686C209.88 77.7172 209.388 76.6382 208.437 75.8314C207.487 75.0245 206.314 74.6273 204.919 74.6397C203.654 74.6509 202.574 75.0681 201.681 75.8913C200.787 76.693 200.261 77.7812 200.101 79.1556L209.914 79.0686ZM216.143 80.5258C216.127 78.7452 216.478 77.1652 217.195 75.7859C217.933 74.4063 218.931 73.3355 220.191 72.5734C221.471 71.7897 222.883 71.391 224.427 71.3773C225.821 71.3649 227.035 71.633 228.07 72.1817C229.125 72.7086 229.968 73.3769 230.597 74.1866L230.575 71.6124L234.274 71.5795L234.432 89.3099L230.732 89.3427L230.708 86.7041C230.094 87.5462 229.253 88.2509 228.185 88.8182C227.118 89.3855 225.898 89.6752 224.525 89.6874C223.002 89.7009 221.605 89.3271 220.332 88.5661C219.06 87.7836 218.042 86.6985 217.279 85.3107C216.538 83.9013 216.158 82.3064 216.143 80.5258ZM230.653 80.4614C230.642 79.2386 230.375 78.179 229.853 77.2826C229.351 76.386 228.691 75.7053 227.872 75.2406C227.052 74.7759 226.171 74.5477 225.227 74.5561C224.283 74.5645 223.407 74.8083 222.596 75.2874C221.784 75.7451 221.126 76.4268 220.619 77.3324C220.133 78.2163 219.896 79.2696 219.907 80.4924C219.918 81.7152 220.174 82.7856 220.675 83.7037C221.198 84.6215 221.869 85.3236 222.689 85.8098C223.53 86.2743 224.411 86.5025 225.333 86.4943C226.277 86.4859 227.154 86.2421 227.965 85.763C228.776 85.2838 229.424 84.5915 229.909 83.6861C230.416 82.7591 230.664 81.6842 230.653 80.4614Z" fill="#2795AD"/>
<path d="M47.3319 73.2382L47.4892 90.9685L43.8215 91.0011L43.803 88.9095C43.2303 89.6439 42.4741 90.2299 41.5341 90.6674C40.6155 91.0831 39.6307 91.2957 38.5797 91.305C37.1856 91.3174 35.9283 91.0389 34.8078 90.4696C33.7088 89.9001 32.8325 89.0497 32.179 87.9184C31.547 86.7869 31.2237 85.4168 31.2095 83.8079L31.117 73.382L34.7525 73.3498L34.8401 83.2286C34.8542 84.8161 35.2619 86.0353 36.063 86.8864C36.8641 87.716 37.9509 88.1247 39.3236 88.1125C40.6963 88.1003 41.7757 87.6724 42.5619 86.8287C43.3693 85.9634 43.766 84.737 43.7519 83.1495L43.6642 73.2707L47.3319 73.2382ZM51.027 82.0552C51.0109 80.2318 51.3613 78.6303 52.0784 77.2509C52.8167 75.8498 53.8367 74.7681 55.1384 74.0056C56.4401 73.2432 57.9381 72.8545 59.6325 72.8394C61.7774 72.8204 63.5515 73.3196 64.9547 74.3369C66.3792 75.3326 67.3466 76.7722 67.8566 78.6556L63.8994 78.6907C63.5698 77.814 63.049 77.1321 62.3368 76.645C61.6247 76.1578 60.7324 75.9191 59.6599 75.9286C58.1586 75.9419 56.9622 76.4888 56.0709 77.5695C55.2009 78.6284 54.7743 80.1125 54.7912 82.0218C54.8082 83.9311 55.2611 85.418 56.15 86.4829C57.0603 87.5475 58.2662 88.0732 59.7676 88.0598C61.8909 88.041 63.2876 87.0954 63.9573 85.2229L67.9145 85.1878C67.4158 86.9944 66.4633 88.4402 65.0573 89.5254C63.651 90.5891 61.8969 91.1303 59.795 91.149C58.1006 91.164 56.5959 90.8019 55.2808 90.0627C53.9657 89.302 52.9266 88.2385 52.1637 86.8722C51.4221 85.4843 51.0432 83.8786 51.027 82.0552ZM73.3071 70.6585C72.6423 70.6644 72.0826 70.4441 71.6282 69.9976C71.1738 69.5511 70.9436 68.9953 70.9377 68.3303C70.9318 67.6654 71.1521 67.1056 71.5985 66.6511C72.0449 66.1966 72.6006 65.9664 73.2655 65.9605C73.9089 65.9548 74.4578 66.1752 74.9123 66.6217C75.3667 67.0682 75.5968 67.624 75.6027 68.289C75.6086 68.9539 75.3884 69.5137 74.9419 69.9682C74.4955 70.4227 73.9506 70.6528 73.3071 70.6585ZM75.1296 72.9916L75.2869 90.7219L71.6193 90.7544L71.462 73.0241L75.1296 72.9916ZM78.8004 81.7444C78.7846 79.9638 79.1352 78.3839 79.8523 77.0045C80.5908 75.6249 81.5894 74.5541 82.8483 73.792C84.1283 73.0083 85.5405 72.6096 87.0848 72.5959C88.4792 72.5835 89.6932 72.8516 90.7277 73.4003C91.7831 73.9272 92.6256 74.5956 93.2551 75.4053L93.2323 72.831L96.9321 72.7982L97.0894 90.5285L93.3896 90.5613L93.3662 87.9227C92.7513 88.7648 91.9109 89.4695 90.8431 90.0368C89.7753 90.6041 88.5552 90.8938 87.1829 90.906C85.6597 90.9195 84.2624 90.5457 82.9902 89.7847C81.7176 89.0022 80.6998 87.9171 79.9368 86.5293C79.195 85.1199 78.8162 83.525 78.8004 81.7444ZM93.3108 81.6801C93.2999 80.4573 93.0331 79.3977 92.5104 78.5012C92.0088 77.6046 91.3491 76.9239 90.5296 76.4592C89.7101 75.9945 88.8292 75.7663 87.8852 75.7747C86.9411 75.7831 86.0645 76.0269 85.2533 76.506C84.4422 76.9638 83.7834 77.6454 83.2766 78.551C82.791 79.4349 82.5537 80.4882 82.5646 81.711C82.5754 82.9338 82.8316 84.0043 83.3331 84.9223C83.8561 85.8402 84.5272 86.5422 85.3466 87.0284C86.1873 87.4929 87.0691 87.7211 87.9911 87.7129C88.9351 87.7045 89.8118 87.4607 90.6229 86.9816C91.4341 86.5024 92.0816 85.8101 92.5672 84.9047C93.0738 83.9778 93.3216 82.9028 93.3108 81.6801ZM110.691 72.3865C112.085 72.3741 113.332 72.6527 114.431 73.2222C115.551 73.7915 116.427 74.6418 117.06 75.7733C117.691 76.9048 118.015 78.275 118.029 79.8839L118.122 90.3419L114.486 90.3741L114.399 80.4632C114.384 78.8757 113.977 77.6672 113.176 76.8376C112.374 75.9866 111.287 75.5671 109.915 75.5793C108.542 75.5914 107.452 76.0302 106.645 76.8955C105.858 77.7392 105.473 78.9547 105.487 80.5422L105.575 90.4532L101.907 90.4857L101.75 72.7554L105.417 72.7229L105.435 74.7501C106.029 74.0154 106.785 73.4401 107.704 73.0244C108.644 72.6085 109.639 72.3958 110.691 72.3865Z" fill="#0D0C0C"/>
<path d="M20.6279 64.9129C19.012 61.8972 16.3445 59.1959 12.6992 57.798C9.05392 56.4001 5.81531 56.6942 5.06174 58.6275C4.7184 59.4684 4.75819 61.374 6.98295 62.233C8.63662 62.8719 10.0608 62.5179 10.5378 61.3635C10.6896 60.9359 10.6806 60.52 10.4601 59.943C15.8386 62.0081 17.3152 67.0549 16.8418 72.0452L16.4281 75.9218L15.8355 81.2481C15.5465 85.3409 15.1128 90.9128 18.4709 97.0921C21.3338 102.459 25.4111 104.595 27.3231 105.326C30.9088 106.703 33.8149 106.084 34.5938 104.143C35.3455 102.277 33.5128 100.44 32.0923 99.9012C30.1803 99.1705 28.4886 99.7733 27.9899 100.989C27.5761 102.028 28.158 102.596 28.5646 102.964C27.0501 102.375 26.2568 101.721 25.6766 101.085C22.9747 97.5973 22.2191 94.2279 22.9815 86.4686L23.2165 84.609C23.4387 82.0915 23.679 79.271 23.5813 76.3303C23.3281 73.0078 22.4316 68.2187 20.6279 64.9129Z" fill="#0D0C0C"/>
<defs>
<filter id="filter0_i_1756_154" x="126.635" y="50.6387" width="119.995" height="59.0537" filterUnits="userSpaceOnUse" color-interpolation-filters="sRGB">
<feFlood flood-opacity="0" result="BackgroundImageFix"/>
<feBlend mode="normal" in="SourceGraphic" in2="BackgroundImageFix" result="shape"/>
<feColorMatrix in="SourceAlpha" type="matrix" values="0 0 0 0 0 0 0 0 0 0 0 0 0 0 0 0 0 0 127 0" result="hardAlpha"/>
<feOffset dy="1"/>
<feGaussianBlur stdDeviation="1"/>
<feComposite in2="hardAlpha" operator="arithmetic" k2="-1" k3="1"/>
<feColorMatrix type="matrix" values="0 0 0 0 0 0 0 0 0 0 0 0 0 0 0 0 0 0 0.25 0"/>
<feBlend mode="normal" in2="shape" result="effect1_innerShadow_1756_154"/>
</filter>
</defs>
</svg>
