<svg width="77" height="77" viewBox="0 0 77 77" fill="none" xmlns="http://www.w3.org/2000/svg">
<path fill-rule="evenodd" clip-rule="evenodd" d="M38.5 77C59.763 77 77 59.763 77 38.5C77 17.237 59.763 0 38.5 0C17.237 0 0 17.237 0 38.5C0 59.763 17.237 77 38.5 77ZM48.7315 22.9061L52.0899 26.2501C52.6726 26.8303 53 27.6172 53 28.4377V45.7188C53 47.4274 51.6089 48.8125 49.8929 48.8125H44.7143V51.9062C44.7143 53.6149 43.3232 55 41.6071 55H27.1071C25.3911 55 24 53.6149 24 51.9062V31.2812C24 29.5726 25.3911 28.1875 27.1071 28.1875H32.2857V25.0938C32.2857 23.3851 33.6768 22 35.3929 22H46.5344C47.3585 22 48.1488 22.326 48.7315 22.9061ZM27.4955 51.9062H41.2188C41.3218 51.9062 41.4205 51.8655 41.4934 51.793C41.5662 51.7205 41.6071 51.6221 41.6071 51.5195V48.8125H35.3929C33.6768 48.8125 32.2857 47.4274 32.2857 45.7188V31.2812H27.4955C27.3925 31.2812 27.2937 31.322 27.2209 31.3945C27.1481 31.467 27.1071 31.5654 27.1071 31.668V51.5195C27.1071 51.6221 27.1481 51.7205 27.2209 51.793C27.2937 51.8655 27.3925 51.9062 27.4955 51.9062ZM35.5066 45.6055C35.5795 45.678 35.6782 45.7188 35.7812 45.7188H49.5045C49.6075 45.7188 49.7063 45.678 49.7791 45.6055C49.8519 45.533 49.8929 45.4346 49.8929 45.332V32.3125H44.1964C43.3384 32.3125 42.6429 31.62 42.6429 30.7656V25.0938H35.7812C35.6782 25.0938 35.5795 25.1345 35.5066 25.207C35.4338 25.2795 35.3929 25.3779 35.3929 25.4805V45.332C35.3929 45.4346 35.4338 45.533 35.5066 45.6055ZM45.75 29.2188H49.8929V28.5979C49.8929 28.5471 49.8828 28.4969 49.8633 28.4499C49.8438 28.403 49.8152 28.3604 49.7791 28.3245L46.6482 25.207C46.5753 25.1345 46.4765 25.0938 46.3735 25.0938H45.75V29.2188Z" fill="white"/>
</svg>
