<svg width="77" height="77" viewBox="0 0 77 77" fill="none" xmlns="http://www.w3.org/2000/svg">
<circle cx="38.5" cy="38.5" r="38.5" fill="#2695AD"/>
<path d="M52.0899 26.2501L48.7315 22.9061C48.1488 22.326 47.3585 22 46.5344 22H35.3929C33.6768 22 32.2857 23.3851 32.2857 25.0938V28.1875H27.1071C25.3911 28.1875 24 29.5726 24 31.2812V51.9062C24 53.6149 25.3911 55 27.1071 55H41.6071C43.3232 55 44.7143 53.6149 44.7143 51.9062V48.8125H49.8929C51.6089 48.8125 53 47.4274 53 45.7188V28.4377C53 27.6172 52.6726 26.8303 52.0899 26.2501ZM41.2187 51.9062H27.4955C27.3925 51.9062 27.2937 51.8655 27.2209 51.793C27.1481 51.7205 27.1071 51.6221 27.1071 51.5195V31.668C27.1071 31.5654 27.1481 31.467 27.2209 31.3945C27.2937 31.322 27.3925 31.2812 27.4955 31.2812H32.2857V45.7188C32.2857 47.4274 33.6768 48.8125 35.3929 48.8125H41.6071V51.5195C41.6071 51.6221 41.5662 51.7205 41.4934 51.793C41.4205 51.8655 41.3218 51.9062 41.2187 51.9062ZM49.5045 45.7188H35.7812C35.6782 45.7188 35.5795 45.678 35.5066 45.6055C35.4338 45.533 35.3929 45.4346 35.3929 45.332V25.4805C35.3929 25.3779 35.4338 25.2795 35.5066 25.207C35.5795 25.1345 35.6782 25.0938 35.7812 25.0938H42.6429V30.7656C42.6429 31.62 43.3384 32.3125 44.1964 32.3125H49.8929V45.332C49.8929 45.4346 49.8519 45.533 49.7791 45.6055C49.7063 45.678 49.6075 45.7188 49.5045 45.7188V45.7188ZM49.8929 29.2188H45.75V25.0938H46.3735C46.4765 25.0938 46.5753 25.1345 46.6482 25.207L49.7791 28.3245C49.8152 28.3604 49.8438 28.403 49.8633 28.4499C49.8828 28.4969 49.8929 28.5472 49.8929 28.5979V29.2188Z" fill="white"/>
</svg>
