<svg width="83" height="83" viewBox="0 0 83 83" fill="none" xmlns="http://www.w3.org/2000/svg">
<circle cx="41.5" cy="41.5" r="40" fill="#3A2859" stroke="white" stroke-width="3"/>
<path d="M58.8389 25.4092L54.554 21.1533C53.8105 20.4149 52.8022 20 51.7508 20H37.5357C35.3463 20 33.5714 21.7629 33.5714 23.9375V27.875H26.9643C24.7748 27.875 23 29.6379 23 31.8125V58.0625C23 60.2371 24.7748 62 26.9643 62H45.4643C47.6537 62 49.4286 60.2371 49.4286 58.0625V54.125H56.0357C58.2252 54.125 60 52.3621 60 50.1875V28.1934C60 27.1492 59.5823 26.1476 58.8389 25.4092ZM44.9687 58.0625H27.4598C27.3284 58.0625 27.2024 58.0106 27.1094 57.9183C27.0165 57.826 26.9643 57.7008 26.9643 57.5703V32.3047C26.9643 32.1742 27.0165 32.049 27.1094 31.9567C27.2024 31.8644 27.3284 31.8125 27.4598 31.8125H33.5714V50.1875C33.5714 52.3621 35.3463 54.125 37.5357 54.125H45.4643V57.5703C45.4643 57.7008 45.4121 57.826 45.3191 57.9183C45.2262 58.0106 45.1002 58.0625 44.9687 58.0625ZM55.5402 50.1875H38.0312C37.8998 50.1875 37.7738 50.1356 37.6809 50.0433C37.5879 49.951 37.5357 49.8258 37.5357 49.6953V24.4297C37.5357 24.2992 37.5879 24.174 37.6809 24.0817C37.7738 23.9894 37.8998 23.9375 38.0312 23.9375H46.7857V31.1562C46.7857 32.2436 47.6731 33.125 48.7679 33.125H56.0357V49.6953C56.0357 49.8258 55.9835 49.951 55.8906 50.0433C55.7976 50.1356 55.6716 50.1875 55.5402 50.1875V50.1875ZM56.0357 29.1875H50.75V23.9375H51.5455C51.6769 23.9375 51.8029 23.9893 51.8959 24.0816L55.8906 28.0493C55.9366 28.095 55.9731 28.1493 55.998 28.209C56.0229 28.2687 56.0357 28.3327 56.0357 28.3974V29.1875Z" fill="white"/>
</svg>
