<svg width="77" height="77" viewBox="0 0 77 77" fill="none" xmlns="http://www.w3.org/2000/svg">
<path fill-rule="evenodd" clip-rule="evenodd" d="M38.5 77C59.7629 77 77 59.7629 77 38.5C77 17.2371 59.7629 0 38.5 0C17.2368 0 0 17.2371 0 38.5C0 59.7629 17.2368 77 38.5 77ZM51.554 18.1533L55.8389 22.4092C56.5823 23.1477 57 24.1492 57 25.1934V47.1875C57 49.3621 55.2251 51.125 53.0356 51.125H46.4285V55.0625C46.4285 57.2371 44.6538 59 42.4644 59H23.9644C21.7749 59 20 57.2371 20 55.0625V28.8125C20 26.6379 21.7749 24.875 23.9644 24.875H30.5715V20.9375C30.5715 18.7629 32.3462 17 34.5356 17H48.7507C49.8022 17 50.8105 17.4148 51.554 18.1533ZM24.46 55.0625H41.9688C42.1001 55.0625 42.2263 55.0107 42.3191 54.9185C42.4121 54.8259 42.4644 54.7009 42.4644 54.5703V51.125H34.5356C32.3462 51.125 30.5715 49.3621 30.5715 47.1875V28.8125H24.46C24.3286 28.8125 24.2021 28.8643 24.1094 28.9565C24.0166 29.0491 23.9644 29.1741 23.9644 29.3047V54.5703C23.9644 54.7009 24.0166 54.8259 24.1094 54.9185C24.2021 55.0107 24.3286 55.0625 24.46 55.0625ZM34.6809 47.0435C34.7737 47.1357 34.8999 47.1875 35.0312 47.1875H52.5403C52.6045 47.1875 52.6675 47.175 52.7258 47.1516C52.7869 47.1272 52.843 47.0906 52.8906 47.0435C52.9834 46.9509 53.0356 46.8259 53.0356 46.6953V30.125H45.7678C44.6731 30.125 43.7856 29.2437 43.7856 28.1562V20.9375H35.0312C34.9692 20.9375 34.9084 20.949 34.8516 20.9709C34.7881 20.9954 34.7297 21.033 34.6809 21.0815C34.5879 21.1741 34.5356 21.2991 34.5356 21.4297V46.6953C34.5356 46.8259 34.5879 46.9509 34.6809 47.0435ZM47.75 26.1875H53.0356V25.3975C53.0356 25.3328 53.0229 25.2688 52.998 25.209C52.9817 25.1697 52.9602 25.1328 52.9343 25.0991C52.9209 25.0815 52.9062 25.0649 52.8906 25.0493L48.896 21.0815C48.803 20.9893 48.677 20.9375 48.5454 20.9375H47.75V26.1875Z" fill="white"/>
</svg>
