<svg width="71" height="121" viewBox="0 0 71 121" fill="none" xmlns="http://www.w3.org/2000/svg">
<path d="M24.3565 108.241C23.5265 108.244 22.7761 108.142 22.1053 107.934C21.4344 107.717 20.8532 107.404 20.3617 106.996L20.7929 106.004C21.3043 106.392 21.8405 106.68 22.4012 106.868C22.9619 107.056 23.6123 107.149 24.3523 107.146C25.2523 107.142 25.9166 106.975 26.3453 106.643C26.784 106.301 27.0023 105.856 27.0002 105.306C26.9985 104.866 26.8372 104.516 26.5162 104.257C26.2052 103.999 25.6794 103.796 24.9388 103.648L23.3776 103.339C22.4369 103.143 21.7306 102.821 21.2589 102.373C20.7971 101.914 20.5648 101.305 20.5619 100.545C20.5595 99.9153 20.7174 99.3646 21.0356 98.8934C21.3637 98.4222 21.8173 98.0554 22.3963 97.7932C22.9753 97.531 23.6448 97.3984 24.4048 97.3955C25.1148 97.3927 25.7753 97.5052 26.3861 97.7329C26.997 97.9505 27.5132 98.2685 27.9348 98.6869L27.5035 99.6486C27.0519 99.2403 26.5758 98.9472 26.0751 98.7691C25.5744 98.581 25.014 98.4881 24.394 98.4905C23.604 98.4936 22.9747 98.681 22.5062 99.0528C22.0376 99.4146 21.8044 99.8955 21.8067 100.495C21.8086 100.975 21.955 101.355 22.2461 101.634C22.5472 101.913 23.0329 102.116 23.7034 102.243L25.2647 102.567C26.2755 102.773 27.0217 103.09 27.5034 103.519C27.995 103.937 28.2422 104.511 28.245 105.241C28.2472 105.831 28.0892 106.351 27.771 106.803C27.4627 107.254 27.014 107.606 26.425 107.858C25.846 108.11 25.1565 108.238 24.3565 108.241ZM32.2949 108.21C31.7949 108.212 31.3446 108.119 30.9438 107.93C30.5531 107.732 30.242 107.463 30.0107 107.124C29.7794 106.785 29.663 106.405 29.6614 105.985C29.6593 105.455 29.7927 105.035 30.0615 104.724C30.3403 104.413 30.7945 104.191 31.424 104.059C32.0634 103.916 32.9332 103.843 34.0332 103.839L34.5131 103.837L34.5114 103.372C34.509 102.752 34.3773 102.307 34.1162 102.038C33.8652 101.759 33.4596 101.621 32.8996 101.623C32.4596 101.625 32.0349 101.691 31.6254 101.823C31.2159 101.944 30.7966 102.146 30.3677 102.428L29.9443 101.544C30.3233 101.273 30.7824 101.056 31.3218 100.894C31.8712 100.732 32.3959 100.65 32.8959 100.648C33.8359 100.644 34.5318 100.872 34.9835 101.33C35.4453 101.788 35.678 102.502 35.6818 103.472L35.6994 108.062L34.5594 108.067L34.5546 106.807C34.3662 107.237 34.0725 107.578 33.6735 107.83C33.2844 108.081 32.8249 108.208 32.2949 108.21ZM32.4864 107.295C33.0864 107.292 33.5756 107.085 33.954 106.674C34.3324 106.252 34.5204 105.722 34.5179 105.082L34.5162 104.632L34.0512 104.633C33.2412 104.637 32.6014 104.679 32.1317 104.761C31.6719 104.833 31.3475 104.964 31.1582 105.155C30.9789 105.335 30.8898 105.586 30.8911 105.906C30.8926 106.316 31.0339 106.65 31.3149 106.909C31.6059 107.168 31.9964 107.296 32.4864 107.295ZM40.414 108.179C39.844 108.181 39.3037 108.103 38.7931 107.945C38.2824 107.787 37.8616 107.564 37.5305 107.275L37.9172 106.419C38.2783 106.707 38.6741 106.921 39.1047 107.059C39.5452 107.187 39.9904 107.251 40.4404 107.249C41.0104 107.247 41.44 107.14 41.7292 106.929C42.0184 106.718 42.1623 106.432 42.1609 106.072C42.1598 105.792 42.064 105.573 41.8734 105.413C41.6827 105.244 41.3822 105.115 40.9719 105.027L39.6057 104.732C38.3647 104.467 37.7422 103.829 37.7384 102.819C37.7358 102.159 37.9938 101.628 38.5123 101.226C39.0407 100.824 39.7299 100.622 40.5799 100.618C41.0799 100.616 41.5552 100.695 42.0058 100.853C42.4664 101.001 42.8473 101.225 43.1484 101.524L42.7467 102.38C42.4557 102.111 42.1149 101.908 41.7244 101.769C41.3438 101.62 40.9635 101.547 40.5835 101.548C40.0235 101.551 39.5989 101.662 39.3098 101.883C39.0206 102.104 38.8767 102.395 38.8781 102.755C38.8803 103.315 39.2517 103.674 39.9923 103.831L41.3583 104.11C41.9989 104.248 42.4847 104.471 42.8159 104.78C43.1471 105.079 43.3137 105.488 43.3156 106.008C43.3182 106.678 43.0553 107.209 42.5268 107.601C41.9982 107.983 41.294 108.176 40.414 108.179ZM47.6356 108.151C47.0656 108.154 46.5253 108.076 46.0147 107.918C45.5041 107.76 45.0832 107.536 44.7521 107.247L45.1388 106.391C45.4999 106.68 45.8957 106.893 46.3263 107.031C46.7668 107.16 47.212 107.223 47.662 107.221C48.232 107.219 48.6616 107.112 48.9508 106.901C49.24 106.69 49.3839 106.405 49.3825 106.045C49.3814 105.765 49.2856 105.545 49.095 105.386C48.9043 105.216 48.6038 105.088 48.1935 104.999L46.8274 104.704C45.5863 104.439 44.9639 103.802 44.96 102.792C44.9575 102.132 45.2154 101.601 45.7339 101.199C46.2623 100.797 46.9516 100.594 47.8016 100.591C48.3016 100.589 48.7769 100.667 49.2275 100.825C49.688 100.973 50.0689 101.197 50.3701 101.496L49.9683 102.352C49.6773 102.083 49.3365 101.88 48.946 101.741C48.5654 101.593 48.1851 101.519 47.8051 101.521C47.2451 101.523 46.8206 101.634 46.5314 101.856C46.2423 102.077 46.0984 102.367 46.0998 102.727C46.1019 103.287 46.4733 103.646 47.2139 103.803L48.58 104.083C49.2205 104.22 49.7064 104.443 50.0376 104.752C50.3687 105.051 50.5353 105.46 50.5373 105.98C50.5398 106.65 50.2769 107.181 49.7484 107.573C49.2199 107.955 48.5156 108.148 47.6356 108.151Z" fill="url(#paint0_linear_1618_719)"/>
<g filter="url(#filter0_d_1618_719)">
<path d="M56.5398 47.403C54.4962 47.4216 52.7219 47.9229 51.2374 48.6596C50.6875 47.576 50.1381 46.6106 50.0391 45.9015C49.9289 45.0742 49.7986 44.5694 49.9232 43.58C50.0478 42.5905 50.6202 41.1801 50.6091 41.0726C50.598 40.9652 50.4783 40.4604 49.3013 40.4541C48.1242 40.4479 47.1087 40.6883 46.9922 41.0005C46.8756 41.3127 46.6537 42.023 46.5067 42.7546C46.3075 43.8303 44.1716 47.6762 42.9488 49.6911C42.5499 48.9079 42.2048 48.2213 42.1278 47.6733C42.0176 46.846 41.8873 46.3413 42.0119 45.3518C42.1365 44.3623 42.7089 42.9519 42.6978 42.8445C42.6867 42.737 42.567 42.2322 41.39 42.226C40.213 42.2198 39.1974 42.4602 39.0809 42.7724C38.9644 43.0845 38.8388 43.816 38.5954 44.5264C38.352 45.2369 35.5197 51.6546 34.7771 53.313C34.3952 54.1637 34.0661 54.8422 33.8324 55.3053C33.8324 55.3053 33.8219 55.3376 33.79 55.3915C33.5882 55.79 33.4713 56.0054 33.4713 56.0054C33.4713 56.0054 33.4713 56.0054 33.4714 56.0162C33.312 56.307 33.1418 56.5764 33.0562 56.5768C32.992 56.577 32.8713 55.8035 33.0706 54.7492C33.49 52.5224 34.4932 49.0571 34.4821 48.9389C34.4818 48.8744 34.6721 48.2717 33.8149 47.9632C32.9791 47.6547 32.6815 48.1718 32.6066 48.1721C32.5317 48.1724 32.4789 48.3554 32.4789 48.3554C32.4789 48.3554 33.3949 44.4604 30.6878 44.4708C28.9972 44.4773 26.6718 46.3459 25.5226 48.0273C24.7965 48.4279 23.2483 49.283 21.5933 50.2031C20.9634 50.5603 20.312 50.9175 19.7034 51.2531C19.6605 51.2103 19.6174 51.1567 19.5745 51.1139C16.2868 47.6113 10.2211 45.1514 10.4598 40.4313C10.5495 38.711 11.1206 34.1938 22.0456 28.6695C31.0379 24.1738 38.2116 25.3825 39.4633 28.1189C41.2545 32.0249 35.6649 39.3133 26.36 40.4025C22.8092 40.8139 20.9421 39.4451 20.4693 38.9309C19.9751 38.3953 19.9 38.3633 19.7185 38.4715C19.4196 38.6339 19.614 39.1169 19.7221 39.396C20.0031 40.1259 21.1529 41.4115 23.0921 42.0383C24.8062 42.5907 28.9697 42.8864 34.0019 40.9106C39.6323 38.6961 44.0173 32.5841 42.703 27.4829C41.3884 22.3066 32.8219 20.6302 24.7331 23.553C19.9247 25.2914 14.7136 28.0204 10.9714 31.5607C6.52562 35.7702 5.83342 39.4171 6.12818 40.9424C7.18688 46.3563 14.6369 49.8536 17.6215 52.4544C17.472 52.5409 17.3332 52.6167 17.2158 52.6817C15.7313 53.4291 10.0718 56.4285 8.67148 59.5836C7.08019 63.1587 8.95181 65.7099 10.1836 66.0492C14.0076 67.0988 17.9271 65.1702 20.0229 62.0017C22.1186 58.8332 21.8461 54.7278 20.8652 52.8504C20.8544 52.8289 20.8436 52.8075 20.8221 52.7861C21.2064 52.5588 21.6014 52.3208 21.9858 52.0936C22.7437 51.6392 23.4911 51.2171 24.1318 50.8706C23.7718 51.8717 23.5089 53.066 23.3871 54.7864C23.2344 56.808 24.0684 59.4277 25.153 60.4556C25.6362 60.9052 26.2034 60.9138 26.5672 60.9124C27.8298 60.9075 28.3928 59.8519 29.0193 58.6025C29.7839 57.0731 30.4726 55.2967 30.4726 55.2967C30.4726 55.2967 29.6243 60.0944 31.9783 60.0854C32.8343 60.0821 33.6967 58.9608 34.0797 58.3896C34.0797 58.4003 34.0797 58.4003 34.0797 58.4003C34.0797 58.4003 34.101 58.368 34.1435 58.2926C34.2286 58.1525 34.2817 58.0663 34.2817 58.0663C34.2817 58.0663 34.2817 58.0555 34.2817 58.0448C34.6217 57.4415 35.3869 56.0733 36.5231 53.8008C37.9885 50.8712 39.3975 47.2108 39.3975 47.2108C39.3975 47.2108 39.5293 48.1025 39.9737 49.5843C40.2339 50.4541 40.7725 51.4087 41.2041 52.3316C40.8636 52.8166 40.6506 53.0862 40.6506 53.0862C40.6506 53.0862 40.6506 53.0862 40.6613 53.0969C40.3845 53.4634 40.0865 53.8623 39.7562 54.2506C38.5953 55.6525 37.2105 57.2596 37.0196 57.7225C36.7971 58.2716 36.8521 58.6692 37.2813 58.99C37.5925 59.2253 38.149 59.2554 38.716 59.221C39.7643 59.1417 40.5016 58.8809 40.8648 58.7183C41.4311 58.5118 42.0933 58.1975 42.7122 57.7329C43.8538 56.8793 44.5446 55.6619 44.4743 54.0605C44.4388 53.1791 44.1465 52.2988 43.7902 51.4724C43.8966 51.3215 43.9924 51.1706 44.0988 51.0197C45.8969 48.3576 47.2874 45.4391 47.2874 45.4391C47.2874 45.4391 47.4192 46.3308 47.8636 47.8126C48.0805 48.5642 48.5223 49.3795 48.9106 50.1735C47.2146 51.5667 46.1722 53.1832 45.8018 54.2381C45.1352 56.1971 45.6629 57.0766 46.6587 57.277C47.1085 57.3721 47.7497 57.1546 48.2197 56.9485C48.8182 56.7527 49.5231 56.4168 50.1953 55.9197C51.3369 55.0661 52.4345 53.8794 52.3641 52.278C52.3292 51.5471 52.1338 50.8276 51.8637 50.1299C53.3058 49.5224 55.1664 49.182 57.5428 49.4524C62.6383 50.0348 63.6564 53.2236 63.4689 54.568C63.2815 55.9125 62.2143 56.6476 61.8621 56.8747C61.5098 57.1018 61.3924 57.1775 61.4251 57.3386C61.4689 57.5749 61.64 57.5635 61.9394 57.5194C62.3565 57.4425 64.6103 56.4234 64.6971 53.9506C64.8454 50.7895 61.8362 47.3504 56.5398 47.403ZM17.3007 60.862C15.6172 62.7174 13.2659 63.4252 12.2471 62.8378C11.1533 62.2078 11.5708 59.4757 13.6391 57.5113C14.8971 56.3133 16.5192 55.1998 17.5973 54.5184C17.8429 54.367 18.2058 54.1506 18.6435 53.8802C18.7182 53.8369 18.7609 53.8152 18.7609 53.8152C18.8463 53.7611 18.9317 53.7071 19.0171 53.653C19.7876 56.445 19.0694 58.9094 17.3007 60.862ZM29.5734 52.4085C28.9904 53.8512 27.7741 57.543 27.0243 57.3417C26.3816 57.1721 25.975 54.3787 26.8739 51.6126C27.3287 50.2241 28.296 48.5649 28.8606 47.9178C29.7768 46.8823 30.792 46.5344 31.0397 46.9527C31.3521 47.4997 29.9337 51.5041 29.5734 52.4085ZM39.7464 57.2498C39.5008 57.3798 39.2657 57.4667 39.1584 57.4026C39.0834 57.3599 39.2646 57.1872 39.2646 57.1872C39.2646 57.1872 40.5326 55.8063 41.0331 55.1809C41.3206 54.8143 41.6614 54.383 42.0233 53.8979C42.0235 53.9409 42.0237 53.9946 42.0239 54.0376C42.0302 55.6823 40.4508 56.7956 39.7464 57.2498ZM47.5718 55.4246C47.3894 55.2963 47.4199 54.8661 48.0246 53.5201C48.258 52.9925 48.811 52.1088 49.7601 51.256C49.8684 51.5995 49.9446 51.9325 49.9351 52.2443C49.9323 54.319 48.4587 55.0987 47.5718 55.4246Z" fill="url(#paint1_linear_1618_719)"/>
</g>
<defs>
<filter id="filter0_d_1618_719" x="2.06836" y="20.1221" width="66.6348" height="52.2148" filterUnits="userSpaceOnUse" color-interpolation-filters="sRGB">
<feFlood flood-opacity="0" result="BackgroundImageFix"/>
<feColorMatrix in="SourceAlpha" type="matrix" values="0 0 0 0 0 0 0 0 0 0 0 0 0 0 0 0 0 0 127 0" result="hardAlpha"/>
<feOffset dy="2"/>
<feGaussianBlur stdDeviation="2"/>
<feComposite in2="hardAlpha" operator="out"/>
<feColorMatrix type="matrix" values="0 0 0 0 0 0 0 0 0 0 0 0 0 0 0 0 0 0 0.25 0"/>
<feBlend mode="normal" in2="BackgroundImageFix" result="effect1_dropShadow_1618_719"/>
<feBlend mode="normal" in="SourceGraphic" in2="effect1_dropShadow_1618_719" result="shape"/>
</filter>
<linearGradient id="paint0_linear_1618_719" x1="35.3863" y1="93.0633" x2="35.4707" y2="115.063" gradientUnits="userSpaceOnUse">
<stop stop-color="#ACADAD"/>
<stop offset="1" stop-color="#7A7D7E"/>
</linearGradient>
<linearGradient id="paint1_linear_1618_719" x1="35.2903" y1="22.1121" x2="35.4597" y2="66.2482" gradientUnits="userSpaceOnUse">
<stop stop-color="#B75685"/>
<stop offset="1" stop-color="#89345E"/>
</linearGradient>
</defs>
</svg>
