<svg width="71" height="121" viewBox="0 0 71 121" fill="none" xmlns="http://www.w3.org/2000/svg">
<path d="M10.6823 108.293C9.85226 108.296 9.10186 108.194 8.43106 107.987C7.76022 107.769 7.17901 107.457 6.68744 107.049L7.11864 106.057C7.63013 106.445 8.16624 106.733 8.72697 106.921C9.28769 107.109 9.93805 107.201 10.678 107.198C11.578 107.195 12.2424 107.027 12.6711 106.696C13.1098 106.354 13.3281 105.908 13.326 105.358C13.3243 104.918 13.163 104.569 12.842 104.31C12.531 104.051 12.0052 103.848 11.2646 103.701L9.70342 103.392C8.76266 103.196 8.05642 102.873 7.5847 102.425C7.12293 101.967 6.89059 101.358 6.88767 100.598C6.88526 99.9678 7.04314 99.4172 7.36134 98.9459C7.68953 98.4747 8.14312 98.1079 8.72212 97.8457C9.30112 97.5835 9.97061 97.4509 10.7306 97.448C11.4406 97.4453 12.101 97.5577 12.7119 97.7854C13.3228 98.003 13.839 98.3211 14.2606 98.7394L13.8293 99.7011C13.3777 99.2928 12.9016 98.9997 12.4009 98.8216C11.9002 98.6335 11.3398 98.5406 10.7198 98.543C9.92982 98.5461 9.30053 98.7335 8.83196 99.1053C8.36334 99.4671 8.13019 99.948 8.13249 100.548C8.13434 101.028 8.28079 101.407 8.57187 101.686C8.87294 101.965 9.35872 102.168 10.0292 102.296L11.5905 102.62C12.6013 102.826 13.3475 103.143 13.8291 103.571C14.3208 103.989 14.568 104.563 14.5708 105.293C14.573 105.883 14.415 106.404 14.0968 106.855C13.7885 107.306 13.3398 107.658 12.7508 107.91C12.1718 108.163 11.4822 108.29 10.6823 108.293ZM17.0877 110.834L18.3218 108.009L15.2193 100.851L16.5393 100.846L18.977 106.746L21.3843 100.827L22.6593 100.822L18.3627 110.829L17.0877 110.834ZM23.9723 108.107L23.9443 100.817L25.1293 100.813L25.1341 102.043C25.3524 101.602 25.6561 101.266 26.0452 101.034C26.4343 100.793 26.8888 100.671 27.4088 100.669C28.5488 100.665 29.2807 101.157 29.6045 102.146C29.8227 101.685 30.1463 101.323 30.5753 101.062C31.0043 100.79 31.4988 100.653 32.0588 100.651C33.6788 100.645 34.4924 101.602 34.4998 103.522L34.5173 108.067L33.3023 108.071L33.285 103.586C33.2825 102.916 33.1606 102.427 32.9194 102.118C32.6882 101.799 32.3026 101.64 31.7626 101.642C31.1726 101.645 30.7034 101.856 30.355 102.278C30.0066 102.699 29.8338 103.26 29.8365 103.96L29.8523 108.085L28.6373 108.089L28.6201 103.604C28.6175 102.934 28.4956 102.445 28.2544 102.136C28.0232 101.817 27.6376 101.658 27.0976 101.66C26.4976 101.662 26.0234 101.874 25.675 102.296C25.3367 102.717 25.1688 103.278 25.1715 103.978L25.1873 108.103L23.9723 108.107ZM37.1789 108.057L37.1546 101.712L35.7146 101.717L35.7109 100.772L37.1509 100.767L37.1499 100.512C37.1462 99.5416 37.3834 98.8057 37.8615 98.3038C38.3496 97.8019 39.0985 97.5191 40.1082 97.4552L40.6931 97.4229L40.8017 98.3525L40.1119 98.4002C39.4921 98.4526 39.0428 98.6393 38.764 98.9604C38.4952 99.2814 38.362 99.7469 38.3644 100.357L38.3659 100.762L40.4659 100.754L40.4695 101.699L38.3695 101.707L38.3939 108.052L37.1789 108.057ZM44.6094 108.163C43.8994 108.166 43.2838 108.013 42.7627 107.705C42.2415 107.397 41.8348 106.964 41.5426 106.405C41.2605 105.836 41.1179 105.166 41.1149 104.396C41.112 103.626 41.2494 102.961 41.5273 102.4C41.8151 101.829 42.2184 101.387 42.7372 101.075C43.256 100.763 43.8704 100.606 44.5804 100.603C45.2804 100.6 45.891 100.753 46.4122 101.061C46.9434 101.369 47.35 101.807 47.6322 102.376C47.9244 102.935 48.0719 103.6 48.0749 104.37C48.0778 105.14 47.9354 105.81 47.6476 106.381C47.3698 106.942 46.9664 107.379 46.4376 107.691C45.9188 108.003 45.3094 108.16 44.6094 108.163ZM44.6057 107.188C45.2857 107.185 45.8297 106.943 46.2379 106.462C46.646 105.97 46.8483 105.274 46.8449 104.374C46.8414 103.464 46.6337 102.77 46.2219 102.292C45.8101 101.813 45.2641 101.575 44.5841 101.578C43.8941 101.581 43.3451 101.823 42.9369 102.304C42.5388 102.786 42.3414 103.482 42.3449 104.392C42.3484 105.292 42.551 105.986 42.9529 106.474C43.3648 106.953 43.9157 107.191 44.6057 107.188ZM49.9138 108.008L49.8858 100.718L51.0708 100.713L51.0756 101.958C51.3138 101.497 51.6525 101.151 52.0916 100.919C52.5307 100.688 53.0253 100.571 53.5753 100.568C55.3053 100.562 56.174 101.519 56.1813 103.439L56.1988 107.983L54.9838 107.988L54.9666 103.518C54.964 102.838 54.8271 102.344 54.5559 102.035C54.2947 101.716 53.8741 101.557 53.2941 101.56C52.6241 101.562 52.0899 101.774 51.6915 102.196C51.3031 102.607 51.1102 103.158 51.1129 103.848L51.1288 108.003L49.9138 108.008ZM59.2163 110.672L60.4504 107.847L57.3479 100.689L58.6679 100.684L61.1056 106.585L63.5129 100.665L64.7879 100.66L60.4913 110.667L59.2163 110.672Z" fill="url(#paint0_linear_1618_699)"/>
<g filter="url(#filter0_d_1618_699)">
<path d="M35.7416 74.0988C52.0284 74.0362 65.1807 60.7825 65.1182 44.4957C65.0557 28.209 51.8019 15.0567 35.5152 15.1192C19.2284 15.1817 6.07609 28.4354 6.13862 44.7222C6.20116 61.009 19.4549 74.1613 35.7416 74.0988Z" fill="url(#paint1_linear_1618_699)"/>
<path d="M48.386 25.9608C45.397 26.0692 42.7856 27.7275 40.8554 30.0295C38.7159 32.5423 37.2891 35.5049 36.2666 38.5467C34.4187 37.0349 32.9892 35.0851 30.0127 34.2401C27.7156 33.5864 25.3251 33.8703 23.1177 35.527C22.0704 36.3067 21.364 37.5052 21.0127 38.6053C20.1351 41.5012 21.9709 44.0634 22.7985 44.9813L24.6157 46.9134C24.9889 47.2998 25.8976 48.282 25.4506 49.7057C24.9879 51.2587 23.1173 52.2678 21.2083 51.6772C20.3509 51.422 19.1204 50.7965 19.3916 49.8905C19.5033 49.5185 19.7608 49.2428 19.9051 48.9352C20.0333 48.66 20.0972 48.4658 20.129 48.3364C20.4801 47.1878 19.9897 45.7192 18.7763 45.3361C17.6276 44.985 16.4653 45.2803 16.0185 46.7363C15.5078 48.4027 16.3273 51.4213 20.5983 52.7299C25.6134 54.2457 29.8365 51.4987 30.4208 47.9414C30.7839 45.7101 29.7757 44.0657 27.9254 41.9399L26.4162 40.2813C25.5079 39.3799 25.1787 37.8298 26.1275 36.6304C26.9155 35.6256 28.0449 35.1849 29.9051 35.6949C32.6064 36.4117 33.8256 38.2814 35.8351 39.7926C35.0215 42.5266 34.4825 45.2596 34.0072 47.7014L33.7071 49.5285C32.298 57.0802 31.2151 61.2211 28.3803 63.6074C27.8001 64.0136 26.9945 64.6307 25.7505 64.6839C25.1042 64.7026 24.8924 64.2671 24.8755 64.0733C24.8576 63.6209 25.2446 63.4093 25.5024 63.1983C25.8894 62.9867 26.4536 62.6452 26.417 61.5304C26.3635 60.2217 25.2927 59.0947 23.7255 59.1492C22.5622 59.186 20.7728 60.3078 20.8452 62.3112C20.9178 64.3955 22.8628 65.9393 25.8033 65.831C27.3706 65.7765 30.8584 65.1168 34.2845 61.0154C38.2739 56.314 39.3682 50.9288 40.1933 46.9828L41.1105 41.7761C41.6279 41.8388 42.1935 41.8689 42.8076 41.8827C47.8011 41.9766 50.2797 39.3817 50.3209 37.4909C50.3489 36.3597 49.5689 35.2315 48.4864 35.268C47.7108 35.2872 46.7433 35.808 46.5211 36.8753C46.299 37.9265 48.1123 38.8568 46.6939 39.7833C45.6945 40.4335 43.8866 40.909 41.332 40.5472L41.7908 37.9923C42.7094 33.1411 43.8661 27.1739 48.2769 27.0116C48.6 26.9942 49.7798 27.022 49.8151 27.7975C49.8322 28.0559 49.7678 28.1208 49.4631 28.7199C49.1579 29.1897 49.0463 29.5779 49.048 30.0303C49.1012 31.2744 50.0416 32.0787 51.3987 32.025C53.2244 31.9534 53.7347 30.1739 53.6989 29.2692C53.6424 27.201 51.375 25.8524 48.386 25.9608Z" fill="url(#paint2_linear_1618_699)"/>
</g>
<defs>
<filter id="filter0_d_1618_699" x="2.13867" y="13.1191" width="66.9805" height="66.9795" filterUnits="userSpaceOnUse" color-interpolation-filters="sRGB">
<feFlood flood-opacity="0" result="BackgroundImageFix"/>
<feColorMatrix in="SourceAlpha" type="matrix" values="0 0 0 0 0 0 0 0 0 0 0 0 0 0 0 0 0 0 127 0" result="hardAlpha"/>
<feOffset dy="2"/>
<feGaussianBlur stdDeviation="2"/>
<feComposite in2="hardAlpha" operator="out"/>
<feColorMatrix type="matrix" values="0 0 0 0 0 0 0 0 0 0 0 0 0 0 0 0 0 0 0.25 0"/>
<feBlend mode="normal" in2="BackgroundImageFix" result="effect1_dropShadow_1618_699"/>
<feBlend mode="normal" in="SourceGraphic" in2="effect1_dropShadow_1618_699" result="shape"/>
</filter>
<linearGradient id="paint0_linear_1618_699" x1="35.3863" y1="93.0633" x2="35.4707" y2="115.063" gradientUnits="userSpaceOnUse">
<stop stop-color="#ACADAD"/>
<stop offset="1" stop-color="#7A7D7E"/>
</linearGradient>
<linearGradient id="paint1_linear_1618_699" x1="35.5152" y1="15.1192" x2="35.7416" y2="74.0988" gradientUnits="userSpaceOnUse">
<stop stop-color="#B7ADAD"/>
<stop offset="1" stop-color="#A59898"/>
</linearGradient>
<linearGradient id="paint2_linear_1618_699" x1="34.7441" y1="26.0083" x2="34.8969" y2="65.8004" gradientUnits="userSpaceOnUse">
<stop stop-color="#1A171B"/>
<stop offset="1" stop-color="#0B090C"/>
</linearGradient>
</defs>
</svg>
