<svg width="72" height="72" viewBox="0 0 72 72" fill="none" xmlns="http://www.w3.org/2000/svg">
<path d="M35.8657 71.0001C55.1956 71.0743 70.9256 55.4646 70.9999 36.1347C71.0741 16.8049 55.4643 1.07482 36.1345 1.0006C16.8047 0.926379 1.0746 16.5361 1.00038 35.866C0.926154 55.1958 16.5359 70.9259 35.8657 71.0001Z" fill="url(#paint0_linear_1602_663)"/>
<path d="M51.3122 13.9853C47.7638 14.0868 44.6495 16.031 42.3377 18.7454C39.7756 21.7082 38.0553 25.2112 36.814 28.812C34.6347 27.0008 32.9559 24.6738 29.4311 23.6439C26.7108 22.8471 23.8713 23.1622 21.2364 25.1083C19.9863 26.024 19.137 27.44 18.7101 28.7425C17.6421 32.1713 19.7975 35.2289 20.7714 36.3258L22.9105 38.6354C23.3498 39.0973 24.4193 40.2713 23.8758 41.9569C23.3126 43.7959 21.0834 44.9763 18.8231 44.2581C17.8078 43.9473 16.3532 43.1938 16.6833 42.1211C16.8193 41.6805 17.1274 41.3556 17.3014 40.9919C17.456 40.6665 17.5336 40.4367 17.5726 40.2834C17.9997 38.9234 17.4311 37.176 15.9945 36.7102C14.6345 36.283 13.2524 36.6229 12.7088 38.3469C12.0875 40.3199 13.0326 43.9098 18.0895 45.5018C24.0277 47.3466 29.0648 44.1248 29.7906 39.9084C30.2418 37.2635 29.0603 35.3028 26.8837 32.7629L25.1078 30.7807C24.0379 29.7026 23.6614 27.8601 24.7984 26.4453C25.7427 25.2598 27.0871 24.7472 29.2902 25.3694C32.4896 26.2447 33.9194 28.4748 36.2906 30.2867C35.3 33.524 34.6355 36.7626 34.0491 39.6562L33.6764 41.8219C31.9352 50.7715 30.6122 55.676 27.2261 58.4822C26.5338 58.959 25.5721 59.6841 24.0952 59.736C23.328 59.7522 23.0807 59.2334 23.0624 59.0032C23.0453 58.4662 23.5065 58.2186 23.8143 57.9705C24.2755 57.7229 24.9483 57.3228 24.915 55.9994C24.8635 54.4457 23.6029 53.0984 21.7424 53.1488C20.3614 53.1819 18.2276 54.497 18.2952 56.8753C18.3624 59.3496 20.6567 61.1995 24.1475 61.0978C26.008 61.0474 30.1534 60.2962 34.2569 55.4599C39.0344 49.9165 40.3822 43.5354 41.3974 38.8598L42.5334 32.6888C43.1468 32.7678 43.8179 32.8088 44.5466 32.8307C50.4721 32.9877 53.4373 29.9306 53.5034 27.687C53.5469 26.3447 52.6315 24.9987 51.3465 25.0321C50.4258 25.0478 49.2728 25.657 48.9995 26.9218C48.7262 28.1673 50.8698 29.2879 49.178 30.3745C47.986 31.1371 45.8359 31.685 42.8075 31.2323L43.3753 28.2043C44.5097 22.4552 45.9369 15.3839 51.1731 15.2314C51.5568 15.2137 52.9566 15.2574 52.9914 16.1781C53.0094 16.485 52.9324 16.5614 52.5653 17.2696C52.1988 17.8244 52.0628 18.2841 52.0607 18.8211C52.1126 20.298 53.2212 21.2612 54.8324 21.2099C56.9998 21.1415 57.6216 19.0343 57.5874 17.9601C57.5393 15.5052 54.8605 13.8839 51.3122 13.9853Z" fill="url(#paint1_linear_1602_663)"/>
<defs>
<linearGradient id="paint0_linear_1602_663" x1="36.1345" y1="1.0006" x2="35.8657" y2="71.0001" gradientUnits="userSpaceOnUse">
<stop stop-color="#9B9191"/>
<stop offset="1" stop-color="#796969"/>
</linearGradient>
<linearGradient id="paint1_linear_1602_663" x1="35.1215" y1="13.9174" x2="34.9401" y2="61.1444" gradientUnits="userSpaceOnUse">
<stop stop-color="#1A171B"/>
<stop offset="1" stop-color="#0B090C"/>
</linearGradient>
</defs>
</svg>
