<svg width="71" height="71" viewBox="0 0 71 71" fill="none" xmlns="http://www.w3.org/2000/svg">
<path d="M34.4739 15.986C23.1676 16.3019 19.7766 24.3646 18.9898 28.7366C19.9994 27.1188 23.1747 23.5727 27.8297 23.5906C33.2546 23.6114 37.3613 29.6823 39.8741 31.5819C42.9268 33.8899 49.0671 36.9453 57.1529 34.5183C63.6004 32.583 66.6133 25.7578 67.2791 22.517C64.1478 26.74 59.4131 29.2656 53.5797 26.2444C49.5626 24.164 46.5853 15.6476 34.4739 15.986Z" fill="url(#paint0_linear_1602_666)"/>
<path d="M18.4055 35.1393C7.09924 35.4552 3.70826 43.518 2.92147 47.89C3.93102 46.2721 7.10633 42.7261 11.7613 42.7439C17.1863 42.7648 21.293 48.8356 23.8057 50.7353C26.8584 53.0432 32.9988 56.0987 41.0846 53.6716C47.532 51.7364 50.545 44.9111 51.2107 41.6703C48.0795 45.8933 43.3447 48.4189 37.5113 45.3978C33.4943 43.3173 30.5169 34.8009 18.4055 35.1393Z" fill="url(#paint1_linear_1602_666)"/>
<defs>
<linearGradient id="paint0_linear_1602_666" x1="43.1714" y1="16.0067" x2="43.097" y2="35.3778" gradientUnits="userSpaceOnUse">
<stop stop-color="#096778"/>
<stop offset="1" stop-color="#046273"/>
</linearGradient>
<linearGradient id="paint1_linear_1602_666" x1="27.103" y1="35.16" x2="27.0286" y2="54.5311" gradientUnits="userSpaceOnUse">
<stop stop-color="#096778"/>
<stop offset="1" stop-color="#046273"/>
</linearGradient>
</defs>
</svg>
