<svg width="71" height="121" viewBox="0 0 71 121" fill="none" xmlns="http://www.w3.org/2000/svg">
<path d="M10.8601 108.158L10.8236 98.6476L6.98366 98.6624L6.97957 97.5974L15.9045 97.5631L15.9086 98.6281L12.0686 98.6429L12.1051 108.153L10.8601 108.158ZM18.2765 108.264C17.7765 108.266 17.3261 108.173 16.9254 107.984C16.5346 107.786 16.2236 107.517 15.9923 107.178C15.761 106.839 15.6445 106.459 15.6429 106.039C15.6409 105.509 15.7743 105.089 16.0431 104.778C16.3219 104.467 16.776 104.245 17.4055 104.112C18.045 103.97 18.9147 103.897 20.0147 103.892L20.4947 103.891L20.4929 103.426C20.4905 102.806 20.3588 102.361 20.0978 102.092C19.8467 101.813 19.4412 101.675 18.8812 101.677C18.4412 101.678 18.0164 101.745 17.6069 101.877C17.1974 101.998 16.7782 102.2 16.3493 102.481L15.9259 101.598C16.3048 101.327 16.764 101.11 17.3034 100.948C17.8528 100.786 18.3774 100.704 18.8774 100.702C19.8174 100.698 20.5133 100.925 20.9651 101.384C21.4268 101.842 21.6596 102.556 21.6633 103.526L21.6809 108.116L20.5409 108.12L20.5361 106.86C20.3478 107.291 20.0541 107.632 19.655 107.884C19.266 108.135 18.8065 108.262 18.2765 108.264ZM18.468 107.348C19.068 107.346 19.5572 107.139 19.9356 106.728C20.314 106.306 20.5019 105.776 20.4995 105.136L20.4977 104.686L20.0328 104.687C19.2228 104.69 18.5829 104.733 18.1132 104.815C17.6535 104.886 17.329 105.018 17.1397 105.208C16.9604 105.389 16.8714 105.639 16.8726 105.959C16.8742 106.369 17.0155 106.704 17.2965 106.963C17.5875 107.222 17.978 107.35 18.468 107.348ZM23.7501 99.003L23.7448 97.638L25.2448 97.6323L25.25 98.9972L23.7501 99.003ZM23.935 108.107L23.907 100.817L25.122 100.813L25.15 108.103L23.935 108.107ZM29.6568 108.22C28.9168 108.223 28.356 108.01 27.9744 107.582C27.6027 107.143 27.4152 106.509 27.412 105.679L27.3807 97.519L28.5957 97.5144L28.6267 105.584C28.6308 106.654 29.0578 107.188 29.9078 107.184C30.1578 107.183 30.3827 107.153 30.5825 107.092L30.5564 108.112C30.2467 108.183 29.9468 108.219 29.6568 108.22ZM33.6336 108.07L30.8906 100.791L32.1656 100.786L34.2431 106.643L36.3506 100.77L37.3856 100.766L39.5082 106.638L41.5706 100.75L42.7856 100.745L40.0836 108.045L38.9286 108.05L36.8519 102.403L34.8036 108.066L33.6336 108.07ZM44.1259 98.9248L44.1206 97.5598L45.6206 97.554L45.6259 98.919L44.1259 98.9248ZM44.3108 108.029L44.2828 100.739L45.4978 100.735L45.5258 108.024L44.3108 108.029ZM47.7971 108.016L47.7692 100.726L48.9541 100.721L48.9589 101.966C49.1972 101.505 49.5358 101.159 49.9749 100.927C50.4141 100.696 50.9086 100.579 51.4586 100.577C53.1886 100.57 54.0573 101.527 54.0646 103.447L54.0821 107.992L52.8671 107.996L52.8499 103.526C52.8473 102.846 52.7104 102.352 52.4392 102.043C52.178 101.724 51.7574 101.565 51.1774 101.568C50.5074 101.57 49.9732 101.782 49.5748 102.204C49.1864 102.615 48.9935 103.166 48.9962 103.856L49.0121 108.011L47.7971 108.016ZM59.098 108.107C58.448 108.11 57.8774 107.957 57.3862 107.649C56.905 107.341 56.5283 106.907 56.2562 106.348C55.994 105.779 55.8614 105.11 55.8585 104.34C55.8555 103.56 55.9829 102.889 56.2408 102.328C56.5086 101.757 56.8819 101.321 57.3607 101.019C57.8495 100.707 58.4189 100.55 59.0689 100.547C59.6389 100.545 60.1394 100.668 60.5704 100.917C61.0113 101.165 61.3376 101.509 61.5493 101.948L61.5318 97.3879L62.7468 97.3833L62.7874 107.958L61.6024 107.963L61.5973 106.628C61.3891 107.089 61.0655 107.45 60.6265 107.711C60.1875 107.973 59.678 108.105 59.098 108.107ZM59.3492 107.131C60.0292 107.129 60.5733 106.887 60.9814 106.405C61.3896 105.914 61.5919 105.218 61.5884 104.318C61.5849 103.408 61.3773 102.714 60.9654 102.235C60.5536 101.757 60.0077 101.519 59.3277 101.521C58.6377 101.524 58.0886 101.766 57.6805 102.248C57.2823 102.729 57.085 103.425 57.0885 104.335C57.0919 105.235 57.2946 105.929 57.6965 106.418C58.1083 106.896 58.6592 107.134 59.3492 107.131Z" fill="url(#paint0_linear_1618_704)"/>
<path d="M34.8482 27.1271C24.4735 27.4968 21.4181 34.9206 20.7268 38.9388C21.642 37.4468 24.5313 34.1699 28.8037 34.1535C33.7829 34.1343 37.5948 39.6772 39.9143 41.403C42.7324 43.4997 48.3895 46.2607 55.7935 43.9762C61.6973 42.1545 64.4145 35.8691 65.0026 32.8901C62.1586 36.788 57.8309 39.1393 52.4557 36.4076C48.7542 34.5265 45.9616 26.7312 34.8482 27.1271Z" fill="url(#paint1_linear_1618_704)"/>
<path d="M20.2349 44.8195C9.86025 45.1892 6.80485 52.613 6.11355 56.6312C7.02871 55.1392 9.918 51.8623 14.1904 51.8459C19.1696 51.8267 22.9815 57.3696 25.3011 59.0954C28.1191 61.1921 33.7762 63.9531 41.1802 61.6686C47.084 59.8469 49.8012 53.5615 50.3894 50.5825C47.5453 54.4804 43.2176 56.8317 37.8424 54.1C34.1409 52.2189 31.3483 44.4236 20.2349 44.8195Z" fill="url(#paint2_linear_1618_704)"/>
<defs>
<linearGradient id="paint0_linear_1618_704" x1="35.3863" y1="93.0633" x2="35.4707" y2="115.063" gradientUnits="userSpaceOnUse">
<stop stop-color="#ACADAD"/>
<stop offset="1" stop-color="#7A7D7E"/>
</linearGradient>
<linearGradient id="paint1_linear_1618_704" x1="42.8308" y1="27.0849" x2="42.8991" y2="44.8641" gradientUnits="userSpaceOnUse">
<stop stop-color="#096778"/>
<stop offset="1" stop-color="#046273"/>
</linearGradient>
<linearGradient id="paint2_linear_1618_704" x1="28.2176" y1="44.7773" x2="28.2858" y2="62.5565" gradientUnits="userSpaceOnUse">
<stop stop-color="#096778"/>
<stop offset="1" stop-color="#046273"/>
</linearGradient>
</defs>
</svg>
