<svg width="352" height="269" viewBox="0 0 352 269" fill="none" xmlns="http://www.w3.org/2000/svg">
<path d="M8.03564 10.2719V224.232C8.03781 226.959 9.1219 229.573 11.0499 231.501C12.9779 233.429 15.5923 234.513 18.3189 234.515H335.386C338.112 234.513 340.727 233.429 342.655 231.501C344.583 229.573 345.667 226.959 345.669 224.232V10.2719C345.663 7.54761 344.577 4.93696 342.649 3.01168C340.722 1.0864 338.11 0.00346013 335.386 0H18.3189C15.5947 0.00347329 12.9828 1.08641 11.0554 3.01168C9.128 4.93695 8.04213 7.54761 8.03564 10.2719V10.2719Z" fill="#1E1C1C"/>
<path d="M15.4741 12.933V221.592C15.4766 223.048 16.0564 224.445 17.0865 225.475C18.1167 226.505 19.5131 227.085 20.97 227.087H332.747C334.204 227.085 335.6 226.505 336.63 225.475C337.66 224.445 338.24 223.048 338.243 221.592V12.933C338.242 11.4744 337.664 10.0755 336.633 9.04301C335.603 8.01055 334.205 7.42895 332.747 7.42578H20.97C19.5114 7.42893 18.1137 8.01055 17.0833 9.04301C16.053 10.0755 15.4743 11.4744 15.4741 12.933V12.933Z" fill="#141313"/>
<path d="M1.40462 265.962C1.98546 266.691 2.72381 267.278 3.56414 267.68C4.40447 268.082 5.32498 268.288 6.25652 268.284H345.761C346.689 268.283 347.606 268.074 348.444 267.674C349.282 267.275 350.02 266.693 350.605 265.972C351.19 265.251 351.606 264.408 351.825 263.506C352.043 262.603 352.058 261.664 351.867 260.755L346.597 235.722C346.379 234.701 345.908 233.751 345.229 232.959C344.55 232.166 343.683 231.556 342.707 231.184C342.001 230.907 341.249 230.765 340.49 230.766H11.5057C10.747 230.765 9.99508 230.907 9.28885 231.184C8.3134 231.556 7.44652 232.166 6.76713 232.958C6.08774 233.751 5.6174 234.701 5.39903 235.722L0.12894 260.755C-0.0585795 261.663 -0.0413709 262.602 0.179299 263.503C0.39997 264.403 0.818523 265.244 1.40462 265.962V265.962Z" fill="#141313"/>
<path d="M328.841 241.547H336.86C337.533 241.547 338.079 241.001 338.079 240.328V236.492C338.079 235.819 337.533 235.273 336.86 235.273H328.841C328.168 235.273 327.622 235.819 327.622 236.492V240.328C327.622 241.001 328.168 241.547 328.841 241.547Z" fill="#1E1C1C"/>
<path d="M307.928 241.547H315.947C316.62 241.547 317.166 241.001 317.166 240.328V236.492C317.166 235.819 316.62 235.273 315.947 235.273H307.928C307.255 235.273 306.709 235.819 306.709 236.492V240.328C306.709 241.001 307.255 241.547 307.928 241.547Z" fill="#1E1C1C"/>
<path d="M287.015 241.547H295.034C295.707 241.547 296.252 241.001 296.252 240.328V236.492C296.252 235.819 295.707 235.273 295.034 235.273H287.015C286.341 235.273 285.796 235.819 285.796 236.492V240.328C285.796 241.001 286.341 241.547 287.015 241.547Z" fill="#1E1C1C"/>
<path d="M266.102 241.547H274.121C274.794 241.547 275.339 241.001 275.339 240.328V236.492C275.339 235.819 274.794 235.273 274.121 235.273H266.102C265.429 235.273 264.883 235.819 264.883 236.492V240.328C264.883 241.001 265.429 241.547 266.102 241.547Z" fill="#1E1C1C"/>
<path d="M245.188 241.547H253.207C253.881 241.547 254.426 241.001 254.426 240.328V236.492C254.426 235.819 253.881 235.273 253.207 235.273H245.188C244.515 235.273 243.97 235.819 243.97 236.492V240.328C243.97 241.001 244.515 241.547 245.188 241.547Z" fill="#1E1C1C"/>
<path d="M224.275 241.547H232.294C232.968 241.547 233.513 241.001 233.513 240.328V236.492C233.513 235.819 232.968 235.273 232.294 235.273H224.275C223.602 235.273 223.057 235.819 223.057 236.492V240.328C223.057 241.001 223.602 241.547 224.275 241.547Z" fill="#1E1C1C"/>
<path d="M203.362 241.547H211.381C212.054 241.547 212.6 241.001 212.6 240.328V236.492C212.6 235.819 212.054 235.273 211.381 235.273H203.362C202.689 235.273 202.144 235.819 202.144 236.492V240.328C202.144 241.001 202.689 241.547 203.362 241.547Z" fill="#1E1C1C"/>
<path d="M182.449 241.547H190.468C191.141 241.547 191.687 241.001 191.687 240.328V236.492C191.687 235.819 191.141 235.273 190.468 235.273H182.449C181.776 235.273 181.23 235.819 181.23 236.492V240.328C181.23 241.001 181.776 241.547 182.449 241.547Z" fill="#1E1C1C"/>
<path d="M161.536 241.547H169.555C170.228 241.547 170.774 241.001 170.774 240.328V236.492C170.774 235.819 170.228 235.273 169.555 235.273H161.536C160.863 235.273 160.317 235.819 160.317 236.492V240.328C160.317 241.001 160.863 241.547 161.536 241.547Z" fill="#1E1C1C"/>
<path d="M140.623 241.547H148.642C149.315 241.547 149.861 241.001 149.861 240.328V236.492C149.861 235.819 149.315 235.273 148.642 235.273H140.623C139.95 235.273 139.404 235.819 139.404 236.492V240.328C139.404 241.001 139.95 241.547 140.623 241.547Z" fill="#1E1C1C"/>
<path d="M119.71 241.547H127.729C128.402 241.547 128.948 241.001 128.948 240.328V236.492C128.948 235.819 128.402 235.273 127.729 235.273H119.71C119.037 235.273 118.491 235.819 118.491 236.492V240.328C118.491 241.001 119.037 241.547 119.71 241.547Z" fill="#1E1C1C"/>
<path d="M98.7968 241.547H106.816C107.489 241.547 108.035 241.001 108.035 240.328V236.492C108.035 235.819 107.489 235.273 106.816 235.273H98.7968C98.1237 235.273 97.5781 235.819 97.5781 236.492V240.328C97.5781 241.001 98.1237 241.547 98.7968 241.547Z" fill="#1E1C1C"/>
<path d="M77.8837 241.547H85.9027C86.5758 241.547 87.1216 241.001 87.1216 240.328V236.492C87.1216 235.819 86.5758 235.273 85.9027 235.273H77.8837C77.2106 235.273 76.6649 235.819 76.6649 236.492V240.328C76.6649 241.001 77.2106 241.547 77.8837 241.547Z" fill="#1E1C1C"/>
<path d="M56.9692 241.547H64.9883C65.6614 241.547 66.207 241.001 66.207 240.328V236.492C66.207 235.819 65.6614 235.273 64.9883 235.273H56.9692C56.2961 235.273 55.7505 235.819 55.7505 236.492V240.328C55.7505 241.001 56.2961 241.547 56.9692 241.547Z" fill="#1E1C1C"/>
<path d="M36.0561 241.547H44.0751C44.7482 241.547 45.2939 241.001 45.2939 240.328V236.492C45.2939 235.819 44.7482 235.273 44.0751 235.273H36.0561C35.383 235.273 34.8373 235.819 34.8373 236.492V240.328C34.8373 241.001 35.383 241.547 36.0561 241.547Z" fill="#1E1C1C"/>
<path d="M15.1435 241.547H23.1625C23.8356 241.547 24.3813 241.001 24.3813 240.328V236.492C24.3813 235.819 23.8356 235.273 23.1625 235.273H15.1435C14.4704 235.273 13.9248 235.819 13.9248 236.492V240.328C13.9248 241.001 14.4704 241.547 15.1435 241.547Z" fill="#1E1C1C"/>
<path d="M329.088 252H337.107C337.78 252 338.326 251.454 338.326 250.781V246.945C338.326 246.272 337.78 245.726 337.107 245.726H329.088C328.415 245.726 327.869 246.272 327.869 246.945V250.781C327.869 251.454 328.415 252 329.088 252Z" fill="#1E1C1C"/>
<path d="M308.175 252H316.194C316.867 252 317.413 251.454 317.413 250.781V246.945C317.413 246.272 316.867 245.726 316.194 245.726H308.175C307.502 245.726 306.956 246.272 306.956 246.945V250.781C306.956 251.454 307.502 252 308.175 252Z" fill="#1E1C1C"/>
<path d="M287.262 252H295.281C295.954 252 296.5 251.454 296.5 250.781V246.945C296.5 246.272 295.954 245.726 295.281 245.726H287.262C286.589 245.726 286.043 246.272 286.043 246.945V250.781C286.043 251.454 286.589 252 287.262 252Z" fill="#1E1C1C"/>
<path d="M266.349 252H274.368C275.041 252 275.587 251.454 275.587 250.781V246.945C275.587 246.272 275.041 245.726 274.368 245.726H266.349C265.676 245.726 265.13 246.272 265.13 246.945V250.781C265.13 251.454 265.676 252 266.349 252Z" fill="#1E1C1C"/>
<path d="M245.436 252H253.455C254.128 252 254.674 251.454 254.674 250.781V246.945C254.674 246.272 254.128 245.726 253.455 245.726H245.436C244.763 245.726 244.217 246.272 244.217 246.945V250.781C244.217 251.454 244.763 252 245.436 252Z" fill="#1E1C1C"/>
<path d="M224.523 252H232.542C233.215 252 233.761 251.454 233.761 250.781V246.945C233.761 246.272 233.215 245.726 232.542 245.726H224.523C223.85 245.726 223.304 246.272 223.304 246.945V250.781C223.304 251.454 223.85 252 224.523 252Z" fill="#1E1C1C"/>
<path d="M203.61 252H211.629C212.302 252 212.848 251.454 212.848 250.781V246.945C212.848 246.272 212.302 245.726 211.629 245.726H203.61C202.937 245.726 202.391 246.272 202.391 246.945V250.781C202.391 251.454 202.937 252 203.61 252Z" fill="#1E1C1C"/>
<path d="M182.697 252H190.716C191.389 252 191.935 251.454 191.935 250.781V246.945C191.935 246.272 191.389 245.726 190.716 245.726H182.697C182.024 245.726 181.478 246.272 181.478 246.945V250.781C181.478 251.454 182.024 252 182.697 252Z" fill="#1E1C1C"/>
<path d="M161.784 252H169.803C170.476 252 171.021 251.454 171.021 250.781V246.945C171.021 246.272 170.476 245.726 169.803 245.726H161.784C161.111 245.726 160.565 246.272 160.565 246.945V250.781C160.565 251.454 161.111 252 161.784 252Z" fill="#1E1C1C"/>
<path d="M140.869 252H148.888C149.561 252 150.107 251.454 150.107 250.781V246.945C150.107 246.272 149.561 245.726 148.888 245.726H140.869C140.196 245.726 139.65 246.272 139.65 246.945V250.781C139.65 251.454 140.196 252 140.869 252Z" fill="#1E1C1C"/>
<path d="M119.956 252H127.975C128.648 252 129.194 251.454 129.194 250.781V246.945C129.194 246.272 128.648 245.726 127.975 245.726H119.956C119.283 245.726 118.737 246.272 118.737 246.945V250.781C118.737 251.454 119.283 252 119.956 252Z" fill="#1E1C1C"/>
<path d="M99.0431 252H107.062C107.735 252 108.281 251.454 108.281 250.781V246.945C108.281 246.272 107.735 245.726 107.062 245.726H99.0431C98.37 245.726 97.8242 246.272 97.8242 246.945V250.781C97.8242 251.454 98.37 252 99.0431 252Z" fill="#1E1C1C"/>
<path d="M78.1298 252H86.1488C86.8219 252 87.3677 251.454 87.3677 250.781V246.945C87.3677 246.272 86.8219 245.726 86.1488 245.726H78.1298C77.4567 245.726 76.9111 246.272 76.9111 246.945V250.781C76.9111 251.454 77.4567 252 78.1298 252Z" fill="#1E1C1C"/>
<path d="M57.2169 252H65.2359C65.909 252 66.4546 251.454 66.4546 250.781V246.945C66.4546 246.272 65.909 245.726 65.2359 245.726H57.2169C56.5438 245.726 55.9981 246.272 55.9981 246.945V250.781C55.9981 251.454 56.5438 252 57.2169 252Z" fill="#1E1C1C"/>
<path d="M36.3037 252H44.3227C44.9958 252 45.5415 251.454 45.5415 250.781V246.945C45.5415 246.272 44.9958 245.726 44.3227 245.726H36.3037C35.6306 245.726 35.085 246.272 35.085 246.945V250.781C35.085 251.454 35.6306 252 36.3037 252Z" fill="#1E1C1C"/>
<path d="M15.3907 252H23.4097C24.0828 252 24.6284 251.454 24.6284 250.781V246.945C24.6284 246.272 24.0828 245.726 23.4097 245.726H15.3907C14.7176 245.726 14.1719 246.272 14.1719 246.945V250.781C14.1719 251.454 14.7176 252 15.3907 252Z" fill="#1E1C1C"/>
<path d="M155.509 264.551H236.724C237.397 264.551 237.943 264.005 237.943 263.332V259.496C237.943 258.823 237.397 258.277 236.724 258.277H155.509C154.836 258.277 154.29 258.823 154.29 259.496V263.332C154.29 264.005 154.836 264.551 155.509 264.551Z" fill="#1E1C1C"/>
<path d="M177.515 194.952C218.878 194.952 252.41 161.421 252.41 120.057C252.41 78.6938 218.878 45.1621 177.515 45.1621C136.151 45.1621 102.62 78.6938 102.62 120.057C102.62 161.421 136.151 194.952 177.515 194.952Z" fill="#1E1C1C"/>
<path d="M160.698 149.762C159.721 149.784 158.754 149.559 157.888 149.107C156.961 148.637 156.18 147.924 155.628 147.044C155.076 146.164 154.775 145.15 154.756 144.112L153.522 96.3003C153.495 95.2636 153.747 94.2387 154.252 93.3328C154.757 92.4269 155.496 91.6732 156.391 91.1505C157.287 90.6278 158.307 90.3553 159.344 90.3614C160.381 90.3676 161.397 90.6522 162.287 91.1855L208.258 113.92C209.094 114.422 209.789 115.126 210.281 115.968C210.772 116.81 211.043 117.762 211.068 118.736C211.093 119.711 210.872 120.676 210.424 121.542C209.977 122.408 209.319 123.147 208.51 123.691L163.773 148.767C162.864 149.385 161.797 149.73 160.698 149.762Z" fill="#141313"/>
</svg>
