<svg width="176" height="303" viewBox="0 0 176 303" fill="none" xmlns="http://www.w3.org/2000/svg">
<path d="M36.7413 10.1669L36.7412 10.1669C24.65 10.1752 14.8552 19.9841 14.8635 32.0752C14.8635 32.0753 14.8635 32.0753 14.8635 32.0754L15.0327 270.581M36.7413 10.1669L15.0327 270.581M36.7413 10.1669L141.115 10.0928L141.11 2.59281L141.115 10.0928C153.206 10.0841 163.015 19.8792 163.023 31.97L163.193 270.476C163.201 282.567 153.406 292.376 141.316 292.384L36.9411 292.458C24.8503 292.467 15.0415 282.672 15.0327 270.581M36.7413 10.1669L7.53275 270.586L15.0327 270.581" stroke="#1E1C1C" stroke-width="15"/>
<path d="M6.63564 62.997C6.10502 62.9968 5.59595 62.7859 5.22016 62.4113C4.84439 62.0362 4.63335 61.5275 4.63198 60.9964L4.62939 56.9927C4.62891 56.7299 4.68093 56.4696 4.78119 56.2262C4.88144 55.9833 5.02883 55.7629 5.21459 55.5767C5.40036 55.3905 5.62093 55.2431 5.86364 55.1421C6.10684 55.0416 6.36714 54.9895 6.62995 54.989C6.89276 54.989 7.15308 55.0406 7.39594 55.1413C7.63931 55.2416 7.85976 55.389 8.04593 55.5747C8.2321 55.7605 8.37956 55.9811 8.48055 56.2238C8.58103 56.4665 8.63312 56.7268 8.6331 56.9896L8.63619 60.9938C8.63606 61.5244 8.42511 62.0335 8.05 62.4093C7.6749 62.7845 7.16627 62.9961 6.63564 62.997Z" fill="#1E1C1C"/>
<path d="M6.64949 83.526C6.11887 83.5259 5.60981 83.3149 5.23452 82.9403C4.85874 82.5652 4.64722 82.0561 4.64635 81.5254L4.63868 70.504C4.6382 70.2412 4.68972 69.9808 4.79047 69.738C4.89073 69.4946 5.03811 69.2742 5.22388 69.088C5.40965 68.9018 5.63022 68.7543 5.87293 68.6534C6.11563 68.5529 6.37593 68.5008 6.63923 68.5008C6.90205 68.5003 7.16237 68.5519 7.40523 68.6526C7.6481 68.7529 7.86905 68.9002 8.05522 69.086C8.24089 69.2718 8.38885 69.4924 8.48934 69.7351C8.59032 69.9778 8.64241 70.2381 8.64238 70.5014L8.65005 81.5228C8.64992 82.0534 8.43946 82.5625 8.06436 82.9383C7.68926 83.3136 7.18062 83.5251 6.64949 83.526Z" fill="#1E1C1C"/>
<path d="M6.66118 100.032C6.13007 100.032 5.6215 99.8212 5.24572 99.4461C4.86994 99.071 4.6584 98.5624 4.65753 98.0318L4.64986 87.0103C4.6495 86.4792 4.85995 85.9701 5.23506 85.5943C5.61017 85.2185 6.11931 85.007 6.65044 85.0066C7.18156 85.0063 7.69063 85.2167 8.0664 85.5923C8.44217 85.9674 8.65321 86.4766 8.65359 87.0072L8.66174 98.0287C8.6611 98.5598 8.45064 99.0689 8.07554 99.4441C7.70043 99.8199 7.19182 100.031 6.66118 100.032Z" fill="#1E1C1C"/>
<path d="M170.816 90.9074C170.285 90.9073 169.776 90.6968 169.4 90.3217C169.025 89.9466 168.813 89.438 168.812 88.9068L168.793 62.0142C168.793 61.4831 169.004 60.9735 169.379 60.5977C169.754 60.2224 170.263 60.0109 170.794 60.0105C171.325 60.0102 171.834 60.2206 172.21 60.5957C172.585 60.9713 172.797 61.48 172.797 62.0111L172.816 88.9043C172.816 89.4349 172.605 89.9439 172.23 90.3197C171.855 90.695 171.346 90.9065 170.816 90.9074Z" fill="#1E1C1C"/>
<path d="M44.4066 69.0787C44.2219 69.0787 44.0435 69.0107 43.9057 68.8875L35.8715 61.6998C35.7982 61.6343 35.7387 61.5546 35.6958 61.4656C35.653 61.3767 35.6283 61.2806 35.6226 61.1819C35.617 61.0837 35.6314 60.9848 35.6637 60.8919C35.6965 60.7989 35.7472 60.7132 35.8127 60.6399L43.0004 52.6057C43.0659 52.5324 43.1456 52.4724 43.2345 52.43C43.3234 52.3872 43.4195 52.3625 43.5182 52.3568C43.6165 52.3512 43.7148 52.3651 43.8083 52.3979C43.9013 52.4307 43.9869 52.4814 44.0602 52.5469C44.1336 52.6129 44.1936 52.6921 44.2365 52.781C44.2788 52.8699 44.304 52.9665 44.3092 53.0647C44.3148 53.163 44.3009 53.2618 44.2681 53.3548C44.2358 53.4478 44.1851 53.5334 44.1191 53.6073L37.4327 61.0813L44.9067 67.7683C45.0199 67.8695 45.1 68.0032 45.1357 68.1506C45.1719 68.2984 45.162 68.4534 45.1077 68.5956C45.0534 68.7377 44.9575 68.86 44.8322 68.9462C44.7069 69.0324 44.5588 69.0787 44.4066 69.0787Z" fill="#141313"/>
<path d="M50.1589 69.0549C50.0047 69.0549 49.854 69.0075 49.7275 68.919C49.6011 68.8305 49.5048 68.7055 49.4525 68.5603C49.3997 68.4152 49.3932 68.2573 49.4331 68.1084C49.4735 67.9595 49.5587 67.8265 49.6772 67.7276L57.3773 61.3021L50.9518 53.6015C50.8886 53.5258 50.8408 53.4382 50.811 53.3441C50.7818 53.2499 50.7707 53.1511 50.7796 53.0526C50.7884 52.9542 50.8163 52.8586 50.8625 52.7714C50.9082 52.6836 50.9708 52.6062 51.0466 52.5431C51.1224 52.48 51.2099 52.4321 51.3041 52.4029C51.3982 52.3731 51.4975 52.363 51.5955 52.3719C51.6939 52.3808 51.7895 52.4091 51.8767 52.4554C51.9645 52.5011 52.0418 52.5636 52.105 52.6399L59.011 60.9169C59.0742 60.9927 59.1221 61.0797 59.1513 61.1738C59.181 61.268 59.1912 61.3668 59.1823 61.4653C59.1734 61.5632 59.1455 61.6588 59.0998 61.746C59.0541 61.8333 58.9915 61.9106 58.9158 61.9738L50.6388 68.8803C50.5045 68.9929 50.3346 69.0547 50.1589 69.0549Z" fill="#141313"/>
<path d="M149.608 79.1604L30.349 79.2444C28.5103 79.2438 26.7467 78.5138 25.4455 77.2145C24.1443 75.9151 23.4116 74.1526 23.4082 72.3134L23.3917 49.1491C23.3928 47.3105 24.1228 45.5469 25.4222 44.2457C26.7215 42.9445 28.4841 42.2117 30.3228 42.2083L149.582 42.1238C151.42 42.1244 153.184 42.8549 154.485 44.1542C155.786 45.4536 156.519 47.2161 156.522 49.0548L156.539 72.2191C156.538 74.0582 155.808 75.8218 154.508 77.123C153.209 78.4242 151.446 79.157 149.608 79.1604ZM30.3236 43.2095C28.7503 43.212 27.2421 43.8389 26.13 44.9525C25.0185 46.0661 24.3934 47.5749 24.3929 49.1487L24.4093 72.313C24.4123 73.8864 25.0392 75.3946 26.1523 76.5061C27.2659 77.6182 28.7747 78.2432 30.3485 78.2438L149.607 78.1592C151.181 78.1562 152.688 77.5293 153.801 76.4157C154.913 75.3026 155.537 73.7933 155.538 72.22L155.521 49.0557C155.519 47.4823 154.892 45.9741 153.778 44.8621C152.665 43.7505 151.156 43.1255 149.582 43.125L30.3236 43.2095Z" fill="#1E1C1C"/>
<path d="M93.8979 57.1798L73.8779 57.1943C73.3472 57.1946 72.8377 56.9842 72.4619 56.6091C72.0861 56.234 71.8751 55.7248 71.8747 55.1937C71.8743 54.6626 72.0848 54.1535 72.4599 53.7777C72.835 53.402 73.3442 53.1909 73.8753 53.1906L93.8948 53.1761C94.426 53.1758 94.935 53.3862 95.3108 53.7613C95.6866 54.1364 95.8976 54.6456 95.898 55.1767C95.8983 55.7078 95.6879 56.2169 95.3128 56.5927C94.9377 56.9684 94.4286 57.1795 93.8979 57.1798Z" fill="#141313"/>
<path d="M136.948 68.1604L73.3853 68.2054C72.8542 68.2058 72.3446 67.9953 71.9688 67.6202C71.5936 67.2451 71.382 66.736 71.3817 66.2048C71.3813 65.6737 71.5918 65.1646 71.9669 64.7889C72.3425 64.4131 72.8511 64.202 73.3822 64.2017L136.945 64.1562C137.476 64.1559 137.985 64.3668 138.36 64.7419C138.736 65.117 138.948 65.6262 138.948 66.1568C138.949 66.6879 138.738 67.1975 138.362 67.5728C137.987 67.9485 137.478 68.1601 136.948 68.1604Z" fill="#141313"/>
<path d="M43.9506 227.296C43.7659 227.295 43.587 227.227 43.4497 227.104L35.4155 219.917C35.3421 219.851 35.2826 219.771 35.2397 219.682C35.1969 219.593 35.1722 219.497 35.1666 219.399C35.1609 219.3 35.1753 219.202 35.2077 219.109C35.2405 219.016 35.2912 218.93 35.3566 218.857L42.5443 210.823C42.6768 210.674 42.8632 210.585 43.0622 210.574C43.2606 210.562 43.4561 210.631 43.6042 210.764C43.7528 210.897 43.8424 211.083 43.8531 211.282C43.8643 211.48 43.796 211.675 43.663 211.824L36.9761 219.298L44.4507 225.985C44.5639 226.086 44.6439 226.22 44.6796 226.367C44.7159 226.515 44.7059 226.67 44.6516 226.812C44.5973 226.954 44.5014 227.077 44.3761 227.163C44.2508 227.249 44.1023 227.295 43.9506 227.296Z" fill="#141313"/>
<path d="M49.7026 227.272C49.5484 227.272 49.3977 227.225 49.2712 227.136C49.1447 227.048 49.0485 226.923 48.9962 226.778C48.9434 226.632 48.9364 226.475 48.9768 226.326C49.0167 226.177 49.1019 226.044 49.2204 225.945L56.921 219.519L50.4955 211.818C50.3682 211.665 50.3069 211.468 50.3252 211.27C50.343 211.072 50.4391 210.889 50.5917 210.762C50.7444 210.634 50.9418 210.573 51.1397 210.591C51.338 210.608 51.5209 210.704 51.6487 210.857L58.5547 219.134C58.6825 219.287 58.7443 219.484 58.726 219.682C58.7082 219.88 58.6126 220.063 58.4594 220.191L50.1825 227.098C50.0482 227.21 49.8783 227.272 49.7026 227.272Z" fill="#141313"/>
<path d="M149.741 268.347L30.4831 268.431C28.644 268.43 26.8804 267.7 25.5791 266.401C24.2779 265.101 23.5452 263.339 23.5418 261.5L23.4996 201.8C23.5007 199.961 24.2307 198.197 25.5301 196.896C26.8294 195.595 28.592 194.862 30.4307 194.859L149.69 194.774C151.528 194.775 153.292 195.505 154.593 196.805C155.894 198.104 156.627 199.866 156.63 201.706L156.672 261.405C156.672 263.245 155.942 265.008 154.642 266.309C153.343 267.611 151.581 268.343 149.741 268.347ZM30.4316 195.86C28.8582 195.863 27.35 196.49 26.2379 197.603C25.1264 198.716 24.5013 200.226 24.5008 201.799L24.543 261.499C24.5459 263.073 25.1729 264.581 26.2865 265.693C27.3995 266.805 28.9089 267.43 30.4822 267.43L149.741 267.346C151.314 267.343 152.823 266.716 153.934 265.603C155.046 264.489 155.671 262.98 155.672 261.406L155.629 201.706C155.626 200.133 155 198.624 153.886 197.512C152.773 196.401 151.264 195.776 149.69 195.775L30.4316 195.86Z" fill="#1E1C1C"/>
<path d="M93.4414 215.397L73.4218 215.411C73.159 215.412 72.8982 215.36 72.6548 215.26C72.4115 215.16 72.1905 215.013 72.0039 214.827C71.8177 214.641 71.6697 214.42 71.5687 214.177C71.4678 213.934 71.4157 213.674 71.4157 213.41C71.4157 213.147 71.4672 212.887 71.568 212.643C71.6683 212.401 71.8162 212.18 72.0019 211.994C72.1882 211.807 72.4093 211.66 72.652 211.559C72.8952 211.458 73.156 211.407 73.4193 211.407L93.4388 211.393C93.9689 211.393 94.478 211.604 94.8528 211.979C95.2281 212.354 95.4391 212.863 95.4395 213.393C95.4398 213.924 95.2294 214.433 94.8548 214.808C94.4802 215.184 93.972 215.396 93.4414 215.397Z" fill="#141313"/>
<path d="M136.491 226.377L72.9288 226.422C72.666 226.422 72.4052 226.371 72.1618 226.27C71.9189 226.17 71.698 226.023 71.5113 225.838C71.3251 225.652 71.1772 225.431 71.0762 225.188C70.9757 224.945 70.9236 224.684 70.9231 224.421C70.9232 224.158 70.9747 223.898 71.0755 223.655C71.1757 223.411 71.3236 223.19 71.5094 223.005C71.6956 222.819 71.9162 222.671 72.1594 222.57C72.4026 222.47 72.6629 222.418 72.9262 222.418L136.489 222.373C137.02 222.373 137.529 222.583 137.905 222.958C138.28 223.333 138.491 223.843 138.492 224.374C138.492 224.904 138.282 225.414 137.906 225.79C137.531 226.165 137.022 226.376 136.491 226.377Z" fill="#141313"/>
<path d="M31.2179 109.342L25.3765 109.346C24.5801 109.347 23.9355 109.993 23.9358 110.789L23.9372 112.472C23.9375 113.268 24.5834 113.913 25.3794 113.912L31.2213 113.908C32.0172 113.908 32.6623 113.262 32.6615 112.466L32.6606 110.783C32.6598 109.987 32.0138 109.342 31.2179 109.342Z" fill="#141313"/>
<path d="M78.7789 109.311L72.9375 109.315C72.1416 109.315 71.4965 109.961 71.4974 110.757L71.4982 112.44C71.499 113.236 72.1445 113.881 72.9409 113.881L78.7823 113.877C79.5782 113.876 80.2233 113.23 80.2225 112.434L80.2216 110.751C80.2208 109.955 79.5754 109.31 78.7789 109.311Z" fill="#141313"/>
<path d="M92.2545 109.299L86.4131 109.304C85.6172 109.304 84.9721 109.95 84.9724 110.746L84.9738 112.429C84.9746 113.225 85.6201 113.87 86.4165 113.869L92.2579 113.865C93.0538 113.865 93.6989 113.219 93.6981 112.423L93.6972 110.74C93.6964 109.944 93.0504 109.299 92.2545 109.299Z" fill="#141313"/>
<path d="M65.842 108.938L38.3131 108.957C37.5172 108.958 36.8721 109.604 36.8724 110.4L36.8738 112.083C36.8746 112.879 37.52 113.524 38.3165 113.523L65.8454 113.504C66.6413 113.503 67.2864 112.857 67.2856 112.062L67.2847 110.379C67.2839 109.583 66.6385 108.938 65.842 108.938Z" fill="#141313"/>
<path d="M129.256 108.893L101.727 108.913C100.931 108.913 100.286 109.559 100.287 110.355L100.288 112.038C100.289 112.834 100.934 113.479 101.731 113.478L129.259 113.459C130.055 113.458 130.7 112.812 130.7 112.016L130.699 110.333C130.698 109.537 130.053 108.892 129.256 108.893Z" fill="#1E1C1C"/>
<path d="M31.3961 119.647L25.5547 119.651C24.7583 119.651 24.1137 120.297 24.114 121.093L24.1154 122.776C24.1157 123.572 24.7617 124.217 25.5576 124.217L31.3995 124.212C32.1954 124.212 32.8405 123.566 32.8397 122.77L32.8388 121.087C32.838 120.291 32.1921 119.646 31.3961 119.647Z" fill="#141313"/>
<path d="M78.9567 119.613L73.1153 119.617C72.3193 119.618 71.6743 120.264 71.6751 121.06L71.676 122.743C71.6768 123.539 72.3222 124.184 73.1186 124.183L78.96 124.179C79.756 124.179 80.4011 123.533 80.4002 122.737L80.3994 121.054C80.3985 120.258 79.7531 119.613 78.9567 119.613Z" fill="#141313"/>
<path d="M92.4328 119.606L86.5909 119.61C85.7949 119.61 85.1499 120.256 85.1507 121.052L85.152 122.735C85.1524 123.531 85.7983 124.176 86.5942 124.176L92.4356 124.171C93.2321 124.171 93.8766 123.525 93.8763 122.729L93.8749 121.046C93.8746 120.25 93.2287 119.605 92.4328 119.606Z" fill="#141313"/>
<path d="M66.0197 119.243L38.4909 119.262C37.6949 119.262 37.0498 119.908 37.0502 120.704L37.0515 122.387C37.0523 123.183 37.6978 123.828 38.4942 123.828L66.0231 123.808C66.8191 123.808 67.4641 123.162 67.4633 122.366L67.4624 120.683C67.4616 119.887 66.8162 119.242 66.0197 119.243Z" fill="#141313"/>
<path d="M129.437 119.198L101.907 119.217C101.111 119.218 100.467 119.864 100.467 120.659L100.469 122.342C100.469 123.138 101.115 123.783 101.911 123.783L129.44 123.764C130.236 123.763 130.881 123.117 130.88 122.321L130.879 120.638C130.879 119.842 130.233 119.197 129.437 119.198Z" fill="#1E1C1C"/>
<path d="M56.5983 129.934L50.7564 129.938C49.9605 129.939 49.3159 130.585 49.3162 131.38L49.3176 133.063C49.3179 133.859 49.9638 134.504 50.7597 134.504L56.6016 134.5C57.3976 134.499 58.0421 133.853 58.0418 133.057L58.0404 131.374C58.0401 130.579 57.3942 129.933 56.5983 129.934Z" fill="#141313"/>
<path d="M104.16 129.901L98.3179 129.905C97.522 129.905 96.8769 130.551 96.8777 131.347L96.8786 133.03C96.8794 133.826 97.5254 134.471 98.3213 134.47L104.163 134.466C104.959 134.466 105.604 133.82 105.603 133.024L105.602 131.341C105.602 130.545 104.956 129.9 104.16 129.901Z" fill="#141313"/>
<path d="M117.635 129.893L111.793 129.897C110.997 129.898 110.352 130.544 110.353 131.339L110.354 133.022C110.354 133.818 111 134.463 111.796 134.463L117.638 134.459C118.434 134.458 119.079 133.812 119.078 133.016L119.077 131.333C119.077 130.538 118.431 129.892 117.635 129.893Z" fill="#141313"/>
<path d="M91.2224 129.53L63.6935 129.549C62.8971 129.55 62.2525 130.195 62.2528 130.991L62.2542 132.674C62.2545 133.47 62.9004 134.115 63.6964 134.115L91.2258 134.095C92.0217 134.095 92.6668 133.449 92.666 132.653L92.6646 130.97C92.6643 130.174 92.0183 129.529 91.2224 129.53Z" fill="#141313"/>
<path d="M154.639 129.485L127.11 129.504C126.314 129.505 125.669 130.151 125.669 130.947L125.671 132.63C125.671 133.425 126.317 134.071 127.113 134.07L154.642 134.05C155.438 134.05 156.083 133.404 156.082 132.608L156.082 130.925C156.081 130.129 155.435 129.484 154.639 129.485Z" fill="#1E1C1C"/>
<path d="M31.2687 160.156L25.4268 160.161C24.6309 160.161 23.9858 160.807 23.9866 161.603L23.9875 163.286C23.9883 164.082 24.6342 164.727 25.4302 164.726L31.2715 164.722C32.068 164.722 32.7126 164.076 32.7122 163.28L32.7109 161.597C32.7106 160.801 32.0646 160.156 31.2687 160.156Z" fill="#141313"/>
<path d="M44.7438 160.147L38.9024 160.151C38.106 160.151 37.4614 160.797 37.4617 161.593L37.4631 163.276C37.4634 164.072 38.1093 164.717 38.9053 164.717L44.7471 164.713C45.5431 164.712 46.1881 164.066 46.1873 163.27L46.1859 161.587C46.1856 160.791 45.5397 160.146 44.7438 160.147Z" fill="#141313"/>
<path d="M81.7468 160.5L54.2174 160.52C53.4215 160.52 52.7769 161.166 52.7772 161.962L52.7786 163.645C52.7789 164.441 53.4249 165.086 54.2208 165.086L81.7502 165.066C82.5461 165.065 83.1912 164.42 83.1904 163.624L83.189 161.941C83.1887 161.145 82.5428 160.5 81.7468 160.5Z" fill="#1E1C1C"/>
<path d="M65.9654 149.826L60.1241 149.831C59.3276 149.831 58.6831 150.477 58.6834 151.273L58.6847 152.956C58.685 153.752 59.331 154.397 60.1269 154.396L65.9688 154.392C66.7647 154.392 67.4098 153.746 67.409 152.95L67.4076 151.267C67.4073 150.471 66.7614 149.826 65.9654 149.826Z" fill="#141313"/>
<path d="M79.443 149.815L73.6016 149.819C72.8057 149.819 72.1606 150.465 72.1614 151.261L72.1623 152.944C72.1631 153.74 72.8086 154.385 73.605 154.385L79.4464 154.38C80.2423 154.38 80.8874 153.734 80.8866 152.938L80.8857 151.255C80.8849 150.459 80.2394 149.814 79.443 149.815Z" fill="#141313"/>
<path d="M53.0291 150.215L25.4997 150.234C24.7037 150.235 24.0586 150.881 24.0595 151.677L24.0608 153.36C24.0611 154.156 24.7071 154.801 25.503 154.8L53.0319 154.781C53.8284 154.78 54.4729 154.134 54.4726 153.338L54.4713 151.655C54.4709 150.859 53.825 150.214 53.0291 150.215Z" fill="#141313"/>
<path d="M116.446 150.17L88.9162 150.19C88.1202 150.19 87.4751 150.836 87.476 151.632L87.4773 153.315C87.4776 154.112 88.1236 154.756 88.9195 154.756L116.449 154.736C117.245 154.735 117.89 154.089 117.889 153.293L117.888 151.611C117.887 150.815 117.242 150.169 116.446 150.17Z" fill="#1E1C1C"/>
<path d="M56.6056 139.528L50.7637 139.532C49.9678 139.532 49.3227 140.178 49.3235 140.974L49.3249 142.657C49.3252 143.453 49.9712 144.098 50.7671 144.097L56.6085 144.093C57.4049 144.093 58.0495 143.447 58.0492 142.651L58.0478 140.968C58.0475 140.172 57.4015 139.527 56.6056 139.528Z" fill="#141313"/>
<path d="M104.166 139.492L98.3248 139.496C97.5283 139.497 96.8837 140.143 96.8841 140.939L96.8854 142.622C96.8857 143.418 97.5317 144.063 98.3276 144.062L104.169 144.058C104.965 144.057 105.611 143.412 105.61 142.616L105.608 140.933C105.608 140.137 104.962 139.492 104.166 139.492Z" fill="#141313"/>
<path d="M117.642 139.485L111.8 139.489C111.004 139.489 110.36 140.135 110.36 140.931L110.362 142.614C110.362 143.41 111.008 144.055 111.804 144.054L117.646 144.05C118.442 144.05 119.086 143.404 119.086 142.608L119.084 140.925C119.084 140.129 118.438 139.484 117.642 139.485Z" fill="#141313"/>
<path d="M91.2297 139.885L63.7008 139.905C62.9044 139.905 62.2598 140.551 62.2601 141.347L62.2615 143.03C62.2618 143.826 62.9077 144.471 63.7037 144.471L91.2331 144.451C92.029 144.45 92.6741 143.805 92.6733 143.008L92.6724 141.325C92.6716 140.529 92.0257 139.885 91.2297 139.885Z" fill="#141313"/>
<path d="M154.644 139.838L127.115 139.858C126.319 139.859 125.674 140.504 125.675 141.301L125.676 142.984C125.677 143.779 126.322 144.424 127.119 144.424L154.648 144.404C155.444 144.404 156.089 143.758 156.088 142.962L156.087 141.279C156.086 140.482 155.441 139.838 154.644 139.838Z" fill="#1E1C1C"/>
<path d="M41.101 143.714C42.2964 144.058 43.5445 143.369 43.8892 142.174C44.2344 140.979 43.5449 139.73 42.3496 139.385C41.1548 139.041 39.9062 139.73 39.5615 140.925C39.2168 142.12 39.9057 143.368 41.101 143.714Z" fill="#141313"/>
<path d="M41.0937 134.203C42.289 134.548 43.5376 133.859 43.8823 132.664C44.227 131.469 43.5375 130.22 42.3427 129.876C41.1474 129.531 39.8993 130.22 39.5541 131.415C39.2094 132.61 39.8989 133.859 41.0937 134.203Z" fill="#141313"/>
<path d="M80.0766 254.874C78.3861 254.876 76.7332 254.375 75.3265 253.437C73.9202 252.499 72.8239 251.165 72.176 249.603C71.5275 248.042 71.3571 246.323 71.6857 244.665C72.0147 243.007 72.8277 241.483 74.0219 240.287C75.2166 239.091 76.739 238.275 78.3972 237.945C80.055 237.613 81.7738 237.781 83.3358 238.427C84.8982 239.073 86.2339 240.168 87.1742 241.573C88.1145 242.978 88.617 244.63 88.6182 246.32C88.62 248.588 87.7209 250.762 86.119 252.366C84.517 253.97 82.3437 254.873 80.0766 254.874Z" fill="#141313"/>
<path d="M105.084 254.857C103.394 254.858 101.741 254.358 100.335 253.42C98.928 252.481 97.8317 251.147 97.1838 249.585C96.5353 248.024 96.3649 246.305 96.6935 244.647C97.0225 242.989 97.8355 241.465 99.0297 240.269C100.224 239.073 101.747 238.258 103.405 237.927C105.063 237.596 106.782 237.764 108.344 238.41C109.906 239.055 111.242 240.15 112.182 241.555C113.122 242.96 113.625 244.612 113.626 246.303C113.628 248.57 112.729 250.745 111.127 252.349C109.525 253.953 107.352 254.855 105.084 254.857Z" fill="#141313"/>
<path d="M130.093 254.839C128.402 254.84 126.749 254.34 125.343 253.402C123.936 252.464 122.84 251.13 122.192 249.568C121.544 248.007 121.373 246.288 121.702 244.63C122.03 242.972 122.843 241.448 124.038 240.252C125.233 239.055 126.755 238.24 128.413 237.909C130.071 237.578 131.789 237.746 133.352 238.392C134.914 239.038 136.25 240.133 137.19 241.538C138.131 242.942 138.633 244.595 138.634 246.285C138.636 248.553 137.737 250.727 136.135 252.331C134.533 253.935 132.359 254.838 130.093 254.839Z" fill="#141313"/>
</svg>
