<svg width="341" height="203" viewBox="0 0 341 203" fill="none" xmlns="http://www.w3.org/2000/svg">
<path d="M161.509 13.9358H87.1929C86.4257 13.9346 85.6904 13.6291 85.1483 13.0862C84.6062 12.5433 84.3018 11.8075 84.3018 11.0403C84.3018 10.2731 84.6062 9.53731 85.1483 8.99443C85.6904 8.45155 86.4257 8.146 87.1929 8.14488H161.509C165.243 8.09274 165.281 13.9883 161.509 13.9358Z" fill="#141313"/>
<path d="M261.622 29.0822H87.1929C86.4257 29.0811 85.6904 28.7756 85.1483 28.2327C84.6062 27.6898 84.3018 26.954 84.3018 26.1868C84.3018 25.4196 84.6062 24.6838 85.1483 24.1409C85.6904 23.598 86.4257 23.2925 87.1929 23.2914H261.622C265.356 23.2392 265.393 29.1348 261.622 29.0822Z" fill="#141313"/>
<path fill-rule="evenodd" clip-rule="evenodd" d="M341 18.6125C341 28.892 332.667 37.2251 322.388 37.2251C312.108 37.2251 303.775 28.892 303.775 18.6125C303.775 8.33312 312.108 0 322.388 0C332.667 0 341 8.33312 341 18.6125ZM318.922 28.0814C319.21 28.2252 319.527 28.3 319.848 28.3C319.867 28.3 319.887 28.2997 319.906 28.2993C320.237 28.2901 320.561 28.2016 320.85 28.0413C321.14 27.8809 321.387 27.6535 321.571 27.378L331.727 12.1447C331.877 11.9184 331.982 11.6647 332.035 11.398C332.088 11.1313 332.087 10.8568 332.034 10.5902C331.981 10.3236 331.875 10.0701 331.724 9.84414C331.573 9.61823 331.379 9.42433 331.152 9.27351C330.926 9.12269 330.672 9.01791 330.406 8.96515C330.139 8.91238 329.865 8.91266 329.598 8.96599C329.331 9.01931 329.078 9.12463 328.852 9.27592C328.626 9.42721 328.432 9.62151 328.281 9.84774L319.749 22.646L316.427 18.2169C316.264 17.9992 316.059 17.8157 315.825 17.6769C315.591 17.5382 315.332 17.4469 315.063 17.4084C314.794 17.3698 314.52 17.3846 314.256 17.4521C313.993 17.5195 313.745 17.6382 313.527 17.8014C313.31 17.9646 313.126 18.1691 312.988 18.4032C312.849 18.6373 312.758 18.8964 312.72 19.1657C312.682 19.435 312.697 19.7092 312.764 19.9727C312.832 20.2362 312.951 20.4837 313.114 20.7012L318.192 27.4717C318.385 27.7289 318.635 27.9376 318.922 28.0814Z" fill="#1E1C1C"/>
<path d="M49.9158 1.16016H2.77777C2.04131 1.16099 1.33527 1.45392 0.814513 1.97468C0.293757 2.49544 0.000831001 3.20149 0 3.93795V33.2859C0.000837612 34.0223 0.293759 34.7284 0.814513 35.2491C1.33527 35.7699 2.04131 36.0628 2.77777 36.0637H49.9158C50.6523 36.0628 51.3584 35.7699 51.8791 35.2492C52.3999 34.7284 52.6928 34.0223 52.6936 33.2859V3.93795C52.6928 3.20148 52.3999 2.49541 51.8791 1.97465C51.3584 1.45389 50.6523 1.16097 49.9158 1.16016V1.16016ZM50.8274 22.2412C50.8161 25.2289 49.6343 28.0933 47.5355 30.2198C45.4366 32.3462 42.5879 33.5654 39.6005 33.6157C34.8175 33.6779 42.2469 33.7022 36.4782 33.7022C23.2872 33.7022 9.53259 33.5762 4.40059 33.4944C3.72538 33.4805 3.08236 33.2032 2.60883 32.7216C2.1353 32.2401 1.86877 31.5925 1.86616 30.9172V3.94013C1.86643 3.69829 1.96246 3.46639 2.13326 3.29517C2.30406 3.12395 2.53572 3.02733 2.77756 3.02647H49.9139C50.1557 3.02675 50.3876 3.12278 50.5587 3.29353C50.7299 3.46429 50.8265 3.69589 50.8274 3.93768V22.2412Z" fill="#141313"/>
<path d="M43.6976 19.892H7.78338C7.46561 19.8915 7.15573 19.793 6.89604 19.6099C6.63634 19.4268 6.43951 19.1679 6.33238 18.8688L0.785699 3.30716C0.702915 3.07489 0.677096 2.82614 0.710421 2.58182C0.743745 2.33749 0.835233 2.10474 0.977198 1.90313C1.11916 1.70151 1.30746 1.53692 1.52625 1.42319C1.74504 1.30945 1.98792 1.24991 2.23451 1.24955L50.4014 1.16406H50.4035C50.6584 1.16408 50.9094 1.22735 51.1338 1.3482C51.3582 1.46906 51.5492 1.64372 51.6895 1.85652C51.8298 2.06933 51.9151 2.31363 51.9378 2.56752C51.9605 2.82141 51.9198 3.07696 51.8194 3.31126L51.7354 3.27531L51.8194 3.31126L45.1135 18.9584C44.9949 19.2356 44.7975 19.4719 44.5458 19.6379C44.2941 19.8039 43.9991 19.8922 43.6976 19.892Z" fill="#141313"/>
<path d="M26.32 23.7298C28.4394 23.7298 30.1575 22.0117 30.1575 19.8922C30.1575 17.7728 28.4394 16.0547 26.32 16.0547C24.2005 16.0547 22.4824 17.7728 22.4824 19.8922C22.4824 22.0117 24.2005 23.7298 26.32 23.7298Z" fill="#1E1C1C"/>
<path d="M161.509 96.5041H87.1929C86.4257 96.503 85.6904 96.1974 85.1483 95.6546C84.6062 95.1117 84.3018 94.3759 84.3018 93.6087C84.3018 92.8415 84.6062 92.1057 85.1483 91.5628C85.6904 91.0199 86.4257 90.7144 87.1929 90.7132H161.509C165.243 90.6611 165.281 96.5567 161.509 96.5041Z" fill="#141313"/>
<path d="M261.622 111.651H87.1928C86.4249 111.651 85.6884 111.346 85.1454 110.803C84.6024 110.26 84.2974 109.523 84.2974 108.755C84.2974 107.987 84.6024 107.251 85.1454 106.708C85.6884 106.165 86.4249 105.86 87.1928 105.86H261.622C265.356 105.808 265.393 111.703 261.622 111.651Z" fill="#141313"/>
<path fill-rule="evenodd" clip-rule="evenodd" d="M341 101.181C341 111.46 332.667 119.793 322.388 119.793C312.108 119.793 303.775 111.46 303.775 101.181C303.775 90.9015 312.108 82.5684 322.388 82.5684C332.667 82.5684 341 90.9015 341 101.181ZM318.922 110.65C319.21 110.794 319.527 110.868 319.848 110.868C319.867 110.868 319.887 110.868 319.906 110.868C320.237 110.858 320.561 110.77 320.85 110.61C321.14 110.449 321.387 110.222 321.571 109.946L331.727 94.7131C331.878 94.4868 331.983 94.233 332.036 93.9661C332.089 93.6993 332.089 93.4246 332.036 93.1577C331.982 92.8909 331.877 92.6372 331.726 92.411C331.574 92.1849 331.38 91.9908 331.154 91.8399C330.927 91.689 330.673 91.5842 330.406 91.5314C330.139 91.4787 329.865 91.4791 329.598 91.5326C329.331 91.5861 329.078 91.6917 328.852 91.8433C328.626 91.9949 328.432 92.1896 328.281 92.4161L319.749 105.214L316.427 100.785C316.264 100.568 316.059 100.384 315.825 100.245C315.591 100.107 315.332 100.015 315.063 99.9767C314.794 99.9382 314.52 99.953 314.256 100.02C313.993 100.088 313.745 100.207 313.527 100.37C313.31 100.533 313.126 100.738 312.988 100.972C312.849 101.206 312.758 101.465 312.72 101.734C312.682 102.003 312.697 102.278 312.764 102.541C312.832 102.805 312.951 103.052 313.114 103.27L318.192 110.04C318.385 110.297 318.635 110.506 318.922 110.65Z" fill="#1E1C1C"/>
<path d="M49.9158 83.7305H2.77777C2.04131 83.7313 1.33527 84.0242 0.814513 84.545C0.293758 85.0658 0.00083596 85.7718 0 86.5083V115.856C0.000842568 116.593 0.29376 117.299 0.814513 117.819C1.33527 118.34 2.04131 118.633 2.77777 118.634H49.9158C50.6523 118.633 51.3583 118.34 51.8791 117.82C52.3999 117.299 52.6928 116.593 52.6936 115.856V86.5083C52.6928 85.7718 52.3999 85.0657 51.8791 84.545C51.3584 84.0242 50.6523 83.7313 49.9158 83.7305V83.7305ZM50.8274 104.812C50.8161 107.799 49.6343 110.664 47.5355 112.79C45.4366 114.917 42.5879 116.136 39.6005 116.186C34.8175 116.248 42.2469 116.273 36.4782 116.273C23.2872 116.273 9.53259 116.146 4.40059 116.065C3.72538 116.051 3.08237 115.774 2.60883 115.292C2.1353 114.81 1.86877 114.163 1.86616 113.488V86.5105C1.86642 86.2686 1.96246 86.0367 2.13326 85.8655C2.30406 85.6943 2.53571 85.5977 2.77756 85.5968H49.9139C50.1557 85.5971 50.3876 85.6931 50.5587 85.8639C50.7299 86.0346 50.8265 86.2662 50.8274 86.508V104.812Z" fill="#141313"/>
<path d="M43.6977 102.46H7.78342C7.46565 102.46 7.15577 102.361 6.89607 102.178C6.63638 101.995 6.43954 101.736 6.33242 101.437L0.785699 85.8755C0.702914 85.6432 0.677097 85.3945 0.710421 85.1502C0.743745 84.9059 0.835233 84.6731 0.977198 84.4715C1.11916 84.2699 1.30746 84.1053 1.52625 83.9915C1.74504 83.8778 1.98794 83.8182 2.23453 83.8179L50.4014 83.7324H50.4036C50.6585 83.7324 50.9094 83.7957 51.1338 83.9166C51.3582 84.0374 51.5492 84.2121 51.6895 84.4249C51.8298 84.6377 51.9151 84.882 51.9378 85.1359C51.9605 85.3898 51.9198 85.6453 51.8194 85.8796L51.7354 85.8437L51.8194 85.8796L45.1135 101.527C44.995 101.804 44.7976 102.04 44.5459 102.206C44.2941 102.372 43.9992 102.461 43.6977 102.46Z" fill="#141313"/>
<path d="M26.32 106.296C28.4394 106.296 30.1575 104.578 30.1575 102.459C30.1575 100.339 28.4394 98.6211 26.32 98.6211C24.2005 98.6211 22.4824 100.339 22.4824 102.459C22.4824 104.578 24.2005 106.296 26.32 106.296Z" fill="#1E1C1C"/>
<path d="M161.509 179.072H87.1929C86.4257 179.071 85.6904 178.766 85.1483 178.223C84.6062 177.68 84.3018 176.944 84.3018 176.177C84.3018 175.41 84.6062 174.674 85.1483 174.131C85.6904 173.588 86.4257 173.283 87.1929 173.282H161.509C165.243 173.229 165.281 179.125 161.509 179.072Z" fill="#141313"/>
<path d="M261.622 194.219H87.1928C86.4249 194.219 85.6884 193.914 85.1454 193.371C84.6024 192.828 84.2974 192.091 84.2974 191.324C84.2974 190.556 84.6024 189.819 85.1454 189.276C85.6884 188.733 86.4249 188.428 87.1928 188.428H261.622C265.356 188.376 265.393 194.272 261.622 194.219Z" fill="#141313"/>
<path fill-rule="evenodd" clip-rule="evenodd" d="M341 183.751C341 194.031 332.667 202.364 322.388 202.364C312.108 202.364 303.775 194.031 303.775 183.751C303.775 173.472 312.108 165.139 322.388 165.139C332.667 165.139 341 173.472 341 183.751ZM318.922 193.22C319.21 193.364 319.527 193.439 319.848 193.439C319.867 193.439 319.887 193.438 319.906 193.438C320.237 193.429 320.561 193.34 320.85 193.18C321.14 193.02 321.387 192.792 321.571 192.517L331.727 177.283C331.878 177.057 331.983 176.803 332.036 176.536C332.089 176.27 332.089 175.995 332.036 175.728C331.982 175.461 331.877 175.207 331.726 174.981C331.574 174.755 331.38 174.561 331.154 174.41C330.927 174.259 330.673 174.154 330.406 174.102C330.139 174.049 329.865 174.049 329.598 174.103C329.331 174.156 329.078 174.262 328.852 174.414C328.626 174.565 328.432 174.76 328.281 174.986L319.749 187.785L316.427 183.356C316.264 183.138 316.059 182.955 315.825 182.816C315.591 182.678 315.333 182.587 315.063 182.548C314.794 182.51 314.52 182.525 314.257 182.592C313.993 182.66 313.746 182.778 313.528 182.941C313.311 183.105 313.128 183.309 312.989 183.543C312.851 183.777 312.759 184.036 312.721 184.305C312.683 184.574 312.697 184.848 312.765 185.111C312.832 185.375 312.951 185.622 313.114 185.84L318.192 192.61C318.385 192.868 318.635 193.076 318.922 193.22Z" fill="#1E1C1C"/>
<path d="M49.9158 166.297H2.77777C2.04131 166.298 1.33527 166.591 0.814513 167.111C0.293757 167.632 0.000831004 168.338 0 169.075V198.423C0.000831001 199.159 0.293757 199.865 0.814513 200.386C1.33527 200.907 2.04131 201.2 2.77777 201.2H49.9158C50.6523 201.2 51.3584 200.907 51.8791 200.386C52.3999 199.865 52.6928 199.159 52.6936 198.423V169.075C52.6928 168.338 52.3999 167.632 51.8791 167.111C51.3584 166.591 50.6523 166.298 49.9158 166.297V166.297ZM50.8274 187.378C50.8161 190.366 49.6343 193.23 47.5355 195.356C45.4366 197.483 42.5879 198.702 39.6005 198.752C34.8175 198.815 42.2469 198.839 36.4782 198.839C23.2872 198.839 9.53259 198.713 4.40059 198.631C3.72537 198.617 3.08237 198.34 2.60883 197.858C2.1353 197.377 1.86876 196.729 1.86616 196.054V169.077C1.86643 168.835 1.96246 168.603 2.13326 168.432C2.30406 168.261 2.53572 168.164 2.77756 168.163H49.9139C50.1557 168.163 50.3876 168.26 50.5587 168.43C50.7299 168.601 50.8265 168.833 50.8274 169.074V187.378Z" fill="#141313"/>
<path d="M43.6977 185.031H7.78341C7.46564 185.03 7.15575 184.932 6.89606 184.749C6.63636 184.565 6.43952 184.307 6.3324 184.007L0.785684 168.446C0.7029 168.214 0.6771 167.965 0.710424 167.72C0.743749 167.476 0.835237 167.243 0.977202 167.042C1.11917 166.84 1.30744 166.676 1.52624 166.562C1.74503 166.448 1.98793 166.389 2.23451 166.388L50.4014 166.303H50.4036C50.6585 166.303 50.9093 166.366 51.1338 166.487C51.3582 166.608 51.5492 166.782 51.6895 166.995C51.8298 167.208 51.9151 167.452 51.9378 167.706C51.9605 167.96 51.9198 168.216 51.8194 168.45L51.7354 168.414L51.8194 168.45L45.1135 184.097C44.995 184.374 44.7976 184.611 44.5458 184.777C44.2941 184.943 43.9992 185.031 43.6977 185.031V185.031Z" fill="#141313"/>
<path d="M26.32 188.867C28.4394 188.867 30.1575 187.148 30.1575 185.029C30.1575 182.91 28.4394 181.191 26.32 181.191C24.2005 181.191 22.4824 182.91 22.4824 185.029C22.4824 187.148 24.2005 188.867 26.32 188.867Z" fill="#1E1C1C"/>
</svg>
