<svg width="370" height="320" viewBox="0 0 370 320" fill="none" xmlns="http://www.w3.org/2000/svg">
<path d="M9.09336 159.916L97.0762 7.52539H273.042L361.025 159.916L273.042 312.307H97.0762L9.09336 159.916Z" stroke="#1E1C1C" stroke-width="15"/>
<path d="M127.701 26.5938H125.701V109.149H127.701V26.5938Z" fill="#1E1C1C"/>
<path d="M126.701 119.588C129.846 119.588 132.395 117.039 132.395 113.895C132.395 110.75 129.846 108.201 126.701 108.201C123.557 108.201 121.008 110.75 121.008 113.895C121.008 117.039 123.557 119.588 126.701 119.588Z" fill="#141313"/>
<path d="M170.402 26.5938H168.402V109.149H170.402V26.5938Z" fill="#1E1C1C"/>
<path d="M169.402 119.588C172.546 119.588 175.095 117.039 175.095 113.895C175.095 110.75 172.546 108.201 169.402 108.201C166.258 108.201 163.708 110.75 163.708 113.895C163.708 117.039 166.258 119.588 169.402 119.588Z" fill="#1E1C1C"/>
<path d="M245.366 26.5938H243.366V109.149H245.366V26.5938Z" fill="#1E1C1C"/>
<path d="M244.366 119.588C247.51 119.588 250.059 117.039 250.059 113.895C250.059 110.75 247.51 108.201 244.366 108.201C241.221 108.201 238.672 110.75 238.672 113.895C238.672 117.039 241.221 119.588 244.366 119.588Z" fill="#1E1C1C"/>
<path d="M213.052 201.194C216.196 201.194 218.745 198.644 218.745 195.5C218.745 192.356 216.196 189.807 213.052 189.807C209.907 189.807 207.358 192.356 207.358 195.5C207.358 198.644 209.907 201.194 213.052 201.194Z" fill="#1E1C1C"/>
<path d="M97.2852 149.004C100.43 149.004 102.979 146.455 102.979 143.311C102.979 140.166 100.43 137.617 97.2852 137.617C94.1408 137.617 91.5918 140.166 91.5918 143.311C91.5918 146.455 94.1408 149.004 97.2852 149.004Z" fill="#1E1C1C"/>
<path d="M214.052 190.754H212.052V91.2754H169.402V89.2754H214.052V190.754Z" fill="#1E1C1C"/>
<path d="M139.986 237.252C143.13 237.252 145.679 234.703 145.679 231.559C145.679 228.414 143.13 225.865 139.986 225.865C136.842 225.865 134.292 228.414 134.292 231.559C134.292 234.703 136.842 237.252 139.986 237.252Z" fill="#141313"/>
<path d="M140.986 226.814H138.986V127.334H96.3359V125.334H140.986V226.814Z" fill="#1E1C1C"/>
<path d="M271.884 192.652C275.028 192.652 277.577 190.103 277.577 186.959C277.577 183.815 275.028 181.266 271.884 181.266C268.739 181.266 266.19 183.815 266.19 186.959C266.19 190.103 268.739 192.652 271.884 192.652Z" fill="#141313"/>
<path d="M272.884 182.215H270.884V82.7363H243.417V80.7363H272.884V182.215Z" fill="#1E1C1C"/>
<path d="M98.2852 137.615H96.2852V88.1543H126.701V90.1543H98.2852V137.615Z" fill="#1E1C1C"/>
<path d="M169.877 259.551C173.021 259.551 175.57 257.002 175.57 253.858C175.57 250.713 173.021 248.164 169.877 248.164C166.732 248.164 164.183 250.713 164.183 253.858C164.183 257.002 166.732 259.551 169.877 259.551Z" fill="#1E1C1C"/>
<path d="M170.876 248.164H168.876V200.703H140.46V198.703H170.876V248.164Z" fill="#1E1C1C"/>
<path d="M242.468 217.324C245.612 217.324 248.161 214.775 248.161 211.631C248.161 208.487 245.612 205.938 242.468 205.938C239.323 205.938 236.774 208.487 236.774 211.631C236.774 214.775 239.323 217.324 242.468 217.324Z" fill="#1E1C1C"/>
<path d="M243.468 205.938H241.468V156.477H271.884V158.477H243.468V205.938Z" fill="#1E1C1C"/>
</svg>
