<svg width="419" height="271" viewBox="0 0 419 271" fill="none" xmlns="http://www.w3.org/2000/svg">
<path d="M151.916 219.614C209.52 219.614 256.218 172.916 256.218 115.312C256.218 57.7074 209.52 11.0098 151.916 11.0098C94.3114 11.0098 47.6138 57.7074 47.6138 115.312C47.6138 172.916 94.3114 219.614 151.916 219.614Z" fill="#141313"/>
<path d="M272.881 216.528C283.789 216.528 292.631 207.686 292.631 196.779C292.631 185.871 283.789 177.029 272.881 177.029C261.974 177.029 253.132 185.871 253.132 196.779C253.132 207.686 261.974 216.528 272.881 216.528Z" fill="#141313"/>
<path d="M235.295 249.858C185.444 249.86 142.07 212.672 135.662 161.949L136.887 161.795C143.215 211.891 186.061 248.621 235.296 248.624C239.479 248.623 243.658 248.36 247.808 247.834C302.111 240.974 340.708 191.215 333.848 136.913L335.073 136.758C342.018 191.735 302.941 242.114 247.963 249.059C243.762 249.59 239.531 249.857 235.295 249.858Z" fill="#1E1C1C"/>
<path d="M237.972 270.502H218.344C217.925 270.503 217.51 270.409 217.133 270.227C216.755 270.045 216.423 269.779 216.162 269.451C215.905 269.131 215.723 268.757 215.631 268.356C215.539 267.956 215.538 267.54 215.63 267.139C217.493 258.919 217.383 250.375 215.309 242.205C215.168 241.641 215.208 241.046 215.424 240.506C215.64 239.966 216.021 239.508 216.513 239.197C223.304 234.991 230.698 235.122 239.119 239.599C239.502 239.801 239.833 240.088 240.086 240.439C240.34 240.789 240.509 241.194 240.581 241.621C241.975 250.392 242.024 259.326 240.725 268.112C240.633 268.776 240.303 269.384 239.797 269.823C239.291 270.263 238.643 270.504 237.972 270.502V270.502Z" fill="#1E1C1C"/>
<path d="M148.482 165.582H128.854C128.434 165.583 128.02 165.489 127.642 165.307C127.265 165.125 126.933 164.86 126.672 164.531C126.415 164.211 126.233 163.837 126.141 163.437C126.049 163.036 126.048 162.62 126.14 162.22C128.009 153.971 127.892 145.396 125.797 137.202C125.665 136.662 125.697 136.096 125.889 135.574C126.081 135.053 126.426 134.602 126.877 134.278C136.97 127.019 144.918 127.229 150.502 134.905C150.753 135.255 150.921 135.658 150.99 136.083C152.482 145.052 152.565 154.199 151.235 163.193C151.143 163.857 150.813 164.464 150.307 164.904C149.8 165.343 149.152 165.584 148.482 165.582V165.582Z" fill="#1E1C1C"/>
<path d="M228.801 252.079H222.048C221.676 252.079 221.318 251.93 221.055 251.666C220.791 251.402 220.644 251.044 220.644 250.671C220.644 250.299 220.791 249.941 221.055 249.677C221.318 249.413 221.676 249.264 222.048 249.264H228.801C229.174 249.264 229.532 249.412 229.796 249.676C230.06 249.94 230.208 250.298 230.208 250.671C230.208 251.045 230.06 251.403 229.796 251.667C229.532 251.931 229.174 252.079 228.801 252.079Z" fill="#141313"/>
<path d="M237.057 257.642H222.048C221.676 257.641 221.318 257.492 221.055 257.228C220.791 256.965 220.644 256.607 220.644 256.234C220.644 255.861 220.791 255.503 221.055 255.24C221.318 254.976 221.676 254.827 222.048 254.826H237.057C237.429 254.827 237.787 254.976 238.05 255.24C238.314 255.503 238.461 255.861 238.461 256.234C238.461 256.607 238.314 256.965 238.05 257.228C237.787 257.492 237.429 257.641 237.057 257.642Z" fill="#141313"/>
<path d="M142.397 145.925H135.645C135.272 145.924 134.914 145.776 134.651 145.512C134.388 145.248 134.24 144.89 134.24 144.517C134.24 144.144 134.388 143.787 134.651 143.523C134.914 143.259 135.272 143.11 135.645 143.109H142.397C142.77 143.11 143.127 143.259 143.39 143.523C143.654 143.787 143.802 144.144 143.802 144.517C143.802 144.89 143.654 145.248 143.39 145.512C143.127 145.776 142.77 145.924 142.397 145.925V145.925Z" fill="#141313"/>
<path d="M142.397 150.863H135.645C135.272 150.862 134.914 150.713 134.651 150.449C134.388 150.185 134.24 149.828 134.24 149.455C134.24 149.082 134.388 148.724 134.651 148.46C134.914 148.196 135.272 148.048 135.645 148.047H142.397C142.77 148.048 143.127 148.196 143.39 148.46C143.654 148.724 143.802 149.082 143.802 149.455C143.802 149.828 143.654 150.185 143.39 150.449C143.127 150.713 142.77 150.862 142.397 150.863V150.863Z" fill="#141313"/>
<path d="M142.397 155.8H135.645C135.272 155.799 134.914 155.651 134.651 155.387C134.388 155.123 134.24 154.765 134.24 154.392C134.24 154.019 134.388 153.662 134.651 153.398C134.914 153.134 135.272 152.985 135.645 152.984H142.397C142.77 152.985 143.127 153.134 143.39 153.398C143.654 153.662 143.802 154.019 143.802 154.392C143.802 154.765 143.654 155.123 143.39 155.387C143.127 155.651 142.77 155.799 142.397 155.8V155.8Z" fill="#141313"/>
<path d="M412.657 188.771H349.912C348.231 188.769 346.619 188.101 345.43 186.912C344.241 185.723 343.572 184.11 343.57 182.429V143.784C343.572 142.102 344.241 140.49 345.43 139.301C346.619 138.112 348.231 137.443 349.912 137.441H412.657C414.339 137.443 415.951 138.112 417.14 139.301C418.329 140.49 418.998 142.102 419 143.784V182.429C418.998 184.11 418.329 185.723 417.14 186.912C415.951 188.101 414.339 188.769 412.657 188.771V188.771Z" fill="#1E1C1C"/>
<path d="M387.728 183.795H354.323C352.748 183.793 351.238 183.166 350.125 182.053C349.011 180.939 348.385 179.429 348.383 177.855V148.36C348.385 146.785 349.011 145.275 350.125 144.162C351.238 143.048 352.748 142.422 354.323 142.42H408.247C409.822 142.422 411.332 143.048 412.445 144.162C413.559 145.275 414.185 146.785 414.187 148.36V157.336C414.179 164.351 411.389 171.076 406.428 176.036C401.468 180.997 394.743 183.787 387.728 183.795V183.795Z" fill="#141313"/>
<path d="M402.868 158.569H359.702C359.329 158.569 358.971 158.421 358.707 158.157C358.443 157.893 358.294 157.535 358.294 157.162C358.294 156.788 358.443 156.43 358.707 156.166C358.971 155.902 359.329 155.754 359.702 155.754H402.868C403.241 155.754 403.599 155.902 403.863 156.166C404.127 156.43 404.275 156.788 404.275 157.162C404.275 157.535 404.127 157.893 403.863 158.157C403.599 158.421 403.241 158.569 402.868 158.569V158.569Z" fill="#1E1C1C"/>
<path d="M366.454 164.132H359.702C359.329 164.131 358.972 163.983 358.709 163.719C358.445 163.455 358.297 163.097 358.297 162.724C358.297 162.351 358.445 161.994 358.709 161.73C358.972 161.466 359.329 161.317 359.702 161.316H366.454C366.827 161.317 367.185 161.466 367.448 161.73C367.711 161.994 367.859 162.351 367.859 162.724C367.859 163.097 367.711 163.455 367.448 163.719C367.185 163.983 366.827 164.131 366.454 164.132V164.132Z" fill="#1E1C1C"/>
<path d="M378.413 169.697H359.702C359.329 169.697 358.971 169.548 358.707 169.284C358.443 169.02 358.294 168.662 358.294 168.289C358.294 167.915 358.443 167.557 358.707 167.293C358.971 167.029 359.329 166.881 359.702 166.881H378.413C378.787 166.881 379.145 167.029 379.409 167.293C379.673 167.557 379.821 167.915 379.821 168.289C379.821 168.662 379.673 169.02 379.409 169.284C379.145 169.548 378.787 169.697 378.413 169.697V169.697Z" fill="#1E1C1C"/>
<path d="M341.38 149.944C348.711 149.944 354.653 144.002 354.653 136.671C354.653 129.341 348.711 123.398 341.38 123.398C334.05 123.398 328.107 129.341 328.107 136.671C328.107 144.002 334.05 149.944 341.38 149.944Z" fill="#1E1C1C"/>
<path d="M191.13 35.7032C192.009 31.2433 193.757 27.0001 196.276 23.2159C198.794 19.4317 202.033 16.1806 205.808 13.6483C213.432 8.53397 222.775 6.65772 231.783 8.43226C236.243 9.31093 240.486 11.0594 244.27 13.578C248.054 16.0965 251.305 19.3357 253.838 23.1107C256.37 26.8856 258.134 31.1224 259.029 35.5791C259.924 40.0358 259.932 44.6251 259.054 49.0851L257.842 48.8465C259.554 40.1606 257.744 31.1506 252.812 23.7986C247.881 16.4466 240.23 11.355 231.544 9.64369C222.858 7.93242 213.848 9.74171 206.496 14.6736C199.144 19.6054 194.053 27.2558 192.341 35.9418L191.13 35.7032Z" fill="#1E1C1C"/>
<path d="M204.274 57.5408L184.663 58.3531C184.244 58.3713 183.826 58.2945 183.441 58.1283C183.056 57.9621 182.714 57.7109 182.44 57.3935C182.169 57.0843 181.972 56.7178 181.863 56.3216C181.755 55.9254 181.737 55.5098 181.812 55.1058C183.317 46.8994 182.878 38.4544 180.531 30.4481C180.35 29.8358 180.387 29.1796 180.635 28.5913C180.884 28.0031 181.329 27.5193 181.894 27.2223C189.927 23.0489 197.454 22.8373 204.264 26.5926C204.621 26.7865 204.931 27.0559 205.173 27.3821C205.415 27.7083 205.584 28.0833 205.666 28.4811C207.438 37.2178 207.863 46.1743 206.926 55.0395C206.861 55.7066 206.557 56.3275 206.069 56.7874C205.582 57.2473 204.944 57.515 204.274 57.5408Z" fill="#1E1C1C"/>
<path d="M203.444 44.7051L188.449 45.3262C188.264 45.334 188.08 45.3053 187.906 45.2418C187.732 45.1782 187.573 45.0811 187.437 44.9558C187.301 44.8306 187.19 44.6798 187.113 44.512C187.035 44.3442 186.991 44.1627 186.983 43.9778C186.975 43.793 187.004 43.6085 187.068 43.4348C187.132 43.2612 187.229 43.1017 187.354 42.9657C187.48 42.8296 187.631 42.7196 187.798 42.6419C187.966 42.5643 188.148 42.5204 188.333 42.5129L203.328 41.8918C203.513 41.8842 203.697 41.913 203.871 41.9766C204.044 42.0402 204.204 42.1374 204.34 42.2626C204.476 42.3878 204.586 42.5386 204.663 42.7063C204.741 42.8741 204.785 43.0555 204.793 43.2402C204.801 43.4249 204.772 43.6093 204.708 43.7829C204.644 43.9565 204.547 44.1159 204.422 44.2519C204.297 44.3879 204.146 44.498 203.978 44.5757C203.811 44.6535 203.629 44.6974 203.444 44.7051V44.7051Z" fill="#141313"/>
<path d="M203.24 39.7734L188.244 40.3945C187.871 40.41 187.507 40.2766 187.233 40.0237C186.958 39.7709 186.795 39.4192 186.78 39.0462C186.764 38.6731 186.897 38.3092 187.15 38.0345C187.403 37.7597 187.755 37.5967 188.128 37.5813L203.123 36.9602C203.496 36.9447 203.86 37.0781 204.135 37.331C204.41 37.5839 204.573 37.9355 204.588 38.3086C204.603 38.6816 204.47 39.0455 204.217 39.3203C203.964 39.595 203.613 39.758 203.24 39.7734V39.7734Z" fill="#141313"/>
<path d="M332.62 51.33H269.875C268.193 51.3281 266.581 50.6592 265.392 49.4702C264.203 48.2812 263.534 46.669 263.532 44.9875V6.34254C263.534 4.66098 264.203 3.04884 265.392 1.85979C266.581 0.670749 268.193 0.0019063 269.875 0H332.62C334.301 0.00189976 335.913 0.670739 337.102 1.85978C338.291 3.04883 338.96 4.66098 338.962 6.34254V44.9875C338.96 46.669 338.291 48.2812 337.102 49.4702C335.913 50.6593 334.301 51.3281 332.62 51.33V51.33Z" fill="#1E1C1C"/>
<path d="M307.69 46.3512H274.285C272.711 46.3494 271.201 45.7231 270.087 44.6095C268.973 43.4959 268.347 41.9861 268.345 40.4112V10.9165C268.347 9.34167 268.973 7.83182 270.087 6.71824C271.201 5.60467 272.711 4.9783 274.285 4.97656H328.209C329.784 4.97831 331.294 5.60469 332.408 6.71827C333.521 7.83186 334.148 9.3417 334.149 10.9165V19.8924C334.141 26.9073 331.351 33.6326 326.391 38.5929C321.431 43.5532 314.705 46.3433 307.69 46.3512V46.3512Z" fill="#141313"/>
<path d="M322.83 21.128H279.665C279.291 21.128 278.933 20.9797 278.669 20.7157C278.405 20.4517 278.257 20.0936 278.257 19.7203C278.257 19.3469 278.405 18.9888 278.669 18.7248C278.933 18.4608 279.291 18.3125 279.665 18.3125H322.83C323.203 18.3125 323.561 18.4608 323.825 18.7248C324.089 18.9888 324.238 19.3469 324.238 19.7203C324.238 20.0936 324.089 20.4517 323.825 20.7157C323.561 20.9797 323.203 21.128 322.83 21.128Z" fill="#1E1C1C"/>
<path d="M286.417 26.6907H279.665C279.292 26.6899 278.934 26.5412 278.671 26.2773C278.408 26.0133 278.26 25.6557 278.26 25.2828C278.26 24.91 278.408 24.5523 278.671 24.2884C278.934 24.0244 279.292 23.8758 279.665 23.875H286.417C286.79 23.8758 287.147 24.0244 287.41 24.2884C287.674 24.5523 287.822 24.91 287.822 25.2828C287.822 25.6557 287.674 26.0133 287.41 26.2773C287.147 26.5412 286.79 26.6899 286.417 26.6907Z" fill="#1E1C1C"/>
<path d="M298.376 32.2551H279.665C279.291 32.2551 278.933 32.1068 278.669 31.8428C278.405 31.5788 278.257 31.2207 278.257 30.8473C278.257 30.4739 278.405 30.1158 278.669 29.8518C278.933 29.5878 279.291 29.4395 279.665 29.4395H298.376C298.749 29.4402 299.106 29.5889 299.369 29.8528C299.633 30.1168 299.781 30.4744 299.781 30.8473C299.781 31.2202 299.633 31.5778 299.369 31.8417C299.106 32.1057 298.749 32.2543 298.376 32.2551V32.2551Z" fill="#1E1C1C"/>
<path d="M270.989 58.0192C274.859 51.7935 272.95 43.6094 266.724 39.7394C260.498 35.8694 252.314 37.7791 248.444 44.0047C244.574 50.2304 246.484 58.4146 252.71 62.2846C258.935 66.1545 267.119 64.2449 270.989 58.0192Z" fill="#1E1C1C"/>
<path d="M82.9036 154.558C77.458 140.162 77.9542 124.193 84.283 110.163C90.6117 96.1329 102.255 85.1916 116.651 79.7459C131.046 74.3003 147.016 74.7965 161.046 81.1252C175.076 87.454 186.017 99.097 191.463 113.493L190.308 113.93C187.669 106.953 183.682 100.565 178.574 95.1295C173.466 89.694 167.338 85.3178 160.538 82.2508C153.739 79.1837 146.403 77.4859 138.947 77.2543C131.492 77.0226 124.064 78.2617 117.088 80.9007C110.111 83.5397 103.723 87.527 98.2872 92.6349C92.8517 97.7428 88.4755 103.871 85.4085 110.67C82.3415 117.47 80.6436 124.806 80.412 132.262C80.1804 139.717 81.4194 147.145 84.0584 154.121L82.9036 154.558Z" fill="#1E1C1C"/>
<path d="M133.67 97.0772H114.041C113.622 97.0781 113.208 96.9841 112.83 96.8021C112.452 96.6201 112.121 96.3549 111.86 96.0264C111.602 95.7063 111.421 95.332 111.329 94.9317C111.236 94.5313 111.236 94.1153 111.328 93.7147C113.186 85.5137 113.081 76.9898 111.021 68.8371C110.875 68.2602 110.919 67.6514 111.148 67.1021C111.377 66.5527 111.778 66.0923 112.291 65.7898C119.401 61.651 126.994 61.7773 134.858 66.1662C135.23 66.3692 135.551 66.6546 135.796 67.0005C136.042 67.3465 136.205 67.7439 136.273 68.1624C137.673 76.945 137.723 85.8899 136.423 94.6878C136.33 95.3516 136.001 95.9594 135.494 96.3988C134.988 96.8381 134.34 97.0791 133.67 97.0772V97.0772Z" fill="#1E1C1C"/>
<path d="M124.499 78.0383H117.747C117.374 78.0375 117.016 77.8889 116.753 77.6249C116.49 77.361 116.342 77.0034 116.342 76.6305C116.342 76.2576 116.49 75.9 116.753 75.636C117.016 75.3721 117.374 75.2234 117.747 75.2227H124.499C124.872 75.2234 125.229 75.3721 125.492 75.636C125.756 75.9 125.904 76.2576 125.904 76.6305C125.904 77.0034 125.756 77.361 125.492 77.6249C125.229 77.8889 124.872 78.0375 124.499 78.0383Z" fill="#141313"/>
<path d="M132.754 83.5989H117.746C117.373 83.5989 117.015 83.4506 116.751 83.1865C116.487 82.9225 116.338 82.5644 116.338 82.1911C116.338 81.8177 116.487 81.4596 116.751 81.1955C117.015 80.9315 117.373 80.7832 117.746 80.7832H132.754C133.127 80.784 133.485 80.9327 133.748 81.1966C134.011 81.4605 134.159 81.8182 134.159 82.1911C134.159 82.5639 134.011 82.9216 133.748 83.1855C133.485 83.4494 133.127 83.5981 132.754 83.5989V83.5989Z" fill="#141313"/>
<path d="M69.0873 153.781H6.3425C4.66094 153.779 3.0488 153.11 1.85977 151.921C0.670727 150.732 0.00189649 149.12 0 147.439V108.794C0.00189649 107.112 0.670727 105.5 1.85977 104.311C3.0488 103.122 4.66094 102.453 6.3425 102.451H69.0873C70.7689 102.453 72.381 103.122 73.5701 104.311C74.7591 105.5 75.428 107.112 75.4299 108.794V147.439C75.428 149.12 74.7591 150.732 73.5701 151.921C72.381 153.11 70.7689 153.779 69.0873 153.781V153.781Z" fill="#1E1C1C"/>
<path d="M44.158 148.802H10.7533C9.17839 148.801 7.66851 148.174 6.55488 147.061C5.44124 145.947 4.8148 144.437 4.81299 142.862V113.368C4.8148 111.793 5.44124 110.283 6.55488 109.169C7.66851 108.056 9.17839 107.429 10.7533 107.428H64.6772C66.252 107.429 67.7618 108.056 68.8754 109.169C69.989 110.283 70.6154 111.793 70.6171 113.368V122.344C70.6092 129.358 67.8189 136.084 62.8586 141.044C57.8983 146.004 51.1729 148.794 44.158 148.802Z" fill="#141313"/>
<path d="M59.2977 123.579H16.1324C15.759 123.579 15.4009 123.431 15.1369 123.167C14.8729 122.903 14.7246 122.545 14.7246 122.171C14.7246 121.798 14.8729 121.44 15.1369 121.176C15.4009 120.912 15.759 120.764 16.1324 120.764H59.2977C59.6711 120.764 60.0291 120.912 60.2931 121.176C60.5572 121.44 60.7055 121.798 60.7055 122.171C60.7055 122.545 60.5572 122.903 60.2931 123.167C60.0291 123.431 59.6711 123.579 59.2977 123.579Z" fill="#1E1C1C"/>
<path d="M22.8846 129.142H16.1324C15.7596 129.141 15.4022 128.992 15.1388 128.728C14.8755 128.465 14.7275 128.107 14.7275 127.734C14.7275 127.361 14.8755 127.004 15.1388 126.74C15.4022 126.476 15.7596 126.327 16.1324 126.326H22.8846C23.2575 126.327 23.6148 126.476 23.8782 126.74C24.1416 127.004 24.2895 127.361 24.2895 127.734C24.2895 128.107 24.1416 128.465 23.8782 128.728C23.6148 128.992 23.2575 129.141 22.8846 129.142V129.142Z" fill="#1E1C1C"/>
<path d="M34.8436 134.706H16.1324C15.7596 134.706 15.4022 134.557 15.1388 134.293C14.8755 134.029 14.7275 133.671 14.7275 133.298C14.7275 132.926 14.8755 132.568 15.1388 132.304C15.4022 132.04 15.7596 131.891 16.1324 131.891H34.8436C35.2169 131.891 35.575 132.039 35.839 132.303C36.1031 132.567 36.2514 132.925 36.2514 133.298C36.2514 133.672 36.1031 134.03 35.839 134.294C35.575 134.558 35.2169 134.706 34.8436 134.706V134.706Z" fill="#1E1C1C"/>
<path d="M93.861 159.236C97.731 153.01 95.8213 144.826 89.5956 140.956C83.37 137.086 75.1858 138.996 71.3158 145.222C67.4458 151.447 69.3555 159.631 75.5812 163.501C81.8069 167.371 89.991 165.462 93.861 159.236Z" fill="#1E1C1C"/>
<path d="M200.942 134.106H181.313C180.894 134.107 180.48 134.013 180.102 133.831C179.724 133.649 179.393 133.384 179.132 133.055C178.874 132.735 178.693 132.361 178.6 131.96C178.508 131.56 178.508 131.144 178.599 130.744C180.454 122.557 180.353 114.048 178.304 105.908C178.158 105.323 178.207 104.707 178.444 104.153C178.681 103.598 179.091 103.136 179.614 102.836C189.15 97.378 196.7 97.5287 202.697 103.297C203.117 103.708 203.394 104.244 203.486 104.825C204.943 113.724 205.013 122.796 203.695 131.717C203.602 132.38 203.272 132.988 202.766 133.428C202.26 133.867 201.612 134.108 200.942 134.106V134.106Z" fill="#1E1C1C"/>
<path d="M193.005 115.685H186.253C185.88 115.684 185.522 115.535 185.259 115.271C184.996 115.007 184.848 114.65 184.848 114.277C184.848 113.904 184.996 113.546 185.259 113.283C185.522 113.019 185.88 112.87 186.253 112.869H193.005C193.378 112.87 193.735 113.019 193.998 113.283C194.262 113.546 194.41 113.904 194.41 114.277C194.41 114.65 194.262 115.007 193.998 115.271C193.735 115.535 193.378 115.684 193.005 115.685Z" fill="#141313"/>
<path d="M201.261 121.247H186.253C185.879 121.247 185.521 121.099 185.257 120.835C184.993 120.571 184.845 120.213 184.845 119.839C184.845 119.466 184.993 119.108 185.257 118.844C185.521 118.58 185.879 118.432 186.253 118.432H201.261C201.634 118.432 201.991 118.581 202.254 118.845C202.518 119.109 202.666 119.467 202.666 119.839C202.666 120.212 202.518 120.57 202.254 120.834C201.991 121.098 201.634 121.247 201.261 121.247V121.247Z" fill="#141313"/>
</svg>
