<svg width="170" height="100" viewBox="0 0 170 100" fill="none" xmlns="http://www.w3.org/2000/svg">
<path d="M60.4848 61.3984H38.5481C38.2378 61.3989 37.9403 61.5186 37.7211 61.7313C37.502 61.944 37.3791 62.2322 37.3794 62.5326V96.0762H61.6565V62.5326C61.6566 62.3836 61.6263 62.2361 61.5675 62.0985C61.5086 61.9608 61.4223 61.8358 61.3135 61.7305C61.2047 61.6251 61.0755 61.5416 60.9333 61.4846C60.7911 61.4276 60.6387 61.3984 60.4848 61.3984V61.3984ZM49.5902 80.4575C48.9042 80.4544 48.2472 80.1892 47.7621 79.7197C47.277 79.2501 47.0031 78.6142 46.9999 77.9501V74.0811C46.9999 73.4161 47.2728 72.7784 47.7586 72.3082C48.2444 71.8379 48.9032 71.5738 49.5902 71.5738C50.2773 71.5738 50.9361 71.8379 51.4219 72.3082C51.9077 72.7784 52.1806 73.4161 52.1806 74.0811V77.9501C52.1774 78.6142 51.9035 79.2501 51.4184 79.7197C50.9333 80.1892 50.2763 80.4544 49.5902 80.4575V80.4575Z" fill="#1e9c65"/>
<path d="M37.3042 95.0049V98.2412C37.3046 98.4089 37.3735 98.5696 37.496 98.6882C37.6185 98.8068 37.7846 98.8735 37.9578 98.8739H61.0783C61.2514 98.873 61.4171 98.8061 61.5395 98.6876C61.6619 98.5692 61.731 98.4087 61.7319 98.2412V95.0049H37.3042Z" fill="#1e9c65"/>
<path d="M96.8102 9.05078H3.03916C2.23352 9.05202 1.46124 9.36236 0.891565 9.91378C0.32189 10.4652 0.00128524 11.2127 0 11.9926V73.2428C0.000774308 74.0228 0.321215 74.7706 0.891001 75.3222C1.46079 75.8737 2.23336 76.1839 3.03916 76.1846H96.8102C97.616 76.1839 98.3885 75.8737 98.9583 75.3222C99.5281 74.7706 99.8486 74.0228 99.8493 73.2428V11.9926C99.8481 11.2127 99.5274 10.4652 98.9577 9.91378C98.3881 9.36236 97.6158 9.05202 96.8102 9.05078V9.05078Z" fill="#1e9c65"/>
<path d="M96.0275 11.1748H3.82261C3.39124 11.1757 2.97786 11.3422 2.67316 11.6378C2.36845 11.9333 2.1973 12.3338 2.19727 12.7514V72.4834C2.19801 72.9005 2.36949 73.3002 2.67414 73.5951C2.97879 73.89 3.39177 74.056 3.82261 74.0567H96.0275C96.4583 74.056 96.8713 73.89 97.1759 73.5951C97.4806 73.3002 97.6521 72.9005 97.6528 72.4834V12.7514C97.6528 12.3338 97.4816 11.9333 97.1769 11.6378C96.8722 11.3422 96.4588 11.1757 96.0275 11.1748V11.1748Z" fill="#0D0C0C"/>
<path d="M78.0676 99.9996H23.2108C23.0606 99.9996 22.9124 99.9671 22.7768 99.9046C22.6412 99.8421 22.5218 99.7511 22.4272 99.6382C22.3325 99.5254 22.2652 99.3935 22.2299 99.2522C22.1946 99.1109 22.1924 98.9638 22.2233 98.8215L23.0745 94.9084C23.1229 94.6894 23.2473 94.4931 23.4269 94.3521C23.6065 94.211 23.8305 94.1336 24.0618 94.1328H77.2166C77.4479 94.1336 77.6719 94.211 77.8515 94.3521C78.0311 94.4931 78.1555 94.6894 78.2039 94.9084L79.0551 98.8215C79.0861 98.9638 79.0838 99.1109 79.0485 99.2522C79.0133 99.3935 78.9459 99.5254 78.8512 99.6382C78.7566 99.7511 78.6372 99.8421 78.5016 99.9046C78.3661 99.9671 78.2178 99.9996 78.0676 99.9996V99.9996Z" fill="#1e9c65"/>
<path d="M25.9305 94.8379H24.6609C24.5449 94.8379 24.4509 94.9289 24.4509 95.0411V95.6159C24.4509 95.7282 24.5449 95.8191 24.6609 95.8191H25.9305C26.0465 95.8191 26.1405 95.7282 26.1405 95.6159V95.0411C26.1405 94.9289 26.0465 94.8379 25.9305 94.8379Z" fill="#1e9c65"/>
<path d="M29.3099 94.8379H28.0403C27.9243 94.8379 27.8303 94.9289 27.8303 95.0411V95.6159C27.8303 95.7282 27.9243 95.8191 28.0403 95.8191H29.3099C29.4259 95.8191 29.5199 95.7282 29.5199 95.6159V95.0411C29.5199 94.9289 29.4259 94.8379 29.3099 94.8379Z" fill="#1e9c65"/>
<path d="M32.689 94.8379H31.4194C31.3035 94.8379 31.2095 94.9289 31.2095 95.0411V95.6159C31.2095 95.7282 31.3035 95.8191 31.4194 95.8191H32.689C32.805 95.8191 32.899 95.7282 32.899 95.6159V95.0411C32.899 94.9289 32.805 94.8379 32.689 94.8379Z" fill="#1e9c65"/>
<path d="M36.068 94.8379H34.7983C34.6824 94.8379 34.5884 94.9289 34.5884 95.0411V95.6159C34.5884 95.7282 34.6824 95.8191 34.7983 95.8191H36.068C36.1839 95.8191 36.2779 95.7282 36.2779 95.6159V95.0411C36.2779 94.9289 36.1839 94.8379 36.068 94.8379Z" fill="#1e9c65"/>
<path d="M39.4469 94.8379H38.1772C38.0613 94.8379 37.9673 94.9289 37.9673 95.0411V95.6159C37.9673 95.7282 38.0613 95.8191 38.1772 95.8191H39.4469C39.5628 95.8191 39.6568 95.7282 39.6568 95.6159V95.0411C39.6568 94.9289 39.5628 94.8379 39.4469 94.8379Z" fill="#1e9c65"/>
<path d="M42.826 94.8379H41.5564C41.4404 94.8379 41.3464 94.9289 41.3464 95.0411V95.6159C41.3464 95.7282 41.4404 95.8191 41.5564 95.8191H42.826C42.942 95.8191 43.036 95.7282 43.036 95.6159V95.0411C43.036 94.9289 42.942 94.8379 42.826 94.8379Z" fill="#1e9c65"/>
<path d="M46.2054 94.8379H44.9358C44.8198 94.8379 44.7258 94.9289 44.7258 95.0411V95.6159C44.7258 95.7282 44.8198 95.8191 44.9358 95.8191H46.2054C46.3214 95.8191 46.4154 95.7282 46.4154 95.6159V95.0411C46.4154 94.9289 46.3214 94.8379 46.2054 94.8379Z" fill="#1e9c65"/>
<path d="M49.5843 94.8379H48.3147C48.1987 94.8379 48.1047 94.9289 48.1047 95.0411V95.6159C48.1047 95.7282 48.1987 95.8191 48.3147 95.8191H49.5843C49.7003 95.8191 49.7943 95.7282 49.7943 95.6159V95.0411C49.7943 94.9289 49.7003 94.8379 49.5843 94.8379Z" fill="#1e9c65"/>
<path d="M52.9632 94.8379H51.6936C51.5776 94.8379 51.4836 94.9289 51.4836 95.0411V95.6159C51.4836 95.7282 51.5776 95.8191 51.6936 95.8191H52.9632C53.0792 95.8191 53.1732 95.7282 53.1732 95.6159V95.0411C53.1732 94.9289 53.0792 94.8379 52.9632 94.8379Z" fill="#1e9c65"/>
<path d="M56.3424 94.8379H55.0728C54.9568 94.8379 54.8628 94.9289 54.8628 95.0411V95.6159C54.8628 95.7282 54.9568 95.8191 55.0728 95.8191H56.3424C56.4583 95.8191 56.5523 95.7282 56.5523 95.6159V95.0411C56.5523 94.9289 56.4583 94.8379 56.3424 94.8379Z" fill="#1e9c65"/>
<path d="M59.7215 94.8379H58.4519C58.3359 94.8379 58.2419 94.9289 58.2419 95.0411V95.6159C58.2419 95.7282 58.3359 95.8191 58.4519 95.8191H59.7215C59.8375 95.8191 59.9315 95.7282 59.9315 95.6159V95.0411C59.9315 94.9289 59.8375 94.8379 59.7215 94.8379Z" fill="#1e9c65"/>
<path d="M63.1007 94.8379H61.8311C61.7151 94.8379 61.6211 94.9289 61.6211 95.0411V95.6159C61.6211 95.7282 61.7151 95.8191 61.8311 95.8191H63.1007C63.2166 95.8191 63.3106 95.7282 63.3106 95.6159V95.0411C63.3106 94.9289 63.2166 94.8379 63.1007 94.8379Z" fill="#1e9c65"/>
<path d="M66.4798 94.8379H65.2102C65.0942 94.8379 65.0002 94.9289 65.0002 95.0411V95.6159C65.0002 95.7282 65.0942 95.8191 65.2102 95.8191H66.4798C66.5958 95.8191 66.6898 95.7282 66.6898 95.6159V95.0411C66.6898 94.9289 66.5958 94.8379 66.4798 94.8379Z" fill="#1e9c65"/>
<path d="M69.8587 94.8379H68.5891C68.4732 94.8379 68.3792 94.9289 68.3792 95.0411V95.6159C68.3792 95.7282 68.4732 95.8191 68.5891 95.8191H69.8587C69.9747 95.8191 70.0687 95.7282 70.0687 95.6159V95.0411C70.0687 94.9289 69.9747 94.8379 69.8587 94.8379Z" fill="#1e9c65"/>
<path d="M73.2379 94.8379H71.9683C71.8523 94.8379 71.7583 94.9289 71.7583 95.0411V95.6159C71.7583 95.7282 71.8523 95.8191 71.9683 95.8191H73.2379C73.3538 95.8191 73.4478 95.7282 73.4478 95.6159V95.0411C73.4478 94.9289 73.3538 94.8379 73.2379 94.8379Z" fill="#1e9c65"/>
<path d="M76.617 94.8379H75.3474C75.2315 94.8379 75.1375 94.9289 75.1375 95.0411V95.6159C75.1375 95.7282 75.2315 95.8191 75.3474 95.8191H76.617C76.733 95.8191 76.827 95.7282 76.827 95.6159V95.0411C76.827 94.9289 76.733 94.8379 76.617 94.8379Z" fill="#1e9c65"/>
<path d="M25.8909 96.4727H24.6213C24.5054 96.4727 24.4114 96.5636 24.4114 96.6759V97.2507C24.4114 97.3629 24.5054 97.4539 24.6213 97.4539H25.8909C26.0069 97.4539 26.1009 97.3629 26.1009 97.2507V96.6759C26.1009 96.5636 26.0069 96.4727 25.8909 96.4727Z" fill="#1e9c65"/>
<path d="M29.2699 96.4727H28.0002C27.8843 96.4727 27.7903 96.5636 27.7903 96.6759V97.2507C27.7903 97.3629 27.8843 97.4539 28.0002 97.4539H29.2699C29.3858 97.4539 29.4798 97.3629 29.4798 97.2507V96.6759C29.4798 96.5636 29.3858 96.4727 29.2699 96.4727Z" fill="#1e9c65"/>
<path d="M32.649 96.4727H31.3794C31.2634 96.4727 31.1694 96.5636 31.1694 96.6759V97.2507C31.1694 97.3629 31.2634 97.4539 31.3794 97.4539H32.649C32.765 97.4539 32.859 97.3629 32.859 97.2507V96.6759C32.859 96.5636 32.765 96.4727 32.649 96.4727Z" fill="#1e9c65"/>
<path d="M36.0279 96.4727H34.7583C34.6423 96.4727 34.5483 96.5636 34.5483 96.6759V97.2507C34.5483 97.3629 34.6423 97.4539 34.7583 97.4539H36.0279C36.1439 97.4539 36.2379 97.3629 36.2379 97.2507V96.6759C36.2379 96.5636 36.1439 96.4727 36.0279 96.4727Z" fill="#1e9c65"/>
<path d="M39.4071 96.4727H38.1375C38.0215 96.4727 37.9275 96.5636 37.9275 96.6759V97.2507C37.9275 97.3629 38.0215 97.4539 38.1375 97.4539H39.4071C39.523 97.4539 39.617 97.3629 39.617 97.2507V96.6759C39.617 96.5636 39.523 96.4727 39.4071 96.4727Z" fill="#1e9c65"/>
<path d="M42.7862 96.4727H41.5166C41.4006 96.4727 41.3066 96.5636 41.3066 96.6759V97.2507C41.3066 97.3629 41.4006 97.4539 41.5166 97.4539H42.7862C42.9022 97.4539 42.9962 97.3629 42.9962 97.2507V96.6759C42.9962 96.5636 42.9022 96.4727 42.7862 96.4727Z" fill="#1e9c65"/>
<path d="M46.1654 96.4727H44.8958C44.7798 96.4727 44.6858 96.5636 44.6858 96.6759V97.2507C44.6858 97.3629 44.7798 97.4539 44.8958 97.4539H46.1654C46.2813 97.4539 46.3753 97.3629 46.3753 97.2507V96.6759C46.3753 96.5636 46.2813 96.4727 46.1654 96.4727Z" fill="#1e9c65"/>
<path d="M49.5443 96.4727H48.2747C48.1587 96.4727 48.0647 96.5636 48.0647 96.6759V97.2507C48.0647 97.3629 48.1587 97.4539 48.2747 97.4539H49.5443C49.6602 97.4539 49.7542 97.3629 49.7542 97.2507V96.6759C49.7542 96.5636 49.6602 96.4727 49.5443 96.4727Z" fill="#1e9c65"/>
<path d="M52.9232 96.4727H51.6536C51.5376 96.4727 51.4436 96.5636 51.4436 96.6759V97.2507C51.4436 97.3629 51.5376 97.4539 51.6536 97.4539H52.9232C53.0391 97.4539 53.1331 97.3629 53.1331 97.2507V96.6759C53.1331 96.5636 53.0391 96.4727 52.9232 96.4727Z" fill="#1e9c65"/>
<path d="M56.3026 96.4727H55.033C54.917 96.4727 54.823 96.5636 54.823 96.6759V97.2507C54.823 97.3629 54.917 97.4539 55.033 97.4539H56.3026C56.4185 97.4539 56.5125 97.3629 56.5125 97.2507V96.6759C56.5125 96.5636 56.4185 96.4727 56.3026 96.4727Z" fill="#1e9c65"/>
<path d="M59.6817 96.4727H58.4121C58.2962 96.4727 58.2021 96.5636 58.2021 96.6759V97.2507C58.2021 97.3629 58.2962 97.4539 58.4121 97.4539H59.6817C59.7977 97.4539 59.8917 97.3629 59.8917 97.2507V96.6759C59.8917 96.5636 59.7977 96.4727 59.6817 96.4727Z" fill="#1e9c65"/>
<path d="M63.0606 96.4727H61.791C61.6751 96.4727 61.5811 96.5636 61.5811 96.6759V97.2507C61.5811 97.3629 61.6751 97.4539 61.791 97.4539H63.0606C63.1766 97.4539 63.2706 97.3629 63.2706 97.2507V96.6759C63.2706 96.5636 63.1766 96.4727 63.0606 96.4727Z" fill="#1e9c65"/>
<path d="M66.4395 96.4727H65.1699C65.054 96.4727 64.96 96.5636 64.96 96.6759V97.2507C64.96 97.3629 65.054 97.4539 65.1699 97.4539H66.4395C66.5555 97.4539 66.6495 97.3629 66.6495 97.2507V96.6759C66.6495 96.5636 66.5555 96.4727 66.4395 96.4727Z" fill="#1e9c65"/>
<path d="M69.8187 96.4727H68.5491C68.4331 96.4727 68.3391 96.5636 68.3391 96.6759V97.2507C68.3391 97.3629 68.4331 97.4539 68.5491 97.4539H69.8187C69.9346 97.4539 70.0286 97.3629 70.0286 97.2507V96.6759C70.0286 96.5636 69.9346 96.4727 69.8187 96.4727Z" fill="#1e9c65"/>
<path d="M73.1981 96.4727H71.9285C71.8125 96.4727 71.7185 96.5636 71.7185 96.6759V97.2507C71.7185 97.3629 71.8125 97.4539 71.9285 97.4539H73.1981C73.3141 97.4539 73.4081 97.3629 73.4081 97.2507V96.6759C73.4081 96.5636 73.3141 96.4727 73.1981 96.4727Z" fill="#1e9c65"/>
<path d="M76.577 96.4727H75.3074C75.1914 96.4727 75.0974 96.5636 75.0974 96.6759V97.2507C75.0974 97.3629 75.1914 97.4539 75.3074 97.4539H76.577C76.6929 97.4539 76.7869 97.3629 76.7869 97.2507V96.6759C76.7869 96.5636 76.6929 96.4727 76.577 96.4727Z" fill="#1e9c65"/>
<path d="M53.9372 98.4355H40.8408C40.7249 98.4355 40.6309 98.5265 40.6309 98.6388V99.2136C40.6309 99.3258 40.7249 99.4168 40.8408 99.4168H53.9372C54.0532 99.4168 54.1472 99.3258 54.1472 99.2136V98.6388C54.1472 98.5265 54.0532 98.4355 53.9372 98.4355Z" fill="#1e9c65"/>
<path d="M91.3923 19.4064H5.11659C5.02691 19.4045 4.94158 19.3686 4.87885 19.3066C4.81613 19.2445 4.78101 19.1611 4.78101 19.0743C4.78101 18.9875 4.81613 18.9041 4.87885 18.842C4.94158 18.7799 5.02691 18.7441 5.11659 18.7422H91.3923C91.482 18.7441 91.5673 18.7799 91.63 18.842C91.6928 18.9041 91.7279 18.9875 91.7279 19.0743C91.7279 19.1611 91.6928 19.2445 91.63 19.3066C91.5673 19.3686 91.482 19.4045 91.3923 19.4064Z" fill="#1e9c65"/>
<path d="M10.9895 17.0457C12.0999 17.0457 13.0001 16.1549 13.0001 15.0561C13.0001 13.9572 12.0999 13.0664 10.9895 13.0664C9.87898 13.0664 8.97876 13.9572 8.97876 15.0561C8.97876 16.1549 9.87898 17.0457 10.9895 17.0457Z" fill="#1e9c65"/>
<path d="M17.9357 17.0457C19.0462 17.0457 19.9464 16.1549 19.9464 15.0561C19.9464 13.9572 19.0462 13.0664 17.9357 13.0664C16.8253 13.0664 15.925 13.9572 15.925 15.0561C15.925 16.1549 16.8253 17.0457 17.9357 17.0457Z" fill="#1e9c65"/>
<path d="M24.8818 17.0457C25.9923 17.0457 26.8925 16.1549 26.8925 15.0561C26.8925 13.9572 25.9923 13.0664 24.8818 13.0664C23.7713 13.0664 22.8711 13.9572 22.8711 15.0561C22.8711 16.1549 23.7713 17.0457 24.8818 17.0457Z" fill="#1e9c65"/>
<path d="M87.2102 13.5605H82.2761C82.1783 13.5624 82.0852 13.6014 82.0167 13.669C81.9483 13.7366 81.9099 13.8275 81.9099 13.9222C81.9099 14.0169 81.9483 14.1078 82.0167 14.1754C82.0852 14.243 82.1783 14.2819 82.2761 14.2838H87.2102C87.308 14.2819 87.4011 14.243 87.4695 14.1754C87.538 14.1078 87.5764 14.0169 87.5764 13.9222C87.5764 13.8275 87.538 13.7366 87.4695 13.669C87.4011 13.6014 87.308 13.5624 87.2102 13.5605V13.5605Z" fill="#1e9c65"/>
<path d="M87.2102 14.917H82.2761C82.1783 14.9189 82.0852 14.9578 82.0167 15.0254C81.9483 15.0931 81.9099 15.1839 81.9099 15.2786C81.9099 15.3733 81.9483 15.4642 82.0167 15.5318C82.0852 15.5994 82.1783 15.6384 82.2761 15.6403H87.2102C87.308 15.6384 87.4011 15.5994 87.4695 15.5318C87.538 15.4642 87.5764 15.3733 87.5764 15.2786C87.5764 15.1839 87.538 15.0931 87.4695 15.0254C87.4011 14.9578 87.308 14.9189 87.2102 14.917V14.917Z" fill="#1e9c65"/>
<path d="M87.2102 16.2734H82.2761C82.1783 16.2753 82.0852 16.3143 82.0167 16.3819C81.9483 16.4495 81.9099 16.5404 81.9099 16.6351C81.9099 16.7297 81.9483 16.8206 82.0167 16.8883C82.0852 16.9559 82.1783 16.9948 82.2761 16.9967H87.2102C87.308 16.9948 87.4011 16.9559 87.4695 16.8883C87.538 16.8206 87.5764 16.7297 87.5764 16.6351C87.5764 16.5404 87.538 16.4495 87.4695 16.3819C87.4011 16.3143 87.308 16.2753 87.2102 16.2734V16.2734Z" fill="#1e9c65"/>
<path d="M48.1662 24.4424L47.8875 23.6544L83.5234 5.73145L83.8017 6.51952L48.1662 24.4424Z" fill="#1e9c65"/>
<path d="M149.92 49.6552L149.356 49.4397L149.272 30.1442L149.836 30.3598L149.92 49.6552Z" fill="#1e9c65"/>
<path d="M114.49 61.7901L78.8535 43.8672L79.1322 43.0791L114.768 61.002L114.49 61.7901Z" fill="#1e9c65"/>
<path d="M132.731 49.318L111.84 16.1191L112.5 15.585L133.391 48.7839L132.731 49.318Z" fill="#1e9c65"/>
<path d="M133.167 11.286L126.597 7.30836L127.002 6.66699L133.571 10.6446L133.167 11.286Z" fill="#1e9c65"/>
<path d="M164.409 24.157H141.614C140.131 24.157 138.709 23.5869 137.661 22.5719C136.612 21.557 136.023 20.1804 136.023 18.745C136.023 17.3097 136.612 15.9331 137.661 14.9182C138.709 13.9032 140.131 13.333 141.614 13.333H164.409C165.892 13.333 167.314 13.9032 168.362 14.9182C169.411 15.9331 170 17.3097 170 18.745C170 20.1804 169.411 21.557 168.362 22.5719C167.314 23.5869 165.892 24.157 164.409 24.157V24.157Z" fill="#1e9c65"/>
<path d="M147.615 66.6092H124.82C123.337 66.6092 121.915 66.039 120.867 65.0241C119.818 64.0091 119.229 62.6325 119.229 61.1972C119.229 59.7618 119.818 58.3853 120.867 57.3703C121.915 56.3554 123.337 55.7852 124.82 55.7852H147.615C149.097 55.7852 150.52 56.3554 151.568 57.3703C152.617 58.3853 153.206 59.7618 153.206 61.1972C153.206 62.6325 152.617 64.0091 151.568 65.0241C150.52 66.039 149.097 66.6092 147.615 66.6092V66.6092Z" fill="#1e9c65"/>
<path d="M116.649 10.824H93.854C92.3712 10.824 90.9491 10.2538 89.9005 9.23889C88.852 8.22394 88.2629 6.84737 88.2629 5.41202C88.2629 3.97666 88.852 2.60009 89.9005 1.58514C90.9491 0.570195 92.3712 6.04957e-08 93.854 0H116.649C118.131 6.04957e-08 119.554 0.570195 120.602 1.58514C121.651 2.60009 122.24 3.97666 122.24 5.41202C122.24 6.84737 121.651 8.22394 120.602 9.23889C119.554 10.2538 118.131 10.824 116.649 10.824V10.824Z" fill="#1e9c65"/>
<path d="M68.2052 61.6135H31.2381C29.696 61.6118 28.2177 61.0182 27.1273 59.9627C26.0369 58.9072 25.4236 57.4762 25.4219 55.9836V32.2735C25.4236 30.7809 26.0369 29.3498 27.1273 28.2944C28.2177 27.2389 29.696 26.6452 31.2381 26.6436H68.2052C69.7473 26.6452 71.2257 27.2389 72.316 28.2944C73.4064 29.3498 74.0198 30.7809 74.0215 32.2735V55.9836C74.0198 57.4762 73.4064 58.9073 72.316 59.9627C71.2256 61.0182 69.7473 61.6118 68.2052 61.6135ZM31.2381 27.4762C29.9241 27.4776 28.6644 27.9835 27.7353 28.8829C26.8061 29.7822 26.2835 31.0016 26.282 32.2735V55.9836C26.2835 57.2555 26.8062 58.4748 27.7353 59.3742C28.6644 60.2735 29.9241 60.7794 31.2381 60.7809H68.2052C69.5192 60.7794 70.7789 60.2736 71.7081 59.3742C72.6372 58.4748 73.1598 57.2555 73.1613 55.9836V32.2735C73.1598 31.0016 72.6372 29.7822 71.7081 28.8829C70.7789 27.9835 69.5192 27.4776 68.2052 27.4762H31.2381Z" fill="#1e9c65"/>
<path d="M42.1914 34.1367H32.3032V34.9693H42.1914V34.1367Z" fill="#1e9c65"/>
<path d="M54.2376 37.4678H32.3032V38.3004H54.2376V37.4678Z" fill="#1e9c65"/>
<path d="M54.2376 40.3818H32.3032V41.2145H54.2376V40.3818Z" fill="#1e9c65"/>
<path d="M60.2587 43.2959H32.3032V44.1285H60.2587V43.2959Z" fill="#1e9c65"/>
<path d="M46.9261 46.209H32.3032V47.0416H46.9261V46.209Z" fill="#1e9c65"/>
<path d="M58.9685 49.124H32.3032V49.9566H58.9685V49.124Z" fill="#1e9c65"/>
<path d="M37.0342 52.0391H32.3032V52.8717H37.0342V52.0391Z" fill="#1e9c65"/>
</svg>
