<svg width="546" height="122" viewBox="0 0 546 122" fill="none" xmlns="http://www.w3.org/2000/svg">
<path d="M453.035 108.063H232.693C231.524 108.062 230.403 107.599 229.577 106.776C228.75 105.952 228.286 104.836 228.284 103.672V62.3047H230.048V103.672C230.048 104.37 230.327 105.04 230.823 105.534C231.319 106.028 231.992 106.306 232.693 106.307H453.035C453.737 106.306 454.409 106.028 454.905 105.534C455.401 105.04 455.68 104.37 455.681 103.672V62.0156H457.444V103.672C457.443 104.836 456.978 105.952 456.151 106.776C455.325 107.599 454.204 108.062 453.035 108.063Z" fill="#1E1C1C"/>
<path d="M532.911 61.4238H15.1304V63.1804H532.911V61.4238Z" fill="#1E1C1C"/>
<path d="M15.1678 77.275C23.5448 77.275 30.3357 70.5108 30.3357 62.1668C30.3357 53.8228 23.5448 47.0586 15.1678 47.0586C6.79087 47.0586 0 53.8228 0 62.1668C0 70.5108 6.79087 77.275 15.1678 77.275Z" fill="#1E1C1C"/>
<path d="M169.302 77.275C177.679 77.275 184.469 70.5108 184.469 62.1668C184.469 53.8228 177.679 47.0586 169.302 47.0586C160.925 47.0586 154.134 53.8228 154.134 62.1668C154.134 70.5108 160.925 77.275 169.302 77.275Z" fill="#1E1C1C"/>
<path d="M273.906 121.681C282.283 121.681 289.073 114.917 289.073 106.573C289.073 98.229 282.283 91.4648 273.906 91.4648C265.529 91.4648 258.738 98.229 258.738 106.573C258.738 114.917 265.529 121.681 273.906 121.681Z" fill="#141313"/>
<path d="M353.428 121.681C361.805 121.681 368.595 114.917 368.595 106.573C368.595 98.229 361.805 91.4648 353.428 91.4648C345.051 91.4648 338.26 98.229 338.26 106.573C338.26 114.917 345.051 121.681 353.428 121.681Z" fill="#141313"/>
<path d="M314.892 77.275C323.269 77.275 330.06 70.5108 330.06 62.1668C330.06 53.8228 323.269 47.0586 314.892 47.0586C306.516 47.0586 299.725 53.8228 299.725 62.1668C299.725 70.5108 306.516 77.275 314.892 77.275Z" fill="#1E1C1C"/>
<path d="M530.832 77.275C539.209 77.275 546 70.5108 546 62.1668C546 53.8228 539.209 47.0586 530.832 47.0586C522.455 47.0586 515.665 53.8228 515.665 62.1668C515.665 70.5108 522.455 77.275 530.832 77.275Z" fill="#1E1C1C"/>
<path d="M456.562 77.275C464.939 77.275 471.73 70.5108 471.73 62.1668C471.73 53.8228 464.939 47.0586 456.562 47.0586C448.185 47.0586 441.394 53.8228 441.394 62.1668C441.394 70.5108 448.185 77.275 456.562 77.275Z" fill="#1E1C1C"/>
<path d="M62.203 63.1823C61.9692 63.1823 61.7449 63.0898 61.5796 62.9251C61.4142 62.7603 61.3213 62.537 61.3213 62.304V18.95C61.3226 17.7857 61.7876 16.6696 62.6141 15.8463C63.4406 15.023 64.5612 14.5599 65.73 14.5586H108.649C108.883 14.5586 109.107 14.6511 109.272 14.8158C109.438 14.9806 109.531 15.2039 109.531 15.4369C109.531 15.6698 109.438 15.8932 109.272 16.0579C109.107 16.2226 108.883 16.3152 108.649 16.3152H65.73C65.0287 16.3159 64.3563 16.5938 63.8604 17.0877C63.3645 17.5817 63.0856 18.2514 63.0848 18.95V62.304C63.0848 62.537 62.9919 62.7603 62.8265 62.9251C62.6612 63.0898 62.4369 63.1823 62.203 63.1823Z" fill="#1E1C1C"/>
<path d="M110.666 30.2164C119.043 30.2164 125.834 23.4522 125.834 15.1082C125.834 6.76418 119.043 0 110.666 0C102.289 0 95.498 6.76418 95.498 15.1082C95.498 23.4522 102.289 30.2164 110.666 30.2164Z" fill="#141313"/>
<path d="M401.676 62.304H399.913V18.95C399.914 17.7857 400.379 16.6696 401.205 15.8463C402.032 15.023 403.152 14.5599 404.321 14.5586H447.24V16.3152H404.321C403.62 16.3159 402.948 16.5938 402.452 17.0877C401.956 17.5817 401.677 18.2514 401.676 18.95V62.304Z" fill="#1E1C1C"/>
<path d="M449.257 30.2164C457.634 30.2164 464.425 23.4522 464.425 15.1082C464.425 6.76418 457.634 0 449.257 0C440.88 0 434.089 6.76418 434.089 15.1082C434.089 23.4522 440.88 30.2164 449.257 30.2164Z" fill="#141313"/>
</svg>
