<svg width="512" height="241" viewBox="0 0 512 241" fill="none" xmlns="http://www.w3.org/2000/svg">
<path d="M140.635 147.486H89.629C88.9074 147.487 88.2158 147.775 87.7062 148.286C87.1967 148.797 86.9109 149.489 86.9116 150.211V230.784H143.359V150.211C143.359 149.853 143.289 149.498 143.152 149.168C143.015 148.837 142.814 148.537 142.561 148.284C142.308 148.031 142.008 147.83 141.677 147.693C141.347 147.556 140.992 147.486 140.635 147.486V147.486ZM115.303 193.267C113.708 193.26 112.181 192.623 111.053 191.495C109.925 190.367 109.288 188.84 109.28 187.245V177.951C109.28 176.354 109.915 174.822 111.044 173.692C112.174 172.563 113.706 171.928 115.303 171.928C116.901 171.928 118.433 172.563 119.562 173.692C120.692 174.822 121.326 176.354 121.326 177.951V187.245C121.319 188.84 120.682 190.367 119.554 191.495C118.426 192.623 116.898 193.26 115.303 193.267V193.267Z" fill="#141313"/>
<path d="M86.7368 228.207V235.981C86.7376 236.384 86.898 236.77 87.1829 237.055C87.4677 237.339 87.8538 237.5 88.2566 237.501H142.014C142.417 237.499 142.802 237.338 143.087 237.053C143.371 236.769 143.532 236.383 143.534 235.981V228.207H86.7368Z" fill="#141313"/>
<path d="M225.095 21.7422H7.06641C5.1932 21.7452 3.39756 22.4906 2.073 23.8152C0.748433 25.1397 0.00298834 26.9354 0 28.8086V175.935C0.00180036 177.809 0.746864 179.605 2.07169 180.93C3.39651 182.255 5.19283 183 7.06641 183.002H225.095C226.969 183 228.765 182.255 230.09 180.93C231.415 179.605 232.16 177.809 232.162 175.935V28.8086C232.159 26.9354 231.413 25.1397 230.089 23.8152C228.764 22.4906 226.969 21.7452 225.095 21.7422V21.7422Z" fill="#141313"/>
<path d="M223.276 26.8457H8.888C7.88502 26.8479 6.92387 27.2478 6.21539 27.9578C5.50692 28.6677 5.10897 29.6297 5.10889 30.6327V174.113C5.11061 175.115 5.50934 176.075 6.21768 176.783C6.92603 177.492 7.88625 177.89 8.888 177.892H223.276C224.277 177.89 225.237 177.492 225.946 176.783C226.654 176.075 227.053 175.115 227.055 174.113V30.6327C227.055 29.6297 226.657 28.6677 225.948 27.9578C225.24 27.2478 224.278 26.8479 223.276 26.8457V26.8457Z" fill="#1E1C1C"/>
<path d="M181.516 240.206H53.9674C53.6183 240.206 53.2735 240.128 52.9583 239.978C52.6431 239.827 52.3654 239.609 52.1454 239.338C51.9254 239.067 51.7687 238.75 51.6867 238.41C51.6047 238.071 51.5995 237.718 51.6714 237.376L53.6505 227.976C53.7632 227.45 54.0523 226.979 54.4699 226.64C54.8875 226.301 55.4084 226.115 55.9462 226.113H179.537C180.075 226.115 180.596 226.301 181.014 226.64C181.431 226.979 181.721 227.45 181.833 227.976L183.812 237.376C183.884 237.718 183.879 238.071 183.797 238.41C183.715 238.75 183.558 239.067 183.338 239.338C183.118 239.609 182.841 239.827 182.525 239.978C182.21 240.128 181.865 240.206 181.516 240.206V240.206Z" fill="#141313"/>
<path d="M60.2922 227.807H57.3402C57.0706 227.807 56.8521 228.025 56.8521 228.295V229.675C56.8521 229.945 57.0706 230.164 57.3402 230.164H60.2922C60.5619 230.164 60.7804 229.945 60.7804 229.675V228.295C60.7804 228.025 60.5619 227.807 60.2922 227.807Z" fill="#141313"/>
<path d="M68.1487 227.807H65.1967C64.9271 227.807 64.7085 228.025 64.7085 228.295V229.675C64.7085 229.945 64.9271 230.164 65.1967 230.164H68.1487C68.4183 230.164 68.6369 229.945 68.6369 229.675V228.295C68.6369 228.025 68.4183 227.807 68.1487 227.807Z" fill="#141313"/>
<path d="M76.0056 227.807H73.0536C72.784 227.807 72.5654 228.025 72.5654 228.295V229.675C72.5654 229.945 72.784 230.164 73.0536 230.164H76.0056C76.2752 230.164 76.4938 229.945 76.4938 229.675V228.295C76.4938 228.025 76.2752 227.807 76.0056 227.807Z" fill="#141313"/>
<path d="M83.8625 227.807H80.9106C80.6409 227.807 80.4224 228.025 80.4224 228.295V229.675C80.4224 229.945 80.6409 230.164 80.9106 230.164H83.8625C84.1322 230.164 84.3507 229.945 84.3507 229.675V228.295C84.3507 228.025 84.1322 227.807 83.8625 227.807Z" fill="#141313"/>
<path d="M91.719 227.807H88.767C88.4974 227.807 88.2788 228.025 88.2788 228.295V229.675C88.2788 229.945 88.4974 230.164 88.767 230.164H91.719C91.9886 230.164 92.2072 229.945 92.2072 229.675V228.295C92.2072 228.025 91.9886 227.807 91.719 227.807Z" fill="#141313"/>
<path d="M99.5759 227.807H96.6239C96.3543 227.807 96.1357 228.025 96.1357 228.295V229.675C96.1357 229.945 96.3543 230.164 96.6239 230.164H99.5759C99.8455 230.164 100.064 229.945 100.064 229.675V228.295C100.064 228.025 99.8455 227.807 99.5759 227.807Z" fill="#141313"/>
<path d="M107.433 227.807H104.481C104.211 227.807 103.993 228.025 103.993 228.295V229.675C103.993 229.945 104.211 230.164 104.481 230.164H107.433C107.702 230.164 107.921 229.945 107.921 229.675V228.295C107.921 228.025 107.702 227.807 107.433 227.807Z" fill="#141313"/>
<path d="M115.289 227.807H112.337C112.068 227.807 111.849 228.025 111.849 228.295V229.675C111.849 229.945 112.068 230.164 112.337 230.164H115.289C115.559 230.164 115.778 229.945 115.778 229.675V228.295C115.778 228.025 115.559 227.807 115.289 227.807Z" fill="#141313"/>
<path d="M123.146 227.807H120.194C119.925 227.807 119.706 228.025 119.706 228.295V229.675C119.706 229.945 119.925 230.164 120.194 230.164H123.146C123.416 230.164 123.634 229.945 123.634 229.675V228.295C123.634 228.025 123.416 227.807 123.146 227.807Z" fill="#141313"/>
<path d="M131.003 227.807H128.051C127.782 227.807 127.563 228.025 127.563 228.295V229.675C127.563 229.945 127.782 230.164 128.051 230.164H131.003C131.273 230.164 131.491 229.945 131.491 229.675V228.295C131.491 228.025 131.273 227.807 131.003 227.807Z" fill="#141313"/>
<path d="M138.86 227.807H135.908C135.638 227.807 135.419 228.025 135.419 228.295V229.675C135.419 229.945 135.638 230.164 135.908 230.164H138.86C139.129 230.164 139.348 229.945 139.348 229.675V228.295C139.348 228.025 139.129 227.807 138.86 227.807Z" fill="#141313"/>
<path d="M146.717 227.807H143.765C143.495 227.807 143.276 228.025 143.276 228.295V229.675C143.276 229.945 143.495 230.164 143.765 230.164H146.717C146.986 230.164 147.205 229.945 147.205 229.675V228.295C147.205 228.025 146.986 227.807 146.717 227.807Z" fill="#141313"/>
<path d="M154.573 227.807H151.621C151.352 227.807 151.133 228.025 151.133 228.295V229.675C151.133 229.945 151.352 230.164 151.621 230.164H154.573C154.843 230.164 155.062 229.945 155.062 229.675V228.295C155.062 228.025 154.843 227.807 154.573 227.807Z" fill="#141313"/>
<path d="M162.43 227.807H159.478C159.208 227.807 158.99 228.025 158.99 228.295V229.675C158.99 229.945 159.208 230.164 159.478 230.164H162.43C162.7 230.164 162.918 229.945 162.918 229.675V228.295C162.918 228.025 162.7 227.807 162.43 227.807Z" fill="#141313"/>
<path d="M170.287 227.807H167.335C167.065 227.807 166.847 228.025 166.847 228.295V229.675C166.847 229.945 167.065 230.164 167.335 230.164H170.287C170.556 230.164 170.775 229.945 170.775 229.675V228.295C170.775 228.025 170.556 227.807 170.287 227.807Z" fill="#141313"/>
<path d="M178.144 227.807H175.192C174.922 227.807 174.704 228.025 174.704 228.295V229.675C174.704 229.945 174.922 230.164 175.192 230.164H178.144C178.413 230.164 178.632 229.945 178.632 229.675V228.295C178.632 228.025 178.413 227.807 178.144 227.807Z" fill="#141313"/>
<path d="M60.1995 231.734H57.2475C56.9778 231.734 56.7593 231.953 56.7593 232.223V233.603C56.7593 233.873 56.9778 234.091 57.2475 234.091H60.1995C60.4691 234.091 60.6877 233.873 60.6877 233.603V232.223C60.6877 231.953 60.4691 231.734 60.1995 231.734Z" fill="#141313"/>
<path d="M68.0559 231.734H65.1039C64.8343 231.734 64.6157 231.953 64.6157 232.223V233.603C64.6157 233.873 64.8343 234.091 65.1039 234.091H68.0559C68.3255 234.091 68.5441 233.873 68.5441 233.603V232.223C68.5441 231.953 68.3255 231.734 68.0559 231.734Z" fill="#141313"/>
<path d="M75.9128 231.734H72.9608C72.6912 231.734 72.4727 231.953 72.4727 232.223V233.603C72.4727 233.873 72.6912 234.091 72.9608 234.091H75.9128C76.1825 234.091 76.401 233.873 76.401 233.603V232.223C76.401 231.953 76.1825 231.734 75.9128 231.734Z" fill="#141313"/>
<path d="M83.7698 231.734H80.8178C80.5482 231.734 80.3296 231.953 80.3296 232.223V233.603C80.3296 233.873 80.5482 234.091 80.8178 234.091H83.7698C84.0394 234.091 84.258 233.873 84.258 233.603V232.223C84.258 231.953 84.0394 231.734 83.7698 231.734Z" fill="#141313"/>
<path d="M91.6262 231.734H88.6742C88.4046 231.734 88.186 231.953 88.186 232.223V233.603C88.186 233.873 88.4046 234.091 88.6742 234.091H91.6262C91.8958 234.091 92.1144 233.873 92.1144 233.603V232.223C92.1144 231.953 91.8958 231.734 91.6262 231.734Z" fill="#141313"/>
<path d="M99.4832 231.734H96.5312C96.2615 231.734 96.043 231.953 96.043 232.223V233.603C96.043 233.873 96.2615 234.091 96.5312 234.091H99.4832C99.7528 234.091 99.9713 233.873 99.9713 233.603V232.223C99.9713 231.953 99.7528 231.734 99.4832 231.734Z" fill="#141313"/>
<path d="M107.34 231.734H104.388C104.118 231.734 103.9 231.953 103.9 232.223V233.603C103.9 233.873 104.118 234.091 104.388 234.091H107.34C107.61 234.091 107.828 233.873 107.828 233.603V232.223C107.828 231.953 107.61 231.734 107.34 231.734Z" fill="#141313"/>
<path d="M115.197 231.734H112.245C111.975 231.734 111.756 231.953 111.756 232.223V233.603C111.756 233.873 111.975 234.091 112.245 234.091H115.197C115.466 234.091 115.685 233.873 115.685 233.603V232.223C115.685 231.953 115.466 231.734 115.197 231.734Z" fill="#141313"/>
<path d="M123.053 231.734H120.101C119.832 231.734 119.613 231.953 119.613 232.223V233.603C119.613 233.873 119.832 234.091 120.101 234.091H123.053C123.323 234.091 123.542 233.873 123.542 233.603V232.223C123.542 231.953 123.323 231.734 123.053 231.734Z" fill="#141313"/>
<path d="M130.91 231.734H127.958C127.688 231.734 127.47 231.953 127.47 232.223V233.603C127.47 233.873 127.688 234.091 127.958 234.091H130.91C131.18 234.091 131.398 233.873 131.398 233.603V232.223C131.398 231.953 131.18 231.734 130.91 231.734Z" fill="#141313"/>
<path d="M138.767 231.734H135.815C135.545 231.734 135.327 231.953 135.327 232.223V233.603C135.327 233.873 135.545 234.091 135.815 234.091H138.767C139.036 234.091 139.255 233.873 139.255 233.603V232.223C139.255 231.953 139.036 231.734 138.767 231.734Z" fill="#141313"/>
<path d="M146.624 231.734H143.672C143.402 231.734 143.184 231.953 143.184 232.223V233.603C143.184 233.873 143.402 234.091 143.672 234.091H146.624C146.893 234.091 147.112 233.873 147.112 233.603V232.223C147.112 231.953 146.893 231.734 146.624 231.734Z" fill="#141313"/>
<path d="M154.48 231.734H151.528C151.259 231.734 151.04 231.953 151.04 232.223V233.603C151.04 233.873 151.259 234.091 151.528 234.091H154.48C154.75 234.091 154.968 233.873 154.968 233.603V232.223C154.968 231.953 154.75 231.734 154.48 231.734Z" fill="#141313"/>
<path d="M162.337 231.734H159.385C159.116 231.734 158.897 231.953 158.897 232.223V233.603C158.897 233.873 159.116 234.091 159.385 234.091H162.337C162.607 234.091 162.825 233.873 162.825 233.603V232.223C162.825 231.953 162.607 231.734 162.337 231.734Z" fill="#141313"/>
<path d="M170.194 231.734H167.242C166.972 231.734 166.754 231.953 166.754 232.223V233.603C166.754 233.873 166.972 234.091 167.242 234.091H170.194C170.464 234.091 170.682 233.873 170.682 233.603V232.223C170.682 231.953 170.464 231.734 170.194 231.734Z" fill="#141313"/>
<path d="M178.051 231.734H175.099C174.829 231.734 174.61 231.953 174.61 232.223V233.603C174.61 233.873 174.829 234.091 175.099 234.091H178.051C178.32 234.091 178.539 233.873 178.539 233.603V232.223C178.539 231.953 178.32 231.734 178.051 231.734Z" fill="#141313"/>
<path d="M125.411 236.449H94.9599C94.6902 236.449 94.4717 236.668 94.4717 236.937V238.318C94.4717 238.588 94.6902 238.806 94.9599 238.806H125.411C125.68 238.806 125.899 238.588 125.899 238.318V236.937C125.899 236.668 125.68 236.449 125.411 236.449Z" fill="#141313"/>
<path d="M212.499 46.615H11.897C11.6885 46.6104 11.49 46.5243 11.3442 46.3752C11.1984 46.2261 11.1167 46.0258 11.1167 45.8173C11.1167 45.6087 11.1984 45.4084 11.3442 45.2593C11.49 45.1102 11.6885 45.0241 11.897 45.0195H212.499C212.707 45.0241 212.905 45.1102 213.051 45.2593C213.197 45.4084 213.279 45.6087 213.279 45.8173C213.279 46.0258 213.197 46.2261 213.051 46.3752C212.905 46.5243 212.707 46.6104 212.499 46.615Z" fill="#141313"/>
<path d="M25.5521 40.9453C28.1341 40.9453 30.2272 38.8056 30.2272 36.166C30.2272 33.5265 28.1341 31.3867 25.5521 31.3867C22.9701 31.3867 20.877 33.5265 20.877 36.166C20.877 38.8056 22.9701 40.9453 25.5521 40.9453Z" fill="#141313"/>
<path d="M41.7025 40.9453C44.2844 40.9453 46.3776 38.8056 46.3776 36.166C46.3776 33.5265 44.2844 31.3867 41.7025 31.3867C39.1205 31.3867 37.0273 33.5265 37.0273 36.166C37.0273 38.8056 39.1205 40.9453 41.7025 40.9453Z" fill="#141313"/>
<path d="M57.8528 40.9453C60.4348 40.9453 62.528 38.8056 62.528 36.166C62.528 33.5265 60.4348 31.3867 57.8528 31.3867C55.2709 31.3867 53.1777 33.5265 53.1777 36.166C53.1777 38.8056 55.2709 40.9453 57.8528 40.9453Z" fill="#141313"/>
<path d="M202.774 32.5723H191.302C191.075 32.5768 190.858 32.6704 190.699 32.8328C190.54 32.9952 190.451 33.2135 190.451 33.4409C190.451 33.6683 190.54 33.8867 190.699 34.0491C190.858 34.2115 191.075 34.305 191.302 34.3096H202.774C203.002 34.305 203.218 34.2115 203.378 34.0491C203.537 33.8867 203.626 33.6683 203.626 33.4409C203.626 33.2135 203.537 32.9952 203.378 32.8328C203.218 32.6704 203.002 32.5768 202.774 32.5723V32.5723Z" fill="#141313"/>
<path d="M202.774 35.832H191.302C191.075 35.8366 190.858 35.9301 190.699 36.0925C190.54 36.2549 190.451 36.4733 190.451 36.7007C190.451 36.9281 190.54 37.1464 190.699 37.3089C190.858 37.4713 191.075 37.5648 191.302 37.5694H202.774C203.002 37.5648 203.218 37.4713 203.378 37.3089C203.537 37.1464 203.626 36.9281 203.626 36.7007C203.626 36.4733 203.537 36.2549 203.378 36.0925C203.218 35.9301 203.002 35.8366 202.774 35.832V35.832Z" fill="#141313"/>
<path d="M202.774 39.0879H191.302C191.075 39.0925 190.858 39.186 190.699 39.3484C190.54 39.5108 190.451 39.7291 190.451 39.9566C190.451 40.184 190.54 40.4023 190.699 40.5647C190.858 40.7271 191.075 40.8207 191.302 40.8252H202.774C203.002 40.8207 203.218 40.7271 203.378 40.5647C203.537 40.4023 203.626 40.184 203.626 39.9566C203.626 39.7291 203.537 39.5108 203.378 39.3484C203.218 39.186 203.002 39.0925 202.774 39.0879V39.0879Z" fill="#141313"/>
<path d="M111.992 58.7106L111.344 56.8176L194.202 13.7656L194.849 15.6586L111.992 58.7106Z" fill="#141313"/>
<path d="M361.992 138.452L361.344 136.559L411.202 93.7246L411.849 95.6166L361.992 138.452Z" fill="#141313"/>
<path d="M266.202 148.424L183.344 105.372L183.992 103.479L266.849 146.531L266.202 148.424Z" fill="#141313"/>
<path d="M308.617 118.465L260.042 38.7185L261.577 37.4355L310.151 117.182L308.617 118.465Z" fill="#141313"/>
<path d="M346.525 14.5539L299.218 14.3359V12.3359L346.525 12.5539V14.5539Z" fill="#141313"/>
<path d="M432.222 26.959H379.222C375.774 26.959 372.468 25.5894 370.03 23.1514C367.592 20.7134 366.222 17.4068 366.222 13.959C366.222 10.5112 367.592 7.20457 370.03 4.7666C372.468 2.32863 375.774 0.958984 379.222 0.958984H432.222C435.67 0.958984 438.977 2.32863 441.415 4.7666C443.853 7.20457 445.222 10.5112 445.222 13.959C445.222 17.4068 443.853 20.7134 441.415 23.1514C438.977 25.5894 435.67 26.959 432.222 26.959V26.959Z" fill="#1E1C1C"/>
<path d="M498.222 102.959H445.222C441.774 102.959 438.468 101.589 436.03 99.1514C433.592 96.7134 432.222 93.4068 432.222 89.959C432.222 86.5112 433.592 83.2046 436.03 80.7666C438.468 78.3286 441.774 76.959 445.222 76.959H498.222C501.67 76.959 504.977 78.3286 507.415 80.7666C509.853 83.2046 511.222 86.5112 511.222 89.959C511.222 93.4068 509.853 96.7134 507.415 99.1514C504.977 101.589 501.67 102.959 498.222 102.959V102.959Z" fill="#1E1C1C"/>
<path d="M412.525 156.553L365.218 156.336V154.336L412.525 154.553V156.553Z" fill="#141313"/>
<path d="M498.222 168.959H445.222C441.774 168.959 438.468 167.589 436.03 165.151C433.592 162.713 432.222 159.407 432.222 155.959C432.222 152.511 433.592 149.205 436.03 146.767C438.468 144.329 441.774 142.959 445.222 142.959H498.222C501.67 142.959 504.977 144.329 507.415 146.767C509.853 149.205 511.222 152.511 511.222 155.959C511.222 159.407 509.853 162.713 507.415 165.151C504.977 167.589 501.67 168.959 498.222 168.959V168.959Z" fill="#1E1C1C"/>
<path d="M343.222 160H290.222C286.774 160 283.468 158.63 281.03 156.192C278.592 153.754 277.222 150.448 277.222 147C277.222 143.552 278.592 140.246 281.03 137.808C283.468 135.37 286.774 134 290.222 134H343.222C346.67 134 349.977 135.37 352.415 137.808C354.853 140.246 356.222 143.552 356.222 147C356.222 150.448 354.853 153.754 352.415 156.192C349.977 158.63 346.67 160 343.222 160V160Z" fill="#1E1C1C"/>
<path d="M271.222 26H218.222C214.774 26 211.468 24.6304 209.03 22.1924C206.592 19.7544 205.222 16.4478 205.222 13C205.222 9.55219 206.592 6.24559 209.03 3.80762C211.468 1.36964 214.774 1.45314e-07 218.222 0H271.222C274.67 1.45314e-07 277.977 1.36964 280.415 3.80762C282.853 6.24559 284.222 9.55219 284.222 13C284.222 16.4478 282.853 19.7544 280.415 22.1924C277.977 24.6304 274.67 26 271.222 26V26Z" fill="#1E1C1C"/>
<path d="M158.585 148H72.6323C69.0469 147.996 65.6094 146.57 63.0742 144.035C60.5389 141.499 59.1129 138.062 59.1089 134.477V77.5235C59.1129 73.9381 60.5389 70.5006 63.0742 67.9654C65.6095 65.4301 69.0469 64.004 72.6323 64H158.585C162.171 64.004 165.608 65.4301 168.144 67.9654C170.679 70.5006 172.105 73.9381 172.109 77.5235V134.477C172.105 138.062 170.679 141.499 168.143 144.035C165.608 146.57 162.171 147.996 158.585 148ZM72.6323 66C69.5771 66.0035 66.6481 67.2187 64.4878 69.379C62.3275 71.5393 61.1124 74.4683 61.1089 77.5235V134.477C61.1124 137.532 62.3275 140.461 64.4879 142.621C66.6482 144.781 69.5771 145.997 72.6323 146H158.585C161.641 145.997 164.57 144.781 166.73 142.621C168.89 140.461 170.105 137.532 170.109 134.477V77.5235C170.105 74.4683 168.89 71.5393 166.73 69.379C164.57 67.2187 161.641 66.0035 158.585 66H72.6323Z" fill="#141313"/>
<path d="M98.1001 82H75.1089V84H98.1001V82Z" fill="#141313"/>
<path d="M126.109 90H75.1089V92H126.109V90Z" fill="#141313"/>
<path d="M126.109 97H75.1089V99H126.109V97Z" fill="#141313"/>
<path d="M140.109 104H75.1089V106H140.109V104Z" fill="#141313"/>
<path d="M109.109 111H75.1089V113H109.109V111Z" fill="#141313"/>
<path d="M137.109 118H75.1089V120H137.109V118Z" fill="#141313"/>
<path d="M86.1089 125H75.1089V127H86.1089V125Z" fill="#141313"/>
</svg>
