<svg width="170" height="100" viewBox="0 0 170 100" fill="none" xmlns="http://www.w3.org/2000/svg">
<path d="M103.455 42.6292C103.455 63.6058 84.7768 80.6881 61.6364 80.6881C38.496 80.6881 19.8181 63.6058 19.8181 42.6292C19.8181 21.6526 38.496 4.57031 61.6364 4.57031C84.7768 4.57031 103.455 21.6526 103.455 42.6292Z" fill="#0D0C0C" stroke="#1e9c65"/>
<path d="M118.229 72.7454C118.229 76.4588 114.91 79.5465 110.716 79.5465C106.522 79.5465 103.203 76.4588 103.203 72.7454C103.203 69.032 106.522 65.9443 110.716 65.9443C114.91 65.9443 118.229 69.032 118.229 72.7454Z" fill="#0D0C0C" stroke="#1e9c65"/>
<path d="M95.466 92.369C75.2399 92.3699 57.6418 78.622 55.042 59.8706L55.5389 59.8133C58.1065 78.3332 75.4903 91.9116 95.4664 91.9127C97.1636 91.9126 98.8591 91.8152 100.543 91.6208C122.575 89.0848 138.235 70.6897 135.452 50.6149L135.948 50.5576C138.766 70.8819 122.912 89.5061 100.606 92.0736C98.901 92.2701 97.1844 92.3688 95.466 92.369Z" fill="#1e9c65"/>
<path d="M96.552 99.9994H88.5883C88.4181 99.9997 88.2501 99.965 88.0968 99.8977C87.9435 99.8304 87.8089 99.7324 87.7032 99.6109C87.5987 99.4926 87.5249 99.3542 87.4875 99.2062C87.4501 99.0582 87.45 98.9044 87.4871 98.7563C88.2428 95.7174 88.1982 92.5587 87.3569 89.5385C87.2995 89.3299 87.3158 89.1101 87.4036 88.9104C87.4913 88.7108 87.6459 88.5414 87.8455 88.4266C90.6005 86.8714 93.6005 86.92 97.0173 88.5753C97.1726 88.6498 97.3069 88.756 97.4098 88.8856C97.5127 89.0152 97.5813 89.1647 97.6103 89.3225C98.1761 92.5653 98.1959 95.8678 97.669 99.1161C97.6315 99.3615 97.4977 99.5862 97.2923 99.7486C97.0869 99.911 96.824 100 96.552 99.9994V99.9994Z" fill="#1e9c65"/>
<path d="M60.2436 61.2125H52.2798C52.1097 61.2129 51.9417 61.1781 51.7884 61.1108C51.6351 61.0435 51.5005 60.9455 51.3947 60.8241C51.2902 60.7057 51.2165 60.5674 51.1791 60.4194C51.1417 60.2713 51.1415 60.1175 51.1787 59.9695C51.9371 56.9201 51.8895 53.7501 51.0397 50.7208C50.9859 50.5213 50.9989 50.3118 51.077 50.1191C51.155 49.9264 51.2946 49.7595 51.4777 49.6397C55.5727 46.9562 58.7977 47.034 61.063 49.8715C61.1652 50.0009 61.233 50.15 61.2612 50.3072C61.8665 53.6228 61.9 57.0042 61.3605 60.3292C61.323 60.5746 61.1892 60.7993 60.9838 60.9617C60.7785 61.1241 60.5155 61.2132 60.2436 61.2125V61.2125Z" fill="#1e9c65"/>
<path d="M92.831 93.1913H90.0915C89.9402 93.191 89.7952 93.136 89.6884 93.0385C89.5815 92.9409 89.5215 92.8087 89.5215 92.6708C89.5215 92.533 89.5815 92.4008 89.6884 92.3032C89.7952 92.2056 89.9402 92.1507 90.0915 92.1504H92.831C92.9825 92.1504 93.1278 92.2052 93.2349 92.3028C93.3421 92.4004 93.4022 92.5328 93.4022 92.6708C93.4022 92.8089 93.3421 92.9413 93.2349 93.0389C93.1278 93.1365 92.9825 93.1913 92.831 93.1913Z" fill="#0D0C0C"/>
<path d="M96.1807 95.247H90.0915C89.9402 95.2467 89.7952 95.1917 89.6884 95.0941C89.5815 94.9966 89.5215 94.8643 89.5215 94.7265C89.5215 94.5887 89.5815 94.4564 89.6884 94.3589C89.7952 94.2613 89.9402 94.2063 90.0915 94.2061H96.1807C96.332 94.2063 96.477 94.2613 96.5838 94.3589C96.6907 94.4564 96.7507 94.5887 96.7507 94.7265C96.7507 94.8643 96.6907 94.9966 96.5838 95.0941C96.477 95.1917 96.332 95.2467 96.1807 95.247Z" fill="#0D0C0C"/>
<path d="M57.7746 53.9462H55.0351C54.8838 53.9459 54.7388 53.8909 54.632 53.7934C54.5251 53.6958 54.4651 53.5636 54.4651 53.4257C54.4651 53.2879 54.5251 53.1557 54.632 53.0581C54.7388 52.9605 54.8838 52.9056 55.0351 52.9053H57.7746C57.9259 52.9056 58.0709 52.9605 58.1778 53.0581C58.2846 53.1557 58.3446 53.2879 58.3446 53.4257C58.3446 53.5636 58.2846 53.6958 58.1778 53.7934C58.0709 53.8909 57.9259 53.9459 57.7746 53.9462V53.9462Z" fill="#0D0C0C"/>
<path d="M57.7746 55.7714H55.0351C54.8838 55.7711 54.7388 55.7161 54.632 55.6186C54.5251 55.521 54.4651 55.3888 54.4651 55.2509C54.4651 55.1131 54.5251 54.9809 54.632 54.8833C54.7388 54.7857 54.8838 54.7308 55.0351 54.7305H57.7746C57.9259 54.7308 58.0709 54.7857 58.1778 54.8833C58.2846 54.9809 58.3446 55.1131 58.3446 55.2509C58.3446 55.3888 58.2846 55.521 58.1778 55.6186C58.0709 55.7161 57.9259 55.7711 57.7746 55.7714V55.7714Z" fill="#0D0C0C"/>
<path d="M57.7746 57.5975H55.0351C54.8838 57.5973 54.7388 57.5423 54.632 57.4447C54.5251 57.3472 54.4651 57.2149 54.4651 57.0771C54.4651 56.9392 54.5251 56.807 54.632 56.7095C54.7388 56.6119 54.8838 56.5569 55.0351 56.5566H57.7746C57.9259 56.5569 58.0709 56.6119 58.1778 56.7095C58.2846 56.807 58.3446 56.9392 58.3446 57.0771C58.3446 57.2149 58.2846 57.3472 58.1778 57.4447C58.0709 57.5423 57.9259 57.5973 57.7746 57.5975V57.5975Z" fill="#0D0C0C"/>
<path d="M167.427 69.7855H141.969C141.287 69.7848 140.633 69.5375 140.151 69.0979C139.668 68.6584 139.397 68.0624 139.396 67.4407V53.1543C139.397 52.5327 139.668 51.9367 140.151 51.4971C140.633 51.0575 141.287 50.8103 141.969 50.8096H167.427C168.109 50.8103 168.763 51.0575 169.245 51.4971C169.728 51.9367 169.999 52.5327 170 53.1543V67.4407C169.999 68.0624 169.728 68.6584 169.245 69.098C168.763 69.5375 168.109 69.7848 167.427 69.7855V69.7855Z" fill="#1e9c65"/>
<path d="M157.312 67.946H143.759C143.12 67.9453 142.507 67.7138 142.056 67.3021C141.604 66.8904 141.35 66.3322 141.349 65.75V54.8463C141.35 54.2641 141.604 53.7059 142.056 53.2943C142.507 52.8826 143.12 52.651 143.759 52.6504H165.637C166.276 52.651 166.889 52.8826 167.341 53.2943C167.793 53.7059 168.047 54.2641 168.047 54.8463V58.1645C168.044 60.7578 166.912 63.2441 164.9 65.0778C162.887 66.9116 160.158 67.943 157.312 67.946V67.946Z" fill="#0D0C0C"/>
<path d="M163.455 58.6209H145.941C145.79 58.6209 145.645 58.5661 145.537 58.4685C145.43 58.3709 145.37 58.2385 145.37 58.1005C145.37 57.9625 145.43 57.8301 145.537 57.7325C145.645 57.6349 145.79 57.5801 145.941 57.5801H163.455C163.606 57.5801 163.751 57.6349 163.859 57.7325C163.966 57.8301 164.026 57.9625 164.026 58.1005C164.026 58.2385 163.966 58.3709 163.859 58.4685C163.751 58.5661 163.606 58.6209 163.455 58.6209V58.6209Z" fill="#1e9c65"/>
<path d="M148.681 60.6766H145.942C145.79 60.6764 145.645 60.6214 145.538 60.5238C145.432 60.4263 145.372 60.294 145.372 60.1562C145.372 60.0184 145.432 59.8861 145.538 59.7886C145.645 59.691 145.79 59.636 145.942 59.6357H148.681C148.832 59.636 148.977 59.691 149.084 59.7886C149.191 59.8861 149.251 60.0184 149.251 60.1562C149.251 60.294 149.191 60.4263 149.084 60.5238C148.977 60.6214 148.832 60.6764 148.681 60.6766V60.6766Z" fill="#1e9c65"/>
<path d="M153.533 62.7343H145.941C145.79 62.7343 145.645 62.6794 145.537 62.5818C145.43 62.4842 145.37 62.3518 145.37 62.2138C145.37 62.0758 145.43 61.9434 145.537 61.8458C145.645 61.7482 145.79 61.6934 145.941 61.6934H153.533C153.684 61.6934 153.83 61.7482 153.937 61.8458C154.044 61.9434 154.104 62.0758 154.104 62.2138C154.104 62.3518 154.044 62.4842 153.937 62.5818C153.83 62.6794 153.684 62.7343 153.533 62.7343V62.7343Z" fill="#1e9c65"/>
<path d="M138.508 55.4328C141.482 55.4328 143.893 53.2359 143.893 50.526C143.893 47.816 141.482 45.6191 138.508 45.6191C135.533 45.6191 133.122 47.816 133.122 50.526C133.122 53.2359 135.533 55.4328 138.508 55.4328Z" fill="#1e9c65"/>
<path d="M77.5469 13.199C77.9034 11.5503 78.6128 9.98161 79.6346 8.58265C80.6565 7.18369 81.9707 5.98182 83.5023 5.04565C86.5956 3.15497 90.3864 2.46135 94.0409 3.11737C95.8504 3.4422 97.572 4.08859 99.1074 5.01965C100.643 5.95072 101.962 7.1482 102.989 8.54375C104.017 9.9393 104.732 11.5056 105.095 13.1531C105.459 14.8007 105.462 16.4973 105.105 18.1461L104.614 18.0579C105.308 14.8468 104.574 11.516 102.573 8.79807C100.572 6.08016 97.4682 4.19785 93.9441 3.56522C90.42 2.93258 86.7643 3.60145 83.7814 5.42468C80.7985 7.24791 78.7327 10.0762 78.0384 13.2872L77.5469 13.199Z" fill="#1e9c65"/>
<path d="M82.8799 21.2717L74.9229 21.572C74.753 21.5787 74.5835 21.5503 74.4273 21.4889C74.2711 21.4274 74.1322 21.3346 74.021 21.2172C73.9112 21.1029 73.8312 20.9675 73.7871 20.821C73.743 20.6745 73.7359 20.5208 73.7663 20.3715C74.3769 17.3377 74.199 14.2158 73.2467 11.2559C73.1732 11.0296 73.1881 10.787 73.2889 10.5695C73.3897 10.3521 73.5702 10.1732 73.7996 10.0634C77.0587 8.52054 80.1125 8.44231 82.8756 9.83059C83.0205 9.90229 83.1464 10.0019 83.2446 10.1225C83.3429 10.2431 83.4111 10.3817 83.4445 10.5288C84.1637 13.7586 84.3361 17.0697 83.9558 20.347C83.9294 20.5936 83.8059 20.8232 83.6081 20.9932C83.4103 21.1632 83.1516 21.2621 82.8799 21.2717Z" fill="#1e9c65"/>
<path d="M82.5431 16.5268L76.4591 16.7564C76.3841 16.7593 76.3092 16.7487 76.2387 16.7252C76.1683 16.7017 76.1036 16.6658 76.0483 16.6195C75.9931 16.5732 75.9484 16.5174 75.9168 16.4554C75.8852 16.3934 75.8674 16.3263 75.8643 16.2579C75.8612 16.1896 75.8729 16.1214 75.8987 16.0572C75.9245 15.993 75.964 15.9341 76.0149 15.8838C76.0657 15.8335 76.1269 15.7928 76.1951 15.7641C76.2632 15.7354 76.3368 15.7191 76.4118 15.7164L82.4958 15.4868C82.5708 15.4839 82.6456 15.4946 82.716 15.5181C82.7864 15.5416 82.8511 15.5776 82.9063 15.6239C82.9615 15.6701 83.0061 15.7259 83.0377 15.7879C83.0692 15.8499 83.0871 15.917 83.0902 15.9852C83.0933 16.0535 83.0816 16.1217 83.0558 16.1859C83.03 16.2501 82.9905 16.309 82.9397 16.3593C82.8889 16.4095 82.8277 16.4502 82.7597 16.479C82.6916 16.5077 82.618 16.524 82.5431 16.5268V16.5268Z" fill="#0D0C0C"/>
<path d="M82.4603 14.7036L76.3763 14.9332C76.225 14.9389 76.0773 14.8896 75.9659 14.7961C75.8544 14.7026 75.7883 14.5726 75.782 14.4347C75.7757 14.2968 75.8298 14.1622 75.9324 14.0607C76.035 13.9591 76.1777 13.8988 76.3291 13.8931L82.413 13.6635C82.5644 13.6578 82.7121 13.7071 82.8235 13.8006C82.935 13.8941 83.0011 14.0241 83.0074 14.162C83.0137 14.2999 82.9595 14.4345 82.8569 14.536C82.7544 14.6376 82.6117 14.6978 82.4603 14.7036V14.7036Z" fill="#0D0C0C"/>
<path d="M134.953 18.9759H109.496C108.813 18.9752 108.159 18.728 107.677 18.2884C107.195 17.8488 106.923 17.2528 106.922 16.6312V2.34474C106.923 1.72309 107.195 1.12711 107.677 0.687538C108.159 0.247966 108.813 0.000704731 109.496 0H134.953C135.635 0.000702314 136.289 0.247962 136.772 0.687534C137.254 1.12711 137.526 1.72309 137.526 2.34474V16.6312C137.526 17.2528 137.254 17.8488 136.772 18.2884C136.289 18.728 135.635 18.9752 134.953 18.9759V18.9759Z" fill="#1e9c65"/>
<path d="M124.839 17.1354H111.285C110.646 17.1348 110.034 16.9032 109.582 16.4915C109.13 16.0799 108.876 15.5217 108.875 14.9395V4.03576C108.876 3.45356 109.13 2.89539 109.582 2.48372C110.034 2.07204 110.646 1.84049 111.285 1.83984H133.164C133.803 1.84049 134.415 2.07205 134.867 2.48373C135.319 2.8954 135.573 3.45357 135.574 4.03576V7.35399C135.571 9.9473 134.439 12.4335 132.426 14.2673C130.413 16.101 127.685 17.1325 124.839 17.1354V17.1354Z" fill="#0D0C0C"/>
<path d="M130.981 7.81137H113.468C113.316 7.81137 113.171 7.75654 113.064 7.65894C112.957 7.56134 112.896 7.42897 112.896 7.29094C112.896 7.15291 112.957 7.02054 113.064 6.92294C113.171 6.82534 113.316 6.77051 113.468 6.77051H130.981C131.133 6.77051 131.278 6.82534 131.385 6.92294C131.492 7.02054 131.552 7.15291 131.552 7.29094C131.552 7.42897 131.492 7.56134 131.385 7.65894C131.278 7.75654 131.133 7.81137 130.981 7.81137Z" fill="#1e9c65"/>
<path d="M116.208 9.86708H113.468C113.317 9.86679 113.172 9.81183 113.065 9.71426C112.958 9.61668 112.898 9.48447 112.898 9.34663C112.898 9.20878 112.958 9.07657 113.065 8.97899C113.172 8.88142 113.317 8.82646 113.468 8.82617H116.208C116.359 8.82646 116.504 8.88142 116.611 8.97899C116.717 9.07657 116.778 9.20878 116.778 9.34663C116.778 9.48447 116.717 9.61668 116.611 9.71426C116.504 9.81183 116.359 9.86679 116.208 9.86708Z" fill="#1e9c65"/>
<path d="M121.059 11.9237H113.468C113.316 11.9237 113.171 11.8689 113.064 11.7713C112.957 11.6737 112.896 11.5413 112.896 11.4033C112.896 11.2652 112.957 11.1329 113.064 11.0353C113.171 10.9376 113.316 10.8828 113.468 10.8828H121.059C121.211 10.8831 121.356 10.9381 121.462 11.0356C121.569 11.1332 121.629 11.2654 121.629 11.4033C121.629 11.5411 121.569 11.6733 121.462 11.7709C121.356 11.8685 121.211 11.9234 121.059 11.9237V11.9237Z" fill="#1e9c65"/>
<path d="M109.948 21.4492C111.518 19.1476 110.743 16.1221 108.217 14.6914C105.691 13.2607 102.371 13.9667 100.801 16.2682C99.2306 18.5698 100.005 21.5953 102.531 23.026C105.057 24.4567 108.378 23.7507 109.948 21.4492Z" fill="#1e9c65"/>
<path d="M33.6365 57.1385C31.4271 51.8165 31.6284 45.9128 34.1962 40.7261C36.7639 35.5395 41.4878 31.4946 47.3286 29.4815C53.1694 27.4683 59.6487 27.6517 65.3411 29.9914C71.0335 32.331 75.4727 36.6352 77.6821 41.9572L77.2136 42.1187C76.1429 39.5396 74.5251 37.1779 72.4527 35.1685C70.3803 33.1591 67.8938 31.5413 65.1351 30.4075C62.3765 29.2736 59.3998 28.646 56.375 28.5603C53.3502 28.4747 50.3364 28.9328 47.5059 29.9084C44.6753 30.884 42.0834 32.358 39.8781 34.2463C37.6727 36.1346 35.8972 38.4002 34.6528 40.9138C33.4084 43.4273 32.7196 46.1396 32.6256 48.8957C32.5316 51.6518 33.0343 54.3978 34.1051 56.9769L33.6365 57.1385Z" fill="#1e9c65"/>
<path d="M54.2338 35.8882H46.27C46.0999 35.8885 45.9319 35.8537 45.7786 35.7864C45.6253 35.7192 45.4907 35.6211 45.3849 35.4997C45.2804 35.3814 45.2067 35.243 45.1693 35.095C45.1319 34.947 45.1317 34.7932 45.1689 34.6451C45.9228 31.6133 45.8801 28.4621 45.0444 25.4482C44.9852 25.2349 45.0033 25.0099 45.0962 24.8068C45.1891 24.6037 45.3517 24.4335 45.5597 24.3217C48.4444 22.7916 51.5251 22.8383 54.7158 24.4608C54.8668 24.5359 54.9971 24.6414 55.0966 24.7693C55.1961 24.8971 55.2622 25.0441 55.29 25.1988C55.8579 28.4456 55.8784 31.7524 55.3507 35.0048C55.3132 35.2502 55.1794 35.4749 54.9741 35.6373C54.7687 35.7997 54.5057 35.8889 54.2338 35.8882V35.8882Z" fill="#1e9c65"/>
<path d="M50.5127 28.8495H47.7731C47.6218 28.8492 47.4769 28.7943 47.37 28.6967C47.2631 28.5991 47.2031 28.4669 47.2031 28.329C47.2031 28.1912 47.2631 28.059 47.37 27.9614C47.4769 27.8638 47.6218 27.8089 47.7731 27.8086H50.5127C50.664 27.8089 50.8089 27.8638 50.9158 27.9614C51.0227 28.059 51.0827 28.1912 51.0827 28.329C51.0827 28.4669 51.0227 28.5991 50.9158 28.6967C50.8089 28.7943 50.664 28.8492 50.5127 28.8495Z" fill="#0D0C0C"/>
<path d="M53.8623 30.9052H47.7731C47.6216 30.9052 47.4763 30.8503 47.3692 30.7527C47.2621 30.6551 47.2019 30.5228 47.2019 30.3847C47.2019 30.2467 47.2621 30.1143 47.3692 30.0167C47.4763 29.9191 47.6216 29.8643 47.7731 29.8643H53.8623C54.0136 29.8645 54.1586 29.9195 54.2654 30.0171C54.3723 30.1147 54.4323 30.2469 54.4323 30.3847C54.4323 30.5226 54.3723 30.6548 54.2654 30.7524C54.1586 30.8499 54.0136 30.9049 53.8623 30.9052V30.9052Z" fill="#0D0C0C"/>
<path d="M28.0307 56.8499H2.57333C1.89108 56.8492 1.23699 56.602 0.75456 56.1624C0.272133 55.7228 0.000769458 55.1268 0 54.5052V40.2188C0.000769458 39.5971 0.272133 39.0011 0.75456 38.5616C1.23699 38.122 1.89108 37.8747 2.57333 37.874H28.0307C28.7129 37.8747 29.367 38.122 29.8495 38.5616C30.3319 39.0011 30.6033 39.5971 30.604 40.2188V54.5052C30.6033 55.1269 30.3319 55.7228 29.8495 56.1624C29.367 56.602 28.7129 56.8492 28.0307 56.8499V56.8499Z" fill="#1e9c65"/>
<path d="M17.916 55.0094H4.36278C3.72381 55.0088 3.1112 54.7772 2.65937 54.3656C2.20754 53.9539 1.95337 53.3957 1.95264 52.8135V41.9098C1.95337 41.3276 2.20754 40.7694 2.65937 40.3577C3.1112 39.9461 3.72381 39.7145 4.36278 39.7139H26.2412C26.8802 39.7145 27.4928 39.9461 27.9446 40.3577C28.3964 40.7694 28.6505 41.3276 28.6512 41.9098V45.228C28.648 47.8213 27.5159 50.3076 25.5034 52.1413C23.4908 53.975 20.7622 55.0065 17.916 55.0094Z" fill="#0D0C0C"/>
<path d="M24.0584 45.6854H6.54505C6.39357 45.6854 6.24829 45.6306 6.14117 45.533C6.03405 45.4354 5.97388 45.303 5.97388 45.165C5.97388 45.0269 6.03405 44.8946 6.14117 44.797C6.24829 44.6994 6.39357 44.6445 6.54505 44.6445H24.0584C24.2099 44.6445 24.3552 44.6994 24.4623 44.797C24.5694 44.8946 24.6296 45.0269 24.6296 45.165C24.6296 45.303 24.5694 45.4354 24.4623 45.533C24.3552 45.6306 24.2099 45.6854 24.0584 45.6854Z" fill="#1e9c65"/>
<path d="M9.28514 47.7421H6.54559C6.39431 47.7418 6.24932 47.6868 6.14246 47.5893C6.0356 47.4917 5.97559 47.3595 5.97559 47.2216C5.97559 47.0838 6.0356 46.9516 6.14246 46.854C6.24932 46.7564 6.39431 46.7015 6.54559 46.7012H9.28514C9.43643 46.7015 9.5814 46.7564 9.68827 46.854C9.79513 46.9516 9.85515 47.0838 9.85515 47.2216C9.85515 47.3595 9.79513 47.4917 9.68827 47.5893C9.5814 47.6868 9.43643 47.7418 9.28514 47.7421V47.7421Z" fill="#1e9c65"/>
<path d="M14.1372 49.7987H6.54559C6.39431 49.7984 6.24932 49.7435 6.14246 49.6459C6.0356 49.5483 5.97559 49.4161 5.97559 49.2783C5.97559 49.1404 6.0356 49.0082 6.14246 48.9106C6.24932 48.8131 6.39431 48.7581 6.54559 48.7578H14.1372C14.2887 48.7578 14.434 48.8126 14.5411 48.9103C14.6482 49.0079 14.7084 49.1402 14.7084 49.2783C14.7084 49.4163 14.6482 49.5487 14.5411 49.6463C14.434 49.7439 14.2887 49.7987 14.1372 49.7987V49.7987Z" fill="#1e9c65"/>
<path d="M38.082 58.8671C39.6522 56.5656 38.8774 53.54 36.3515 52.1094C33.8255 50.6787 30.505 51.3847 28.9348 53.6862C27.3647 55.9877 28.1395 59.0133 30.6654 60.444C33.1913 61.8747 36.5119 61.1687 38.082 58.8671Z" fill="#1e9c65"/>
<path d="M81.5278 49.5773H73.564C73.3938 49.5776 73.2258 49.5428 73.0725 49.4755C72.9193 49.4082 72.7847 49.3102 72.6789 49.1888C72.5744 49.0704 72.5007 48.9321 72.4633 48.7841C72.4258 48.6361 72.4257 48.4823 72.4629 48.3342C73.2154 45.3077 73.1742 42.1623 72.3428 39.153C72.2838 38.9367 72.3038 38.7089 72.3998 38.5039C72.4957 38.2989 72.6625 38.1281 72.8746 38.0172C76.7433 35.9994 79.8066 36.0552 82.2397 38.1876C82.4102 38.3397 82.5225 38.5378 82.56 38.7525C83.1511 42.0425 83.1797 45.396 82.6447 48.6939C82.6072 48.9393 82.4734 49.164 82.268 49.3264C82.0627 49.4888 81.7997 49.5779 81.5278 49.5773V49.5773Z" fill="#1e9c65"/>
<path d="M78.3076 42.7675H75.5681C75.4168 42.7672 75.2718 42.7122 75.1649 42.6146C75.0581 42.5171 74.998 42.3849 74.998 42.247C74.998 42.1092 75.0581 41.977 75.1649 41.8794C75.2718 41.7818 75.4168 41.7269 75.5681 41.7266H78.3076C78.4589 41.7269 78.6039 41.7818 78.7107 41.8794C78.8176 41.977 78.8776 42.1092 78.8776 42.247C78.8776 42.3849 78.8176 42.5171 78.7107 42.6146C78.6039 42.7122 78.4589 42.7672 78.3076 42.7675Z" fill="#0D0C0C"/>
<path d="M81.6572 44.8231H75.568C75.4165 44.8231 75.2712 44.7683 75.1641 44.6707C75.057 44.5731 74.9968 44.4407 74.9968 44.3027C74.9968 44.1647 75.057 44.0323 75.1641 43.9347C75.2712 43.8371 75.4165 43.7822 75.568 43.7822H81.6572C81.8085 43.7825 81.9535 43.8375 82.0604 43.9351C82.1672 44.0326 82.2272 44.1648 82.2272 44.3027C82.2272 44.4405 82.1672 44.5727 82.0604 44.6703C81.9535 44.7679 81.8085 44.8229 81.6572 44.8231V44.8231Z" fill="#0D0C0C"/>
</svg>
