<svg width="170" height="100" viewBox="0 0 170 100" fill="none" xmlns="http://www.w3.org/2000/svg">
<path d="M114.292 8.8106H59.6539C59.0899 8.80984 58.5493 8.60173 58.1507 8.23197C57.7522 7.86222 57.5283 7.36105 57.5283 6.83853C57.5283 6.316 57.7522 5.81483 58.1507 5.44508C58.5493 5.07532 59.0899 4.86721 59.6539 4.86645H114.292C117.038 4.83094 117.065 8.84641 114.292 8.8106Z" fill="#1e9c65"/>
<path d="M127.508 19.0697H58.451C58.1473 19.0689 57.8562 18.8533 57.6415 18.4703C57.4269 18.0872 57.3064 17.568 57.3064 17.0267C57.3064 16.4854 57.4269 15.9662 57.6415 15.5831C57.8562 15.2 58.1473 14.9844 58.451 14.9836H127.508C128.986 14.9469 129.001 19.1068 127.508 19.0697Z" fill="#1e9c65"/>
<path fill-rule="evenodd" clip-rule="evenodd" d="M170 12.6769C170 19.6782 163.873 25.3539 156.316 25.3539C148.758 25.3539 142.632 19.6782 142.632 12.6769C142.632 5.67566 148.758 0 156.316 0C163.873 0 170 5.67566 170 12.6769ZM153.768 19.1257C153.979 19.2237 154.212 19.2746 154.448 19.2746C154.463 19.2746 154.477 19.2744 154.491 19.2742C154.734 19.2678 154.972 19.2076 155.185 19.0984C155.398 18.9892 155.58 18.8343 155.715 18.6467L163.182 8.27127C163.292 8.11718 163.369 7.94438 163.408 7.76271C163.447 7.58105 163.447 7.39408 163.408 7.21249C163.368 7.03091 163.291 6.85825 163.18 6.70438C163.069 6.55051 162.926 6.41845 162.759 6.31573C162.593 6.21301 162.407 6.14164 162.21 6.1057C162.014 6.06976 161.813 6.06995 161.617 6.10627C161.42 6.14259 161.234 6.21432 161.068 6.31737C160.902 6.42041 160.759 6.55275 160.648 6.70683L154.375 15.4237L151.933 12.407C151.813 12.2587 151.663 12.1338 151.491 12.0393C151.319 11.9448 151.128 11.8826 150.93 11.8563C150.732 11.8301 150.531 11.8402 150.337 11.8861C150.143 11.9321 149.961 12.0129 149.801 12.1241C149.641 12.2352 149.506 12.3745 149.405 12.534C149.303 12.6934 149.236 12.8699 149.208 13.0533C149.179 13.2367 149.19 13.4235 149.24 13.6029C149.29 13.7824 149.377 13.951 149.497 14.0991L153.231 18.7105C153.372 18.8856 153.556 19.0278 153.768 19.1257Z" fill="#1e9c65"/>
<path d="M36.6988 0.108398H2.04225C1.5008 0.108966 0.981708 0.308482 0.598841 0.663168C0.215975 1.01785 0.000610963 1.49875 0 2.00035V21.9891C0.000615824 22.4907 0.215975 22.9716 0.598841 23.3263C0.981707 23.681 1.5008 23.8805 2.04225 23.8811H36.6988C37.2403 23.8805 37.7594 23.681 38.1423 23.3263C38.5251 22.9716 38.7405 22.4907 38.7411 21.9891V2.00035C38.7405 1.49874 38.5251 1.01784 38.1423 0.663148C37.7594 0.30846 37.2403 0.108953 36.6988 0.108398V0.108398ZM37.369 14.4666C37.3607 16.5016 36.4918 18.4525 34.9487 19.9008C33.4056 21.3491 31.3112 22.1795 29.1148 22.2138C25.5983 22.2562 31.0605 22.2727 26.8193 22.2727C17.1211 22.2727 7.00849 22.1868 3.23538 22.1312C2.73895 22.1217 2.2662 21.9328 1.91805 21.6048C1.5699 21.2769 1.37395 20.8358 1.37203 20.3758V2.00183C1.37222 1.83711 1.44283 1.67917 1.5684 1.56255C1.69398 1.44593 1.86429 1.38013 2.0421 1.37954H36.6974C36.8752 1.37973 37.0456 1.44513 37.1715 1.56144C37.2973 1.67774 37.3684 1.83548 37.369 2.00016V14.4666Z" fill="#1e9c65"/>
<path d="M32.1272 12.8669H5.72249C5.48886 12.8666 5.26103 12.7995 5.0701 12.6747C4.87917 12.55 4.73446 12.3737 4.6557 12.17L0.577699 1.57099C0.516835 1.41279 0.497852 1.24336 0.522353 1.07696C0.546853 0.910549 0.614116 0.752023 0.718491 0.614702C0.822865 0.47738 0.961304 0.365278 1.12216 0.287816C1.28302 0.210354 1.46159 0.169798 1.64288 0.169555L37.0559 0.111328H37.0574C37.2448 0.11134 37.4293 0.154433 37.5943 0.236746C37.7593 0.319059 37.8997 0.438021 38.0029 0.582962C38.106 0.727903 38.1688 0.894293 38.1855 1.06722C38.2021 1.24015 38.1722 1.4142 38.0984 1.57378L38.0366 1.54929L38.0984 1.57378L33.1681 12.231C33.081 12.4198 32.9358 12.5807 32.7507 12.6938C32.5657 12.8068 32.3488 12.867 32.1272 12.8669Z" fill="#1e9c65"/>
<path d="M19.3505 15.4814C20.9087 15.4814 22.1719 14.3112 22.1719 12.8677C22.1719 11.4241 20.9087 10.2539 19.3505 10.2539C17.7922 10.2539 16.5291 11.4241 16.5291 12.8677C16.5291 14.3112 17.7922 15.4814 19.3505 15.4814Z" fill="#1e9c65"/>
<path d="M114.292 46.2901H59.6539C59.0899 46.2893 58.5493 46.0812 58.1507 45.7115C57.7522 45.3417 57.5283 44.8405 57.5283 44.318C57.5283 43.7955 57.7522 43.2943 58.1507 42.9246C58.5493 42.5548 59.0899 42.3467 59.6539 42.3459H114.292C117.038 42.3105 117.065 46.3259 114.292 46.2901Z" fill="#1e9c65"/>
<path d="M127.508 56.8432H58.4527C58.1487 56.8432 57.8571 56.6279 57.6421 56.2448C57.4272 55.8616 57.3064 55.342 57.3064 54.8001C57.3064 54.2583 57.4272 53.7386 57.6421 53.3555C57.8571 52.9723 58.1487 52.7571 58.4527 52.7571H127.508C128.986 52.7203 129.001 56.8803 127.508 56.8432Z" fill="#1e9c65"/>
<path fill-rule="evenodd" clip-rule="evenodd" d="M170 50.1555C170 57.1567 163.873 62.8324 156.316 62.8324C148.758 62.8324 142.631 57.1567 142.631 50.1555C142.631 43.1542 148.758 37.4785 156.316 37.4785C163.873 37.4785 170 43.1542 170 50.1555ZM153.767 56.6056C153.979 56.7035 154.212 56.7545 154.448 56.7545C154.462 56.7545 154.476 56.7543 154.491 56.754C154.734 56.7477 154.972 56.6874 155.185 56.5782C155.398 56.4691 155.58 56.3142 155.715 56.1265L163.181 45.7511C163.292 45.597 163.37 45.4242 163.409 45.2424C163.448 45.0606 163.448 44.8735 163.409 44.6918C163.369 44.51 163.292 44.3372 163.181 44.1832C163.069 44.0292 162.927 43.897 162.76 43.7942C162.594 43.6914 162.407 43.62 162.211 43.5841C162.014 43.5482 161.812 43.5485 161.616 43.5849C161.42 43.6214 161.234 43.6933 161.068 43.7965C160.902 43.8998 160.759 44.0324 160.648 44.1867L154.375 52.9035L151.933 49.8869C151.813 49.7386 151.663 49.6136 151.491 49.5191C151.319 49.4246 151.128 49.3625 150.93 49.3362C150.732 49.3099 150.531 49.3201 150.337 49.366C150.143 49.4119 149.961 49.4928 149.801 49.6039C149.641 49.7151 149.506 49.8544 149.404 50.0138C149.303 50.1732 149.236 50.3497 149.207 50.5331C149.179 50.7166 149.19 50.9033 149.24 51.0828C149.29 51.2622 149.377 51.4308 149.497 51.579L153.23 56.1903C153.372 56.3655 153.556 56.5077 153.767 56.6056Z" fill="#1e9c65"/>
<path d="M36.6988 37.5889H2.04225C1.5008 37.5894 0.981707 37.789 0.598841 38.1436C0.215975 38.4983 0.000614609 38.9792 0 39.4808V59.4696C0.000619467 59.9712 0.215976 60.4521 0.598841 60.8068C0.981706 61.1615 1.5008 61.361 2.04225 61.3616H36.6988C37.2403 61.361 37.7594 61.1615 38.1422 60.8068C38.5251 60.4521 38.7405 59.9712 38.7411 59.4696V39.4808C38.7405 38.9792 38.5251 38.4983 38.1423 38.1436C37.7594 37.7889 37.2403 37.5894 36.6988 37.5889V37.5889ZM37.369 51.9471C37.3607 53.9821 36.4918 55.933 34.9487 57.3813C33.4056 58.8296 31.3112 59.66 29.1148 59.6942C25.5983 59.7366 31.0605 59.7532 26.8193 59.7532C17.1211 59.7532 7.00849 59.6673 3.23538 59.6116C2.73895 59.6022 2.2662 59.4133 1.91805 59.0853C1.5699 58.7574 1.37394 58.3163 1.37203 57.8563V39.4823C1.37222 39.3176 1.44283 39.1597 1.5684 39.043C1.69398 38.9264 1.86429 38.8606 2.0421 38.86H36.6974C36.8752 38.8602 37.0456 38.9256 37.1715 39.0419C37.2973 39.1582 37.3684 39.316 37.369 39.4807V51.9471Z" fill="#1e9c65"/>
<path d="M32.1272 50.3473H5.72252C5.48889 50.347 5.26106 50.2799 5.07013 50.1552C4.8792 50.0305 4.73448 49.8542 4.65572 49.6504L0.577698 39.0515C0.516834 38.8933 0.497852 38.7238 0.522353 38.5574C0.546853 38.391 0.614116 38.2325 0.718491 38.0952C0.822865 37.9578 0.961304 37.8457 1.12216 37.7683C1.28302 37.6908 1.4616 37.6503 1.6429 37.65L37.0559 37.5918H37.0575C37.2449 37.5918 37.4293 37.6349 37.5943 37.7172C37.7593 37.7995 37.8997 37.9185 38.0029 38.0634C38.106 38.2084 38.1688 38.3748 38.1854 38.5477C38.2021 38.7206 38.1722 38.8947 38.0984 39.0542L38.0366 39.0298L38.0984 39.0542L33.1681 49.7114C33.081 49.9003 32.9358 50.0612 32.7508 50.1742C32.5657 50.2873 32.3489 50.3475 32.1272 50.3473Z" fill="#1e9c65"/>
<path d="M19.3505 52.9599C20.9087 52.9599 22.1719 51.7897 22.1719 50.3462C22.1719 48.9026 20.9087 47.7324 19.3505 47.7324C17.7922 47.7324 16.5291 48.9026 16.5291 50.3462C16.5291 51.7897 17.7922 52.9599 19.3505 52.9599Z" fill="#1e9c65"/>
<path d="M114.292 83.4551H59.6539C59.0899 83.4544 58.5493 83.2463 58.1507 82.8765C57.7522 82.5068 57.5283 82.0056 57.5283 81.4831C57.5283 80.9605 57.7522 80.4594 58.1507 80.0896C58.5493 79.7199 59.0899 79.5117 59.6539 79.511H114.292C117.038 79.4755 117.065 83.491 114.292 83.4551Z" fill="#1e9c65"/>
<path d="M127.508 93.6225H58.4527C58.1487 93.6225 57.8571 93.4072 57.6421 93.0241C57.4272 92.6409 57.3064 92.1213 57.3064 91.5794C57.3064 91.0376 57.4272 90.5179 57.6421 90.1348C57.8571 89.7516 58.1487 89.5364 58.4527 89.5364H127.508C128.986 89.4996 129.001 93.6596 127.508 93.6225Z" fill="#1e9c65"/>
<path fill-rule="evenodd" clip-rule="evenodd" d="M170 87.3225C170 94.3237 163.873 99.9994 156.316 99.9994C148.758 99.9994 142.631 94.3237 142.631 87.3225C142.631 80.3212 148.758 74.6455 156.316 74.6455C163.873 74.6455 170 80.3212 170 87.3225ZM153.767 93.7716C153.979 93.8695 154.212 93.9205 154.448 93.9205C154.462 93.9205 154.476 93.9203 154.491 93.92C154.734 93.9137 154.972 93.8534 155.185 93.7442C155.398 93.635 155.58 93.4801 155.715 93.2925L163.181 82.9171C163.293 82.763 163.37 82.5902 163.409 82.4084C163.448 82.2266 163.448 82.0395 163.409 81.8578C163.369 81.676 163.292 81.5032 163.181 81.3492C163.07 81.1952 162.927 81.063 162.76 80.9602C162.594 80.8574 162.407 80.786 162.211 80.7501C162.014 80.7142 161.813 80.7145 161.616 80.7509C161.42 80.7874 161.234 80.8593 161.068 80.9625C160.902 81.0658 160.759 81.1984 160.648 81.3527L154.375 90.0695L151.933 87.0529C151.813 86.9047 151.663 86.7799 151.491 86.6856C151.319 86.5912 151.128 86.5292 150.93 86.503C150.732 86.4768 150.531 86.487 150.337 86.5329C150.144 86.5789 149.962 86.6597 149.802 86.7708C149.642 86.8819 149.507 87.0211 149.405 87.1804C149.303 87.3398 149.236 87.5161 149.208 87.6994C149.18 87.8828 149.191 88.0694 149.24 88.2488C149.29 88.4282 149.377 88.5968 149.497 88.7449L153.231 93.3563C153.372 93.5315 153.556 93.6736 153.767 93.7716Z" fill="#1e9c65"/>
<path d="M36.6988 74.7549H2.04225C1.5008 74.7554 0.981708 74.955 0.598841 75.3096C0.215974 75.6643 0.000610966 76.1452 0 76.6468V96.6356C0.000610963 97.1372 0.215975 97.6181 0.598841 97.9728C0.981708 98.3275 1.5008 98.527 2.04225 98.5276H36.6988C37.2403 98.527 37.7594 98.3275 38.1423 97.9728C38.5251 97.6181 38.7405 97.1372 38.7411 96.6356V76.6468C38.7405 76.1452 38.5251 75.6643 38.1423 75.3096C37.7594 74.9549 37.2403 74.7554 36.6988 74.7549V74.7549ZM37.369 89.1131C37.3607 91.1481 36.4918 93.099 34.9487 94.5473C33.4056 95.9956 31.3112 96.826 29.1148 96.8602C25.5983 96.9026 31.0605 96.9192 26.8193 96.9192C17.1211 96.9192 7.00849 96.8333 3.23538 96.7777C2.73895 96.7682 2.2662 96.5793 1.91805 96.2513C1.5699 95.9233 1.37394 95.4823 1.37203 95.0223V76.6483C1.37222 76.4836 1.44283 76.3257 1.5684 76.209C1.69398 76.0924 1.86429 76.0266 2.0421 76.026H36.6974C36.8752 76.0262 37.0456 76.0916 37.1715 76.2079C37.2973 76.3243 37.3684 76.482 37.369 76.6467V89.1131Z" fill="#1e9c65"/>
<path d="M32.1272 87.5143H5.72251C5.48888 87.514 5.26105 87.4469 5.07012 87.3222C4.87919 87.1975 4.73447 87.0212 4.65571 86.8174L0.577687 76.2184C0.516823 76.0602 0.497855 75.8908 0.522355 75.7244C0.546856 75.558 0.614119 75.3995 0.718494 75.2621C0.822868 75.1248 0.961293 75.0127 1.12215 74.9353C1.28301 74.8578 1.46159 74.8172 1.64288 74.817L37.0558 74.7588H37.0574C37.2448 74.7588 37.4293 74.8019 37.5943 74.8842C37.7593 74.9665 37.8997 75.0855 38.0029 75.2304C38.106 75.3754 38.1688 75.5418 38.1854 75.7147C38.2021 75.8876 38.1722 76.0617 38.0984 76.2212L38.0366 76.1967L38.0984 76.2212L33.1681 86.8785C33.081 87.0673 32.9358 87.2282 32.7508 87.3413C32.5657 87.4543 32.3488 87.5145 32.1272 87.5143V87.5143Z" fill="#1e9c65"/>
<path d="M19.3505 90.1269C20.9087 90.1269 22.1719 88.9567 22.1719 87.5132C22.1719 86.0696 20.9087 84.8994 19.3505 84.8994C17.7922 84.8994 16.5291 86.0696 16.5291 87.5132C16.5291 88.9567 17.7922 90.1269 19.3505 90.1269Z" fill="#1e9c65"/>
</svg>
